%TF.GenerationSoftware,KiCad,Pcbnew,(5.1.8)-1*%
%TF.CreationDate,2021-01-15T16:44:41+01:00*%
%TF.ProjectId,Ka-band-Mixer,4b612d62-616e-4642-9d4d-697865722e6b,rev?*%
%TF.SameCoordinates,Original*%
%TF.FileFunction,Copper,L2,Inr*%
%TF.FilePolarity,Positive*%
%FSLAX46Y46*%
G04 Gerber Fmt 4.6, Leading zero omitted, Abs format (unit mm)*
G04 Created by KiCad (PCBNEW (5.1.8)-1) date 2021-01-15 16:44:41*
%MOMM*%
%LPD*%
G01*
G04 APERTURE LIST*
%TA.AperFunction,ComponentPad*%
%ADD10C,0.600000*%
%TD*%
%TA.AperFunction,ComponentPad*%
%ADD11C,2.200000*%
%TD*%
%TA.AperFunction,ComponentPad*%
%ADD12C,0.500000*%
%TD*%
%TA.AperFunction,ComponentPad*%
%ADD13C,3.000000*%
%TD*%
%TA.AperFunction,ComponentPad*%
%ADD14C,0.970000*%
%TD*%
%TA.AperFunction,ComponentPad*%
%ADD15C,0.800000*%
%TD*%
%TA.AperFunction,ComponentPad*%
%ADD16O,1.700000X1.700000*%
%TD*%
%TA.AperFunction,ComponentPad*%
%ADD17R,1.700000X1.700000*%
%TD*%
%TA.AperFunction,ViaPad*%
%ADD18C,3.000000*%
%TD*%
%TA.AperFunction,ViaPad*%
%ADD19C,0.800000*%
%TD*%
%TA.AperFunction,ViaPad*%
%ADD20C,0.600000*%
%TD*%
%TA.AperFunction,ViaPad*%
%ADD21C,0.500000*%
%TD*%
%TA.AperFunction,Conductor*%
%ADD22C,0.254000*%
%TD*%
%TA.AperFunction,Conductor*%
%ADD23C,0.100000*%
%TD*%
G04 APERTURE END LIST*
D10*
%TO.N,0*%
%TO.C,J4*%
X143010000Y-98745001D03*
X143010000Y-99215001D03*
X143480000Y-98745001D03*
X143480000Y-99215001D03*
X143950000Y-98745001D03*
X143950000Y-99215001D03*
X144420000Y-98745001D03*
X144420000Y-99215001D03*
X144890000Y-98745001D03*
X144890000Y-99215001D03*
X145360000Y-98745001D03*
X145360000Y-99215001D03*
X145830000Y-98275001D03*
X145830000Y-98745001D03*
X145830000Y-99215001D03*
X146300000Y-97805001D03*
X146300000Y-98275001D03*
X146300000Y-98745001D03*
X146300000Y-99215001D03*
X146770000Y-97335001D03*
X146770000Y-97805001D03*
X146770000Y-98275001D03*
X146770000Y-98745001D03*
X146770000Y-99215001D03*
X147240000Y-96865001D03*
X147240000Y-97335001D03*
X147240000Y-97805001D03*
X147240000Y-98275001D03*
X147240000Y-98745001D03*
X147240000Y-99215001D03*
X147710000Y-99215001D03*
X147710000Y-98745001D03*
X147710000Y-98275001D03*
X147710000Y-97805001D03*
X147710000Y-97335001D03*
X147710000Y-96865001D03*
X143010000Y-100710001D03*
X143010000Y-101180001D03*
X143480000Y-100710001D03*
X143480000Y-101180001D03*
X143950000Y-100710001D03*
X143950000Y-101180001D03*
X144420000Y-100710001D03*
X144420000Y-101180001D03*
X144890000Y-100710001D03*
X144890000Y-101180001D03*
X145360000Y-100710001D03*
X145360000Y-101180001D03*
X145830000Y-100710001D03*
X145830000Y-101180001D03*
X145830000Y-101650001D03*
X146300000Y-100710001D03*
X146300000Y-101180001D03*
X146300000Y-101650001D03*
X146300000Y-102120001D03*
X146770000Y-100710001D03*
X146770000Y-101180001D03*
X146770000Y-101650001D03*
X146770000Y-102120001D03*
X146770000Y-102590001D03*
X147240000Y-100710001D03*
X147240000Y-101180001D03*
X147240000Y-101650001D03*
X147240000Y-102120001D03*
X147240000Y-102590001D03*
X147240000Y-103060001D03*
X147710000Y-100710001D03*
X147710000Y-101180001D03*
X147710000Y-101650001D03*
X147710000Y-102120001D03*
X147710000Y-102590001D03*
X147710000Y-103060001D03*
X147710000Y-103530001D03*
X147710000Y-96395001D03*
D11*
X145530000Y-95205001D03*
X145530000Y-104720001D03*
%TD*%
D12*
%TO.N,0*%
%TO.C,U6*%
X134735000Y-101715000D03*
X133235000Y-101715000D03*
X132735000Y-101215000D03*
X133735000Y-101215000D03*
X134735000Y-101215000D03*
X135235000Y-100715000D03*
X134235000Y-100715000D03*
X133235000Y-100715000D03*
X132735000Y-100215000D03*
X133735000Y-100215000D03*
X134735000Y-100215000D03*
X134235000Y-99715000D03*
X133235000Y-99715000D03*
X134735000Y-99215000D03*
X135235000Y-99215000D03*
X133735000Y-99215000D03*
X132735000Y-99215000D03*
X132735000Y-98715000D03*
%TD*%
D13*
%TO.N,0*%
%TO.C,TP2*%
X116450000Y-113200000D03*
%TD*%
D14*
%TO.N,0*%
%TO.C,J5*%
X145108440Y-115870420D03*
X136348440Y-115870420D03*
%TD*%
D12*
%TO.N,0*%
%TO.C,U7*%
X141230000Y-99460000D03*
X141230000Y-100460000D03*
X140230000Y-100460000D03*
X140230000Y-99460000D03*
X141580000Y-99110000D03*
X141580000Y-100810000D03*
X139880000Y-100810000D03*
X139880000Y-99110000D03*
X141230000Y-99960000D03*
X140730000Y-100460000D03*
X140730000Y-99460000D03*
X140230000Y-99960000D03*
X140730000Y-99960000D03*
%TD*%
D15*
%TO.N,0*%
%TO.C,U1*%
X109585000Y-100195000D03*
X109585000Y-97695000D03*
X107085000Y-97695000D03*
X107085000Y-100195000D03*
X107085000Y-98945000D03*
X108335000Y-97695000D03*
X109585000Y-98945000D03*
X108335000Y-100195000D03*
X108335000Y-98945000D03*
%TD*%
D13*
%TO.N,+3V3*%
%TO.C,TP6*%
X109235000Y-88215000D03*
%TD*%
%TO.N,+5VD*%
%TO.C,TP5*%
X121574560Y-107199080D03*
%TD*%
%TO.N,+5VA*%
%TO.C,TP4*%
X140370000Y-89760000D03*
%TD*%
%TO.N,+9V*%
%TO.C,TP3*%
X110180120Y-116363400D03*
%TD*%
%TO.N,Net-(R2-Pad1)*%
%TO.C,TP1*%
X100736400Y-93935200D03*
%TD*%
D16*
%TO.N,Net-(J1-Pad5)*%
%TO.C,J1*%
X107065000Y-105930000D03*
%TO.N,Net-(J1-Pad4)*%
X104525000Y-105930000D03*
%TO.N,Net-(J1-Pad3)*%
X101985000Y-105930000D03*
%TO.N,Net-(J1-Pad2)*%
X99445000Y-105930000D03*
D17*
%TO.N,0*%
X96905000Y-105930000D03*
%TD*%
D16*
%TO.N,0*%
%TO.C,J2*%
X104500000Y-116995000D03*
D17*
%TO.N,+12V*%
X101960000Y-116995000D03*
%TD*%
D16*
%TO.N,0*%
%TO.C,J3*%
X104978200Y-85005600D03*
D17*
%TO.N,+6V*%
X102438200Y-85005600D03*
%TD*%
D18*
%TO.N,*%
X144130000Y-83940000D03*
X93250000Y-117850000D03*
D19*
%TO.N,+3V3*%
X115535000Y-102215000D03*
X107065000Y-90055000D03*
X103890000Y-98945000D03*
X105795000Y-108455000D03*
%TO.N,CPout*%
X133235000Y-95480001D03*
X124010000Y-102680001D03*
%TO.N,0*%
X113010000Y-92680001D03*
D20*
X142760000Y-101680001D03*
X140670000Y-97800000D03*
X141140000Y-97800000D03*
D19*
X145108440Y-119080000D03*
X136348440Y-119080000D03*
D20*
X138790000Y-100705001D03*
X138790000Y-99210000D03*
X130100000Y-98760000D03*
X129630000Y-98760000D03*
X129160000Y-98760000D03*
D21*
X136085000Y-103250000D03*
X135285000Y-104000000D03*
D20*
X136900000Y-99210000D03*
X136910000Y-100705001D03*
X137380000Y-100705001D03*
X136910000Y-101175001D03*
X137380000Y-101175001D03*
X137850000Y-101175001D03*
X137850000Y-100705001D03*
X137840000Y-99210000D03*
X137370000Y-99210000D03*
X137840000Y-98740000D03*
X137370000Y-98740000D03*
X136900000Y-98740000D03*
X138320000Y-101175001D03*
X138320000Y-100705001D03*
X138310000Y-99210000D03*
X138310000Y-98740000D03*
X138790000Y-101175001D03*
X138790000Y-98740000D03*
X140000000Y-102450000D03*
X140000000Y-102920000D03*
X140000000Y-103390000D03*
X140000000Y-103860000D03*
X140000000Y-104330000D03*
X140000000Y-104800000D03*
X140000000Y-105270000D03*
X140000000Y-105740000D03*
X140000000Y-106210000D03*
X140000000Y-106680000D03*
X140000000Y-107620000D03*
X140000000Y-106680000D03*
X140000000Y-107150000D03*
X140000000Y-108090000D03*
X140000000Y-109030000D03*
X140000000Y-108560000D03*
X140000000Y-109500000D03*
X140000000Y-109970000D03*
X140000000Y-110440000D03*
X140000000Y-110910000D03*
X140000000Y-111380000D03*
X140000000Y-111850000D03*
X140000000Y-112320000D03*
X140000000Y-112790000D03*
X140000000Y-113260000D03*
X140000000Y-113730000D03*
X140000000Y-114200000D03*
X140000000Y-114670000D03*
X140000000Y-115610000D03*
X140000000Y-115140000D03*
X140000000Y-116080000D03*
X139530000Y-116080000D03*
X139530000Y-115610000D03*
X139530000Y-115140000D03*
X139530000Y-114670000D03*
X139530000Y-114200000D03*
X139530000Y-113260000D03*
X139530000Y-113730000D03*
X139530000Y-112790000D03*
X139530000Y-112320000D03*
X139530000Y-111850000D03*
X139530000Y-111380000D03*
X139530000Y-110910000D03*
X139530000Y-110440000D03*
X139530000Y-109500000D03*
X139530000Y-109970000D03*
X139530000Y-109030000D03*
X139530000Y-108560000D03*
X139530000Y-108090000D03*
X139530000Y-107620000D03*
X139530000Y-107150000D03*
X139530000Y-106680000D03*
X139530000Y-106210000D03*
X139530000Y-105740000D03*
X139530000Y-105270000D03*
X139530000Y-104800000D03*
X139530000Y-103860000D03*
X139530000Y-104330000D03*
X139530000Y-103390000D03*
X139530000Y-102920000D03*
X139530000Y-102450000D03*
X141460000Y-102450000D03*
X141930000Y-102450000D03*
X141460000Y-102920000D03*
X141460000Y-103390000D03*
X141460000Y-103860000D03*
X141460000Y-104330000D03*
X141460000Y-116080000D03*
X141930000Y-116080000D03*
X141460000Y-115610000D03*
X141460000Y-115140000D03*
X141460000Y-114670000D03*
X141460000Y-114200000D03*
X141460000Y-113730000D03*
X141460000Y-113260000D03*
X141460000Y-112790000D03*
X141460000Y-111850000D03*
X141460000Y-112320000D03*
X141460000Y-111380000D03*
X141460000Y-110440000D03*
X141460000Y-110910000D03*
X141460000Y-109970000D03*
X141460000Y-109500000D03*
X141460000Y-109030000D03*
X141460000Y-108560000D03*
X141460000Y-107620000D03*
X141460000Y-108090000D03*
X141460000Y-106680000D03*
X141460000Y-107150000D03*
X141460000Y-106210000D03*
X141460000Y-105740000D03*
X141460000Y-105270000D03*
X141460000Y-104800000D03*
X141930000Y-102920000D03*
X141930000Y-103390000D03*
X141930000Y-103860000D03*
X141930000Y-104330000D03*
X141930000Y-104800000D03*
X141930000Y-105270000D03*
X141930000Y-105740000D03*
X141930000Y-106210000D03*
X141930000Y-106680000D03*
X141930000Y-107150000D03*
X141930000Y-108090000D03*
X141930000Y-107620000D03*
X141930000Y-108560000D03*
X141930000Y-109030000D03*
X141930000Y-109500000D03*
X141930000Y-109970000D03*
X141930000Y-110440000D03*
X141930000Y-110910000D03*
X141930000Y-111380000D03*
X141930000Y-112320000D03*
X141930000Y-111850000D03*
X141930000Y-112790000D03*
X141930000Y-113260000D03*
X141930000Y-113730000D03*
X141930000Y-114200000D03*
X141930000Y-114670000D03*
X141930000Y-115140000D03*
X141930000Y-115610000D03*
D21*
X131885000Y-103250000D03*
X132635000Y-104000000D03*
D20*
X130570000Y-98760000D03*
X130570000Y-98290000D03*
X130100000Y-98290000D03*
X129630000Y-98290000D03*
X129160000Y-98290000D03*
X128690000Y-98290000D03*
X128690000Y-97820000D03*
X128220000Y-97820000D03*
X128220000Y-97350000D03*
X127750000Y-97350000D03*
X127280000Y-97350000D03*
X126810000Y-97350000D03*
X126340000Y-97350000D03*
X125870000Y-97350000D03*
X125870000Y-97350000D03*
X125400000Y-97350000D03*
X124930000Y-97350000D03*
X124930000Y-96880000D03*
X125400000Y-96880000D03*
X125870000Y-96880000D03*
X125870000Y-96880000D03*
X126340000Y-96880000D03*
X126810000Y-96880000D03*
X127280000Y-96880000D03*
X127750000Y-96880000D03*
X123520000Y-97350000D03*
X123520000Y-96880000D03*
X123050000Y-97350000D03*
X122580000Y-97350000D03*
X122110000Y-97350000D03*
X121640000Y-97350000D03*
X121640000Y-96880000D03*
X122110000Y-96880000D03*
X122580000Y-96880000D03*
X123050000Y-96880000D03*
X121170000Y-97350000D03*
X120700000Y-97350000D03*
X121170000Y-96880000D03*
X120700000Y-96880000D03*
X120230000Y-97350000D03*
X119760000Y-97350000D03*
X120230000Y-96880000D03*
X119760000Y-96880000D03*
X119290000Y-97350000D03*
X118820000Y-97350000D03*
X118350000Y-97350000D03*
X117880000Y-97350000D03*
X117410000Y-97350000D03*
X116940000Y-97350000D03*
X116470000Y-97350000D03*
X116000000Y-97350000D03*
X116000000Y-96880000D03*
X116470000Y-96880000D03*
X116940000Y-96880000D03*
X117410000Y-96880000D03*
X117880000Y-96880000D03*
X118350000Y-96880000D03*
X118820000Y-96880000D03*
X119290000Y-96880000D03*
X115530000Y-97350000D03*
X115060000Y-97350000D03*
X114590000Y-97350000D03*
X114120000Y-97350000D03*
X113650000Y-97350000D03*
X113180000Y-97350000D03*
X113180000Y-96880000D03*
X113650000Y-96880000D03*
X114120000Y-96880000D03*
X114590000Y-96880000D03*
X115060000Y-96880000D03*
X115530000Y-96880000D03*
X112240000Y-95940000D03*
X126810000Y-98960000D03*
X127280000Y-99430000D03*
X127750000Y-99900000D03*
X128220000Y-100370000D03*
X128690000Y-100370000D03*
X129160000Y-100370000D03*
X129630000Y-100370000D03*
X129630000Y-100840000D03*
X129160000Y-100840000D03*
X128690000Y-100840000D03*
X128220000Y-100840000D03*
X127750000Y-100370000D03*
X127280000Y-99900000D03*
X126810000Y-99430000D03*
X126340000Y-98960000D03*
X126340000Y-99430000D03*
X124930000Y-98960000D03*
X124930000Y-99430000D03*
X125400000Y-99430000D03*
X125400000Y-98960000D03*
X125870000Y-98960000D03*
X125870000Y-99430000D03*
X123520000Y-98960000D03*
X123050000Y-98960000D03*
X122580000Y-98960000D03*
X122110000Y-98960000D03*
X121640000Y-98960000D03*
X121170000Y-98960000D03*
X120700000Y-98960000D03*
X120230000Y-98960000D03*
X119760000Y-98960000D03*
X119290000Y-98960000D03*
X118820000Y-99060000D03*
X118350000Y-99060000D03*
X117880000Y-99060000D03*
X117410000Y-99060000D03*
X116940000Y-99060000D03*
X116470000Y-98960000D03*
X116000000Y-98960000D03*
X113180000Y-98960000D03*
X113650000Y-98960000D03*
X114120000Y-98960000D03*
X114590000Y-98960000D03*
X115060000Y-98960000D03*
X115530000Y-98960000D03*
X113180000Y-99430000D03*
X113650000Y-99430000D03*
X114120000Y-99430000D03*
X114590000Y-99430000D03*
X115060000Y-99430000D03*
X115530000Y-99430000D03*
X116000000Y-99430000D03*
X116470000Y-99430000D03*
X116940000Y-99530000D03*
X117410000Y-99530000D03*
X117880000Y-99530000D03*
X118350000Y-99530000D03*
X118820000Y-99530000D03*
X119290000Y-99430000D03*
X120230000Y-99430000D03*
X119760000Y-99430000D03*
X120700000Y-99430000D03*
X121170000Y-99430000D03*
X121640000Y-99430000D03*
X122110000Y-99430000D03*
X122580000Y-99430000D03*
X123050000Y-99430000D03*
X123520000Y-99430000D03*
D19*
X129735000Y-94215000D03*
X121159897Y-104357741D03*
X102235000Y-111215000D03*
X131102500Y-86347500D03*
X97235000Y-93215000D03*
X124735000Y-112715000D03*
D21*
X128485000Y-102965000D03*
X129485000Y-103965000D03*
X130485000Y-102965000D03*
X131772500Y-102177500D03*
X135665000Y-95105000D03*
X136645000Y-96025000D03*
X136685000Y-97045000D03*
D19*
X111565000Y-104635000D03*
X103275000Y-99985000D03*
X104565000Y-94375000D03*
X110690000Y-95975001D03*
D20*
X139060000Y-116550000D03*
X139060000Y-117020000D03*
X139060000Y-117490000D03*
X139060000Y-117960000D03*
X139060000Y-118430000D03*
X139060000Y-118900000D03*
X139060000Y-119370000D03*
X139060000Y-119840000D03*
X139060000Y-120310000D03*
X139060000Y-120780000D03*
X139060000Y-121250000D03*
X138590000Y-121250000D03*
X138590000Y-120780000D03*
X138590000Y-120310000D03*
X138590000Y-119840000D03*
X138590000Y-119370000D03*
X138590000Y-118900000D03*
X138590000Y-118430000D03*
X138590000Y-117960000D03*
X138590000Y-117490000D03*
X138590000Y-117020000D03*
X138590000Y-116550000D03*
X139060000Y-116080000D03*
X142400000Y-116080000D03*
X142400000Y-116550000D03*
X142870000Y-116550000D03*
X142400000Y-121250000D03*
X142400000Y-120780000D03*
X142400000Y-120310000D03*
X142400000Y-119840000D03*
X142400000Y-119370000D03*
X142400000Y-118900000D03*
X142400000Y-118430000D03*
X142400000Y-117960000D03*
X142400000Y-117490000D03*
X142400000Y-117020000D03*
X142870000Y-117020000D03*
X142870000Y-117490000D03*
X142870000Y-117960000D03*
X142870000Y-118430000D03*
X142870000Y-118900000D03*
X142870000Y-119370000D03*
X142870000Y-120310000D03*
X142870000Y-119840000D03*
X142870000Y-121250000D03*
X142870000Y-120780000D03*
X139260000Y-98270000D03*
X139730000Y-97800000D03*
X140200000Y-97800000D03*
X141610000Y-97800000D03*
X142080000Y-98270000D03*
X142520000Y-98740000D03*
X138790000Y-101675001D03*
X139040000Y-102175001D03*
X142510000Y-102180001D03*
D19*
X114560000Y-100230001D03*
D21*
X112287800Y-96516040D03*
X112623080Y-96907200D03*
X112602760Y-99538640D03*
D19*
%TO.N,+6V*%
X96393000Y-86999500D03*
X130720000Y-110145000D03*
%TD*%
D22*
%TO.N,0*%
X147753001Y-121473000D02*
X89627000Y-121473000D01*
X89627000Y-117670056D01*
X91423000Y-117670056D01*
X91423000Y-118029944D01*
X91493211Y-118382916D01*
X91630934Y-118715409D01*
X91830876Y-119014645D01*
X92085355Y-119269124D01*
X92384591Y-119469066D01*
X92717084Y-119606789D01*
X93070056Y-119677000D01*
X93429944Y-119677000D01*
X93782916Y-119606789D01*
X94115409Y-119469066D01*
X94414645Y-119269124D01*
X94669124Y-119014645D01*
X94869066Y-118715409D01*
X95006789Y-118382916D01*
X95077000Y-118029944D01*
X95077000Y-117670056D01*
X95006789Y-117317084D01*
X94869066Y-116984591D01*
X94669124Y-116685355D01*
X94414645Y-116430876D01*
X94115409Y-116230934D01*
X93907946Y-116145000D01*
X100781418Y-116145000D01*
X100781418Y-117845000D01*
X100787732Y-117909103D01*
X100806430Y-117970743D01*
X100836794Y-118027550D01*
X100877657Y-118077343D01*
X100927450Y-118118206D01*
X100984257Y-118148570D01*
X101045897Y-118167268D01*
X101110000Y-118173582D01*
X102810000Y-118173582D01*
X102874103Y-118167268D01*
X102935743Y-118148570D01*
X102992550Y-118118206D01*
X103042343Y-118077343D01*
X103083206Y-118027550D01*
X103113570Y-117970743D01*
X103132268Y-117909103D01*
X103138582Y-117845000D01*
X103138582Y-117577592D01*
X103155843Y-117626252D01*
X103304822Y-117876355D01*
X103499731Y-118092588D01*
X103733080Y-118266641D01*
X103995901Y-118391825D01*
X104143110Y-118436476D01*
X104373000Y-118315155D01*
X104373000Y-117122000D01*
X104627000Y-117122000D01*
X104627000Y-118315155D01*
X104856890Y-118436476D01*
X105004099Y-118391825D01*
X105266920Y-118266641D01*
X105500269Y-118092588D01*
X105695178Y-117876355D01*
X105844157Y-117626252D01*
X105941481Y-117351891D01*
X105820814Y-117122000D01*
X104627000Y-117122000D01*
X104373000Y-117122000D01*
X104353000Y-117122000D01*
X104353000Y-116868000D01*
X104373000Y-116868000D01*
X104373000Y-115674845D01*
X104627000Y-115674845D01*
X104627000Y-116868000D01*
X105820814Y-116868000D01*
X105941481Y-116638109D01*
X105844157Y-116363748D01*
X105736763Y-116183456D01*
X108353120Y-116183456D01*
X108353120Y-116543344D01*
X108423331Y-116896316D01*
X108561054Y-117228809D01*
X108760996Y-117528045D01*
X109015475Y-117782524D01*
X109314711Y-117982466D01*
X109647204Y-118120189D01*
X110000176Y-118190400D01*
X110360064Y-118190400D01*
X110713036Y-118120189D01*
X111045529Y-117982466D01*
X111344765Y-117782524D01*
X111599244Y-117528045D01*
X111799186Y-117228809D01*
X111936909Y-116896316D01*
X111988324Y-116637836D01*
X135760629Y-116637836D01*
X135793906Y-116849736D01*
X135995616Y-116939103D01*
X136210885Y-116987401D01*
X136431441Y-116992775D01*
X136648807Y-116955016D01*
X136854629Y-116875578D01*
X136902974Y-116849736D01*
X136936251Y-116637836D01*
X144520629Y-116637836D01*
X144553906Y-116849736D01*
X144755616Y-116939103D01*
X144970885Y-116987401D01*
X145191441Y-116992775D01*
X145408807Y-116955016D01*
X145614629Y-116875578D01*
X145662974Y-116849736D01*
X145696251Y-116637836D01*
X145108440Y-116050025D01*
X144520629Y-116637836D01*
X136936251Y-116637836D01*
X136348440Y-116050025D01*
X135760629Y-116637836D01*
X111988324Y-116637836D01*
X112007120Y-116543344D01*
X112007120Y-116183456D01*
X111961363Y-115953421D01*
X135226085Y-115953421D01*
X135263844Y-116170787D01*
X135343282Y-116376609D01*
X135369124Y-116424954D01*
X135581024Y-116458231D01*
X136168835Y-115870420D01*
X136528045Y-115870420D01*
X137115856Y-116458231D01*
X137327756Y-116424954D01*
X137417123Y-116223244D01*
X137465421Y-116007975D01*
X137466750Y-115953421D01*
X143986085Y-115953421D01*
X144023844Y-116170787D01*
X144103282Y-116376609D01*
X144129124Y-116424954D01*
X144341024Y-116458231D01*
X144928835Y-115870420D01*
X145288045Y-115870420D01*
X145875856Y-116458231D01*
X146087756Y-116424954D01*
X146177123Y-116223244D01*
X146225421Y-116007975D01*
X146230795Y-115787419D01*
X146193036Y-115570053D01*
X146113598Y-115364231D01*
X146087756Y-115315886D01*
X145875856Y-115282609D01*
X145288045Y-115870420D01*
X144928835Y-115870420D01*
X144341024Y-115282609D01*
X144129124Y-115315886D01*
X144039757Y-115517596D01*
X143991459Y-115732865D01*
X143986085Y-115953421D01*
X137466750Y-115953421D01*
X137470795Y-115787419D01*
X137433036Y-115570053D01*
X137353598Y-115364231D01*
X137327756Y-115315886D01*
X137115856Y-115282609D01*
X136528045Y-115870420D01*
X136168835Y-115870420D01*
X135581024Y-115282609D01*
X135369124Y-115315886D01*
X135279757Y-115517596D01*
X135231459Y-115732865D01*
X135226085Y-115953421D01*
X111961363Y-115953421D01*
X111936909Y-115830484D01*
X111799186Y-115497991D01*
X111599244Y-115198755D01*
X111344765Y-114944276D01*
X111045529Y-114744334D01*
X110918346Y-114691653D01*
X115137952Y-114691653D01*
X115293962Y-115007214D01*
X115668745Y-115198020D01*
X116073551Y-115312044D01*
X116492824Y-115344902D01*
X116910451Y-115295334D01*
X117310383Y-115165243D01*
X117426825Y-115103004D01*
X135760629Y-115103004D01*
X136348440Y-115690815D01*
X136936251Y-115103004D01*
X144520629Y-115103004D01*
X145108440Y-115690815D01*
X145696251Y-115103004D01*
X145662974Y-114891104D01*
X145461264Y-114801737D01*
X145245995Y-114753439D01*
X145025439Y-114748065D01*
X144808073Y-114785824D01*
X144602251Y-114865262D01*
X144553906Y-114891104D01*
X144520629Y-115103004D01*
X136936251Y-115103004D01*
X136902974Y-114891104D01*
X136701264Y-114801737D01*
X136485995Y-114753439D01*
X136265439Y-114748065D01*
X136048073Y-114785824D01*
X135842251Y-114865262D01*
X135793906Y-114891104D01*
X135760629Y-115103004D01*
X117426825Y-115103004D01*
X117606038Y-115007214D01*
X117762048Y-114691653D01*
X116450000Y-113379605D01*
X115137952Y-114691653D01*
X110918346Y-114691653D01*
X110713036Y-114606611D01*
X110360064Y-114536400D01*
X110000176Y-114536400D01*
X109647204Y-114606611D01*
X109314711Y-114744334D01*
X109015475Y-114944276D01*
X108760996Y-115198755D01*
X108561054Y-115497991D01*
X108423331Y-115830484D01*
X108353120Y-116183456D01*
X105736763Y-116183456D01*
X105695178Y-116113645D01*
X105500269Y-115897412D01*
X105266920Y-115723359D01*
X105004099Y-115598175D01*
X104856890Y-115553524D01*
X104627000Y-115674845D01*
X104373000Y-115674845D01*
X104143110Y-115553524D01*
X103995901Y-115598175D01*
X103733080Y-115723359D01*
X103499731Y-115897412D01*
X103304822Y-116113645D01*
X103155843Y-116363748D01*
X103138582Y-116412408D01*
X103138582Y-116145000D01*
X103132268Y-116080897D01*
X103113570Y-116019257D01*
X103083206Y-115962450D01*
X103042343Y-115912657D01*
X102992550Y-115871794D01*
X102935743Y-115841430D01*
X102874103Y-115822732D01*
X102810000Y-115816418D01*
X101110000Y-115816418D01*
X101045897Y-115822732D01*
X100984257Y-115841430D01*
X100927450Y-115871794D01*
X100877657Y-115912657D01*
X100836794Y-115962450D01*
X100806430Y-116019257D01*
X100787732Y-116080897D01*
X100781418Y-116145000D01*
X93907946Y-116145000D01*
X93782916Y-116093211D01*
X93429944Y-116023000D01*
X93070056Y-116023000D01*
X92717084Y-116093211D01*
X92384591Y-116230934D01*
X92085355Y-116430876D01*
X91830876Y-116685355D01*
X91630934Y-116984591D01*
X91493211Y-117317084D01*
X91423000Y-117670056D01*
X89627000Y-117670056D01*
X89627000Y-113242824D01*
X114305098Y-113242824D01*
X114354666Y-113660451D01*
X114484757Y-114060383D01*
X114642786Y-114356038D01*
X114958347Y-114512048D01*
X116270395Y-113200000D01*
X116629605Y-113200000D01*
X117941653Y-114512048D01*
X118257214Y-114356038D01*
X118448020Y-113981255D01*
X118562044Y-113576449D01*
X118594902Y-113157176D01*
X118545334Y-112739549D01*
X118415243Y-112339617D01*
X118257214Y-112043962D01*
X117941653Y-111887952D01*
X116629605Y-113200000D01*
X116270395Y-113200000D01*
X114958347Y-111887952D01*
X114642786Y-112043962D01*
X114451980Y-112418745D01*
X114337956Y-112823551D01*
X114305098Y-113242824D01*
X89627000Y-113242824D01*
X89627000Y-111708347D01*
X115137952Y-111708347D01*
X116450000Y-113020395D01*
X117762048Y-111708347D01*
X117606038Y-111392786D01*
X117231255Y-111201980D01*
X116826449Y-111087956D01*
X116407176Y-111055098D01*
X115989549Y-111104666D01*
X115589617Y-111234757D01*
X115293962Y-111392786D01*
X115137952Y-111708347D01*
X89627000Y-111708347D01*
X89627000Y-110073397D01*
X129993000Y-110073397D01*
X129993000Y-110216603D01*
X130020938Y-110357058D01*
X130075741Y-110489364D01*
X130155302Y-110608436D01*
X130256564Y-110709698D01*
X130375636Y-110789259D01*
X130507942Y-110844062D01*
X130648397Y-110872000D01*
X130791603Y-110872000D01*
X130932058Y-110844062D01*
X131064364Y-110789259D01*
X131183436Y-110709698D01*
X131284698Y-110608436D01*
X131364259Y-110489364D01*
X131419062Y-110357058D01*
X131447000Y-110216603D01*
X131447000Y-110073397D01*
X131419062Y-109932942D01*
X131364259Y-109800636D01*
X131284698Y-109681564D01*
X131183436Y-109580302D01*
X131064364Y-109500741D01*
X130932058Y-109445938D01*
X130791603Y-109418000D01*
X130648397Y-109418000D01*
X130507942Y-109445938D01*
X130375636Y-109500741D01*
X130256564Y-109580302D01*
X130155302Y-109681564D01*
X130075741Y-109800636D01*
X130020938Y-109932942D01*
X129993000Y-110073397D01*
X89627000Y-110073397D01*
X89627000Y-108383397D01*
X105068000Y-108383397D01*
X105068000Y-108526603D01*
X105095938Y-108667058D01*
X105150741Y-108799364D01*
X105230302Y-108918436D01*
X105331564Y-109019698D01*
X105450636Y-109099259D01*
X105582942Y-109154062D01*
X105723397Y-109182000D01*
X105866603Y-109182000D01*
X106007058Y-109154062D01*
X106139364Y-109099259D01*
X106258436Y-109019698D01*
X106359698Y-108918436D01*
X106439259Y-108799364D01*
X106494062Y-108667058D01*
X106522000Y-108526603D01*
X106522000Y-108383397D01*
X106494062Y-108242942D01*
X106439259Y-108110636D01*
X106359698Y-107991564D01*
X106258436Y-107890302D01*
X106139364Y-107810741D01*
X106007058Y-107755938D01*
X105866603Y-107728000D01*
X105723397Y-107728000D01*
X105582942Y-107755938D01*
X105450636Y-107810741D01*
X105331564Y-107890302D01*
X105230302Y-107991564D01*
X105150741Y-108110636D01*
X105095938Y-108242942D01*
X105068000Y-108383397D01*
X89627000Y-108383397D01*
X89627000Y-106780000D01*
X95416928Y-106780000D01*
X95429188Y-106904482D01*
X95465498Y-107024180D01*
X95524463Y-107134494D01*
X95603815Y-107231185D01*
X95700506Y-107310537D01*
X95810820Y-107369502D01*
X95930518Y-107405812D01*
X96055000Y-107418072D01*
X96619250Y-107415000D01*
X96778000Y-107256250D01*
X96778000Y-106057000D01*
X95578750Y-106057000D01*
X95420000Y-106215750D01*
X95416928Y-106780000D01*
X89627000Y-106780000D01*
X89627000Y-105080000D01*
X95416928Y-105080000D01*
X95420000Y-105644250D01*
X95578750Y-105803000D01*
X96778000Y-105803000D01*
X96778000Y-104603750D01*
X97032000Y-104603750D01*
X97032000Y-105803000D01*
X97052000Y-105803000D01*
X97052000Y-106057000D01*
X97032000Y-106057000D01*
X97032000Y-107256250D01*
X97190750Y-107415000D01*
X97755000Y-107418072D01*
X97879482Y-107405812D01*
X97999180Y-107369502D01*
X98109494Y-107310537D01*
X98206185Y-107231185D01*
X98285537Y-107134494D01*
X98344502Y-107024180D01*
X98380812Y-106904482D01*
X98393072Y-106780000D01*
X98391340Y-106461890D01*
X98401956Y-106487519D01*
X98530764Y-106680294D01*
X98694706Y-106844236D01*
X98887481Y-106973044D01*
X99101682Y-107061769D01*
X99329076Y-107107000D01*
X99560924Y-107107000D01*
X99788318Y-107061769D01*
X100002519Y-106973044D01*
X100195294Y-106844236D01*
X100359236Y-106680294D01*
X100488044Y-106487519D01*
X100576769Y-106273318D01*
X100622000Y-106045924D01*
X100622000Y-105814076D01*
X100808000Y-105814076D01*
X100808000Y-106045924D01*
X100853231Y-106273318D01*
X100941956Y-106487519D01*
X101070764Y-106680294D01*
X101234706Y-106844236D01*
X101427481Y-106973044D01*
X101641682Y-107061769D01*
X101869076Y-107107000D01*
X102100924Y-107107000D01*
X102328318Y-107061769D01*
X102542519Y-106973044D01*
X102735294Y-106844236D01*
X102899236Y-106680294D01*
X103028044Y-106487519D01*
X103116769Y-106273318D01*
X103162000Y-106045924D01*
X103162000Y-105814076D01*
X103348000Y-105814076D01*
X103348000Y-106045924D01*
X103393231Y-106273318D01*
X103481956Y-106487519D01*
X103610764Y-106680294D01*
X103774706Y-106844236D01*
X103967481Y-106973044D01*
X104181682Y-107061769D01*
X104409076Y-107107000D01*
X104640924Y-107107000D01*
X104868318Y-107061769D01*
X105082519Y-106973044D01*
X105275294Y-106844236D01*
X105439236Y-106680294D01*
X105568044Y-106487519D01*
X105656769Y-106273318D01*
X105702000Y-106045924D01*
X105702000Y-105814076D01*
X105888000Y-105814076D01*
X105888000Y-106045924D01*
X105933231Y-106273318D01*
X106021956Y-106487519D01*
X106150764Y-106680294D01*
X106314706Y-106844236D01*
X106507481Y-106973044D01*
X106721682Y-107061769D01*
X106949076Y-107107000D01*
X107180924Y-107107000D01*
X107408318Y-107061769D01*
X107511243Y-107019136D01*
X119747560Y-107019136D01*
X119747560Y-107379024D01*
X119817771Y-107731996D01*
X119955494Y-108064489D01*
X120155436Y-108363725D01*
X120409915Y-108618204D01*
X120709151Y-108818146D01*
X121041644Y-108955869D01*
X121394616Y-109026080D01*
X121754504Y-109026080D01*
X122107476Y-108955869D01*
X122439969Y-108818146D01*
X122739205Y-108618204D01*
X122993684Y-108363725D01*
X123193626Y-108064489D01*
X123331349Y-107731996D01*
X123401560Y-107379024D01*
X123401560Y-107019136D01*
X123331349Y-106666164D01*
X123193626Y-106333671D01*
X122993684Y-106034435D01*
X122739205Y-105779956D01*
X122439969Y-105580014D01*
X122107476Y-105442291D01*
X121754504Y-105372080D01*
X121394616Y-105372080D01*
X121041644Y-105442291D01*
X120709151Y-105580014D01*
X120409915Y-105779956D01*
X120155436Y-106034435D01*
X119955494Y-106333671D01*
X119817771Y-106666164D01*
X119747560Y-107019136D01*
X107511243Y-107019136D01*
X107622519Y-106973044D01*
X107815294Y-106844236D01*
X107979236Y-106680294D01*
X108108044Y-106487519D01*
X108196769Y-106273318D01*
X108242000Y-106045924D01*
X108242000Y-105814076D01*
X108196769Y-105586682D01*
X108108044Y-105372481D01*
X107979236Y-105179706D01*
X107815294Y-105015764D01*
X107622519Y-104886956D01*
X107408318Y-104798231D01*
X107180924Y-104753000D01*
X106949076Y-104753000D01*
X106721682Y-104798231D01*
X106507481Y-104886956D01*
X106314706Y-105015764D01*
X106150764Y-105179706D01*
X106021956Y-105372481D01*
X105933231Y-105586682D01*
X105888000Y-105814076D01*
X105702000Y-105814076D01*
X105656769Y-105586682D01*
X105568044Y-105372481D01*
X105439236Y-105179706D01*
X105275294Y-105015764D01*
X105082519Y-104886956D01*
X104868318Y-104798231D01*
X104640924Y-104753000D01*
X104409076Y-104753000D01*
X104181682Y-104798231D01*
X103967481Y-104886956D01*
X103774706Y-105015764D01*
X103610764Y-105179706D01*
X103481956Y-105372481D01*
X103393231Y-105586682D01*
X103348000Y-105814076D01*
X103162000Y-105814076D01*
X103116769Y-105586682D01*
X103028044Y-105372481D01*
X102899236Y-105179706D01*
X102735294Y-105015764D01*
X102542519Y-104886956D01*
X102328318Y-104798231D01*
X102100924Y-104753000D01*
X101869076Y-104753000D01*
X101641682Y-104798231D01*
X101427481Y-104886956D01*
X101234706Y-105015764D01*
X101070764Y-105179706D01*
X100941956Y-105372481D01*
X100853231Y-105586682D01*
X100808000Y-105814076D01*
X100622000Y-105814076D01*
X100576769Y-105586682D01*
X100488044Y-105372481D01*
X100359236Y-105179706D01*
X100195294Y-105015764D01*
X100002519Y-104886956D01*
X99788318Y-104798231D01*
X99560924Y-104753000D01*
X99329076Y-104753000D01*
X99101682Y-104798231D01*
X98887481Y-104886956D01*
X98694706Y-105015764D01*
X98530764Y-105179706D01*
X98401956Y-105372481D01*
X98391340Y-105398110D01*
X98393072Y-105080000D01*
X98380812Y-104955518D01*
X98344502Y-104835820D01*
X98285537Y-104725506D01*
X98206185Y-104628815D01*
X98109494Y-104549463D01*
X97999180Y-104490498D01*
X97879482Y-104454188D01*
X97755000Y-104441928D01*
X97190750Y-104445000D01*
X97032000Y-104603750D01*
X96778000Y-104603750D01*
X96619250Y-104445000D01*
X96055000Y-104441928D01*
X95930518Y-104454188D01*
X95810820Y-104490498D01*
X95700506Y-104549463D01*
X95603815Y-104628815D01*
X95524463Y-104725506D01*
X95465498Y-104835820D01*
X95429188Y-104955518D01*
X95416928Y-105080000D01*
X89627000Y-105080000D01*
X89627000Y-102143397D01*
X114808000Y-102143397D01*
X114808000Y-102286603D01*
X114835938Y-102427058D01*
X114890741Y-102559364D01*
X114970302Y-102678436D01*
X115071564Y-102779698D01*
X115190636Y-102859259D01*
X115322942Y-102914062D01*
X115463397Y-102942000D01*
X115606603Y-102942000D01*
X115747058Y-102914062D01*
X115879364Y-102859259D01*
X115998436Y-102779698D01*
X116099698Y-102678436D01*
X116146495Y-102608398D01*
X123283000Y-102608398D01*
X123283000Y-102751604D01*
X123310938Y-102892059D01*
X123365741Y-103024365D01*
X123445302Y-103143437D01*
X123546564Y-103244699D01*
X123665636Y-103324260D01*
X123797942Y-103379063D01*
X123938397Y-103407001D01*
X124081603Y-103407001D01*
X124222058Y-103379063D01*
X124354364Y-103324260D01*
X124473436Y-103244699D01*
X124574698Y-103143437D01*
X124654259Y-103024365D01*
X124709062Y-102892059D01*
X124737000Y-102751604D01*
X124737000Y-102608398D01*
X124709062Y-102467943D01*
X124654259Y-102335637D01*
X124574698Y-102216565D01*
X124473436Y-102115303D01*
X124354364Y-102035742D01*
X124222058Y-101980939D01*
X124081603Y-101953001D01*
X123938397Y-101953001D01*
X123797942Y-101980939D01*
X123665636Y-102035742D01*
X123546564Y-102115303D01*
X123445302Y-102216565D01*
X123365741Y-102335637D01*
X123310938Y-102467943D01*
X123283000Y-102608398D01*
X116146495Y-102608398D01*
X116179259Y-102559364D01*
X116234062Y-102427058D01*
X116262000Y-102286603D01*
X116262000Y-102143397D01*
X116234062Y-102002942D01*
X116179259Y-101870636D01*
X116099698Y-101751564D01*
X115998436Y-101650302D01*
X115879364Y-101570741D01*
X115747058Y-101515938D01*
X115606603Y-101488000D01*
X115463397Y-101488000D01*
X115322942Y-101515938D01*
X115190636Y-101570741D01*
X115071564Y-101650302D01*
X114970302Y-101751564D01*
X114890741Y-101870636D01*
X114835938Y-102002942D01*
X114808000Y-102143397D01*
X89627000Y-102143397D01*
X89627000Y-98873397D01*
X103163000Y-98873397D01*
X103163000Y-99016603D01*
X103190938Y-99157058D01*
X103245741Y-99289364D01*
X103325302Y-99408436D01*
X103426564Y-99509698D01*
X103545636Y-99589259D01*
X103677942Y-99644062D01*
X103818397Y-99672000D01*
X103961603Y-99672000D01*
X104102058Y-99644062D01*
X104234364Y-99589259D01*
X104353436Y-99509698D01*
X104454698Y-99408436D01*
X104534259Y-99289364D01*
X104589062Y-99157058D01*
X104617000Y-99016603D01*
X104617000Y-98873397D01*
X104589062Y-98732942D01*
X104534259Y-98600636D01*
X104454698Y-98481564D01*
X104353436Y-98380302D01*
X104234364Y-98300741D01*
X104102058Y-98245938D01*
X103961603Y-98218000D01*
X103818397Y-98218000D01*
X103677942Y-98245938D01*
X103545636Y-98300741D01*
X103426564Y-98380302D01*
X103325302Y-98481564D01*
X103245741Y-98600636D01*
X103190938Y-98732942D01*
X103163000Y-98873397D01*
X89627000Y-98873397D01*
X89627000Y-93755256D01*
X98909400Y-93755256D01*
X98909400Y-94115144D01*
X98979611Y-94468116D01*
X99117334Y-94800609D01*
X99317276Y-95099845D01*
X99571755Y-95354324D01*
X99870991Y-95554266D01*
X100203484Y-95691989D01*
X100556456Y-95762200D01*
X100916344Y-95762200D01*
X101269316Y-95691989D01*
X101601809Y-95554266D01*
X101820117Y-95408398D01*
X132508000Y-95408398D01*
X132508000Y-95551604D01*
X132535938Y-95692059D01*
X132590741Y-95824365D01*
X132670302Y-95943437D01*
X132771564Y-96044699D01*
X132890636Y-96124260D01*
X133022942Y-96179063D01*
X133163397Y-96207001D01*
X133306603Y-96207001D01*
X133447058Y-96179063D01*
X133579364Y-96124260D01*
X133698436Y-96044699D01*
X133799698Y-95943437D01*
X133879259Y-95824365D01*
X133934062Y-95692059D01*
X133962000Y-95551604D01*
X133962000Y-95408398D01*
X133934062Y-95267943D01*
X133879259Y-95135637D01*
X133799698Y-95016565D01*
X133698436Y-94915303D01*
X133579364Y-94835742D01*
X133447058Y-94780939D01*
X133306603Y-94753001D01*
X133163397Y-94753001D01*
X133022942Y-94780939D01*
X132890636Y-94835742D01*
X132771564Y-94915303D01*
X132670302Y-95016565D01*
X132590741Y-95135637D01*
X132535938Y-95267943D01*
X132508000Y-95408398D01*
X101820117Y-95408398D01*
X101901045Y-95354324D01*
X102155524Y-95099845D01*
X102355466Y-94800609D01*
X102493189Y-94468116D01*
X102563400Y-94115144D01*
X102563400Y-93755256D01*
X102493189Y-93402284D01*
X102355466Y-93069791D01*
X102155524Y-92770555D01*
X101901045Y-92516076D01*
X101601809Y-92316134D01*
X101269316Y-92178411D01*
X100916344Y-92108200D01*
X100556456Y-92108200D01*
X100203484Y-92178411D01*
X99870991Y-92316134D01*
X99571755Y-92516076D01*
X99317276Y-92770555D01*
X99117334Y-93069791D01*
X98979611Y-93402284D01*
X98909400Y-93755256D01*
X89627000Y-93755256D01*
X89627000Y-89983397D01*
X106338000Y-89983397D01*
X106338000Y-90126603D01*
X106365938Y-90267058D01*
X106420741Y-90399364D01*
X106500302Y-90518436D01*
X106601564Y-90619698D01*
X106720636Y-90699259D01*
X106852942Y-90754062D01*
X106993397Y-90782000D01*
X107136603Y-90782000D01*
X107277058Y-90754062D01*
X107409364Y-90699259D01*
X107528436Y-90619698D01*
X107629698Y-90518436D01*
X107709259Y-90399364D01*
X107764062Y-90267058D01*
X107792000Y-90126603D01*
X107792000Y-89983397D01*
X107764062Y-89842942D01*
X107709259Y-89710636D01*
X107629698Y-89591564D01*
X107528436Y-89490302D01*
X107409364Y-89410741D01*
X107277058Y-89355938D01*
X107136603Y-89328000D01*
X106993397Y-89328000D01*
X106852942Y-89355938D01*
X106720636Y-89410741D01*
X106601564Y-89490302D01*
X106500302Y-89591564D01*
X106420741Y-89710636D01*
X106365938Y-89842942D01*
X106338000Y-89983397D01*
X89627000Y-89983397D01*
X89627000Y-88035056D01*
X107408000Y-88035056D01*
X107408000Y-88394944D01*
X107478211Y-88747916D01*
X107615934Y-89080409D01*
X107815876Y-89379645D01*
X108070355Y-89634124D01*
X108369591Y-89834066D01*
X108702084Y-89971789D01*
X109055056Y-90042000D01*
X109414944Y-90042000D01*
X109767916Y-89971789D01*
X110100409Y-89834066D01*
X110399645Y-89634124D01*
X110453713Y-89580056D01*
X138543000Y-89580056D01*
X138543000Y-89939944D01*
X138613211Y-90292916D01*
X138750934Y-90625409D01*
X138950876Y-90924645D01*
X139205355Y-91179124D01*
X139504591Y-91379066D01*
X139837084Y-91516789D01*
X140190056Y-91587000D01*
X140549944Y-91587000D01*
X140902916Y-91516789D01*
X141235409Y-91379066D01*
X141534645Y-91179124D01*
X141789124Y-90924645D01*
X141989066Y-90625409D01*
X142126789Y-90292916D01*
X142197000Y-89939944D01*
X142197000Y-89580056D01*
X142126789Y-89227084D01*
X141989066Y-88894591D01*
X141789124Y-88595355D01*
X141534645Y-88340876D01*
X141235409Y-88140934D01*
X140902916Y-88003211D01*
X140549944Y-87933000D01*
X140190056Y-87933000D01*
X139837084Y-88003211D01*
X139504591Y-88140934D01*
X139205355Y-88340876D01*
X138950876Y-88595355D01*
X138750934Y-88894591D01*
X138613211Y-89227084D01*
X138543000Y-89580056D01*
X110453713Y-89580056D01*
X110654124Y-89379645D01*
X110854066Y-89080409D01*
X110991789Y-88747916D01*
X111062000Y-88394944D01*
X111062000Y-88035056D01*
X110991789Y-87682084D01*
X110854066Y-87349591D01*
X110654124Y-87050355D01*
X110399645Y-86795876D01*
X110100409Y-86595934D01*
X109767916Y-86458211D01*
X109414944Y-86388000D01*
X109055056Y-86388000D01*
X108702084Y-86458211D01*
X108369591Y-86595934D01*
X108070355Y-86795876D01*
X107815876Y-87050355D01*
X107615934Y-87349591D01*
X107478211Y-87682084D01*
X107408000Y-88035056D01*
X89627000Y-88035056D01*
X89627000Y-86927897D01*
X95666000Y-86927897D01*
X95666000Y-87071103D01*
X95693938Y-87211558D01*
X95748741Y-87343864D01*
X95828302Y-87462936D01*
X95929564Y-87564198D01*
X96048636Y-87643759D01*
X96180942Y-87698562D01*
X96321397Y-87726500D01*
X96464603Y-87726500D01*
X96605058Y-87698562D01*
X96737364Y-87643759D01*
X96856436Y-87564198D01*
X96957698Y-87462936D01*
X97037259Y-87343864D01*
X97092062Y-87211558D01*
X97120000Y-87071103D01*
X97120000Y-86927897D01*
X97092062Y-86787442D01*
X97037259Y-86655136D01*
X96957698Y-86536064D01*
X96856436Y-86434802D01*
X96737364Y-86355241D01*
X96605058Y-86300438D01*
X96464603Y-86272500D01*
X96321397Y-86272500D01*
X96180942Y-86300438D01*
X96048636Y-86355241D01*
X95929564Y-86434802D01*
X95828302Y-86536064D01*
X95748741Y-86655136D01*
X95693938Y-86787442D01*
X95666000Y-86927897D01*
X89627000Y-86927897D01*
X89627000Y-84155600D01*
X101259618Y-84155600D01*
X101259618Y-85855600D01*
X101265932Y-85919703D01*
X101284630Y-85981343D01*
X101314994Y-86038150D01*
X101355857Y-86087943D01*
X101405650Y-86128806D01*
X101462457Y-86159170D01*
X101524097Y-86177868D01*
X101588200Y-86184182D01*
X103288200Y-86184182D01*
X103352303Y-86177868D01*
X103413943Y-86159170D01*
X103470750Y-86128806D01*
X103520543Y-86087943D01*
X103561406Y-86038150D01*
X103591770Y-85981343D01*
X103610468Y-85919703D01*
X103616782Y-85855600D01*
X103616782Y-85588192D01*
X103634043Y-85636852D01*
X103783022Y-85886955D01*
X103977931Y-86103188D01*
X104211280Y-86277241D01*
X104474101Y-86402425D01*
X104621310Y-86447076D01*
X104851200Y-86325755D01*
X104851200Y-85132600D01*
X105105200Y-85132600D01*
X105105200Y-86325755D01*
X105335090Y-86447076D01*
X105482299Y-86402425D01*
X105745120Y-86277241D01*
X105978469Y-86103188D01*
X106173378Y-85886955D01*
X106322357Y-85636852D01*
X106419681Y-85362491D01*
X106299014Y-85132600D01*
X105105200Y-85132600D01*
X104851200Y-85132600D01*
X104831200Y-85132600D01*
X104831200Y-84878600D01*
X104851200Y-84878600D01*
X104851200Y-83685445D01*
X105105200Y-83685445D01*
X105105200Y-84878600D01*
X106299014Y-84878600D01*
X106419681Y-84648709D01*
X106322357Y-84374348D01*
X106173378Y-84124245D01*
X105978469Y-83908012D01*
X105780108Y-83760056D01*
X142303000Y-83760056D01*
X142303000Y-84119944D01*
X142373211Y-84472916D01*
X142510934Y-84805409D01*
X142710876Y-85104645D01*
X142965355Y-85359124D01*
X143264591Y-85559066D01*
X143597084Y-85696789D01*
X143950056Y-85767000D01*
X144309944Y-85767000D01*
X144662916Y-85696789D01*
X144995409Y-85559066D01*
X145294645Y-85359124D01*
X145549124Y-85104645D01*
X145749066Y-84805409D01*
X145886789Y-84472916D01*
X145957000Y-84119944D01*
X145957000Y-83760056D01*
X145886789Y-83407084D01*
X145749066Y-83074591D01*
X145549124Y-82775355D01*
X145294645Y-82520876D01*
X144995409Y-82320934D01*
X144662916Y-82183211D01*
X144309944Y-82113000D01*
X143950056Y-82113000D01*
X143597084Y-82183211D01*
X143264591Y-82320934D01*
X142965355Y-82520876D01*
X142710876Y-82775355D01*
X142510934Y-83074591D01*
X142373211Y-83407084D01*
X142303000Y-83760056D01*
X105780108Y-83760056D01*
X105745120Y-83733959D01*
X105482299Y-83608775D01*
X105335090Y-83564124D01*
X105105200Y-83685445D01*
X104851200Y-83685445D01*
X104621310Y-83564124D01*
X104474101Y-83608775D01*
X104211280Y-83733959D01*
X103977931Y-83908012D01*
X103783022Y-84124245D01*
X103634043Y-84374348D01*
X103616782Y-84423008D01*
X103616782Y-84155600D01*
X103610468Y-84091497D01*
X103591770Y-84029857D01*
X103561406Y-83973050D01*
X103520543Y-83923257D01*
X103470750Y-83882394D01*
X103413943Y-83852030D01*
X103352303Y-83833332D01*
X103288200Y-83827018D01*
X101588200Y-83827018D01*
X101524097Y-83833332D01*
X101462457Y-83852030D01*
X101405650Y-83882394D01*
X101355857Y-83923257D01*
X101314994Y-83973050D01*
X101284630Y-84029857D01*
X101265932Y-84091497D01*
X101259618Y-84155600D01*
X89627000Y-84155600D01*
X89627000Y-80317000D01*
X147753000Y-80317000D01*
X147753001Y-121473000D01*
%TA.AperFunction,Conductor*%
D23*
G36*
X147753001Y-121473000D02*
G01*
X89627000Y-121473000D01*
X89627000Y-117670056D01*
X91423000Y-117670056D01*
X91423000Y-118029944D01*
X91493211Y-118382916D01*
X91630934Y-118715409D01*
X91830876Y-119014645D01*
X92085355Y-119269124D01*
X92384591Y-119469066D01*
X92717084Y-119606789D01*
X93070056Y-119677000D01*
X93429944Y-119677000D01*
X93782916Y-119606789D01*
X94115409Y-119469066D01*
X94414645Y-119269124D01*
X94669124Y-119014645D01*
X94869066Y-118715409D01*
X95006789Y-118382916D01*
X95077000Y-118029944D01*
X95077000Y-117670056D01*
X95006789Y-117317084D01*
X94869066Y-116984591D01*
X94669124Y-116685355D01*
X94414645Y-116430876D01*
X94115409Y-116230934D01*
X93907946Y-116145000D01*
X100781418Y-116145000D01*
X100781418Y-117845000D01*
X100787732Y-117909103D01*
X100806430Y-117970743D01*
X100836794Y-118027550D01*
X100877657Y-118077343D01*
X100927450Y-118118206D01*
X100984257Y-118148570D01*
X101045897Y-118167268D01*
X101110000Y-118173582D01*
X102810000Y-118173582D01*
X102874103Y-118167268D01*
X102935743Y-118148570D01*
X102992550Y-118118206D01*
X103042343Y-118077343D01*
X103083206Y-118027550D01*
X103113570Y-117970743D01*
X103132268Y-117909103D01*
X103138582Y-117845000D01*
X103138582Y-117577592D01*
X103155843Y-117626252D01*
X103304822Y-117876355D01*
X103499731Y-118092588D01*
X103733080Y-118266641D01*
X103995901Y-118391825D01*
X104143110Y-118436476D01*
X104373000Y-118315155D01*
X104373000Y-117122000D01*
X104627000Y-117122000D01*
X104627000Y-118315155D01*
X104856890Y-118436476D01*
X105004099Y-118391825D01*
X105266920Y-118266641D01*
X105500269Y-118092588D01*
X105695178Y-117876355D01*
X105844157Y-117626252D01*
X105941481Y-117351891D01*
X105820814Y-117122000D01*
X104627000Y-117122000D01*
X104373000Y-117122000D01*
X104353000Y-117122000D01*
X104353000Y-116868000D01*
X104373000Y-116868000D01*
X104373000Y-115674845D01*
X104627000Y-115674845D01*
X104627000Y-116868000D01*
X105820814Y-116868000D01*
X105941481Y-116638109D01*
X105844157Y-116363748D01*
X105736763Y-116183456D01*
X108353120Y-116183456D01*
X108353120Y-116543344D01*
X108423331Y-116896316D01*
X108561054Y-117228809D01*
X108760996Y-117528045D01*
X109015475Y-117782524D01*
X109314711Y-117982466D01*
X109647204Y-118120189D01*
X110000176Y-118190400D01*
X110360064Y-118190400D01*
X110713036Y-118120189D01*
X111045529Y-117982466D01*
X111344765Y-117782524D01*
X111599244Y-117528045D01*
X111799186Y-117228809D01*
X111936909Y-116896316D01*
X111988324Y-116637836D01*
X135760629Y-116637836D01*
X135793906Y-116849736D01*
X135995616Y-116939103D01*
X136210885Y-116987401D01*
X136431441Y-116992775D01*
X136648807Y-116955016D01*
X136854629Y-116875578D01*
X136902974Y-116849736D01*
X136936251Y-116637836D01*
X144520629Y-116637836D01*
X144553906Y-116849736D01*
X144755616Y-116939103D01*
X144970885Y-116987401D01*
X145191441Y-116992775D01*
X145408807Y-116955016D01*
X145614629Y-116875578D01*
X145662974Y-116849736D01*
X145696251Y-116637836D01*
X145108440Y-116050025D01*
X144520629Y-116637836D01*
X136936251Y-116637836D01*
X136348440Y-116050025D01*
X135760629Y-116637836D01*
X111988324Y-116637836D01*
X112007120Y-116543344D01*
X112007120Y-116183456D01*
X111961363Y-115953421D01*
X135226085Y-115953421D01*
X135263844Y-116170787D01*
X135343282Y-116376609D01*
X135369124Y-116424954D01*
X135581024Y-116458231D01*
X136168835Y-115870420D01*
X136528045Y-115870420D01*
X137115856Y-116458231D01*
X137327756Y-116424954D01*
X137417123Y-116223244D01*
X137465421Y-116007975D01*
X137466750Y-115953421D01*
X143986085Y-115953421D01*
X144023844Y-116170787D01*
X144103282Y-116376609D01*
X144129124Y-116424954D01*
X144341024Y-116458231D01*
X144928835Y-115870420D01*
X145288045Y-115870420D01*
X145875856Y-116458231D01*
X146087756Y-116424954D01*
X146177123Y-116223244D01*
X146225421Y-116007975D01*
X146230795Y-115787419D01*
X146193036Y-115570053D01*
X146113598Y-115364231D01*
X146087756Y-115315886D01*
X145875856Y-115282609D01*
X145288045Y-115870420D01*
X144928835Y-115870420D01*
X144341024Y-115282609D01*
X144129124Y-115315886D01*
X144039757Y-115517596D01*
X143991459Y-115732865D01*
X143986085Y-115953421D01*
X137466750Y-115953421D01*
X137470795Y-115787419D01*
X137433036Y-115570053D01*
X137353598Y-115364231D01*
X137327756Y-115315886D01*
X137115856Y-115282609D01*
X136528045Y-115870420D01*
X136168835Y-115870420D01*
X135581024Y-115282609D01*
X135369124Y-115315886D01*
X135279757Y-115517596D01*
X135231459Y-115732865D01*
X135226085Y-115953421D01*
X111961363Y-115953421D01*
X111936909Y-115830484D01*
X111799186Y-115497991D01*
X111599244Y-115198755D01*
X111344765Y-114944276D01*
X111045529Y-114744334D01*
X110918346Y-114691653D01*
X115137952Y-114691653D01*
X115293962Y-115007214D01*
X115668745Y-115198020D01*
X116073551Y-115312044D01*
X116492824Y-115344902D01*
X116910451Y-115295334D01*
X117310383Y-115165243D01*
X117426825Y-115103004D01*
X135760629Y-115103004D01*
X136348440Y-115690815D01*
X136936251Y-115103004D01*
X144520629Y-115103004D01*
X145108440Y-115690815D01*
X145696251Y-115103004D01*
X145662974Y-114891104D01*
X145461264Y-114801737D01*
X145245995Y-114753439D01*
X145025439Y-114748065D01*
X144808073Y-114785824D01*
X144602251Y-114865262D01*
X144553906Y-114891104D01*
X144520629Y-115103004D01*
X136936251Y-115103004D01*
X136902974Y-114891104D01*
X136701264Y-114801737D01*
X136485995Y-114753439D01*
X136265439Y-114748065D01*
X136048073Y-114785824D01*
X135842251Y-114865262D01*
X135793906Y-114891104D01*
X135760629Y-115103004D01*
X117426825Y-115103004D01*
X117606038Y-115007214D01*
X117762048Y-114691653D01*
X116450000Y-113379605D01*
X115137952Y-114691653D01*
X110918346Y-114691653D01*
X110713036Y-114606611D01*
X110360064Y-114536400D01*
X110000176Y-114536400D01*
X109647204Y-114606611D01*
X109314711Y-114744334D01*
X109015475Y-114944276D01*
X108760996Y-115198755D01*
X108561054Y-115497991D01*
X108423331Y-115830484D01*
X108353120Y-116183456D01*
X105736763Y-116183456D01*
X105695178Y-116113645D01*
X105500269Y-115897412D01*
X105266920Y-115723359D01*
X105004099Y-115598175D01*
X104856890Y-115553524D01*
X104627000Y-115674845D01*
X104373000Y-115674845D01*
X104143110Y-115553524D01*
X103995901Y-115598175D01*
X103733080Y-115723359D01*
X103499731Y-115897412D01*
X103304822Y-116113645D01*
X103155843Y-116363748D01*
X103138582Y-116412408D01*
X103138582Y-116145000D01*
X103132268Y-116080897D01*
X103113570Y-116019257D01*
X103083206Y-115962450D01*
X103042343Y-115912657D01*
X102992550Y-115871794D01*
X102935743Y-115841430D01*
X102874103Y-115822732D01*
X102810000Y-115816418D01*
X101110000Y-115816418D01*
X101045897Y-115822732D01*
X100984257Y-115841430D01*
X100927450Y-115871794D01*
X100877657Y-115912657D01*
X100836794Y-115962450D01*
X100806430Y-116019257D01*
X100787732Y-116080897D01*
X100781418Y-116145000D01*
X93907946Y-116145000D01*
X93782916Y-116093211D01*
X93429944Y-116023000D01*
X93070056Y-116023000D01*
X92717084Y-116093211D01*
X92384591Y-116230934D01*
X92085355Y-116430876D01*
X91830876Y-116685355D01*
X91630934Y-116984591D01*
X91493211Y-117317084D01*
X91423000Y-117670056D01*
X89627000Y-117670056D01*
X89627000Y-113242824D01*
X114305098Y-113242824D01*
X114354666Y-113660451D01*
X114484757Y-114060383D01*
X114642786Y-114356038D01*
X114958347Y-114512048D01*
X116270395Y-113200000D01*
X116629605Y-113200000D01*
X117941653Y-114512048D01*
X118257214Y-114356038D01*
X118448020Y-113981255D01*
X118562044Y-113576449D01*
X118594902Y-113157176D01*
X118545334Y-112739549D01*
X118415243Y-112339617D01*
X118257214Y-112043962D01*
X117941653Y-111887952D01*
X116629605Y-113200000D01*
X116270395Y-113200000D01*
X114958347Y-111887952D01*
X114642786Y-112043962D01*
X114451980Y-112418745D01*
X114337956Y-112823551D01*
X114305098Y-113242824D01*
X89627000Y-113242824D01*
X89627000Y-111708347D01*
X115137952Y-111708347D01*
X116450000Y-113020395D01*
X117762048Y-111708347D01*
X117606038Y-111392786D01*
X117231255Y-111201980D01*
X116826449Y-111087956D01*
X116407176Y-111055098D01*
X115989549Y-111104666D01*
X115589617Y-111234757D01*
X115293962Y-111392786D01*
X115137952Y-111708347D01*
X89627000Y-111708347D01*
X89627000Y-110073397D01*
X129993000Y-110073397D01*
X129993000Y-110216603D01*
X130020938Y-110357058D01*
X130075741Y-110489364D01*
X130155302Y-110608436D01*
X130256564Y-110709698D01*
X130375636Y-110789259D01*
X130507942Y-110844062D01*
X130648397Y-110872000D01*
X130791603Y-110872000D01*
X130932058Y-110844062D01*
X131064364Y-110789259D01*
X131183436Y-110709698D01*
X131284698Y-110608436D01*
X131364259Y-110489364D01*
X131419062Y-110357058D01*
X131447000Y-110216603D01*
X131447000Y-110073397D01*
X131419062Y-109932942D01*
X131364259Y-109800636D01*
X131284698Y-109681564D01*
X131183436Y-109580302D01*
X131064364Y-109500741D01*
X130932058Y-109445938D01*
X130791603Y-109418000D01*
X130648397Y-109418000D01*
X130507942Y-109445938D01*
X130375636Y-109500741D01*
X130256564Y-109580302D01*
X130155302Y-109681564D01*
X130075741Y-109800636D01*
X130020938Y-109932942D01*
X129993000Y-110073397D01*
X89627000Y-110073397D01*
X89627000Y-108383397D01*
X105068000Y-108383397D01*
X105068000Y-108526603D01*
X105095938Y-108667058D01*
X105150741Y-108799364D01*
X105230302Y-108918436D01*
X105331564Y-109019698D01*
X105450636Y-109099259D01*
X105582942Y-109154062D01*
X105723397Y-109182000D01*
X105866603Y-109182000D01*
X106007058Y-109154062D01*
X106139364Y-109099259D01*
X106258436Y-109019698D01*
X106359698Y-108918436D01*
X106439259Y-108799364D01*
X106494062Y-108667058D01*
X106522000Y-108526603D01*
X106522000Y-108383397D01*
X106494062Y-108242942D01*
X106439259Y-108110636D01*
X106359698Y-107991564D01*
X106258436Y-107890302D01*
X106139364Y-107810741D01*
X106007058Y-107755938D01*
X105866603Y-107728000D01*
X105723397Y-107728000D01*
X105582942Y-107755938D01*
X105450636Y-107810741D01*
X105331564Y-107890302D01*
X105230302Y-107991564D01*
X105150741Y-108110636D01*
X105095938Y-108242942D01*
X105068000Y-108383397D01*
X89627000Y-108383397D01*
X89627000Y-106780000D01*
X95416928Y-106780000D01*
X95429188Y-106904482D01*
X95465498Y-107024180D01*
X95524463Y-107134494D01*
X95603815Y-107231185D01*
X95700506Y-107310537D01*
X95810820Y-107369502D01*
X95930518Y-107405812D01*
X96055000Y-107418072D01*
X96619250Y-107415000D01*
X96778000Y-107256250D01*
X96778000Y-106057000D01*
X95578750Y-106057000D01*
X95420000Y-106215750D01*
X95416928Y-106780000D01*
X89627000Y-106780000D01*
X89627000Y-105080000D01*
X95416928Y-105080000D01*
X95420000Y-105644250D01*
X95578750Y-105803000D01*
X96778000Y-105803000D01*
X96778000Y-104603750D01*
X97032000Y-104603750D01*
X97032000Y-105803000D01*
X97052000Y-105803000D01*
X97052000Y-106057000D01*
X97032000Y-106057000D01*
X97032000Y-107256250D01*
X97190750Y-107415000D01*
X97755000Y-107418072D01*
X97879482Y-107405812D01*
X97999180Y-107369502D01*
X98109494Y-107310537D01*
X98206185Y-107231185D01*
X98285537Y-107134494D01*
X98344502Y-107024180D01*
X98380812Y-106904482D01*
X98393072Y-106780000D01*
X98391340Y-106461890D01*
X98401956Y-106487519D01*
X98530764Y-106680294D01*
X98694706Y-106844236D01*
X98887481Y-106973044D01*
X99101682Y-107061769D01*
X99329076Y-107107000D01*
X99560924Y-107107000D01*
X99788318Y-107061769D01*
X100002519Y-106973044D01*
X100195294Y-106844236D01*
X100359236Y-106680294D01*
X100488044Y-106487519D01*
X100576769Y-106273318D01*
X100622000Y-106045924D01*
X100622000Y-105814076D01*
X100808000Y-105814076D01*
X100808000Y-106045924D01*
X100853231Y-106273318D01*
X100941956Y-106487519D01*
X101070764Y-106680294D01*
X101234706Y-106844236D01*
X101427481Y-106973044D01*
X101641682Y-107061769D01*
X101869076Y-107107000D01*
X102100924Y-107107000D01*
X102328318Y-107061769D01*
X102542519Y-106973044D01*
X102735294Y-106844236D01*
X102899236Y-106680294D01*
X103028044Y-106487519D01*
X103116769Y-106273318D01*
X103162000Y-106045924D01*
X103162000Y-105814076D01*
X103348000Y-105814076D01*
X103348000Y-106045924D01*
X103393231Y-106273318D01*
X103481956Y-106487519D01*
X103610764Y-106680294D01*
X103774706Y-106844236D01*
X103967481Y-106973044D01*
X104181682Y-107061769D01*
X104409076Y-107107000D01*
X104640924Y-107107000D01*
X104868318Y-107061769D01*
X105082519Y-106973044D01*
X105275294Y-106844236D01*
X105439236Y-106680294D01*
X105568044Y-106487519D01*
X105656769Y-106273318D01*
X105702000Y-106045924D01*
X105702000Y-105814076D01*
X105888000Y-105814076D01*
X105888000Y-106045924D01*
X105933231Y-106273318D01*
X106021956Y-106487519D01*
X106150764Y-106680294D01*
X106314706Y-106844236D01*
X106507481Y-106973044D01*
X106721682Y-107061769D01*
X106949076Y-107107000D01*
X107180924Y-107107000D01*
X107408318Y-107061769D01*
X107511243Y-107019136D01*
X119747560Y-107019136D01*
X119747560Y-107379024D01*
X119817771Y-107731996D01*
X119955494Y-108064489D01*
X120155436Y-108363725D01*
X120409915Y-108618204D01*
X120709151Y-108818146D01*
X121041644Y-108955869D01*
X121394616Y-109026080D01*
X121754504Y-109026080D01*
X122107476Y-108955869D01*
X122439969Y-108818146D01*
X122739205Y-108618204D01*
X122993684Y-108363725D01*
X123193626Y-108064489D01*
X123331349Y-107731996D01*
X123401560Y-107379024D01*
X123401560Y-107019136D01*
X123331349Y-106666164D01*
X123193626Y-106333671D01*
X122993684Y-106034435D01*
X122739205Y-105779956D01*
X122439969Y-105580014D01*
X122107476Y-105442291D01*
X121754504Y-105372080D01*
X121394616Y-105372080D01*
X121041644Y-105442291D01*
X120709151Y-105580014D01*
X120409915Y-105779956D01*
X120155436Y-106034435D01*
X119955494Y-106333671D01*
X119817771Y-106666164D01*
X119747560Y-107019136D01*
X107511243Y-107019136D01*
X107622519Y-106973044D01*
X107815294Y-106844236D01*
X107979236Y-106680294D01*
X108108044Y-106487519D01*
X108196769Y-106273318D01*
X108242000Y-106045924D01*
X108242000Y-105814076D01*
X108196769Y-105586682D01*
X108108044Y-105372481D01*
X107979236Y-105179706D01*
X107815294Y-105015764D01*
X107622519Y-104886956D01*
X107408318Y-104798231D01*
X107180924Y-104753000D01*
X106949076Y-104753000D01*
X106721682Y-104798231D01*
X106507481Y-104886956D01*
X106314706Y-105015764D01*
X106150764Y-105179706D01*
X106021956Y-105372481D01*
X105933231Y-105586682D01*
X105888000Y-105814076D01*
X105702000Y-105814076D01*
X105656769Y-105586682D01*
X105568044Y-105372481D01*
X105439236Y-105179706D01*
X105275294Y-105015764D01*
X105082519Y-104886956D01*
X104868318Y-104798231D01*
X104640924Y-104753000D01*
X104409076Y-104753000D01*
X104181682Y-104798231D01*
X103967481Y-104886956D01*
X103774706Y-105015764D01*
X103610764Y-105179706D01*
X103481956Y-105372481D01*
X103393231Y-105586682D01*
X103348000Y-105814076D01*
X103162000Y-105814076D01*
X103116769Y-105586682D01*
X103028044Y-105372481D01*
X102899236Y-105179706D01*
X102735294Y-105015764D01*
X102542519Y-104886956D01*
X102328318Y-104798231D01*
X102100924Y-104753000D01*
X101869076Y-104753000D01*
X101641682Y-104798231D01*
X101427481Y-104886956D01*
X101234706Y-105015764D01*
X101070764Y-105179706D01*
X100941956Y-105372481D01*
X100853231Y-105586682D01*
X100808000Y-105814076D01*
X100622000Y-105814076D01*
X100576769Y-105586682D01*
X100488044Y-105372481D01*
X100359236Y-105179706D01*
X100195294Y-105015764D01*
X100002519Y-104886956D01*
X99788318Y-104798231D01*
X99560924Y-104753000D01*
X99329076Y-104753000D01*
X99101682Y-104798231D01*
X98887481Y-104886956D01*
X98694706Y-105015764D01*
X98530764Y-105179706D01*
X98401956Y-105372481D01*
X98391340Y-105398110D01*
X98393072Y-105080000D01*
X98380812Y-104955518D01*
X98344502Y-104835820D01*
X98285537Y-104725506D01*
X98206185Y-104628815D01*
X98109494Y-104549463D01*
X97999180Y-104490498D01*
X97879482Y-104454188D01*
X97755000Y-104441928D01*
X97190750Y-104445000D01*
X97032000Y-104603750D01*
X96778000Y-104603750D01*
X96619250Y-104445000D01*
X96055000Y-104441928D01*
X95930518Y-104454188D01*
X95810820Y-104490498D01*
X95700506Y-104549463D01*
X95603815Y-104628815D01*
X95524463Y-104725506D01*
X95465498Y-104835820D01*
X95429188Y-104955518D01*
X95416928Y-105080000D01*
X89627000Y-105080000D01*
X89627000Y-102143397D01*
X114808000Y-102143397D01*
X114808000Y-102286603D01*
X114835938Y-102427058D01*
X114890741Y-102559364D01*
X114970302Y-102678436D01*
X115071564Y-102779698D01*
X115190636Y-102859259D01*
X115322942Y-102914062D01*
X115463397Y-102942000D01*
X115606603Y-102942000D01*
X115747058Y-102914062D01*
X115879364Y-102859259D01*
X115998436Y-102779698D01*
X116099698Y-102678436D01*
X116146495Y-102608398D01*
X123283000Y-102608398D01*
X123283000Y-102751604D01*
X123310938Y-102892059D01*
X123365741Y-103024365D01*
X123445302Y-103143437D01*
X123546564Y-103244699D01*
X123665636Y-103324260D01*
X123797942Y-103379063D01*
X123938397Y-103407001D01*
X124081603Y-103407001D01*
X124222058Y-103379063D01*
X124354364Y-103324260D01*
X124473436Y-103244699D01*
X124574698Y-103143437D01*
X124654259Y-103024365D01*
X124709062Y-102892059D01*
X124737000Y-102751604D01*
X124737000Y-102608398D01*
X124709062Y-102467943D01*
X124654259Y-102335637D01*
X124574698Y-102216565D01*
X124473436Y-102115303D01*
X124354364Y-102035742D01*
X124222058Y-101980939D01*
X124081603Y-101953001D01*
X123938397Y-101953001D01*
X123797942Y-101980939D01*
X123665636Y-102035742D01*
X123546564Y-102115303D01*
X123445302Y-102216565D01*
X123365741Y-102335637D01*
X123310938Y-102467943D01*
X123283000Y-102608398D01*
X116146495Y-102608398D01*
X116179259Y-102559364D01*
X116234062Y-102427058D01*
X116262000Y-102286603D01*
X116262000Y-102143397D01*
X116234062Y-102002942D01*
X116179259Y-101870636D01*
X116099698Y-101751564D01*
X115998436Y-101650302D01*
X115879364Y-101570741D01*
X115747058Y-101515938D01*
X115606603Y-101488000D01*
X115463397Y-101488000D01*
X115322942Y-101515938D01*
X115190636Y-101570741D01*
X115071564Y-101650302D01*
X114970302Y-101751564D01*
X114890741Y-101870636D01*
X114835938Y-102002942D01*
X114808000Y-102143397D01*
X89627000Y-102143397D01*
X89627000Y-98873397D01*
X103163000Y-98873397D01*
X103163000Y-99016603D01*
X103190938Y-99157058D01*
X103245741Y-99289364D01*
X103325302Y-99408436D01*
X103426564Y-99509698D01*
X103545636Y-99589259D01*
X103677942Y-99644062D01*
X103818397Y-99672000D01*
X103961603Y-99672000D01*
X104102058Y-99644062D01*
X104234364Y-99589259D01*
X104353436Y-99509698D01*
X104454698Y-99408436D01*
X104534259Y-99289364D01*
X104589062Y-99157058D01*
X104617000Y-99016603D01*
X104617000Y-98873397D01*
X104589062Y-98732942D01*
X104534259Y-98600636D01*
X104454698Y-98481564D01*
X104353436Y-98380302D01*
X104234364Y-98300741D01*
X104102058Y-98245938D01*
X103961603Y-98218000D01*
X103818397Y-98218000D01*
X103677942Y-98245938D01*
X103545636Y-98300741D01*
X103426564Y-98380302D01*
X103325302Y-98481564D01*
X103245741Y-98600636D01*
X103190938Y-98732942D01*
X103163000Y-98873397D01*
X89627000Y-98873397D01*
X89627000Y-93755256D01*
X98909400Y-93755256D01*
X98909400Y-94115144D01*
X98979611Y-94468116D01*
X99117334Y-94800609D01*
X99317276Y-95099845D01*
X99571755Y-95354324D01*
X99870991Y-95554266D01*
X100203484Y-95691989D01*
X100556456Y-95762200D01*
X100916344Y-95762200D01*
X101269316Y-95691989D01*
X101601809Y-95554266D01*
X101820117Y-95408398D01*
X132508000Y-95408398D01*
X132508000Y-95551604D01*
X132535938Y-95692059D01*
X132590741Y-95824365D01*
X132670302Y-95943437D01*
X132771564Y-96044699D01*
X132890636Y-96124260D01*
X133022942Y-96179063D01*
X133163397Y-96207001D01*
X133306603Y-96207001D01*
X133447058Y-96179063D01*
X133579364Y-96124260D01*
X133698436Y-96044699D01*
X133799698Y-95943437D01*
X133879259Y-95824365D01*
X133934062Y-95692059D01*
X133962000Y-95551604D01*
X133962000Y-95408398D01*
X133934062Y-95267943D01*
X133879259Y-95135637D01*
X133799698Y-95016565D01*
X133698436Y-94915303D01*
X133579364Y-94835742D01*
X133447058Y-94780939D01*
X133306603Y-94753001D01*
X133163397Y-94753001D01*
X133022942Y-94780939D01*
X132890636Y-94835742D01*
X132771564Y-94915303D01*
X132670302Y-95016565D01*
X132590741Y-95135637D01*
X132535938Y-95267943D01*
X132508000Y-95408398D01*
X101820117Y-95408398D01*
X101901045Y-95354324D01*
X102155524Y-95099845D01*
X102355466Y-94800609D01*
X102493189Y-94468116D01*
X102563400Y-94115144D01*
X102563400Y-93755256D01*
X102493189Y-93402284D01*
X102355466Y-93069791D01*
X102155524Y-92770555D01*
X101901045Y-92516076D01*
X101601809Y-92316134D01*
X101269316Y-92178411D01*
X100916344Y-92108200D01*
X100556456Y-92108200D01*
X100203484Y-92178411D01*
X99870991Y-92316134D01*
X99571755Y-92516076D01*
X99317276Y-92770555D01*
X99117334Y-93069791D01*
X98979611Y-93402284D01*
X98909400Y-93755256D01*
X89627000Y-93755256D01*
X89627000Y-89983397D01*
X106338000Y-89983397D01*
X106338000Y-90126603D01*
X106365938Y-90267058D01*
X106420741Y-90399364D01*
X106500302Y-90518436D01*
X106601564Y-90619698D01*
X106720636Y-90699259D01*
X106852942Y-90754062D01*
X106993397Y-90782000D01*
X107136603Y-90782000D01*
X107277058Y-90754062D01*
X107409364Y-90699259D01*
X107528436Y-90619698D01*
X107629698Y-90518436D01*
X107709259Y-90399364D01*
X107764062Y-90267058D01*
X107792000Y-90126603D01*
X107792000Y-89983397D01*
X107764062Y-89842942D01*
X107709259Y-89710636D01*
X107629698Y-89591564D01*
X107528436Y-89490302D01*
X107409364Y-89410741D01*
X107277058Y-89355938D01*
X107136603Y-89328000D01*
X106993397Y-89328000D01*
X106852942Y-89355938D01*
X106720636Y-89410741D01*
X106601564Y-89490302D01*
X106500302Y-89591564D01*
X106420741Y-89710636D01*
X106365938Y-89842942D01*
X106338000Y-89983397D01*
X89627000Y-89983397D01*
X89627000Y-88035056D01*
X107408000Y-88035056D01*
X107408000Y-88394944D01*
X107478211Y-88747916D01*
X107615934Y-89080409D01*
X107815876Y-89379645D01*
X108070355Y-89634124D01*
X108369591Y-89834066D01*
X108702084Y-89971789D01*
X109055056Y-90042000D01*
X109414944Y-90042000D01*
X109767916Y-89971789D01*
X110100409Y-89834066D01*
X110399645Y-89634124D01*
X110453713Y-89580056D01*
X138543000Y-89580056D01*
X138543000Y-89939944D01*
X138613211Y-90292916D01*
X138750934Y-90625409D01*
X138950876Y-90924645D01*
X139205355Y-91179124D01*
X139504591Y-91379066D01*
X139837084Y-91516789D01*
X140190056Y-91587000D01*
X140549944Y-91587000D01*
X140902916Y-91516789D01*
X141235409Y-91379066D01*
X141534645Y-91179124D01*
X141789124Y-90924645D01*
X141989066Y-90625409D01*
X142126789Y-90292916D01*
X142197000Y-89939944D01*
X142197000Y-89580056D01*
X142126789Y-89227084D01*
X141989066Y-88894591D01*
X141789124Y-88595355D01*
X141534645Y-88340876D01*
X141235409Y-88140934D01*
X140902916Y-88003211D01*
X140549944Y-87933000D01*
X140190056Y-87933000D01*
X139837084Y-88003211D01*
X139504591Y-88140934D01*
X139205355Y-88340876D01*
X138950876Y-88595355D01*
X138750934Y-88894591D01*
X138613211Y-89227084D01*
X138543000Y-89580056D01*
X110453713Y-89580056D01*
X110654124Y-89379645D01*
X110854066Y-89080409D01*
X110991789Y-88747916D01*
X111062000Y-88394944D01*
X111062000Y-88035056D01*
X110991789Y-87682084D01*
X110854066Y-87349591D01*
X110654124Y-87050355D01*
X110399645Y-86795876D01*
X110100409Y-86595934D01*
X109767916Y-86458211D01*
X109414944Y-86388000D01*
X109055056Y-86388000D01*
X108702084Y-86458211D01*
X108369591Y-86595934D01*
X108070355Y-86795876D01*
X107815876Y-87050355D01*
X107615934Y-87349591D01*
X107478211Y-87682084D01*
X107408000Y-88035056D01*
X89627000Y-88035056D01*
X89627000Y-86927897D01*
X95666000Y-86927897D01*
X95666000Y-87071103D01*
X95693938Y-87211558D01*
X95748741Y-87343864D01*
X95828302Y-87462936D01*
X95929564Y-87564198D01*
X96048636Y-87643759D01*
X96180942Y-87698562D01*
X96321397Y-87726500D01*
X96464603Y-87726500D01*
X96605058Y-87698562D01*
X96737364Y-87643759D01*
X96856436Y-87564198D01*
X96957698Y-87462936D01*
X97037259Y-87343864D01*
X97092062Y-87211558D01*
X97120000Y-87071103D01*
X97120000Y-86927897D01*
X97092062Y-86787442D01*
X97037259Y-86655136D01*
X96957698Y-86536064D01*
X96856436Y-86434802D01*
X96737364Y-86355241D01*
X96605058Y-86300438D01*
X96464603Y-86272500D01*
X96321397Y-86272500D01*
X96180942Y-86300438D01*
X96048636Y-86355241D01*
X95929564Y-86434802D01*
X95828302Y-86536064D01*
X95748741Y-86655136D01*
X95693938Y-86787442D01*
X95666000Y-86927897D01*
X89627000Y-86927897D01*
X89627000Y-84155600D01*
X101259618Y-84155600D01*
X101259618Y-85855600D01*
X101265932Y-85919703D01*
X101284630Y-85981343D01*
X101314994Y-86038150D01*
X101355857Y-86087943D01*
X101405650Y-86128806D01*
X101462457Y-86159170D01*
X101524097Y-86177868D01*
X101588200Y-86184182D01*
X103288200Y-86184182D01*
X103352303Y-86177868D01*
X103413943Y-86159170D01*
X103470750Y-86128806D01*
X103520543Y-86087943D01*
X103561406Y-86038150D01*
X103591770Y-85981343D01*
X103610468Y-85919703D01*
X103616782Y-85855600D01*
X103616782Y-85588192D01*
X103634043Y-85636852D01*
X103783022Y-85886955D01*
X103977931Y-86103188D01*
X104211280Y-86277241D01*
X104474101Y-86402425D01*
X104621310Y-86447076D01*
X104851200Y-86325755D01*
X104851200Y-85132600D01*
X105105200Y-85132600D01*
X105105200Y-86325755D01*
X105335090Y-86447076D01*
X105482299Y-86402425D01*
X105745120Y-86277241D01*
X105978469Y-86103188D01*
X106173378Y-85886955D01*
X106322357Y-85636852D01*
X106419681Y-85362491D01*
X106299014Y-85132600D01*
X105105200Y-85132600D01*
X104851200Y-85132600D01*
X104831200Y-85132600D01*
X104831200Y-84878600D01*
X104851200Y-84878600D01*
X104851200Y-83685445D01*
X105105200Y-83685445D01*
X105105200Y-84878600D01*
X106299014Y-84878600D01*
X106419681Y-84648709D01*
X106322357Y-84374348D01*
X106173378Y-84124245D01*
X105978469Y-83908012D01*
X105780108Y-83760056D01*
X142303000Y-83760056D01*
X142303000Y-84119944D01*
X142373211Y-84472916D01*
X142510934Y-84805409D01*
X142710876Y-85104645D01*
X142965355Y-85359124D01*
X143264591Y-85559066D01*
X143597084Y-85696789D01*
X143950056Y-85767000D01*
X144309944Y-85767000D01*
X144662916Y-85696789D01*
X144995409Y-85559066D01*
X145294645Y-85359124D01*
X145549124Y-85104645D01*
X145749066Y-84805409D01*
X145886789Y-84472916D01*
X145957000Y-84119944D01*
X145957000Y-83760056D01*
X145886789Y-83407084D01*
X145749066Y-83074591D01*
X145549124Y-82775355D01*
X145294645Y-82520876D01*
X144995409Y-82320934D01*
X144662916Y-82183211D01*
X144309944Y-82113000D01*
X143950056Y-82113000D01*
X143597084Y-82183211D01*
X143264591Y-82320934D01*
X142965355Y-82520876D01*
X142710876Y-82775355D01*
X142510934Y-83074591D01*
X142373211Y-83407084D01*
X142303000Y-83760056D01*
X105780108Y-83760056D01*
X105745120Y-83733959D01*
X105482299Y-83608775D01*
X105335090Y-83564124D01*
X105105200Y-83685445D01*
X104851200Y-83685445D01*
X104621310Y-83564124D01*
X104474101Y-83608775D01*
X104211280Y-83733959D01*
X103977931Y-83908012D01*
X103783022Y-84124245D01*
X103634043Y-84374348D01*
X103616782Y-84423008D01*
X103616782Y-84155600D01*
X103610468Y-84091497D01*
X103591770Y-84029857D01*
X103561406Y-83973050D01*
X103520543Y-83923257D01*
X103470750Y-83882394D01*
X103413943Y-83852030D01*
X103352303Y-83833332D01*
X103288200Y-83827018D01*
X101588200Y-83827018D01*
X101524097Y-83833332D01*
X101462457Y-83852030D01*
X101405650Y-83882394D01*
X101355857Y-83923257D01*
X101314994Y-83973050D01*
X101284630Y-84029857D01*
X101265932Y-84091497D01*
X101259618Y-84155600D01*
X89627000Y-84155600D01*
X89627000Y-80317000D01*
X147753000Y-80317000D01*
X147753001Y-121473000D01*
G37*
%TD.AperFunction*%
%TD*%
M02*
