%TF.GenerationSoftware,KiCad,Pcbnew,(5.1.8)-1*%
%TF.CreationDate,2021-01-15T02:00:03+01:00*%
%TF.ProjectId,Ka-band-Mixer,4b612d62-616e-4642-9d4d-697865722e6b,rev?*%
%TF.SameCoordinates,Original*%
%TF.FileFunction,Copper,L3,Inr*%
%TF.FilePolarity,Positive*%
%FSLAX46Y46*%
G04 Gerber Fmt 4.6, Leading zero omitted, Abs format (unit mm)*
G04 Created by KiCad (PCBNEW (5.1.8)-1) date 2021-01-15 02:00:03*
%MOMM*%
%LPD*%
G01*
G04 APERTURE LIST*
%TA.AperFunction,ComponentPad*%
%ADD10C,0.600000*%
%TD*%
%TA.AperFunction,ComponentPad*%
%ADD11C,2.200000*%
%TD*%
%TA.AperFunction,ComponentPad*%
%ADD12C,0.500000*%
%TD*%
%TA.AperFunction,ComponentPad*%
%ADD13C,3.000000*%
%TD*%
%TA.AperFunction,ComponentPad*%
%ADD14C,0.970000*%
%TD*%
%TA.AperFunction,ComponentPad*%
%ADD15C,0.800000*%
%TD*%
%TA.AperFunction,ComponentPad*%
%ADD16O,1.700000X1.700000*%
%TD*%
%TA.AperFunction,ComponentPad*%
%ADD17R,1.700000X1.700000*%
%TD*%
%TA.AperFunction,ViaPad*%
%ADD18C,2.400000*%
%TD*%
%TA.AperFunction,ViaPad*%
%ADD19C,0.800000*%
%TD*%
%TA.AperFunction,ViaPad*%
%ADD20C,0.600000*%
%TD*%
%TA.AperFunction,ViaPad*%
%ADD21C,0.500000*%
%TD*%
%TA.AperFunction,Conductor*%
%ADD22C,1.000000*%
%TD*%
%TA.AperFunction,Conductor*%
%ADD23C,0.300000*%
%TD*%
%TA.AperFunction,Conductor*%
%ADD24C,0.900000*%
%TD*%
%TA.AperFunction,Conductor*%
%ADD25C,0.440000*%
%TD*%
%TA.AperFunction,Conductor*%
%ADD26C,0.254000*%
%TD*%
%TA.AperFunction,Conductor*%
%ADD27C,0.100000*%
%TD*%
G04 APERTURE END LIST*
D10*
%TO.N,0*%
%TO.C,J4*%
X143010000Y-98745001D03*
X143010000Y-99215001D03*
X143480000Y-98745001D03*
X143480000Y-99215001D03*
X143950000Y-98745001D03*
X143950000Y-99215001D03*
X144420000Y-98745001D03*
X144420000Y-99215001D03*
X144890000Y-98745001D03*
X144890000Y-99215001D03*
X145360000Y-98745001D03*
X145360000Y-99215001D03*
X145830000Y-98275001D03*
X145830000Y-98745001D03*
X145830000Y-99215001D03*
X146300000Y-97805001D03*
X146300000Y-98275001D03*
X146300000Y-98745001D03*
X146300000Y-99215001D03*
X146770000Y-97335001D03*
X146770000Y-97805001D03*
X146770000Y-98275001D03*
X146770000Y-98745001D03*
X146770000Y-99215001D03*
X147240000Y-96865001D03*
X147240000Y-97335001D03*
X147240000Y-97805001D03*
X147240000Y-98275001D03*
X147240000Y-98745001D03*
X147240000Y-99215001D03*
X147710000Y-99215001D03*
X147710000Y-98745001D03*
X147710000Y-98275001D03*
X147710000Y-97805001D03*
X147710000Y-97335001D03*
X147710000Y-96865001D03*
X143010000Y-100710001D03*
X143010000Y-101180001D03*
X143480000Y-100710001D03*
X143480000Y-101180001D03*
X143950000Y-100710001D03*
X143950000Y-101180001D03*
X144420000Y-100710001D03*
X144420000Y-101180001D03*
X144890000Y-100710001D03*
X144890000Y-101180001D03*
X145360000Y-100710001D03*
X145360000Y-101180001D03*
X145830000Y-100710001D03*
X145830000Y-101180001D03*
X145830000Y-101650001D03*
X146300000Y-100710001D03*
X146300000Y-101180001D03*
X146300000Y-101650001D03*
X146300000Y-102120001D03*
X146770000Y-100710001D03*
X146770000Y-101180001D03*
X146770000Y-101650001D03*
X146770000Y-102120001D03*
X146770000Y-102590001D03*
X147240000Y-100710001D03*
X147240000Y-101180001D03*
X147240000Y-101650001D03*
X147240000Y-102120001D03*
X147240000Y-102590001D03*
X147240000Y-103060001D03*
X147710000Y-100710001D03*
X147710000Y-101180001D03*
X147710000Y-101650001D03*
X147710000Y-102120001D03*
X147710000Y-102590001D03*
X147710000Y-103060001D03*
X147710000Y-103530001D03*
X147710000Y-96395001D03*
D11*
X145530000Y-95205001D03*
X145530000Y-104720001D03*
%TD*%
D12*
%TO.N,0*%
%TO.C,U6*%
X134735000Y-101715000D03*
X133235000Y-101715000D03*
X132735000Y-101215000D03*
X133735000Y-101215000D03*
X134735000Y-101215000D03*
X135235000Y-100715000D03*
X134235000Y-100715000D03*
X133235000Y-100715000D03*
X132735000Y-100215000D03*
X133735000Y-100215000D03*
X134735000Y-100215000D03*
X134235000Y-99715000D03*
X133235000Y-99715000D03*
X134735000Y-99215000D03*
X135235000Y-99215000D03*
X133735000Y-99215000D03*
X132735000Y-99215000D03*
X132735000Y-98715000D03*
%TD*%
D13*
%TO.N,0*%
%TO.C,TP2*%
X116450000Y-113200000D03*
%TD*%
D14*
%TO.N,0*%
%TO.C,J5*%
X145108440Y-115870420D03*
X136348440Y-115870420D03*
%TD*%
D12*
%TO.N,0*%
%TO.C,U7*%
X141230000Y-99460000D03*
X141230000Y-100460000D03*
X140230000Y-100460000D03*
X140230000Y-99460000D03*
X141580000Y-99110000D03*
X141580000Y-100810000D03*
X139880000Y-100810000D03*
X139880000Y-99110000D03*
X141230000Y-99960000D03*
X140730000Y-100460000D03*
X140730000Y-99460000D03*
X140230000Y-99960000D03*
X140730000Y-99960000D03*
%TD*%
D15*
%TO.N,0*%
%TO.C,U1*%
X109585000Y-100195000D03*
X109585000Y-97695000D03*
X107085000Y-97695000D03*
X107085000Y-100195000D03*
X107085000Y-98945000D03*
X108335000Y-97695000D03*
X109585000Y-98945000D03*
X108335000Y-100195000D03*
X108335000Y-98945000D03*
%TD*%
D13*
%TO.N,+3V3*%
%TO.C,TP6*%
X109235000Y-88215000D03*
%TD*%
%TO.N,+5VD*%
%TO.C,TP5*%
X121574560Y-107199080D03*
%TD*%
%TO.N,+5VA*%
%TO.C,TP4*%
X140370000Y-89760000D03*
%TD*%
%TO.N,+9V*%
%TO.C,TP3*%
X110180120Y-116363400D03*
%TD*%
%TO.N,Net-(R2-Pad1)*%
%TO.C,TP1*%
X100736400Y-93935200D03*
%TD*%
D16*
%TO.N,Net-(J1-Pad5)*%
%TO.C,J1*%
X107065000Y-105930000D03*
%TO.N,Net-(J1-Pad4)*%
X104525000Y-105930000D03*
%TO.N,Net-(J1-Pad3)*%
X101985000Y-105930000D03*
%TO.N,Net-(J1-Pad2)*%
X99445000Y-105930000D03*
D17*
%TO.N,0*%
X96905000Y-105930000D03*
%TD*%
D16*
%TO.N,0*%
%TO.C,J2*%
X104500000Y-116995000D03*
D17*
%TO.N,+12V*%
X101960000Y-116995000D03*
%TD*%
D16*
%TO.N,0*%
%TO.C,J3*%
X104978200Y-85005600D03*
D17*
%TO.N,+6V*%
X102438200Y-85005600D03*
%TD*%
D18*
%TO.N,*%
X144130000Y-83940000D03*
X93250000Y-117850000D03*
D19*
%TO.N,+3V3*%
X115535000Y-102215000D03*
X107065000Y-90055000D03*
X103890000Y-98945000D03*
X105795000Y-108455000D03*
%TO.N,CPout*%
X133235000Y-95480001D03*
X124010000Y-102680001D03*
%TO.N,0*%
X113010000Y-92680001D03*
D20*
X142760000Y-101680001D03*
X140670000Y-97800000D03*
X141140000Y-97800000D03*
D19*
X145108440Y-119080000D03*
X136348440Y-119080000D03*
D20*
X138790000Y-100705001D03*
X138790000Y-99210000D03*
X130100000Y-98760000D03*
X129630000Y-98760000D03*
X129160000Y-98760000D03*
D21*
X136085000Y-103250000D03*
X135285000Y-104000000D03*
D20*
X136900000Y-99210000D03*
X136910000Y-100705001D03*
X137380000Y-100705001D03*
X136910000Y-101175001D03*
X137380000Y-101175001D03*
X137850000Y-101175001D03*
X137850000Y-100705001D03*
X137840000Y-99210000D03*
X137370000Y-99210000D03*
X137840000Y-98740000D03*
X137370000Y-98740000D03*
X136900000Y-98740000D03*
X138320000Y-101175001D03*
X138320000Y-100705001D03*
X138310000Y-99210000D03*
X138310000Y-98740000D03*
X138790000Y-101175001D03*
X138790000Y-98740000D03*
X140000000Y-102450000D03*
X140000000Y-102920000D03*
X140000000Y-103390000D03*
X140000000Y-103860000D03*
X140000000Y-104330000D03*
X140000000Y-104800000D03*
X140000000Y-105270000D03*
X140000000Y-105740000D03*
X140000000Y-106210000D03*
X140000000Y-106680000D03*
X140000000Y-107620000D03*
X140000000Y-106680000D03*
X140000000Y-107150000D03*
X140000000Y-108090000D03*
X140000000Y-109030000D03*
X140000000Y-108560000D03*
X140000000Y-109500000D03*
X140000000Y-109970000D03*
X140000000Y-110440000D03*
X140000000Y-110910000D03*
X140000000Y-111380000D03*
X140000000Y-111850000D03*
X140000000Y-112320000D03*
X140000000Y-112790000D03*
X140000000Y-113260000D03*
X140000000Y-113730000D03*
X140000000Y-114200000D03*
X140000000Y-114670000D03*
X140000000Y-115610000D03*
X140000000Y-115140000D03*
X140000000Y-116080000D03*
X139530000Y-116080000D03*
X139530000Y-115610000D03*
X139530000Y-115140000D03*
X139530000Y-114670000D03*
X139530000Y-114200000D03*
X139530000Y-113260000D03*
X139530000Y-113730000D03*
X139530000Y-112790000D03*
X139530000Y-112320000D03*
X139530000Y-111850000D03*
X139530000Y-111380000D03*
X139530000Y-110910000D03*
X139530000Y-110440000D03*
X139530000Y-109500000D03*
X139530000Y-109970000D03*
X139530000Y-109030000D03*
X139530000Y-108560000D03*
X139530000Y-108090000D03*
X139530000Y-107620000D03*
X139530000Y-107150000D03*
X139530000Y-106680000D03*
X139530000Y-106210000D03*
X139530000Y-105740000D03*
X139530000Y-105270000D03*
X139530000Y-104800000D03*
X139530000Y-103860000D03*
X139530000Y-104330000D03*
X139530000Y-103390000D03*
X139530000Y-102920000D03*
X139530000Y-102450000D03*
X141460000Y-102450000D03*
X141930000Y-102450000D03*
X141460000Y-102920000D03*
X141460000Y-103390000D03*
X141460000Y-103860000D03*
X141460000Y-104330000D03*
X141460000Y-116080000D03*
X141930000Y-116080000D03*
X141460000Y-115610000D03*
X141460000Y-115140000D03*
X141460000Y-114670000D03*
X141460000Y-114200000D03*
X141460000Y-113730000D03*
X141460000Y-113260000D03*
X141460000Y-112790000D03*
X141460000Y-111850000D03*
X141460000Y-112320000D03*
X141460000Y-111380000D03*
X141460000Y-110440000D03*
X141460000Y-110910000D03*
X141460000Y-109970000D03*
X141460000Y-109500000D03*
X141460000Y-109030000D03*
X141460000Y-108560000D03*
X141460000Y-107620000D03*
X141460000Y-108090000D03*
X141460000Y-106680000D03*
X141460000Y-107150000D03*
X141460000Y-106210000D03*
X141460000Y-105740000D03*
X141460000Y-105270000D03*
X141460000Y-104800000D03*
X141930000Y-102920000D03*
X141930000Y-103390000D03*
X141930000Y-103860000D03*
X141930000Y-104330000D03*
X141930000Y-104800000D03*
X141930000Y-105270000D03*
X141930000Y-105740000D03*
X141930000Y-106210000D03*
X141930000Y-106680000D03*
X141930000Y-107150000D03*
X141930000Y-108090000D03*
X141930000Y-107620000D03*
X141930000Y-108560000D03*
X141930000Y-109030000D03*
X141930000Y-109500000D03*
X141930000Y-109970000D03*
X141930000Y-110440000D03*
X141930000Y-110910000D03*
X141930000Y-111380000D03*
X141930000Y-112320000D03*
X141930000Y-111850000D03*
X141930000Y-112790000D03*
X141930000Y-113260000D03*
X141930000Y-113730000D03*
X141930000Y-114200000D03*
X141930000Y-114670000D03*
X141930000Y-115140000D03*
X141930000Y-115610000D03*
D21*
X131885000Y-103250000D03*
X132635000Y-104000000D03*
D20*
X130570000Y-98760000D03*
X130570000Y-98290000D03*
X130100000Y-98290000D03*
X129630000Y-98290000D03*
X129160000Y-98290000D03*
X128690000Y-98290000D03*
X128690000Y-97820000D03*
X128220000Y-97820000D03*
X128220000Y-97350000D03*
X127750000Y-97350000D03*
X127280000Y-97350000D03*
X126810000Y-97350000D03*
X126340000Y-97350000D03*
X125870000Y-97350000D03*
X125870000Y-97350000D03*
X125400000Y-97350000D03*
X124930000Y-97350000D03*
X124930000Y-96880000D03*
X125400000Y-96880000D03*
X125870000Y-96880000D03*
X125870000Y-96880000D03*
X126340000Y-96880000D03*
X126810000Y-96880000D03*
X127280000Y-96880000D03*
X127750000Y-96880000D03*
X123520000Y-97350000D03*
X123520000Y-96880000D03*
X123050000Y-97350000D03*
X122580000Y-97350000D03*
X122110000Y-97350000D03*
X121640000Y-97350000D03*
X121640000Y-96880000D03*
X122110000Y-96880000D03*
X122580000Y-96880000D03*
X123050000Y-96880000D03*
X121170000Y-97350000D03*
X120700000Y-97350000D03*
X121170000Y-96880000D03*
X120700000Y-96880000D03*
X120230000Y-97350000D03*
X119760000Y-97350000D03*
X120230000Y-96880000D03*
X119760000Y-96880000D03*
X119290000Y-97350000D03*
X118820000Y-97350000D03*
X118350000Y-97350000D03*
X117880000Y-97350000D03*
X117410000Y-97350000D03*
X116940000Y-97350000D03*
X116470000Y-97350000D03*
X116000000Y-97350000D03*
X116000000Y-96880000D03*
X116470000Y-96880000D03*
X116940000Y-96880000D03*
X117410000Y-96880000D03*
X117880000Y-96880000D03*
X118350000Y-96880000D03*
X118820000Y-96880000D03*
X119290000Y-96880000D03*
X115530000Y-97350000D03*
X115060000Y-97350000D03*
X114590000Y-97350000D03*
X114120000Y-97350000D03*
X113650000Y-97350000D03*
X113180000Y-97350000D03*
X113180000Y-96880000D03*
X113650000Y-96880000D03*
X114120000Y-96880000D03*
X114590000Y-96880000D03*
X115060000Y-96880000D03*
X115530000Y-96880000D03*
X112240000Y-95940000D03*
X126810000Y-98960000D03*
X127280000Y-99430000D03*
X127750000Y-99900000D03*
X128220000Y-100370000D03*
X128690000Y-100370000D03*
X129160000Y-100370000D03*
X129630000Y-100370000D03*
X129630000Y-100840000D03*
X129160000Y-100840000D03*
X128690000Y-100840000D03*
X128220000Y-100840000D03*
X127750000Y-100370000D03*
X127280000Y-99900000D03*
X126810000Y-99430000D03*
X126340000Y-98960000D03*
X126340000Y-99430000D03*
X124930000Y-98960000D03*
X124930000Y-99430000D03*
X125400000Y-99430000D03*
X125400000Y-98960000D03*
X125870000Y-98960000D03*
X125870000Y-99430000D03*
X123520000Y-98960000D03*
X123050000Y-98960000D03*
X122580000Y-98960000D03*
X122110000Y-98960000D03*
X121640000Y-98960000D03*
X121170000Y-98960000D03*
X120700000Y-98960000D03*
X120230000Y-98960000D03*
X119760000Y-98960000D03*
X119290000Y-98960000D03*
X118820000Y-99060000D03*
X118350000Y-99060000D03*
X117880000Y-99060000D03*
X117410000Y-99060000D03*
X116940000Y-99060000D03*
X116470000Y-98960000D03*
X116000000Y-98960000D03*
X113180000Y-98960000D03*
X113650000Y-98960000D03*
X114120000Y-98960000D03*
X114590000Y-98960000D03*
X115060000Y-98960000D03*
X115530000Y-98960000D03*
X113180000Y-99430000D03*
X113650000Y-99430000D03*
X114120000Y-99430000D03*
X114590000Y-99430000D03*
X115060000Y-99430000D03*
X115530000Y-99430000D03*
X116000000Y-99430000D03*
X116470000Y-99430000D03*
X116940000Y-99530000D03*
X117410000Y-99530000D03*
X117880000Y-99530000D03*
X118350000Y-99530000D03*
X118820000Y-99530000D03*
X119290000Y-99430000D03*
X120230000Y-99430000D03*
X119760000Y-99430000D03*
X120700000Y-99430000D03*
X121170000Y-99430000D03*
X121640000Y-99430000D03*
X122110000Y-99430000D03*
X122580000Y-99430000D03*
X123050000Y-99430000D03*
X123520000Y-99430000D03*
D19*
X129735000Y-94215000D03*
X121159897Y-104357741D03*
X102235000Y-111215000D03*
X131102500Y-86347500D03*
X97235000Y-93215000D03*
X124735000Y-112715000D03*
D21*
X128485000Y-102965000D03*
X129485000Y-103965000D03*
X130485000Y-102965000D03*
X131772500Y-102177500D03*
X135665000Y-95105000D03*
X136645000Y-96025000D03*
X136685000Y-97045000D03*
D19*
X111565000Y-104635000D03*
X103275000Y-99985000D03*
X104565000Y-94375000D03*
X110690000Y-95975001D03*
D20*
X139060000Y-116550000D03*
X139060000Y-117020000D03*
X139060000Y-117490000D03*
X139060000Y-117960000D03*
X139060000Y-118430000D03*
X139060000Y-118900000D03*
X139060000Y-119370000D03*
X139060000Y-119840000D03*
X139060000Y-120310000D03*
X139060000Y-120780000D03*
X139060000Y-121250000D03*
X138590000Y-121250000D03*
X138590000Y-120780000D03*
X138590000Y-120310000D03*
X138590000Y-119840000D03*
X138590000Y-119370000D03*
X138590000Y-118900000D03*
X138590000Y-118430000D03*
X138590000Y-117960000D03*
X138590000Y-117490000D03*
X138590000Y-117020000D03*
X138590000Y-116550000D03*
X139060000Y-116080000D03*
X142400000Y-116080000D03*
X142400000Y-116550000D03*
X142870000Y-116550000D03*
X142400000Y-121250000D03*
X142400000Y-120780000D03*
X142400000Y-120310000D03*
X142400000Y-119840000D03*
X142400000Y-119370000D03*
X142400000Y-118900000D03*
X142400000Y-118430000D03*
X142400000Y-117960000D03*
X142400000Y-117490000D03*
X142400000Y-117020000D03*
X142870000Y-117020000D03*
X142870000Y-117490000D03*
X142870000Y-117960000D03*
X142870000Y-118430000D03*
X142870000Y-118900000D03*
X142870000Y-119370000D03*
X142870000Y-120310000D03*
X142870000Y-119840000D03*
X142870000Y-121250000D03*
X142870000Y-120780000D03*
X139260000Y-98270000D03*
X139730000Y-97800000D03*
X140200000Y-97800000D03*
X141610000Y-97800000D03*
X142080000Y-98270000D03*
X142520000Y-98740000D03*
X138790000Y-101675001D03*
X139040000Y-102175001D03*
X142510000Y-102180001D03*
D19*
X114560000Y-100230001D03*
D21*
X112287800Y-96516040D03*
X112623080Y-96907200D03*
X112602760Y-99538640D03*
D19*
%TO.N,+6V*%
X96393000Y-86999500D03*
X130720000Y-110145000D03*
%TD*%
D22*
%TO.N,+3V3*%
X107065000Y-90055000D02*
X107065000Y-95770000D01*
X107065000Y-95770000D02*
X103890000Y-98945000D01*
X103890000Y-98945000D02*
X103890000Y-98945000D01*
X103890000Y-98945000D02*
X103890000Y-98945000D01*
D23*
X108265001Y-103320001D02*
X103890000Y-98945000D01*
X108265001Y-106826684D02*
X108265001Y-103320001D01*
X106610685Y-108481000D02*
X108265001Y-106826684D01*
X106045000Y-108481000D02*
X106610685Y-108481000D01*
D22*
X107065000Y-90055000D02*
X107065000Y-94721002D01*
D24*
X107065000Y-90055000D02*
X107065000Y-93904003D01*
D25*
X107065000Y-93563603D02*
X107065000Y-90055000D01*
X110490000Y-96988603D02*
X107065000Y-93563603D01*
X110490000Y-97735685D02*
X110490000Y-96988603D01*
X115535000Y-102215000D02*
X114969315Y-102215000D01*
D22*
X107065000Y-93978003D02*
X109681996Y-96594999D01*
X107065000Y-90055000D02*
X107065000Y-93978003D01*
X110800000Y-98530002D02*
X110800000Y-97075002D01*
D24*
X110800000Y-98530002D02*
X110800000Y-101195360D01*
X111819640Y-102215000D02*
X115535000Y-102215000D01*
X110800000Y-101195360D02*
X111819640Y-102215000D01*
D23*
%TO.N,CPout*%
X125441997Y-95480001D02*
X133235000Y-95480001D01*
X125367997Y-95480001D02*
X125441997Y-95480001D01*
X124279999Y-96567999D02*
X125367997Y-95480001D01*
X124279999Y-102410002D02*
X124279999Y-96567999D01*
X124010000Y-102680001D02*
X124279999Y-102410002D01*
D22*
%TO.N,+6V*%
X96393000Y-86999500D02*
X96393000Y-86999500D01*
X130315000Y-109740000D02*
X130720000Y-110145000D01*
X96116600Y-109740000D02*
X130315000Y-109740000D01*
X94536000Y-108159400D02*
X96116600Y-109740000D01*
X94536000Y-88856500D02*
X94536000Y-108159400D01*
X96393000Y-86999500D02*
X94536000Y-88856500D01*
%TD*%
D26*
%TO.N,0*%
X147753001Y-121473000D02*
X89627000Y-121473000D01*
X89627000Y-117699604D01*
X91723000Y-117699604D01*
X91723000Y-118000396D01*
X91781681Y-118295410D01*
X91896790Y-118573306D01*
X92063901Y-118823406D01*
X92276594Y-119036099D01*
X92526694Y-119203210D01*
X92804590Y-119318319D01*
X93099604Y-119377000D01*
X93400396Y-119377000D01*
X93695410Y-119318319D01*
X93973306Y-119203210D01*
X94223406Y-119036099D01*
X94436099Y-118823406D01*
X94603210Y-118573306D01*
X94718319Y-118295410D01*
X94777000Y-118000396D01*
X94777000Y-117699604D01*
X94718319Y-117404590D01*
X94603210Y-117126694D01*
X94436099Y-116876594D01*
X94223406Y-116663901D01*
X93973306Y-116496790D01*
X93695410Y-116381681D01*
X93400396Y-116323000D01*
X93099604Y-116323000D01*
X92804590Y-116381681D01*
X92526694Y-116496790D01*
X92276594Y-116663901D01*
X92063901Y-116876594D01*
X91896790Y-117126694D01*
X91781681Y-117404590D01*
X91723000Y-117699604D01*
X89627000Y-117699604D01*
X89627000Y-116145000D01*
X100781418Y-116145000D01*
X100781418Y-117845000D01*
X100787732Y-117909103D01*
X100806430Y-117970743D01*
X100836794Y-118027550D01*
X100877657Y-118077343D01*
X100927450Y-118118206D01*
X100984257Y-118148570D01*
X101045897Y-118167268D01*
X101110000Y-118173582D01*
X102810000Y-118173582D01*
X102874103Y-118167268D01*
X102935743Y-118148570D01*
X102992550Y-118118206D01*
X103042343Y-118077343D01*
X103083206Y-118027550D01*
X103113570Y-117970743D01*
X103132268Y-117909103D01*
X103138582Y-117845000D01*
X103138582Y-117577592D01*
X103155843Y-117626252D01*
X103304822Y-117876355D01*
X103499731Y-118092588D01*
X103733080Y-118266641D01*
X103995901Y-118391825D01*
X104143110Y-118436476D01*
X104373000Y-118315155D01*
X104373000Y-117122000D01*
X104627000Y-117122000D01*
X104627000Y-118315155D01*
X104856890Y-118436476D01*
X105004099Y-118391825D01*
X105266920Y-118266641D01*
X105500269Y-118092588D01*
X105695178Y-117876355D01*
X105844157Y-117626252D01*
X105941481Y-117351891D01*
X105820814Y-117122000D01*
X104627000Y-117122000D01*
X104373000Y-117122000D01*
X104353000Y-117122000D01*
X104353000Y-116868000D01*
X104373000Y-116868000D01*
X104373000Y-115674845D01*
X104627000Y-115674845D01*
X104627000Y-116868000D01*
X105820814Y-116868000D01*
X105941481Y-116638109D01*
X105844157Y-116363748D01*
X105736763Y-116183456D01*
X108353120Y-116183456D01*
X108353120Y-116543344D01*
X108423331Y-116896316D01*
X108561054Y-117228809D01*
X108760996Y-117528045D01*
X109015475Y-117782524D01*
X109314711Y-117982466D01*
X109647204Y-118120189D01*
X110000176Y-118190400D01*
X110360064Y-118190400D01*
X110713036Y-118120189D01*
X111045529Y-117982466D01*
X111344765Y-117782524D01*
X111599244Y-117528045D01*
X111799186Y-117228809D01*
X111936909Y-116896316D01*
X111988324Y-116637836D01*
X135760629Y-116637836D01*
X135793906Y-116849736D01*
X135995616Y-116939103D01*
X136210885Y-116987401D01*
X136431441Y-116992775D01*
X136648807Y-116955016D01*
X136854629Y-116875578D01*
X136902974Y-116849736D01*
X136936251Y-116637836D01*
X144520629Y-116637836D01*
X144553906Y-116849736D01*
X144755616Y-116939103D01*
X144970885Y-116987401D01*
X145191441Y-116992775D01*
X145408807Y-116955016D01*
X145614629Y-116875578D01*
X145662974Y-116849736D01*
X145696251Y-116637836D01*
X145108440Y-116050025D01*
X144520629Y-116637836D01*
X136936251Y-116637836D01*
X136348440Y-116050025D01*
X135760629Y-116637836D01*
X111988324Y-116637836D01*
X112007120Y-116543344D01*
X112007120Y-116183456D01*
X111961363Y-115953421D01*
X135226085Y-115953421D01*
X135263844Y-116170787D01*
X135343282Y-116376609D01*
X135369124Y-116424954D01*
X135581024Y-116458231D01*
X136168835Y-115870420D01*
X136528045Y-115870420D01*
X137115856Y-116458231D01*
X137327756Y-116424954D01*
X137417123Y-116223244D01*
X137465421Y-116007975D01*
X137466750Y-115953421D01*
X143986085Y-115953421D01*
X144023844Y-116170787D01*
X144103282Y-116376609D01*
X144129124Y-116424954D01*
X144341024Y-116458231D01*
X144928835Y-115870420D01*
X145288045Y-115870420D01*
X145875856Y-116458231D01*
X146087756Y-116424954D01*
X146177123Y-116223244D01*
X146225421Y-116007975D01*
X146230795Y-115787419D01*
X146193036Y-115570053D01*
X146113598Y-115364231D01*
X146087756Y-115315886D01*
X145875856Y-115282609D01*
X145288045Y-115870420D01*
X144928835Y-115870420D01*
X144341024Y-115282609D01*
X144129124Y-115315886D01*
X144039757Y-115517596D01*
X143991459Y-115732865D01*
X143986085Y-115953421D01*
X137466750Y-115953421D01*
X137470795Y-115787419D01*
X137433036Y-115570053D01*
X137353598Y-115364231D01*
X137327756Y-115315886D01*
X137115856Y-115282609D01*
X136528045Y-115870420D01*
X136168835Y-115870420D01*
X135581024Y-115282609D01*
X135369124Y-115315886D01*
X135279757Y-115517596D01*
X135231459Y-115732865D01*
X135226085Y-115953421D01*
X111961363Y-115953421D01*
X111936909Y-115830484D01*
X111799186Y-115497991D01*
X111599244Y-115198755D01*
X111344765Y-114944276D01*
X111045529Y-114744334D01*
X110918346Y-114691653D01*
X115137952Y-114691653D01*
X115293962Y-115007214D01*
X115668745Y-115198020D01*
X116073551Y-115312044D01*
X116492824Y-115344902D01*
X116910451Y-115295334D01*
X117310383Y-115165243D01*
X117426825Y-115103004D01*
X135760629Y-115103004D01*
X136348440Y-115690815D01*
X136936251Y-115103004D01*
X144520629Y-115103004D01*
X145108440Y-115690815D01*
X145696251Y-115103004D01*
X145662974Y-114891104D01*
X145461264Y-114801737D01*
X145245995Y-114753439D01*
X145025439Y-114748065D01*
X144808073Y-114785824D01*
X144602251Y-114865262D01*
X144553906Y-114891104D01*
X144520629Y-115103004D01*
X136936251Y-115103004D01*
X136902974Y-114891104D01*
X136701264Y-114801737D01*
X136485995Y-114753439D01*
X136265439Y-114748065D01*
X136048073Y-114785824D01*
X135842251Y-114865262D01*
X135793906Y-114891104D01*
X135760629Y-115103004D01*
X117426825Y-115103004D01*
X117606038Y-115007214D01*
X117762048Y-114691653D01*
X116450000Y-113379605D01*
X115137952Y-114691653D01*
X110918346Y-114691653D01*
X110713036Y-114606611D01*
X110360064Y-114536400D01*
X110000176Y-114536400D01*
X109647204Y-114606611D01*
X109314711Y-114744334D01*
X109015475Y-114944276D01*
X108760996Y-115198755D01*
X108561054Y-115497991D01*
X108423331Y-115830484D01*
X108353120Y-116183456D01*
X105736763Y-116183456D01*
X105695178Y-116113645D01*
X105500269Y-115897412D01*
X105266920Y-115723359D01*
X105004099Y-115598175D01*
X104856890Y-115553524D01*
X104627000Y-115674845D01*
X104373000Y-115674845D01*
X104143110Y-115553524D01*
X103995901Y-115598175D01*
X103733080Y-115723359D01*
X103499731Y-115897412D01*
X103304822Y-116113645D01*
X103155843Y-116363748D01*
X103138582Y-116412408D01*
X103138582Y-116145000D01*
X103132268Y-116080897D01*
X103113570Y-116019257D01*
X103083206Y-115962450D01*
X103042343Y-115912657D01*
X102992550Y-115871794D01*
X102935743Y-115841430D01*
X102874103Y-115822732D01*
X102810000Y-115816418D01*
X101110000Y-115816418D01*
X101045897Y-115822732D01*
X100984257Y-115841430D01*
X100927450Y-115871794D01*
X100877657Y-115912657D01*
X100836794Y-115962450D01*
X100806430Y-116019257D01*
X100787732Y-116080897D01*
X100781418Y-116145000D01*
X89627000Y-116145000D01*
X89627000Y-113242824D01*
X114305098Y-113242824D01*
X114354666Y-113660451D01*
X114484757Y-114060383D01*
X114642786Y-114356038D01*
X114958347Y-114512048D01*
X116270395Y-113200000D01*
X116629605Y-113200000D01*
X117941653Y-114512048D01*
X118257214Y-114356038D01*
X118448020Y-113981255D01*
X118562044Y-113576449D01*
X118594902Y-113157176D01*
X118545334Y-112739549D01*
X118415243Y-112339617D01*
X118257214Y-112043962D01*
X117941653Y-111887952D01*
X116629605Y-113200000D01*
X116270395Y-113200000D01*
X114958347Y-111887952D01*
X114642786Y-112043962D01*
X114451980Y-112418745D01*
X114337956Y-112823551D01*
X114305098Y-113242824D01*
X89627000Y-113242824D01*
X89627000Y-111708347D01*
X115137952Y-111708347D01*
X116450000Y-113020395D01*
X117762048Y-111708347D01*
X117606038Y-111392786D01*
X117231255Y-111201980D01*
X116826449Y-111087956D01*
X116407176Y-111055098D01*
X115989549Y-111104666D01*
X115589617Y-111234757D01*
X115293962Y-111392786D01*
X115137952Y-111708347D01*
X89627000Y-111708347D01*
X89627000Y-88856500D01*
X93705000Y-88856500D01*
X93709000Y-88897114D01*
X93709001Y-108118776D01*
X93705000Y-108159400D01*
X93720967Y-108321520D01*
X93768256Y-108477410D01*
X93845048Y-108621079D01*
X93922498Y-108715451D01*
X93948395Y-108747006D01*
X93979948Y-108772901D01*
X95503097Y-110296051D01*
X95528994Y-110327606D01*
X95560547Y-110353501D01*
X95560548Y-110353502D01*
X95654920Y-110430952D01*
X95714897Y-110463010D01*
X95798590Y-110507745D01*
X95954480Y-110555034D01*
X96075976Y-110567000D01*
X96075986Y-110567000D01*
X96116600Y-110571000D01*
X96157214Y-110567000D01*
X129972446Y-110567000D01*
X130163948Y-110758502D01*
X130258320Y-110835951D01*
X130401988Y-110912744D01*
X130557879Y-110960032D01*
X130719999Y-110976000D01*
X130882120Y-110960032D01*
X131038010Y-110912744D01*
X131181679Y-110835951D01*
X131307606Y-110732606D01*
X131410951Y-110606679D01*
X131487744Y-110463010D01*
X131535032Y-110307120D01*
X131551000Y-110144999D01*
X131535032Y-109982879D01*
X131487744Y-109826988D01*
X131410951Y-109683320D01*
X131333502Y-109588948D01*
X130928505Y-109183952D01*
X130902606Y-109152394D01*
X130776679Y-109049048D01*
X130633010Y-108972255D01*
X130477120Y-108924966D01*
X130355624Y-108913000D01*
X130355614Y-108913000D01*
X130315000Y-108909000D01*
X130274386Y-108913000D01*
X122210971Y-108913000D01*
X122439969Y-108818146D01*
X122739205Y-108618204D01*
X122993684Y-108363725D01*
X123193626Y-108064489D01*
X123331349Y-107731996D01*
X123401560Y-107379024D01*
X123401560Y-107019136D01*
X123331349Y-106666164D01*
X123193626Y-106333671D01*
X122993684Y-106034435D01*
X122739205Y-105779956D01*
X122439969Y-105580014D01*
X122107476Y-105442291D01*
X121754504Y-105372080D01*
X121394616Y-105372080D01*
X121041644Y-105442291D01*
X120709151Y-105580014D01*
X120409915Y-105779956D01*
X120155436Y-106034435D01*
X119955494Y-106333671D01*
X119817771Y-106666164D01*
X119747560Y-107019136D01*
X119747560Y-107379024D01*
X119817771Y-107731996D01*
X119955494Y-108064489D01*
X120155436Y-108363725D01*
X120409915Y-108618204D01*
X120709151Y-108818146D01*
X120938149Y-108913000D01*
X106814354Y-108913000D01*
X106876974Y-108879529D01*
X106949606Y-108819921D01*
X106964540Y-108801724D01*
X108585730Y-107180535D01*
X108603922Y-107165605D01*
X108663530Y-107092973D01*
X108707823Y-107010107D01*
X108735098Y-106920192D01*
X108742001Y-106850107D01*
X108742001Y-106850100D01*
X108744307Y-106826685D01*
X108742001Y-106803270D01*
X108742001Y-103343416D01*
X108744307Y-103320001D01*
X108742001Y-103296586D01*
X108742001Y-103296578D01*
X108735098Y-103226493D01*
X108707823Y-103136578D01*
X108663530Y-103053712D01*
X108647232Y-103033853D01*
X108618853Y-102999273D01*
X108618851Y-102999271D01*
X108603922Y-102981080D01*
X108585730Y-102966151D01*
X104812066Y-99192487D01*
X107621053Y-96383501D01*
X107652606Y-96357606D01*
X107732736Y-96259968D01*
X107755952Y-96231680D01*
X107813369Y-96124260D01*
X107832745Y-96088010D01*
X107872942Y-95955499D01*
X109125944Y-97208501D01*
X109220315Y-97285951D01*
X109363985Y-97362743D01*
X109519875Y-97410032D01*
X109681995Y-97425999D01*
X109844116Y-97410032D01*
X109943000Y-97380036D01*
X109943000Y-97762550D01*
X109950915Y-97842915D01*
X109973000Y-97915720D01*
X109973000Y-98570625D01*
X109984966Y-98692121D01*
X110023000Y-98817502D01*
X110023001Y-101157187D01*
X110019241Y-101195360D01*
X110034244Y-101347678D01*
X110078673Y-101494143D01*
X110150823Y-101629126D01*
X110214891Y-101707193D01*
X110247921Y-101747440D01*
X110277565Y-101771768D01*
X111243232Y-102737436D01*
X111267560Y-102767080D01*
X111297204Y-102791408D01*
X111297205Y-102791409D01*
X111357260Y-102840694D01*
X111385874Y-102864177D01*
X111520856Y-102936327D01*
X111667321Y-102980757D01*
X111781474Y-102992000D01*
X111781476Y-102992000D01*
X111819640Y-102995759D01*
X111857803Y-102992000D01*
X115573166Y-102992000D01*
X115687319Y-102980757D01*
X115833784Y-102936327D01*
X115968766Y-102864177D01*
X116087080Y-102767080D01*
X116184177Y-102648766D01*
X116205754Y-102608398D01*
X123283000Y-102608398D01*
X123283000Y-102751604D01*
X123310938Y-102892059D01*
X123365741Y-103024365D01*
X123445302Y-103143437D01*
X123546564Y-103244699D01*
X123665636Y-103324260D01*
X123797942Y-103379063D01*
X123938397Y-103407001D01*
X124081603Y-103407001D01*
X124222058Y-103379063D01*
X124354364Y-103324260D01*
X124473436Y-103244699D01*
X124574698Y-103143437D01*
X124654259Y-103024365D01*
X124709062Y-102892059D01*
X124737000Y-102751604D01*
X124737000Y-102608398D01*
X124729586Y-102571124D01*
X124750096Y-102503510D01*
X124756999Y-102433425D01*
X124756999Y-102433418D01*
X124759305Y-102410003D01*
X124756999Y-102386588D01*
X124756999Y-96765578D01*
X125565577Y-95957001D01*
X132683866Y-95957001D01*
X132771564Y-96044699D01*
X132890636Y-96124260D01*
X133022942Y-96179063D01*
X133163397Y-96207001D01*
X133306603Y-96207001D01*
X133447058Y-96179063D01*
X133579364Y-96124260D01*
X133698436Y-96044699D01*
X133799698Y-95943437D01*
X133879259Y-95824365D01*
X133934062Y-95692059D01*
X133962000Y-95551604D01*
X133962000Y-95408398D01*
X133934062Y-95267943D01*
X133879259Y-95135637D01*
X133799698Y-95016565D01*
X133698436Y-94915303D01*
X133579364Y-94835742D01*
X133447058Y-94780939D01*
X133306603Y-94753001D01*
X133163397Y-94753001D01*
X133022942Y-94780939D01*
X132890636Y-94835742D01*
X132771564Y-94915303D01*
X132683866Y-95003001D01*
X125391420Y-95003001D01*
X125367997Y-95000694D01*
X125274489Y-95009904D01*
X125184574Y-95037179D01*
X125101708Y-95081472D01*
X125079321Y-95099845D01*
X125029076Y-95141080D01*
X125014146Y-95159272D01*
X123959270Y-96214149D01*
X123941079Y-96229078D01*
X123881471Y-96301710D01*
X123868460Y-96326052D01*
X123837177Y-96384577D01*
X123809902Y-96474492D01*
X123800693Y-96567999D01*
X123803000Y-96591424D01*
X123802999Y-101979933D01*
X123797942Y-101980939D01*
X123665636Y-102035742D01*
X123546564Y-102115303D01*
X123445302Y-102216565D01*
X123365741Y-102335637D01*
X123310938Y-102467943D01*
X123283000Y-102608398D01*
X116205754Y-102608398D01*
X116256327Y-102513784D01*
X116300757Y-102367319D01*
X116315759Y-102215000D01*
X116300757Y-102062681D01*
X116256327Y-101916216D01*
X116184177Y-101781234D01*
X116087080Y-101662920D01*
X115968766Y-101565823D01*
X115833784Y-101493673D01*
X115687319Y-101449243D01*
X115573166Y-101438000D01*
X112141484Y-101438000D01*
X111577000Y-100873517D01*
X111577000Y-98817503D01*
X111615034Y-98692122D01*
X111627000Y-98570626D01*
X111627000Y-97034378D01*
X111615034Y-96912882D01*
X111567745Y-96756992D01*
X111490952Y-96613323D01*
X111387606Y-96487396D01*
X111261679Y-96384050D01*
X111118010Y-96307257D01*
X110962120Y-96259968D01*
X110800000Y-96244001D01*
X110637881Y-96259968D01*
X110558899Y-96283927D01*
X107892000Y-93617029D01*
X107892000Y-90014376D01*
X107880034Y-89892880D01*
X107832745Y-89736990D01*
X107755952Y-89593321D01*
X107652606Y-89467394D01*
X107526678Y-89364048D01*
X107383009Y-89287255D01*
X107227119Y-89239966D01*
X107065000Y-89223999D01*
X106902880Y-89239966D01*
X106746990Y-89287255D01*
X106603321Y-89364048D01*
X106477394Y-89467394D01*
X106374048Y-89593322D01*
X106297255Y-89736991D01*
X106249966Y-89892881D01*
X106238000Y-90014377D01*
X106238001Y-93937382D01*
X106234000Y-93978003D01*
X106238001Y-94018624D01*
X106238001Y-95427445D01*
X103333952Y-98331495D01*
X103302394Y-98357394D01*
X103199048Y-98483321D01*
X103122255Y-98626990D01*
X103074966Y-98782880D01*
X103058999Y-98945000D01*
X103074966Y-99107120D01*
X103122255Y-99263010D01*
X103199048Y-99406679D01*
X103302394Y-99532606D01*
X103428321Y-99635952D01*
X103571990Y-99712745D01*
X103727880Y-99760034D01*
X103849376Y-99772000D01*
X103849386Y-99772000D01*
X103890000Y-99776000D01*
X103930614Y-99772000D01*
X103930624Y-99772000D01*
X104032397Y-99761976D01*
X107788002Y-103517582D01*
X107788002Y-104997528D01*
X107622519Y-104886956D01*
X107408318Y-104798231D01*
X107180924Y-104753000D01*
X106949076Y-104753000D01*
X106721682Y-104798231D01*
X106507481Y-104886956D01*
X106314706Y-105015764D01*
X106150764Y-105179706D01*
X106021956Y-105372481D01*
X105933231Y-105586682D01*
X105888000Y-105814076D01*
X105888000Y-106045924D01*
X105933231Y-106273318D01*
X106021956Y-106487519D01*
X106150764Y-106680294D01*
X106314706Y-106844236D01*
X106507481Y-106973044D01*
X106721682Y-107061769D01*
X106949076Y-107107000D01*
X107180924Y-107107000D01*
X107342181Y-107074924D01*
X106413106Y-108004000D01*
X106368007Y-108004000D01*
X106359698Y-107991564D01*
X106258436Y-107890302D01*
X106139364Y-107810741D01*
X106007058Y-107755938D01*
X105866603Y-107728000D01*
X105723397Y-107728000D01*
X105582942Y-107755938D01*
X105450636Y-107810741D01*
X105331564Y-107890302D01*
X105230302Y-107991564D01*
X105150741Y-108110636D01*
X105095938Y-108242942D01*
X105068000Y-108383397D01*
X105068000Y-108526603D01*
X105095938Y-108667058D01*
X105150741Y-108799364D01*
X105226670Y-108913000D01*
X96459154Y-108913000D01*
X95363000Y-107816847D01*
X95363000Y-106780000D01*
X95416928Y-106780000D01*
X95429188Y-106904482D01*
X95465498Y-107024180D01*
X95524463Y-107134494D01*
X95603815Y-107231185D01*
X95700506Y-107310537D01*
X95810820Y-107369502D01*
X95930518Y-107405812D01*
X96055000Y-107418072D01*
X96619250Y-107415000D01*
X96778000Y-107256250D01*
X96778000Y-106057000D01*
X95578750Y-106057000D01*
X95420000Y-106215750D01*
X95416928Y-106780000D01*
X95363000Y-106780000D01*
X95363000Y-105080000D01*
X95416928Y-105080000D01*
X95420000Y-105644250D01*
X95578750Y-105803000D01*
X96778000Y-105803000D01*
X96778000Y-104603750D01*
X97032000Y-104603750D01*
X97032000Y-105803000D01*
X97052000Y-105803000D01*
X97052000Y-106057000D01*
X97032000Y-106057000D01*
X97032000Y-107256250D01*
X97190750Y-107415000D01*
X97755000Y-107418072D01*
X97879482Y-107405812D01*
X97999180Y-107369502D01*
X98109494Y-107310537D01*
X98206185Y-107231185D01*
X98285537Y-107134494D01*
X98344502Y-107024180D01*
X98380812Y-106904482D01*
X98393072Y-106780000D01*
X98391340Y-106461890D01*
X98401956Y-106487519D01*
X98530764Y-106680294D01*
X98694706Y-106844236D01*
X98887481Y-106973044D01*
X99101682Y-107061769D01*
X99329076Y-107107000D01*
X99560924Y-107107000D01*
X99788318Y-107061769D01*
X100002519Y-106973044D01*
X100195294Y-106844236D01*
X100359236Y-106680294D01*
X100488044Y-106487519D01*
X100576769Y-106273318D01*
X100622000Y-106045924D01*
X100622000Y-105814076D01*
X100808000Y-105814076D01*
X100808000Y-106045924D01*
X100853231Y-106273318D01*
X100941956Y-106487519D01*
X101070764Y-106680294D01*
X101234706Y-106844236D01*
X101427481Y-106973044D01*
X101641682Y-107061769D01*
X101869076Y-107107000D01*
X102100924Y-107107000D01*
X102328318Y-107061769D01*
X102542519Y-106973044D01*
X102735294Y-106844236D01*
X102899236Y-106680294D01*
X103028044Y-106487519D01*
X103116769Y-106273318D01*
X103162000Y-106045924D01*
X103162000Y-105814076D01*
X103348000Y-105814076D01*
X103348000Y-106045924D01*
X103393231Y-106273318D01*
X103481956Y-106487519D01*
X103610764Y-106680294D01*
X103774706Y-106844236D01*
X103967481Y-106973044D01*
X104181682Y-107061769D01*
X104409076Y-107107000D01*
X104640924Y-107107000D01*
X104868318Y-107061769D01*
X105082519Y-106973044D01*
X105275294Y-106844236D01*
X105439236Y-106680294D01*
X105568044Y-106487519D01*
X105656769Y-106273318D01*
X105702000Y-106045924D01*
X105702000Y-105814076D01*
X105656769Y-105586682D01*
X105568044Y-105372481D01*
X105439236Y-105179706D01*
X105275294Y-105015764D01*
X105082519Y-104886956D01*
X104868318Y-104798231D01*
X104640924Y-104753000D01*
X104409076Y-104753000D01*
X104181682Y-104798231D01*
X103967481Y-104886956D01*
X103774706Y-105015764D01*
X103610764Y-105179706D01*
X103481956Y-105372481D01*
X103393231Y-105586682D01*
X103348000Y-105814076D01*
X103162000Y-105814076D01*
X103116769Y-105586682D01*
X103028044Y-105372481D01*
X102899236Y-105179706D01*
X102735294Y-105015764D01*
X102542519Y-104886956D01*
X102328318Y-104798231D01*
X102100924Y-104753000D01*
X101869076Y-104753000D01*
X101641682Y-104798231D01*
X101427481Y-104886956D01*
X101234706Y-105015764D01*
X101070764Y-105179706D01*
X100941956Y-105372481D01*
X100853231Y-105586682D01*
X100808000Y-105814076D01*
X100622000Y-105814076D01*
X100576769Y-105586682D01*
X100488044Y-105372481D01*
X100359236Y-105179706D01*
X100195294Y-105015764D01*
X100002519Y-104886956D01*
X99788318Y-104798231D01*
X99560924Y-104753000D01*
X99329076Y-104753000D01*
X99101682Y-104798231D01*
X98887481Y-104886956D01*
X98694706Y-105015764D01*
X98530764Y-105179706D01*
X98401956Y-105372481D01*
X98391340Y-105398110D01*
X98393072Y-105080000D01*
X98380812Y-104955518D01*
X98344502Y-104835820D01*
X98285537Y-104725506D01*
X98206185Y-104628815D01*
X98109494Y-104549463D01*
X97999180Y-104490498D01*
X97879482Y-104454188D01*
X97755000Y-104441928D01*
X97190750Y-104445000D01*
X97032000Y-104603750D01*
X96778000Y-104603750D01*
X96619250Y-104445000D01*
X96055000Y-104441928D01*
X95930518Y-104454188D01*
X95810820Y-104490498D01*
X95700506Y-104549463D01*
X95603815Y-104628815D01*
X95524463Y-104725506D01*
X95465498Y-104835820D01*
X95429188Y-104955518D01*
X95416928Y-105080000D01*
X95363000Y-105080000D01*
X95363000Y-93755256D01*
X98909400Y-93755256D01*
X98909400Y-94115144D01*
X98979611Y-94468116D01*
X99117334Y-94800609D01*
X99317276Y-95099845D01*
X99571755Y-95354324D01*
X99870991Y-95554266D01*
X100203484Y-95691989D01*
X100556456Y-95762200D01*
X100916344Y-95762200D01*
X101269316Y-95691989D01*
X101601809Y-95554266D01*
X101901045Y-95354324D01*
X102155524Y-95099845D01*
X102355466Y-94800609D01*
X102493189Y-94468116D01*
X102563400Y-94115144D01*
X102563400Y-93755256D01*
X102493189Y-93402284D01*
X102355466Y-93069791D01*
X102155524Y-92770555D01*
X101901045Y-92516076D01*
X101601809Y-92316134D01*
X101269316Y-92178411D01*
X100916344Y-92108200D01*
X100556456Y-92108200D01*
X100203484Y-92178411D01*
X99870991Y-92316134D01*
X99571755Y-92516076D01*
X99317276Y-92770555D01*
X99117334Y-93069791D01*
X98979611Y-93402284D01*
X98909400Y-93755256D01*
X95363000Y-93755256D01*
X95363000Y-89199053D01*
X96526998Y-88035056D01*
X107408000Y-88035056D01*
X107408000Y-88394944D01*
X107478211Y-88747916D01*
X107615934Y-89080409D01*
X107815876Y-89379645D01*
X108070355Y-89634124D01*
X108369591Y-89834066D01*
X108702084Y-89971789D01*
X109055056Y-90042000D01*
X109414944Y-90042000D01*
X109767916Y-89971789D01*
X110100409Y-89834066D01*
X110399645Y-89634124D01*
X110453713Y-89580056D01*
X138543000Y-89580056D01*
X138543000Y-89939944D01*
X138613211Y-90292916D01*
X138750934Y-90625409D01*
X138950876Y-90924645D01*
X139205355Y-91179124D01*
X139504591Y-91379066D01*
X139837084Y-91516789D01*
X140190056Y-91587000D01*
X140549944Y-91587000D01*
X140902916Y-91516789D01*
X141235409Y-91379066D01*
X141534645Y-91179124D01*
X141789124Y-90924645D01*
X141989066Y-90625409D01*
X142126789Y-90292916D01*
X142197000Y-89939944D01*
X142197000Y-89580056D01*
X142126789Y-89227084D01*
X141989066Y-88894591D01*
X141789124Y-88595355D01*
X141534645Y-88340876D01*
X141235409Y-88140934D01*
X140902916Y-88003211D01*
X140549944Y-87933000D01*
X140190056Y-87933000D01*
X139837084Y-88003211D01*
X139504591Y-88140934D01*
X139205355Y-88340876D01*
X138950876Y-88595355D01*
X138750934Y-88894591D01*
X138613211Y-89227084D01*
X138543000Y-89580056D01*
X110453713Y-89580056D01*
X110654124Y-89379645D01*
X110854066Y-89080409D01*
X110991789Y-88747916D01*
X111062000Y-88394944D01*
X111062000Y-88035056D01*
X110991789Y-87682084D01*
X110854066Y-87349591D01*
X110654124Y-87050355D01*
X110399645Y-86795876D01*
X110100409Y-86595934D01*
X109767916Y-86458211D01*
X109414944Y-86388000D01*
X109055056Y-86388000D01*
X108702084Y-86458211D01*
X108369591Y-86595934D01*
X108070355Y-86795876D01*
X107815876Y-87050355D01*
X107615934Y-87349591D01*
X107478211Y-87682084D01*
X107408000Y-88035056D01*
X96526998Y-88035056D01*
X96949058Y-87612997D01*
X96980606Y-87587106D01*
X97006496Y-87555559D01*
X97006503Y-87555552D01*
X97083952Y-87461180D01*
X97160745Y-87317511D01*
X97192885Y-87211558D01*
X97208034Y-87161620D01*
X97224001Y-86999500D01*
X97208034Y-86837380D01*
X97160745Y-86681490D01*
X97083952Y-86537820D01*
X96980606Y-86411894D01*
X96854680Y-86308548D01*
X96711010Y-86231755D01*
X96555120Y-86184466D01*
X96433624Y-86172500D01*
X96433614Y-86172500D01*
X96393000Y-86168500D01*
X96352386Y-86172500D01*
X96352376Y-86172500D01*
X96230880Y-86184466D01*
X96122278Y-86217410D01*
X96074989Y-86231755D01*
X95931320Y-86308548D01*
X95836948Y-86385997D01*
X95836941Y-86386004D01*
X95805394Y-86411894D01*
X95779503Y-86443442D01*
X93979952Y-88242995D01*
X93948394Y-88268894D01*
X93922498Y-88300449D01*
X93845048Y-88394821D01*
X93804002Y-88471614D01*
X93768255Y-88538491D01*
X93720966Y-88694381D01*
X93709000Y-88815877D01*
X93709000Y-88815886D01*
X93705000Y-88856500D01*
X89627000Y-88856500D01*
X89627000Y-84155600D01*
X101259618Y-84155600D01*
X101259618Y-85855600D01*
X101265932Y-85919703D01*
X101284630Y-85981343D01*
X101314994Y-86038150D01*
X101355857Y-86087943D01*
X101405650Y-86128806D01*
X101462457Y-86159170D01*
X101524097Y-86177868D01*
X101588200Y-86184182D01*
X103288200Y-86184182D01*
X103352303Y-86177868D01*
X103413943Y-86159170D01*
X103470750Y-86128806D01*
X103520543Y-86087943D01*
X103561406Y-86038150D01*
X103591770Y-85981343D01*
X103610468Y-85919703D01*
X103616782Y-85855600D01*
X103616782Y-85588192D01*
X103634043Y-85636852D01*
X103783022Y-85886955D01*
X103977931Y-86103188D01*
X104211280Y-86277241D01*
X104474101Y-86402425D01*
X104621310Y-86447076D01*
X104851200Y-86325755D01*
X104851200Y-85132600D01*
X105105200Y-85132600D01*
X105105200Y-86325755D01*
X105335090Y-86447076D01*
X105482299Y-86402425D01*
X105745120Y-86277241D01*
X105978469Y-86103188D01*
X106173378Y-85886955D01*
X106322357Y-85636852D01*
X106419681Y-85362491D01*
X106299014Y-85132600D01*
X105105200Y-85132600D01*
X104851200Y-85132600D01*
X104831200Y-85132600D01*
X104831200Y-84878600D01*
X104851200Y-84878600D01*
X104851200Y-83685445D01*
X105105200Y-83685445D01*
X105105200Y-84878600D01*
X106299014Y-84878600D01*
X106419681Y-84648709D01*
X106322357Y-84374348D01*
X106173378Y-84124245D01*
X105978469Y-83908012D01*
X105819723Y-83789604D01*
X142603000Y-83789604D01*
X142603000Y-84090396D01*
X142661681Y-84385410D01*
X142776790Y-84663306D01*
X142943901Y-84913406D01*
X143156594Y-85126099D01*
X143406694Y-85293210D01*
X143684590Y-85408319D01*
X143979604Y-85467000D01*
X144280396Y-85467000D01*
X144575410Y-85408319D01*
X144853306Y-85293210D01*
X145103406Y-85126099D01*
X145316099Y-84913406D01*
X145483210Y-84663306D01*
X145598319Y-84385410D01*
X145657000Y-84090396D01*
X145657000Y-83789604D01*
X145598319Y-83494590D01*
X145483210Y-83216694D01*
X145316099Y-82966594D01*
X145103406Y-82753901D01*
X144853306Y-82586790D01*
X144575410Y-82471681D01*
X144280396Y-82413000D01*
X143979604Y-82413000D01*
X143684590Y-82471681D01*
X143406694Y-82586790D01*
X143156594Y-82753901D01*
X142943901Y-82966594D01*
X142776790Y-83216694D01*
X142661681Y-83494590D01*
X142603000Y-83789604D01*
X105819723Y-83789604D01*
X105745120Y-83733959D01*
X105482299Y-83608775D01*
X105335090Y-83564124D01*
X105105200Y-83685445D01*
X104851200Y-83685445D01*
X104621310Y-83564124D01*
X104474101Y-83608775D01*
X104211280Y-83733959D01*
X103977931Y-83908012D01*
X103783022Y-84124245D01*
X103634043Y-84374348D01*
X103616782Y-84423008D01*
X103616782Y-84155600D01*
X103610468Y-84091497D01*
X103591770Y-84029857D01*
X103561406Y-83973050D01*
X103520543Y-83923257D01*
X103470750Y-83882394D01*
X103413943Y-83852030D01*
X103352303Y-83833332D01*
X103288200Y-83827018D01*
X101588200Y-83827018D01*
X101524097Y-83833332D01*
X101462457Y-83852030D01*
X101405650Y-83882394D01*
X101355857Y-83923257D01*
X101314994Y-83973050D01*
X101284630Y-84029857D01*
X101265932Y-84091497D01*
X101259618Y-84155600D01*
X89627000Y-84155600D01*
X89627000Y-80317000D01*
X147753000Y-80317000D01*
X147753001Y-121473000D01*
%TA.AperFunction,Conductor*%
D27*
G36*
X147753001Y-121473000D02*
G01*
X89627000Y-121473000D01*
X89627000Y-117699604D01*
X91723000Y-117699604D01*
X91723000Y-118000396D01*
X91781681Y-118295410D01*
X91896790Y-118573306D01*
X92063901Y-118823406D01*
X92276594Y-119036099D01*
X92526694Y-119203210D01*
X92804590Y-119318319D01*
X93099604Y-119377000D01*
X93400396Y-119377000D01*
X93695410Y-119318319D01*
X93973306Y-119203210D01*
X94223406Y-119036099D01*
X94436099Y-118823406D01*
X94603210Y-118573306D01*
X94718319Y-118295410D01*
X94777000Y-118000396D01*
X94777000Y-117699604D01*
X94718319Y-117404590D01*
X94603210Y-117126694D01*
X94436099Y-116876594D01*
X94223406Y-116663901D01*
X93973306Y-116496790D01*
X93695410Y-116381681D01*
X93400396Y-116323000D01*
X93099604Y-116323000D01*
X92804590Y-116381681D01*
X92526694Y-116496790D01*
X92276594Y-116663901D01*
X92063901Y-116876594D01*
X91896790Y-117126694D01*
X91781681Y-117404590D01*
X91723000Y-117699604D01*
X89627000Y-117699604D01*
X89627000Y-116145000D01*
X100781418Y-116145000D01*
X100781418Y-117845000D01*
X100787732Y-117909103D01*
X100806430Y-117970743D01*
X100836794Y-118027550D01*
X100877657Y-118077343D01*
X100927450Y-118118206D01*
X100984257Y-118148570D01*
X101045897Y-118167268D01*
X101110000Y-118173582D01*
X102810000Y-118173582D01*
X102874103Y-118167268D01*
X102935743Y-118148570D01*
X102992550Y-118118206D01*
X103042343Y-118077343D01*
X103083206Y-118027550D01*
X103113570Y-117970743D01*
X103132268Y-117909103D01*
X103138582Y-117845000D01*
X103138582Y-117577592D01*
X103155843Y-117626252D01*
X103304822Y-117876355D01*
X103499731Y-118092588D01*
X103733080Y-118266641D01*
X103995901Y-118391825D01*
X104143110Y-118436476D01*
X104373000Y-118315155D01*
X104373000Y-117122000D01*
X104627000Y-117122000D01*
X104627000Y-118315155D01*
X104856890Y-118436476D01*
X105004099Y-118391825D01*
X105266920Y-118266641D01*
X105500269Y-118092588D01*
X105695178Y-117876355D01*
X105844157Y-117626252D01*
X105941481Y-117351891D01*
X105820814Y-117122000D01*
X104627000Y-117122000D01*
X104373000Y-117122000D01*
X104353000Y-117122000D01*
X104353000Y-116868000D01*
X104373000Y-116868000D01*
X104373000Y-115674845D01*
X104627000Y-115674845D01*
X104627000Y-116868000D01*
X105820814Y-116868000D01*
X105941481Y-116638109D01*
X105844157Y-116363748D01*
X105736763Y-116183456D01*
X108353120Y-116183456D01*
X108353120Y-116543344D01*
X108423331Y-116896316D01*
X108561054Y-117228809D01*
X108760996Y-117528045D01*
X109015475Y-117782524D01*
X109314711Y-117982466D01*
X109647204Y-118120189D01*
X110000176Y-118190400D01*
X110360064Y-118190400D01*
X110713036Y-118120189D01*
X111045529Y-117982466D01*
X111344765Y-117782524D01*
X111599244Y-117528045D01*
X111799186Y-117228809D01*
X111936909Y-116896316D01*
X111988324Y-116637836D01*
X135760629Y-116637836D01*
X135793906Y-116849736D01*
X135995616Y-116939103D01*
X136210885Y-116987401D01*
X136431441Y-116992775D01*
X136648807Y-116955016D01*
X136854629Y-116875578D01*
X136902974Y-116849736D01*
X136936251Y-116637836D01*
X144520629Y-116637836D01*
X144553906Y-116849736D01*
X144755616Y-116939103D01*
X144970885Y-116987401D01*
X145191441Y-116992775D01*
X145408807Y-116955016D01*
X145614629Y-116875578D01*
X145662974Y-116849736D01*
X145696251Y-116637836D01*
X145108440Y-116050025D01*
X144520629Y-116637836D01*
X136936251Y-116637836D01*
X136348440Y-116050025D01*
X135760629Y-116637836D01*
X111988324Y-116637836D01*
X112007120Y-116543344D01*
X112007120Y-116183456D01*
X111961363Y-115953421D01*
X135226085Y-115953421D01*
X135263844Y-116170787D01*
X135343282Y-116376609D01*
X135369124Y-116424954D01*
X135581024Y-116458231D01*
X136168835Y-115870420D01*
X136528045Y-115870420D01*
X137115856Y-116458231D01*
X137327756Y-116424954D01*
X137417123Y-116223244D01*
X137465421Y-116007975D01*
X137466750Y-115953421D01*
X143986085Y-115953421D01*
X144023844Y-116170787D01*
X144103282Y-116376609D01*
X144129124Y-116424954D01*
X144341024Y-116458231D01*
X144928835Y-115870420D01*
X145288045Y-115870420D01*
X145875856Y-116458231D01*
X146087756Y-116424954D01*
X146177123Y-116223244D01*
X146225421Y-116007975D01*
X146230795Y-115787419D01*
X146193036Y-115570053D01*
X146113598Y-115364231D01*
X146087756Y-115315886D01*
X145875856Y-115282609D01*
X145288045Y-115870420D01*
X144928835Y-115870420D01*
X144341024Y-115282609D01*
X144129124Y-115315886D01*
X144039757Y-115517596D01*
X143991459Y-115732865D01*
X143986085Y-115953421D01*
X137466750Y-115953421D01*
X137470795Y-115787419D01*
X137433036Y-115570053D01*
X137353598Y-115364231D01*
X137327756Y-115315886D01*
X137115856Y-115282609D01*
X136528045Y-115870420D01*
X136168835Y-115870420D01*
X135581024Y-115282609D01*
X135369124Y-115315886D01*
X135279757Y-115517596D01*
X135231459Y-115732865D01*
X135226085Y-115953421D01*
X111961363Y-115953421D01*
X111936909Y-115830484D01*
X111799186Y-115497991D01*
X111599244Y-115198755D01*
X111344765Y-114944276D01*
X111045529Y-114744334D01*
X110918346Y-114691653D01*
X115137952Y-114691653D01*
X115293962Y-115007214D01*
X115668745Y-115198020D01*
X116073551Y-115312044D01*
X116492824Y-115344902D01*
X116910451Y-115295334D01*
X117310383Y-115165243D01*
X117426825Y-115103004D01*
X135760629Y-115103004D01*
X136348440Y-115690815D01*
X136936251Y-115103004D01*
X144520629Y-115103004D01*
X145108440Y-115690815D01*
X145696251Y-115103004D01*
X145662974Y-114891104D01*
X145461264Y-114801737D01*
X145245995Y-114753439D01*
X145025439Y-114748065D01*
X144808073Y-114785824D01*
X144602251Y-114865262D01*
X144553906Y-114891104D01*
X144520629Y-115103004D01*
X136936251Y-115103004D01*
X136902974Y-114891104D01*
X136701264Y-114801737D01*
X136485995Y-114753439D01*
X136265439Y-114748065D01*
X136048073Y-114785824D01*
X135842251Y-114865262D01*
X135793906Y-114891104D01*
X135760629Y-115103004D01*
X117426825Y-115103004D01*
X117606038Y-115007214D01*
X117762048Y-114691653D01*
X116450000Y-113379605D01*
X115137952Y-114691653D01*
X110918346Y-114691653D01*
X110713036Y-114606611D01*
X110360064Y-114536400D01*
X110000176Y-114536400D01*
X109647204Y-114606611D01*
X109314711Y-114744334D01*
X109015475Y-114944276D01*
X108760996Y-115198755D01*
X108561054Y-115497991D01*
X108423331Y-115830484D01*
X108353120Y-116183456D01*
X105736763Y-116183456D01*
X105695178Y-116113645D01*
X105500269Y-115897412D01*
X105266920Y-115723359D01*
X105004099Y-115598175D01*
X104856890Y-115553524D01*
X104627000Y-115674845D01*
X104373000Y-115674845D01*
X104143110Y-115553524D01*
X103995901Y-115598175D01*
X103733080Y-115723359D01*
X103499731Y-115897412D01*
X103304822Y-116113645D01*
X103155843Y-116363748D01*
X103138582Y-116412408D01*
X103138582Y-116145000D01*
X103132268Y-116080897D01*
X103113570Y-116019257D01*
X103083206Y-115962450D01*
X103042343Y-115912657D01*
X102992550Y-115871794D01*
X102935743Y-115841430D01*
X102874103Y-115822732D01*
X102810000Y-115816418D01*
X101110000Y-115816418D01*
X101045897Y-115822732D01*
X100984257Y-115841430D01*
X100927450Y-115871794D01*
X100877657Y-115912657D01*
X100836794Y-115962450D01*
X100806430Y-116019257D01*
X100787732Y-116080897D01*
X100781418Y-116145000D01*
X89627000Y-116145000D01*
X89627000Y-113242824D01*
X114305098Y-113242824D01*
X114354666Y-113660451D01*
X114484757Y-114060383D01*
X114642786Y-114356038D01*
X114958347Y-114512048D01*
X116270395Y-113200000D01*
X116629605Y-113200000D01*
X117941653Y-114512048D01*
X118257214Y-114356038D01*
X118448020Y-113981255D01*
X118562044Y-113576449D01*
X118594902Y-113157176D01*
X118545334Y-112739549D01*
X118415243Y-112339617D01*
X118257214Y-112043962D01*
X117941653Y-111887952D01*
X116629605Y-113200000D01*
X116270395Y-113200000D01*
X114958347Y-111887952D01*
X114642786Y-112043962D01*
X114451980Y-112418745D01*
X114337956Y-112823551D01*
X114305098Y-113242824D01*
X89627000Y-113242824D01*
X89627000Y-111708347D01*
X115137952Y-111708347D01*
X116450000Y-113020395D01*
X117762048Y-111708347D01*
X117606038Y-111392786D01*
X117231255Y-111201980D01*
X116826449Y-111087956D01*
X116407176Y-111055098D01*
X115989549Y-111104666D01*
X115589617Y-111234757D01*
X115293962Y-111392786D01*
X115137952Y-111708347D01*
X89627000Y-111708347D01*
X89627000Y-88856500D01*
X93705000Y-88856500D01*
X93709000Y-88897114D01*
X93709001Y-108118776D01*
X93705000Y-108159400D01*
X93720967Y-108321520D01*
X93768256Y-108477410D01*
X93845048Y-108621079D01*
X93922498Y-108715451D01*
X93948395Y-108747006D01*
X93979948Y-108772901D01*
X95503097Y-110296051D01*
X95528994Y-110327606D01*
X95560547Y-110353501D01*
X95560548Y-110353502D01*
X95654920Y-110430952D01*
X95714897Y-110463010D01*
X95798590Y-110507745D01*
X95954480Y-110555034D01*
X96075976Y-110567000D01*
X96075986Y-110567000D01*
X96116600Y-110571000D01*
X96157214Y-110567000D01*
X129972446Y-110567000D01*
X130163948Y-110758502D01*
X130258320Y-110835951D01*
X130401988Y-110912744D01*
X130557879Y-110960032D01*
X130719999Y-110976000D01*
X130882120Y-110960032D01*
X131038010Y-110912744D01*
X131181679Y-110835951D01*
X131307606Y-110732606D01*
X131410951Y-110606679D01*
X131487744Y-110463010D01*
X131535032Y-110307120D01*
X131551000Y-110144999D01*
X131535032Y-109982879D01*
X131487744Y-109826988D01*
X131410951Y-109683320D01*
X131333502Y-109588948D01*
X130928505Y-109183952D01*
X130902606Y-109152394D01*
X130776679Y-109049048D01*
X130633010Y-108972255D01*
X130477120Y-108924966D01*
X130355624Y-108913000D01*
X130355614Y-108913000D01*
X130315000Y-108909000D01*
X130274386Y-108913000D01*
X122210971Y-108913000D01*
X122439969Y-108818146D01*
X122739205Y-108618204D01*
X122993684Y-108363725D01*
X123193626Y-108064489D01*
X123331349Y-107731996D01*
X123401560Y-107379024D01*
X123401560Y-107019136D01*
X123331349Y-106666164D01*
X123193626Y-106333671D01*
X122993684Y-106034435D01*
X122739205Y-105779956D01*
X122439969Y-105580014D01*
X122107476Y-105442291D01*
X121754504Y-105372080D01*
X121394616Y-105372080D01*
X121041644Y-105442291D01*
X120709151Y-105580014D01*
X120409915Y-105779956D01*
X120155436Y-106034435D01*
X119955494Y-106333671D01*
X119817771Y-106666164D01*
X119747560Y-107019136D01*
X119747560Y-107379024D01*
X119817771Y-107731996D01*
X119955494Y-108064489D01*
X120155436Y-108363725D01*
X120409915Y-108618204D01*
X120709151Y-108818146D01*
X120938149Y-108913000D01*
X106814354Y-108913000D01*
X106876974Y-108879529D01*
X106949606Y-108819921D01*
X106964540Y-108801724D01*
X108585730Y-107180535D01*
X108603922Y-107165605D01*
X108663530Y-107092973D01*
X108707823Y-107010107D01*
X108735098Y-106920192D01*
X108742001Y-106850107D01*
X108742001Y-106850100D01*
X108744307Y-106826685D01*
X108742001Y-106803270D01*
X108742001Y-103343416D01*
X108744307Y-103320001D01*
X108742001Y-103296586D01*
X108742001Y-103296578D01*
X108735098Y-103226493D01*
X108707823Y-103136578D01*
X108663530Y-103053712D01*
X108647232Y-103033853D01*
X108618853Y-102999273D01*
X108618851Y-102999271D01*
X108603922Y-102981080D01*
X108585730Y-102966151D01*
X104812066Y-99192487D01*
X107621053Y-96383501D01*
X107652606Y-96357606D01*
X107732736Y-96259968D01*
X107755952Y-96231680D01*
X107813369Y-96124260D01*
X107832745Y-96088010D01*
X107872942Y-95955499D01*
X109125944Y-97208501D01*
X109220315Y-97285951D01*
X109363985Y-97362743D01*
X109519875Y-97410032D01*
X109681995Y-97425999D01*
X109844116Y-97410032D01*
X109943000Y-97380036D01*
X109943000Y-97762550D01*
X109950915Y-97842915D01*
X109973000Y-97915720D01*
X109973000Y-98570625D01*
X109984966Y-98692121D01*
X110023000Y-98817502D01*
X110023001Y-101157187D01*
X110019241Y-101195360D01*
X110034244Y-101347678D01*
X110078673Y-101494143D01*
X110150823Y-101629126D01*
X110214891Y-101707193D01*
X110247921Y-101747440D01*
X110277565Y-101771768D01*
X111243232Y-102737436D01*
X111267560Y-102767080D01*
X111297204Y-102791408D01*
X111297205Y-102791409D01*
X111357260Y-102840694D01*
X111385874Y-102864177D01*
X111520856Y-102936327D01*
X111667321Y-102980757D01*
X111781474Y-102992000D01*
X111781476Y-102992000D01*
X111819640Y-102995759D01*
X111857803Y-102992000D01*
X115573166Y-102992000D01*
X115687319Y-102980757D01*
X115833784Y-102936327D01*
X115968766Y-102864177D01*
X116087080Y-102767080D01*
X116184177Y-102648766D01*
X116205754Y-102608398D01*
X123283000Y-102608398D01*
X123283000Y-102751604D01*
X123310938Y-102892059D01*
X123365741Y-103024365D01*
X123445302Y-103143437D01*
X123546564Y-103244699D01*
X123665636Y-103324260D01*
X123797942Y-103379063D01*
X123938397Y-103407001D01*
X124081603Y-103407001D01*
X124222058Y-103379063D01*
X124354364Y-103324260D01*
X124473436Y-103244699D01*
X124574698Y-103143437D01*
X124654259Y-103024365D01*
X124709062Y-102892059D01*
X124737000Y-102751604D01*
X124737000Y-102608398D01*
X124729586Y-102571124D01*
X124750096Y-102503510D01*
X124756999Y-102433425D01*
X124756999Y-102433418D01*
X124759305Y-102410003D01*
X124756999Y-102386588D01*
X124756999Y-96765578D01*
X125565577Y-95957001D01*
X132683866Y-95957001D01*
X132771564Y-96044699D01*
X132890636Y-96124260D01*
X133022942Y-96179063D01*
X133163397Y-96207001D01*
X133306603Y-96207001D01*
X133447058Y-96179063D01*
X133579364Y-96124260D01*
X133698436Y-96044699D01*
X133799698Y-95943437D01*
X133879259Y-95824365D01*
X133934062Y-95692059D01*
X133962000Y-95551604D01*
X133962000Y-95408398D01*
X133934062Y-95267943D01*
X133879259Y-95135637D01*
X133799698Y-95016565D01*
X133698436Y-94915303D01*
X133579364Y-94835742D01*
X133447058Y-94780939D01*
X133306603Y-94753001D01*
X133163397Y-94753001D01*
X133022942Y-94780939D01*
X132890636Y-94835742D01*
X132771564Y-94915303D01*
X132683866Y-95003001D01*
X125391420Y-95003001D01*
X125367997Y-95000694D01*
X125274489Y-95009904D01*
X125184574Y-95037179D01*
X125101708Y-95081472D01*
X125079321Y-95099845D01*
X125029076Y-95141080D01*
X125014146Y-95159272D01*
X123959270Y-96214149D01*
X123941079Y-96229078D01*
X123881471Y-96301710D01*
X123868460Y-96326052D01*
X123837177Y-96384577D01*
X123809902Y-96474492D01*
X123800693Y-96567999D01*
X123803000Y-96591424D01*
X123802999Y-101979933D01*
X123797942Y-101980939D01*
X123665636Y-102035742D01*
X123546564Y-102115303D01*
X123445302Y-102216565D01*
X123365741Y-102335637D01*
X123310938Y-102467943D01*
X123283000Y-102608398D01*
X116205754Y-102608398D01*
X116256327Y-102513784D01*
X116300757Y-102367319D01*
X116315759Y-102215000D01*
X116300757Y-102062681D01*
X116256327Y-101916216D01*
X116184177Y-101781234D01*
X116087080Y-101662920D01*
X115968766Y-101565823D01*
X115833784Y-101493673D01*
X115687319Y-101449243D01*
X115573166Y-101438000D01*
X112141484Y-101438000D01*
X111577000Y-100873517D01*
X111577000Y-98817503D01*
X111615034Y-98692122D01*
X111627000Y-98570626D01*
X111627000Y-97034378D01*
X111615034Y-96912882D01*
X111567745Y-96756992D01*
X111490952Y-96613323D01*
X111387606Y-96487396D01*
X111261679Y-96384050D01*
X111118010Y-96307257D01*
X110962120Y-96259968D01*
X110800000Y-96244001D01*
X110637881Y-96259968D01*
X110558899Y-96283927D01*
X107892000Y-93617029D01*
X107892000Y-90014376D01*
X107880034Y-89892880D01*
X107832745Y-89736990D01*
X107755952Y-89593321D01*
X107652606Y-89467394D01*
X107526678Y-89364048D01*
X107383009Y-89287255D01*
X107227119Y-89239966D01*
X107065000Y-89223999D01*
X106902880Y-89239966D01*
X106746990Y-89287255D01*
X106603321Y-89364048D01*
X106477394Y-89467394D01*
X106374048Y-89593322D01*
X106297255Y-89736991D01*
X106249966Y-89892881D01*
X106238000Y-90014377D01*
X106238001Y-93937382D01*
X106234000Y-93978003D01*
X106238001Y-94018624D01*
X106238001Y-95427445D01*
X103333952Y-98331495D01*
X103302394Y-98357394D01*
X103199048Y-98483321D01*
X103122255Y-98626990D01*
X103074966Y-98782880D01*
X103058999Y-98945000D01*
X103074966Y-99107120D01*
X103122255Y-99263010D01*
X103199048Y-99406679D01*
X103302394Y-99532606D01*
X103428321Y-99635952D01*
X103571990Y-99712745D01*
X103727880Y-99760034D01*
X103849376Y-99772000D01*
X103849386Y-99772000D01*
X103890000Y-99776000D01*
X103930614Y-99772000D01*
X103930624Y-99772000D01*
X104032397Y-99761976D01*
X107788002Y-103517582D01*
X107788002Y-104997528D01*
X107622519Y-104886956D01*
X107408318Y-104798231D01*
X107180924Y-104753000D01*
X106949076Y-104753000D01*
X106721682Y-104798231D01*
X106507481Y-104886956D01*
X106314706Y-105015764D01*
X106150764Y-105179706D01*
X106021956Y-105372481D01*
X105933231Y-105586682D01*
X105888000Y-105814076D01*
X105888000Y-106045924D01*
X105933231Y-106273318D01*
X106021956Y-106487519D01*
X106150764Y-106680294D01*
X106314706Y-106844236D01*
X106507481Y-106973044D01*
X106721682Y-107061769D01*
X106949076Y-107107000D01*
X107180924Y-107107000D01*
X107342181Y-107074924D01*
X106413106Y-108004000D01*
X106368007Y-108004000D01*
X106359698Y-107991564D01*
X106258436Y-107890302D01*
X106139364Y-107810741D01*
X106007058Y-107755938D01*
X105866603Y-107728000D01*
X105723397Y-107728000D01*
X105582942Y-107755938D01*
X105450636Y-107810741D01*
X105331564Y-107890302D01*
X105230302Y-107991564D01*
X105150741Y-108110636D01*
X105095938Y-108242942D01*
X105068000Y-108383397D01*
X105068000Y-108526603D01*
X105095938Y-108667058D01*
X105150741Y-108799364D01*
X105226670Y-108913000D01*
X96459154Y-108913000D01*
X95363000Y-107816847D01*
X95363000Y-106780000D01*
X95416928Y-106780000D01*
X95429188Y-106904482D01*
X95465498Y-107024180D01*
X95524463Y-107134494D01*
X95603815Y-107231185D01*
X95700506Y-107310537D01*
X95810820Y-107369502D01*
X95930518Y-107405812D01*
X96055000Y-107418072D01*
X96619250Y-107415000D01*
X96778000Y-107256250D01*
X96778000Y-106057000D01*
X95578750Y-106057000D01*
X95420000Y-106215750D01*
X95416928Y-106780000D01*
X95363000Y-106780000D01*
X95363000Y-105080000D01*
X95416928Y-105080000D01*
X95420000Y-105644250D01*
X95578750Y-105803000D01*
X96778000Y-105803000D01*
X96778000Y-104603750D01*
X97032000Y-104603750D01*
X97032000Y-105803000D01*
X97052000Y-105803000D01*
X97052000Y-106057000D01*
X97032000Y-106057000D01*
X97032000Y-107256250D01*
X97190750Y-107415000D01*
X97755000Y-107418072D01*
X97879482Y-107405812D01*
X97999180Y-107369502D01*
X98109494Y-107310537D01*
X98206185Y-107231185D01*
X98285537Y-107134494D01*
X98344502Y-107024180D01*
X98380812Y-106904482D01*
X98393072Y-106780000D01*
X98391340Y-106461890D01*
X98401956Y-106487519D01*
X98530764Y-106680294D01*
X98694706Y-106844236D01*
X98887481Y-106973044D01*
X99101682Y-107061769D01*
X99329076Y-107107000D01*
X99560924Y-107107000D01*
X99788318Y-107061769D01*
X100002519Y-106973044D01*
X100195294Y-106844236D01*
X100359236Y-106680294D01*
X100488044Y-106487519D01*
X100576769Y-106273318D01*
X100622000Y-106045924D01*
X100622000Y-105814076D01*
X100808000Y-105814076D01*
X100808000Y-106045924D01*
X100853231Y-106273318D01*
X100941956Y-106487519D01*
X101070764Y-106680294D01*
X101234706Y-106844236D01*
X101427481Y-106973044D01*
X101641682Y-107061769D01*
X101869076Y-107107000D01*
X102100924Y-107107000D01*
X102328318Y-107061769D01*
X102542519Y-106973044D01*
X102735294Y-106844236D01*
X102899236Y-106680294D01*
X103028044Y-106487519D01*
X103116769Y-106273318D01*
X103162000Y-106045924D01*
X103162000Y-105814076D01*
X103348000Y-105814076D01*
X103348000Y-106045924D01*
X103393231Y-106273318D01*
X103481956Y-106487519D01*
X103610764Y-106680294D01*
X103774706Y-106844236D01*
X103967481Y-106973044D01*
X104181682Y-107061769D01*
X104409076Y-107107000D01*
X104640924Y-107107000D01*
X104868318Y-107061769D01*
X105082519Y-106973044D01*
X105275294Y-106844236D01*
X105439236Y-106680294D01*
X105568044Y-106487519D01*
X105656769Y-106273318D01*
X105702000Y-106045924D01*
X105702000Y-105814076D01*
X105656769Y-105586682D01*
X105568044Y-105372481D01*
X105439236Y-105179706D01*
X105275294Y-105015764D01*
X105082519Y-104886956D01*
X104868318Y-104798231D01*
X104640924Y-104753000D01*
X104409076Y-104753000D01*
X104181682Y-104798231D01*
X103967481Y-104886956D01*
X103774706Y-105015764D01*
X103610764Y-105179706D01*
X103481956Y-105372481D01*
X103393231Y-105586682D01*
X103348000Y-105814076D01*
X103162000Y-105814076D01*
X103116769Y-105586682D01*
X103028044Y-105372481D01*
X102899236Y-105179706D01*
X102735294Y-105015764D01*
X102542519Y-104886956D01*
X102328318Y-104798231D01*
X102100924Y-104753000D01*
X101869076Y-104753000D01*
X101641682Y-104798231D01*
X101427481Y-104886956D01*
X101234706Y-105015764D01*
X101070764Y-105179706D01*
X100941956Y-105372481D01*
X100853231Y-105586682D01*
X100808000Y-105814076D01*
X100622000Y-105814076D01*
X100576769Y-105586682D01*
X100488044Y-105372481D01*
X100359236Y-105179706D01*
X100195294Y-105015764D01*
X100002519Y-104886956D01*
X99788318Y-104798231D01*
X99560924Y-104753000D01*
X99329076Y-104753000D01*
X99101682Y-104798231D01*
X98887481Y-104886956D01*
X98694706Y-105015764D01*
X98530764Y-105179706D01*
X98401956Y-105372481D01*
X98391340Y-105398110D01*
X98393072Y-105080000D01*
X98380812Y-104955518D01*
X98344502Y-104835820D01*
X98285537Y-104725506D01*
X98206185Y-104628815D01*
X98109494Y-104549463D01*
X97999180Y-104490498D01*
X97879482Y-104454188D01*
X97755000Y-104441928D01*
X97190750Y-104445000D01*
X97032000Y-104603750D01*
X96778000Y-104603750D01*
X96619250Y-104445000D01*
X96055000Y-104441928D01*
X95930518Y-104454188D01*
X95810820Y-104490498D01*
X95700506Y-104549463D01*
X95603815Y-104628815D01*
X95524463Y-104725506D01*
X95465498Y-104835820D01*
X95429188Y-104955518D01*
X95416928Y-105080000D01*
X95363000Y-105080000D01*
X95363000Y-93755256D01*
X98909400Y-93755256D01*
X98909400Y-94115144D01*
X98979611Y-94468116D01*
X99117334Y-94800609D01*
X99317276Y-95099845D01*
X99571755Y-95354324D01*
X99870991Y-95554266D01*
X100203484Y-95691989D01*
X100556456Y-95762200D01*
X100916344Y-95762200D01*
X101269316Y-95691989D01*
X101601809Y-95554266D01*
X101901045Y-95354324D01*
X102155524Y-95099845D01*
X102355466Y-94800609D01*
X102493189Y-94468116D01*
X102563400Y-94115144D01*
X102563400Y-93755256D01*
X102493189Y-93402284D01*
X102355466Y-93069791D01*
X102155524Y-92770555D01*
X101901045Y-92516076D01*
X101601809Y-92316134D01*
X101269316Y-92178411D01*
X100916344Y-92108200D01*
X100556456Y-92108200D01*
X100203484Y-92178411D01*
X99870991Y-92316134D01*
X99571755Y-92516076D01*
X99317276Y-92770555D01*
X99117334Y-93069791D01*
X98979611Y-93402284D01*
X98909400Y-93755256D01*
X95363000Y-93755256D01*
X95363000Y-89199053D01*
X96526998Y-88035056D01*
X107408000Y-88035056D01*
X107408000Y-88394944D01*
X107478211Y-88747916D01*
X107615934Y-89080409D01*
X107815876Y-89379645D01*
X108070355Y-89634124D01*
X108369591Y-89834066D01*
X108702084Y-89971789D01*
X109055056Y-90042000D01*
X109414944Y-90042000D01*
X109767916Y-89971789D01*
X110100409Y-89834066D01*
X110399645Y-89634124D01*
X110453713Y-89580056D01*
X138543000Y-89580056D01*
X138543000Y-89939944D01*
X138613211Y-90292916D01*
X138750934Y-90625409D01*
X138950876Y-90924645D01*
X139205355Y-91179124D01*
X139504591Y-91379066D01*
X139837084Y-91516789D01*
X140190056Y-91587000D01*
X140549944Y-91587000D01*
X140902916Y-91516789D01*
X141235409Y-91379066D01*
X141534645Y-91179124D01*
X141789124Y-90924645D01*
X141989066Y-90625409D01*
X142126789Y-90292916D01*
X142197000Y-89939944D01*
X142197000Y-89580056D01*
X142126789Y-89227084D01*
X141989066Y-88894591D01*
X141789124Y-88595355D01*
X141534645Y-88340876D01*
X141235409Y-88140934D01*
X140902916Y-88003211D01*
X140549944Y-87933000D01*
X140190056Y-87933000D01*
X139837084Y-88003211D01*
X139504591Y-88140934D01*
X139205355Y-88340876D01*
X138950876Y-88595355D01*
X138750934Y-88894591D01*
X138613211Y-89227084D01*
X138543000Y-89580056D01*
X110453713Y-89580056D01*
X110654124Y-89379645D01*
X110854066Y-89080409D01*
X110991789Y-88747916D01*
X111062000Y-88394944D01*
X111062000Y-88035056D01*
X110991789Y-87682084D01*
X110854066Y-87349591D01*
X110654124Y-87050355D01*
X110399645Y-86795876D01*
X110100409Y-86595934D01*
X109767916Y-86458211D01*
X109414944Y-86388000D01*
X109055056Y-86388000D01*
X108702084Y-86458211D01*
X108369591Y-86595934D01*
X108070355Y-86795876D01*
X107815876Y-87050355D01*
X107615934Y-87349591D01*
X107478211Y-87682084D01*
X107408000Y-88035056D01*
X96526998Y-88035056D01*
X96949058Y-87612997D01*
X96980606Y-87587106D01*
X97006496Y-87555559D01*
X97006503Y-87555552D01*
X97083952Y-87461180D01*
X97160745Y-87317511D01*
X97192885Y-87211558D01*
X97208034Y-87161620D01*
X97224001Y-86999500D01*
X97208034Y-86837380D01*
X97160745Y-86681490D01*
X97083952Y-86537820D01*
X96980606Y-86411894D01*
X96854680Y-86308548D01*
X96711010Y-86231755D01*
X96555120Y-86184466D01*
X96433624Y-86172500D01*
X96433614Y-86172500D01*
X96393000Y-86168500D01*
X96352386Y-86172500D01*
X96352376Y-86172500D01*
X96230880Y-86184466D01*
X96122278Y-86217410D01*
X96074989Y-86231755D01*
X95931320Y-86308548D01*
X95836948Y-86385997D01*
X95836941Y-86386004D01*
X95805394Y-86411894D01*
X95779503Y-86443442D01*
X93979952Y-88242995D01*
X93948394Y-88268894D01*
X93922498Y-88300449D01*
X93845048Y-88394821D01*
X93804002Y-88471614D01*
X93768255Y-88538491D01*
X93720966Y-88694381D01*
X93709000Y-88815877D01*
X93709000Y-88815886D01*
X93705000Y-88856500D01*
X89627000Y-88856500D01*
X89627000Y-84155600D01*
X101259618Y-84155600D01*
X101259618Y-85855600D01*
X101265932Y-85919703D01*
X101284630Y-85981343D01*
X101314994Y-86038150D01*
X101355857Y-86087943D01*
X101405650Y-86128806D01*
X101462457Y-86159170D01*
X101524097Y-86177868D01*
X101588200Y-86184182D01*
X103288200Y-86184182D01*
X103352303Y-86177868D01*
X103413943Y-86159170D01*
X103470750Y-86128806D01*
X103520543Y-86087943D01*
X103561406Y-86038150D01*
X103591770Y-85981343D01*
X103610468Y-85919703D01*
X103616782Y-85855600D01*
X103616782Y-85588192D01*
X103634043Y-85636852D01*
X103783022Y-85886955D01*
X103977931Y-86103188D01*
X104211280Y-86277241D01*
X104474101Y-86402425D01*
X104621310Y-86447076D01*
X104851200Y-86325755D01*
X104851200Y-85132600D01*
X105105200Y-85132600D01*
X105105200Y-86325755D01*
X105335090Y-86447076D01*
X105482299Y-86402425D01*
X105745120Y-86277241D01*
X105978469Y-86103188D01*
X106173378Y-85886955D01*
X106322357Y-85636852D01*
X106419681Y-85362491D01*
X106299014Y-85132600D01*
X105105200Y-85132600D01*
X104851200Y-85132600D01*
X104831200Y-85132600D01*
X104831200Y-84878600D01*
X104851200Y-84878600D01*
X104851200Y-83685445D01*
X105105200Y-83685445D01*
X105105200Y-84878600D01*
X106299014Y-84878600D01*
X106419681Y-84648709D01*
X106322357Y-84374348D01*
X106173378Y-84124245D01*
X105978469Y-83908012D01*
X105819723Y-83789604D01*
X142603000Y-83789604D01*
X142603000Y-84090396D01*
X142661681Y-84385410D01*
X142776790Y-84663306D01*
X142943901Y-84913406D01*
X143156594Y-85126099D01*
X143406694Y-85293210D01*
X143684590Y-85408319D01*
X143979604Y-85467000D01*
X144280396Y-85467000D01*
X144575410Y-85408319D01*
X144853306Y-85293210D01*
X145103406Y-85126099D01*
X145316099Y-84913406D01*
X145483210Y-84663306D01*
X145598319Y-84385410D01*
X145657000Y-84090396D01*
X145657000Y-83789604D01*
X145598319Y-83494590D01*
X145483210Y-83216694D01*
X145316099Y-82966594D01*
X145103406Y-82753901D01*
X144853306Y-82586790D01*
X144575410Y-82471681D01*
X144280396Y-82413000D01*
X143979604Y-82413000D01*
X143684590Y-82471681D01*
X143406694Y-82586790D01*
X143156594Y-82753901D01*
X142943901Y-82966594D01*
X142776790Y-83216694D01*
X142661681Y-83494590D01*
X142603000Y-83789604D01*
X105819723Y-83789604D01*
X105745120Y-83733959D01*
X105482299Y-83608775D01*
X105335090Y-83564124D01*
X105105200Y-83685445D01*
X104851200Y-83685445D01*
X104621310Y-83564124D01*
X104474101Y-83608775D01*
X104211280Y-83733959D01*
X103977931Y-83908012D01*
X103783022Y-84124245D01*
X103634043Y-84374348D01*
X103616782Y-84423008D01*
X103616782Y-84155600D01*
X103610468Y-84091497D01*
X103591770Y-84029857D01*
X103561406Y-83973050D01*
X103520543Y-83923257D01*
X103470750Y-83882394D01*
X103413943Y-83852030D01*
X103352303Y-83833332D01*
X103288200Y-83827018D01*
X101588200Y-83827018D01*
X101524097Y-83833332D01*
X101462457Y-83852030D01*
X101405650Y-83882394D01*
X101355857Y-83923257D01*
X101314994Y-83973050D01*
X101284630Y-84029857D01*
X101265932Y-84091497D01*
X101259618Y-84155600D01*
X89627000Y-84155600D01*
X89627000Y-80317000D01*
X147753000Y-80317000D01*
X147753001Y-121473000D01*
G37*
%TD.AperFunction*%
%TD*%
M02*
