M48
; DRILL file {KiCad (5.1.8)-1} date 01/15/21 02:00:05
; FORMAT={-:-/ absolute / inch / decimal}
; #@! TF.CreationDate,2021-01-15T02:00:05+01:00
; #@! TF.GenerationSoftware,Kicad,Pcbnew,(5.1.8)-1
FMAT,2
INCH
T1C0.0079
T2C0.0118
T3C0.0157
T4C0.0181
T5C0.0394
T6C0.0630
T7C0.0748
T8C0.0787
%
G90
G05
T1
X4.4208Y-3.7998
X4.4332Y-3.9188
X4.434Y-3.8152
X5.0585Y-4.0537
X5.0978Y-4.0931
X5.1372Y-4.0537
X5.1879Y-4.0227
X5.1923Y-4.065
X5.2219Y-4.0945
X5.3262Y-4.0945
X5.3411Y-3.7443
X5.3577Y-4.065
X5.3797Y-3.7805
X5.3813Y-3.8207
X5.2258Y-3.8864
X5.2258Y-3.9061
X5.2258Y-3.9455
X5.2258Y-3.9848
X5.2455Y-3.9258
X5.2455Y-3.9652
X5.2455Y-4.0045
X5.2652Y-3.9061
X5.2652Y-3.9455
X5.2652Y-3.9848
X5.2848Y-3.9258
X5.2848Y-3.9652
X5.3045Y-3.9061
X5.3045Y-3.9455
X5.3045Y-3.9848
X5.3045Y-4.0045
X5.3242Y-3.9061
X5.3242Y-3.9652
X5.5071Y-3.902
X5.5071Y-3.9689
X5.5209Y-3.9157
X5.5209Y-3.9354
X5.5209Y-3.9551
X5.5406Y-3.9157
X5.5406Y-3.9354
X5.5406Y-3.9551
X5.5602Y-3.9157
X5.5602Y-3.9354
X5.5602Y-3.9551
X5.574Y-3.902
X5.574Y-3.9689
T2
X4.4189Y-3.7772
X4.4559Y-3.8142
X4.4559Y-3.8327
X4.4559Y-3.8961
X4.4559Y-3.9146
X4.4744Y-3.8142
X4.4744Y-3.8327
X4.4744Y-3.8961
X4.4744Y-3.9146
X4.4929Y-3.8142
X4.4929Y-3.8327
X4.4929Y-3.8961
X4.4929Y-3.9146
X4.5114Y-3.8142
X4.5114Y-3.8327
X4.5114Y-3.8961
X4.5114Y-3.9146
X4.5299Y-3.8142
X4.5299Y-3.8327
X4.5299Y-3.8961
X4.5299Y-3.9146
X4.5484Y-3.8142
X4.5484Y-3.8327
X4.5484Y-3.8961
X4.5484Y-3.9146
X4.5669Y-3.8142
X4.5669Y-3.8327
X4.5669Y-3.8961
X4.5669Y-3.9146
X4.5854Y-3.8142
X4.5854Y-3.8327
X4.5854Y-3.8961
X4.5854Y-3.9146
X4.6039Y-3.8142
X4.6039Y-3.8327
X4.6039Y-3.9
X4.6039Y-3.9185
X4.6224Y-3.8142
X4.6224Y-3.8327
X4.6224Y-3.9
X4.6224Y-3.9185
X4.6409Y-3.8142
X4.6409Y-3.8327
X4.6409Y-3.9
X4.6409Y-3.9185
X4.6594Y-3.8142
X4.6594Y-3.8327
X4.6594Y-3.9
X4.6594Y-3.9185
X4.678Y-3.8142
X4.678Y-3.8327
X4.678Y-3.9
X4.678Y-3.9185
X4.6965Y-3.8142
X4.6965Y-3.8327
X4.6965Y-3.8961
X4.6965Y-3.9146
X4.715Y-3.8142
X4.715Y-3.8327
X4.715Y-3.8961
X4.715Y-3.9146
X4.7335Y-3.8142
X4.7335Y-3.8327
X4.7335Y-3.8961
X4.7335Y-3.9146
X4.752Y-3.8142
X4.752Y-3.8327
X4.752Y-3.8961
X4.752Y-3.9146
X4.7705Y-3.8142
X4.7705Y-3.8327
X4.7705Y-3.8961
X4.7705Y-3.9146
X4.789Y-3.8142
X4.789Y-3.8327
X4.789Y-3.8961
X4.789Y-3.9146
X4.8075Y-3.8142
X4.8075Y-3.8327
X4.8075Y-3.8961
X4.8075Y-3.9146
X4.826Y-3.8142
X4.826Y-3.8327
X4.826Y-3.8961
X4.826Y-3.9146
X4.8445Y-3.8142
X4.8445Y-3.8327
X4.8445Y-3.8961
X4.8445Y-3.9146
X4.863Y-3.8142
X4.863Y-3.8327
X4.863Y-3.8961
X4.863Y-3.9146
X4.9185Y-3.8142
X4.9185Y-3.8327
X4.9185Y-3.8961
X4.9185Y-3.9146
X4.937Y-3.8142
X4.937Y-3.8327
X4.937Y-3.8961
X4.937Y-3.9146
X4.9555Y-3.8142
X4.9555Y-3.8142
X4.9555Y-3.8327
X4.9555Y-3.8327
X4.9555Y-3.8961
X4.9555Y-3.9146
X4.974Y-3.8142
X4.974Y-3.8327
X4.974Y-3.8961
X4.974Y-3.9146
X4.9925Y-3.8142
X4.9925Y-3.8327
X4.9925Y-3.8961
X4.9925Y-3.9146
X5.011Y-3.8142
X5.011Y-3.8327
X5.011Y-3.9146
X5.011Y-3.9331
X5.0295Y-3.8142
X5.0295Y-3.8327
X5.0295Y-3.9331
X5.0295Y-3.9516
X5.048Y-3.8327
X5.048Y-3.8512
X5.048Y-3.9516
X5.048Y-3.9701
X5.0665Y-3.8512
X5.0665Y-3.8697
X5.0665Y-3.9516
X5.0665Y-3.9701
X5.085Y-3.8697
X5.085Y-3.8882
X5.085Y-3.9516
X5.085Y-3.9701
X5.1035Y-3.8697
X5.1035Y-3.8882
X5.1035Y-3.9516
X5.1035Y-3.9701
X5.122Y-3.8697
X5.122Y-3.8882
X5.1406Y-3.8697
X5.1406Y-3.8882
X5.3898Y-3.8874
X5.3898Y-3.9059
X5.3902Y-3.9648
X5.3902Y-3.9833
X5.4083Y-3.8874
X5.4083Y-3.9059
X5.4087Y-3.9648
X5.4087Y-3.9833
X5.4268Y-3.8874
X5.4268Y-3.9059
X5.4272Y-3.9648
X5.4272Y-3.9833
X5.4453Y-3.8874
X5.4453Y-3.9059
X5.4457Y-3.9648
X5.4457Y-3.9833
X5.4563Y-4.5886
X5.4563Y-4.6071
X5.4563Y-4.6256
X5.4563Y-4.6441
X5.4563Y-4.6626
X5.4563Y-4.6811
X5.4563Y-4.6996
X5.4563Y-4.7181
X5.4563Y-4.7366
X5.4563Y-4.7551
X5.4563Y-4.7736
X5.4642Y-3.8874
X5.4642Y-3.9059
X5.4642Y-3.9648
X5.4642Y-3.9833
X5.4642Y-4.003
X5.474Y-4.0226
X5.4748Y-4.5701
X5.4748Y-4.5886
X5.4748Y-4.6071
X5.4748Y-4.6256
X5.4748Y-4.6441
X5.4748Y-4.6626
X5.4748Y-4.6811
X5.4748Y-4.6996
X5.4748Y-4.7181
X5.4748Y-4.7366
X5.4748Y-4.7551
X5.4748Y-4.7736
X5.4827Y-3.8689
X5.4933Y-4.0335
X5.4933Y-4.052
X5.4933Y-4.0705
X5.4933Y-4.089
X5.4933Y-4.1075
X5.4933Y-4.126
X5.4933Y-4.1445
X5.4933Y-4.163
X5.4933Y-4.1815
X5.4933Y-4.2
X5.4933Y-4.2185
X5.4933Y-4.237
X5.4933Y-4.2555
X5.4933Y-4.274
X5.4933Y-4.2925
X5.4933Y-4.311
X5.4933Y-4.3295
X5.4933Y-4.348
X5.4933Y-4.3665
X5.4933Y-4.385
X5.4933Y-4.4035
X5.4933Y-4.422
X5.4933Y-4.4406
X5.4933Y-4.4591
X5.4933Y-4.4776
X5.4933Y-4.4961
X5.4933Y-4.5146
X5.4933Y-4.5331
X5.4933Y-4.5516
X5.4933Y-4.5701
X5.5012Y-3.8504
X5.5118Y-4.0335
X5.5118Y-4.052
X5.5118Y-4.0705
X5.5118Y-4.089
X5.5118Y-4.1075
X5.5118Y-4.126
X5.5118Y-4.1445
X5.5118Y-4.163
X5.5118Y-4.1815
X5.5118Y-4.2
X5.5118Y-4.2
X5.5118Y-4.2185
X5.5118Y-4.237
X5.5118Y-4.2555
X5.5118Y-4.274
X5.5118Y-4.2925
X5.5118Y-4.311
X5.5118Y-4.3295
X5.5118Y-4.348
X5.5118Y-4.3665
X5.5118Y-4.385
X5.5118Y-4.4035
X5.5118Y-4.422
X5.5118Y-4.4406
X5.5118Y-4.4591
X5.5118Y-4.4776
X5.5118Y-4.4961
X5.5118Y-4.5146
X5.5118Y-4.5331
X5.5118Y-4.5516
X5.5118Y-4.5701
X5.5197Y-3.8504
X5.5382Y-3.8504
X5.5567Y-3.8504
X5.5693Y-4.0335
X5.5693Y-4.052
X5.5693Y-4.0705
X5.5693Y-4.089
X5.5693Y-4.1075
X5.5693Y-4.126
X5.5693Y-4.1445
X5.5693Y-4.163
X5.5693Y-4.1815
X5.5693Y-4.2
X5.5693Y-4.2185
X5.5693Y-4.237
X5.5693Y-4.2555
X5.5693Y-4.274
X5.5693Y-4.2925
X5.5693Y-4.311
X5.5693Y-4.3295
X5.5693Y-4.348
X5.5693Y-4.3665
X5.5693Y-4.385
X5.5693Y-4.4035
X5.5693Y-4.422
X5.5693Y-4.4406
X5.5693Y-4.4591
X5.5693Y-4.4776
X5.5693Y-4.4961
X5.5693Y-4.5146
X5.5693Y-4.5331
X5.5693Y-4.5516
X5.5693Y-4.5701
X5.5752Y-3.8504
X5.5878Y-4.0335
X5.5878Y-4.052
X5.5878Y-4.0705
X5.5878Y-4.089
X5.5878Y-4.1075
X5.5878Y-4.126
X5.5878Y-4.1445
X5.5878Y-4.163
X5.5878Y-4.1815
X5.5878Y-4.2
X5.5878Y-4.2185
X5.5878Y-4.237
X5.5878Y-4.2555
X5.5878Y-4.274
X5.5878Y-4.2925
X5.5878Y-4.311
X5.5878Y-4.3295
X5.5878Y-4.348
X5.5878Y-4.3665
X5.5878Y-4.385
X5.5878Y-4.4035
X5.5878Y-4.422
X5.5878Y-4.4406
X5.5878Y-4.4591
X5.5878Y-4.4776
X5.5878Y-4.4961
X5.5878Y-4.5146
X5.5878Y-4.5331
X5.5878Y-4.5516
X5.5878Y-4.5701
X5.5937Y-3.8689
X5.6063Y-4.5701
X5.6063Y-4.5886
X5.6063Y-4.6071
X5.6063Y-4.6256
X5.6063Y-4.6441
X5.6063Y-4.6626
X5.6063Y-4.6811
X5.6063Y-4.6996
X5.6063Y-4.7181
X5.6063Y-4.7366
X5.6063Y-4.7551
X5.6063Y-4.7736
X5.6106Y-4.0228
X5.611Y-3.8874
X5.6205Y-4.0031
X5.6248Y-4.5886
X5.6248Y-4.6071
X5.6248Y-4.6256
X5.6248Y-4.6441
X5.6248Y-4.6626
X5.6248Y-4.6811
X5.6248Y-4.6996
X5.6248Y-4.7181
X5.6248Y-4.7366
X5.6248Y-4.7551
X5.6248Y-4.7736
X5.6303Y-3.8876
X5.6303Y-3.9061
X5.6303Y-3.965
X5.6303Y-3.9835
X5.6488Y-3.8876
X5.6488Y-3.9061
X5.6488Y-3.965
X5.6488Y-3.9835
X5.6673Y-3.8876
X5.6673Y-3.9061
X5.6673Y-3.965
X5.6673Y-3.9835
X5.6858Y-3.8876
X5.6858Y-3.9061
X5.6858Y-3.965
X5.6858Y-3.9835
X5.7043Y-3.8876
X5.7043Y-3.9061
X5.7043Y-3.965
X5.7043Y-3.9835
X5.7228Y-3.8876
X5.7228Y-3.9061
X5.7228Y-3.965
X5.7228Y-3.9835
X5.7413Y-3.8691
X5.7413Y-3.8876
X5.7413Y-3.9061
X5.7413Y-3.965
X5.7413Y-3.9835
X5.7413Y-4.002
X5.7598Y-3.8506
X5.7598Y-3.8691
X5.7598Y-3.8876
X5.7598Y-3.9061
X5.7598Y-3.965
X5.7598Y-3.9835
X5.7598Y-4.002
X5.7598Y-4.0205
X5.7783Y-3.8321
X5.7783Y-3.8506
X5.7783Y-3.8691
X5.7783Y-3.8876
X5.7783Y-3.9061
X5.7783Y-3.965
X5.7783Y-3.9835
X5.7783Y-4.002
X5.7783Y-4.0205
X5.7783Y-4.039
X5.7969Y-3.8136
X5.7969Y-3.8321
X5.7969Y-3.8506
X5.7969Y-3.8691
X5.7969Y-3.8876
X5.7969Y-3.9061
X5.7969Y-3.965
X5.7969Y-3.9835
X5.7969Y-4.002
X5.7969Y-4.0205
X5.7969Y-4.039
X5.7969Y-4.0575
X5.8154Y-3.7951
X5.8154Y-3.8136
X5.8154Y-3.8321
X5.8154Y-3.8506
X5.8154Y-3.8691
X5.8154Y-3.8876
X5.8154Y-3.9061
X5.8154Y-3.965
X5.8154Y-3.9835
X5.8154Y-4.002
X5.8154Y-4.0205
X5.8154Y-4.039
X5.8154Y-4.0575
X5.8154Y-4.076
T3
X3.795Y-3.4252
X3.8281Y-3.6699
X4.025Y-4.3785
X4.0659Y-3.9364
X4.0902Y-3.8955
X4.1167Y-3.7156
X4.1652Y-4.2699
X4.2152Y-3.5455
X4.3579Y-3.7785
X4.3923Y-4.1195
X4.4492Y-3.6488
X4.5102Y-3.9461
X4.5486Y-4.0242
X4.7701Y-4.1086
X4.8823Y-4.0425
X4.9108Y-4.4376
X5.1077Y-3.7093
X5.1465Y-4.3364
X5.1615Y-3.3995
X5.2455Y-3.7591
X5.368Y-4.6882
X5.7129Y-4.6882
X4.2159Y-3.8463
X4.2159Y-3.8955
X4.2159Y-3.9447
X4.2652Y-3.8463
X4.2652Y-3.8955
X4.2652Y-3.9447
X4.3144Y-3.8463
X4.3144Y-3.8955
X4.3144Y-3.9447
T4
X5.368Y-4.5618
X5.7129Y-4.5618
T5
X4.033Y-3.3467
X4.133Y-3.3467
X4.0142Y-4.6061
X4.1142Y-4.6061
X3.8152Y-4.1705
X3.9152Y-4.1705
X4.0152Y-4.1705
X4.1152Y-4.1705
X4.2152Y-4.1705
T6
X4.3006Y-3.473
X4.5846Y-4.4567
X5.5264Y-3.5339
X4.7864Y-4.2204
X3.966Y-3.6982
X4.3378Y-4.5812
T7
X5.7295Y-3.7482
X5.7295Y-4.1228
T8
X3.6713Y-4.6398
X5.6744Y-3.3047
T0
M30
