%TF.GenerationSoftware,KiCad,Pcbnew,(5.1.8)-1*%
%TF.CreationDate,2021-01-16T00:45:47+01:00*%
%TF.ProjectId,Ka-band-Mixer,4b612d62-616e-4642-9d4d-697865722e6b,rev?*%
%TF.SameCoordinates,Original*%
%TF.FileFunction,Legend,Top*%
%TF.FilePolarity,Positive*%
%FSLAX46Y46*%
G04 Gerber Fmt 4.6, Leading zero omitted, Abs format (unit mm)*
G04 Created by KiCad (PCBNEW (5.1.8)-1) date 2021-01-16 00:45:47*
%MOMM*%
%LPD*%
G01*
G04 APERTURE LIST*
%ADD10C,0.250000*%
%ADD11C,0.300000*%
%ADD12C,0.125000*%
%ADD13C,0.200000*%
%ADD14C,0.120000*%
%ADD15C,0.152400*%
%ADD16C,0.150000*%
G04 APERTURE END LIST*
D10*
X119238095Y-112950000D02*
X119142857Y-112902380D01*
X119000000Y-112902380D01*
X118857142Y-112950000D01*
X118761904Y-113045238D01*
X118714285Y-113140476D01*
X118666666Y-113330952D01*
X118666666Y-113473809D01*
X118714285Y-113664285D01*
X118761904Y-113759523D01*
X118857142Y-113854761D01*
X119000000Y-113902380D01*
X119095238Y-113902380D01*
X119238095Y-113854761D01*
X119285714Y-113807142D01*
X119285714Y-113473809D01*
X119095238Y-113473809D01*
X119714285Y-113902380D02*
X119714285Y-112902380D01*
X120285714Y-113902380D01*
X120285714Y-112902380D01*
X120761904Y-113902380D02*
X120761904Y-112902380D01*
X121000000Y-112902380D01*
X121142857Y-112950000D01*
X121238095Y-113045238D01*
X121285714Y-113140476D01*
X121333333Y-113330952D01*
X121333333Y-113473809D01*
X121285714Y-113664285D01*
X121238095Y-113759523D01*
X121142857Y-113854761D01*
X121000000Y-113902380D01*
X120761904Y-113902380D01*
X97125661Y-91943042D02*
X97078042Y-91990661D01*
X96935185Y-92038280D01*
X96839947Y-92038280D01*
X96697090Y-91990661D01*
X96601852Y-91895423D01*
X96554233Y-91800185D01*
X96506614Y-91609709D01*
X96506614Y-91466852D01*
X96554233Y-91276376D01*
X96601852Y-91181138D01*
X96697090Y-91085900D01*
X96839947Y-91038280D01*
X96935185Y-91038280D01*
X97078042Y-91085900D01*
X97125661Y-91133519D01*
X98030423Y-92038280D02*
X97554233Y-92038280D01*
X97554233Y-91038280D01*
X98363757Y-92038280D02*
X98363757Y-91038280D01*
X98935185Y-92038280D02*
X98506614Y-91466852D01*
X98935185Y-91038280D02*
X98363757Y-91609709D01*
X142364700Y-87139380D02*
X141888509Y-87139380D01*
X141840890Y-87615571D01*
X141888509Y-87567952D01*
X141983747Y-87520333D01*
X142221842Y-87520333D01*
X142317080Y-87567952D01*
X142364700Y-87615571D01*
X142412319Y-87710809D01*
X142412319Y-87948904D01*
X142364700Y-88044142D01*
X142317080Y-88091761D01*
X142221842Y-88139380D01*
X141983747Y-88139380D01*
X141888509Y-88091761D01*
X141840890Y-88044142D01*
X142698033Y-87139380D02*
X143031366Y-88139380D01*
X143364700Y-87139380D01*
X144412319Y-87853666D02*
X144888509Y-87853666D01*
X144317080Y-88139380D02*
X144650414Y-87139380D01*
X144983747Y-88139380D01*
X109973409Y-85094680D02*
X110592457Y-85094680D01*
X110259123Y-85475633D01*
X110401980Y-85475633D01*
X110497219Y-85523252D01*
X110544838Y-85570871D01*
X110592457Y-85666109D01*
X110592457Y-85904204D01*
X110544838Y-85999442D01*
X110497219Y-86047061D01*
X110401980Y-86094680D01*
X110116266Y-86094680D01*
X110021028Y-86047061D01*
X109973409Y-85999442D01*
X111021028Y-85999442D02*
X111068647Y-86047061D01*
X111021028Y-86094680D01*
X110973409Y-86047061D01*
X111021028Y-85999442D01*
X111021028Y-86094680D01*
X111401980Y-85094680D02*
X112021028Y-85094680D01*
X111687695Y-85475633D01*
X111830552Y-85475633D01*
X111925790Y-85523252D01*
X111973409Y-85570871D01*
X112021028Y-85666109D01*
X112021028Y-85904204D01*
X111973409Y-85999442D01*
X111925790Y-86047061D01*
X111830552Y-86094680D01*
X111544838Y-86094680D01*
X111449600Y-86047061D01*
X111401980Y-85999442D01*
X112306742Y-85094680D02*
X112640076Y-86094680D01*
X112973409Y-85094680D01*
X120271471Y-109440580D02*
X119795280Y-109440580D01*
X119747661Y-109916771D01*
X119795280Y-109869152D01*
X119890519Y-109821533D01*
X120128614Y-109821533D01*
X120223852Y-109869152D01*
X120271471Y-109916771D01*
X120319090Y-110012009D01*
X120319090Y-110250104D01*
X120271471Y-110345342D01*
X120223852Y-110392961D01*
X120128614Y-110440580D01*
X119890519Y-110440580D01*
X119795280Y-110392961D01*
X119747661Y-110345342D01*
X120604804Y-109440580D02*
X120938138Y-110440580D01*
X121271471Y-109440580D01*
X122366709Y-110440580D02*
X122366709Y-109440580D01*
X122604804Y-109440580D01*
X122747661Y-109488200D01*
X122842900Y-109583438D01*
X122890519Y-109678676D01*
X122938138Y-109869152D01*
X122938138Y-110012009D01*
X122890519Y-110202485D01*
X122842900Y-110297723D01*
X122747661Y-110392961D01*
X122604804Y-110440580D01*
X122366709Y-110440580D01*
X112547852Y-117049660D02*
X112738328Y-117049660D01*
X112833566Y-117002041D01*
X112881185Y-116954422D01*
X112976423Y-116811565D01*
X113024042Y-116621089D01*
X113024042Y-116240137D01*
X112976423Y-116144899D01*
X112928804Y-116097280D01*
X112833566Y-116049660D01*
X112643090Y-116049660D01*
X112547852Y-116097280D01*
X112500233Y-116144899D01*
X112452614Y-116240137D01*
X112452614Y-116478232D01*
X112500233Y-116573470D01*
X112547852Y-116621089D01*
X112643090Y-116668708D01*
X112833566Y-116668708D01*
X112928804Y-116621089D01*
X112976423Y-116573470D01*
X113024042Y-116478232D01*
X113309757Y-116049660D02*
X113643090Y-117049660D01*
X113976423Y-116049660D01*
D11*
X101230514Y-81390171D02*
X100944800Y-81390171D01*
X100801942Y-81461600D01*
X100730514Y-81533028D01*
X100587657Y-81747314D01*
X100516228Y-82033028D01*
X100516228Y-82604457D01*
X100587657Y-82747314D01*
X100659085Y-82818742D01*
X100801942Y-82890171D01*
X101087657Y-82890171D01*
X101230514Y-82818742D01*
X101301942Y-82747314D01*
X101373371Y-82604457D01*
X101373371Y-82247314D01*
X101301942Y-82104457D01*
X101230514Y-82033028D01*
X101087657Y-81961600D01*
X100801942Y-81961600D01*
X100659085Y-82033028D01*
X100587657Y-82104457D01*
X100516228Y-82247314D01*
X101801942Y-81390171D02*
X102301942Y-82890171D01*
X102801942Y-81390171D01*
X105230514Y-81461600D02*
X105087657Y-81390171D01*
X104873371Y-81390171D01*
X104659085Y-81461600D01*
X104516228Y-81604457D01*
X104444800Y-81747314D01*
X104373371Y-82033028D01*
X104373371Y-82247314D01*
X104444800Y-82533028D01*
X104516228Y-82675885D01*
X104659085Y-82818742D01*
X104873371Y-82890171D01*
X105016228Y-82890171D01*
X105230514Y-82818742D01*
X105301942Y-82747314D01*
X105301942Y-82247314D01*
X105016228Y-82247314D01*
X105944800Y-82890171D02*
X105944800Y-81390171D01*
X106801942Y-82890171D01*
X106801942Y-81390171D01*
X107516228Y-82890171D02*
X107516228Y-81390171D01*
X107873371Y-81390171D01*
X108087657Y-81461600D01*
X108230514Y-81604457D01*
X108301942Y-81747314D01*
X108373371Y-82033028D01*
X108373371Y-82247314D01*
X108301942Y-82533028D01*
X108230514Y-82675885D01*
X108087657Y-82818742D01*
X107873371Y-82890171D01*
X107516228Y-82890171D01*
D12*
X96381000Y-103559000D02*
X96314333Y-103525666D01*
X96214333Y-103525666D01*
X96114333Y-103559000D01*
X96047666Y-103625666D01*
X96014333Y-103692333D01*
X95981000Y-103825666D01*
X95981000Y-103925666D01*
X96014333Y-104059000D01*
X96047666Y-104125666D01*
X96114333Y-104192333D01*
X96214333Y-104225666D01*
X96281000Y-104225666D01*
X96381000Y-104192333D01*
X96414333Y-104159000D01*
X96414333Y-103925666D01*
X96281000Y-103925666D01*
X96714333Y-104225666D02*
X96714333Y-103525666D01*
X97114333Y-104225666D01*
X97114333Y-103525666D01*
X97447666Y-104225666D02*
X97447666Y-103525666D01*
X97614333Y-103525666D01*
X97714333Y-103559000D01*
X97781000Y-103625666D01*
X97814333Y-103692333D01*
X97847666Y-103825666D01*
X97847666Y-103925666D01*
X97814333Y-104059000D01*
X97781000Y-104125666D01*
X97714333Y-104192333D01*
X97614333Y-104225666D01*
X97447666Y-104225666D01*
X99081000Y-104159000D02*
X99047666Y-104192333D01*
X98947666Y-104225666D01*
X98881000Y-104225666D01*
X98781000Y-104192333D01*
X98714333Y-104125666D01*
X98681000Y-104059000D01*
X98647666Y-103925666D01*
X98647666Y-103825666D01*
X98681000Y-103692333D01*
X98714333Y-103625666D01*
X98781000Y-103559000D01*
X98881000Y-103525666D01*
X98947666Y-103525666D01*
X99047666Y-103559000D01*
X99081000Y-103592333D01*
X99714333Y-104225666D02*
X99381000Y-104225666D01*
X99381000Y-103525666D01*
X99947666Y-104225666D02*
X99947666Y-103525666D01*
X100347666Y-104225666D02*
X100047666Y-103825666D01*
X100347666Y-103525666D02*
X99947666Y-103925666D01*
X101181000Y-104225666D02*
X101181000Y-103525666D01*
X101347666Y-103525666D01*
X101447666Y-103559000D01*
X101514333Y-103625666D01*
X101547666Y-103692333D01*
X101581000Y-103825666D01*
X101581000Y-103925666D01*
X101547666Y-104059000D01*
X101514333Y-104125666D01*
X101447666Y-104192333D01*
X101347666Y-104225666D01*
X101181000Y-104225666D01*
X101847666Y-104025666D02*
X102181000Y-104025666D01*
X101781000Y-104225666D02*
X102014333Y-103525666D01*
X102247666Y-104225666D01*
X102381000Y-103525666D02*
X102781000Y-103525666D01*
X102581000Y-104225666D02*
X102581000Y-103525666D01*
X102981000Y-104025666D02*
X103314333Y-104025666D01*
X102914333Y-104225666D02*
X103147666Y-103525666D01*
X103381000Y-104225666D01*
X104481000Y-104225666D02*
X104147666Y-104225666D01*
X104147666Y-103525666D01*
X104714333Y-103859000D02*
X104947666Y-103859000D01*
X105047666Y-104225666D02*
X104714333Y-104225666D01*
X104714333Y-103525666D01*
X105047666Y-103525666D01*
X107347666Y-104159000D02*
X107314333Y-104192333D01*
X107214333Y-104225666D01*
X107147666Y-104225666D01*
X107047666Y-104192333D01*
X106981000Y-104125666D01*
X106947666Y-104059000D01*
X106914333Y-103925666D01*
X106914333Y-103825666D01*
X106947666Y-103692333D01*
X106981000Y-103625666D01*
X107047666Y-103559000D01*
X107147666Y-103525666D01*
X107214333Y-103525666D01*
X107314333Y-103559000D01*
X107347666Y-103592333D01*
X107647666Y-103859000D02*
X107881000Y-103859000D01*
X107981000Y-104225666D02*
X107647666Y-104225666D01*
X107647666Y-103525666D01*
X107981000Y-103525666D01*
D11*
X100227285Y-120335571D02*
X99370142Y-120335571D01*
X99798714Y-120335571D02*
X99798714Y-118835571D01*
X99655857Y-119049857D01*
X99513000Y-119192714D01*
X99370142Y-119264142D01*
X100798714Y-118978428D02*
X100870142Y-118907000D01*
X101013000Y-118835571D01*
X101370142Y-118835571D01*
X101513000Y-118907000D01*
X101584428Y-118978428D01*
X101655857Y-119121285D01*
X101655857Y-119264142D01*
X101584428Y-119478428D01*
X100727285Y-120335571D01*
X101655857Y-120335571D01*
X102084428Y-118835571D02*
X102584428Y-120335571D01*
X103084428Y-118835571D01*
X105513000Y-118907000D02*
X105370142Y-118835571D01*
X105155857Y-118835571D01*
X104941571Y-118907000D01*
X104798714Y-119049857D01*
X104727285Y-119192714D01*
X104655857Y-119478428D01*
X104655857Y-119692714D01*
X104727285Y-119978428D01*
X104798714Y-120121285D01*
X104941571Y-120264142D01*
X105155857Y-120335571D01*
X105298714Y-120335571D01*
X105513000Y-120264142D01*
X105584428Y-120192714D01*
X105584428Y-119692714D01*
X105298714Y-119692714D01*
X106227285Y-120335571D02*
X106227285Y-118835571D01*
X107084428Y-120335571D01*
X107084428Y-118835571D01*
X107798714Y-120335571D02*
X107798714Y-118835571D01*
X108155857Y-118835571D01*
X108370142Y-118907000D01*
X108513000Y-119049857D01*
X108584428Y-119192714D01*
X108655857Y-119478428D01*
X108655857Y-119692714D01*
X108584428Y-119978428D01*
X108513000Y-120121285D01*
X108370142Y-120264142D01*
X108155857Y-120335571D01*
X107798714Y-120335571D01*
D13*
%TO.C,J1*%
X108395000Y-107260000D02*
X108395000Y-104600000D01*
X98175000Y-107260000D02*
X108395000Y-107260000D01*
X98175000Y-104600000D02*
X108395000Y-104600000D01*
X98175000Y-107260000D02*
X98175000Y-104600000D01*
X96905000Y-107260000D02*
X95575000Y-107260000D01*
X95575000Y-107260000D02*
X95575000Y-105930000D01*
%TO.C,J3*%
X106308200Y-86335600D02*
X106308200Y-83675600D01*
X103708200Y-86335600D02*
X106308200Y-86335600D01*
X103708200Y-83675600D02*
X106308200Y-83675600D01*
X103708200Y-86335600D02*
X103708200Y-83675600D01*
X102438200Y-86335600D02*
X101108200Y-86335600D01*
X101108200Y-86335600D02*
X101108200Y-85005600D01*
%TO.C,J2*%
X105830000Y-118325000D02*
X105830000Y-115665000D01*
X103230000Y-118325000D02*
X105830000Y-118325000D01*
X103230000Y-115665000D02*
X105830000Y-115665000D01*
X103230000Y-118325000D02*
X103230000Y-115665000D01*
X101960000Y-118325000D02*
X100630000Y-118325000D01*
X100630000Y-118325000D02*
X100630000Y-116995000D01*
D14*
%TO.C,C7*%
X106609365Y-94676400D02*
X106841035Y-94676400D01*
X106609365Y-93956400D02*
X106841035Y-93956400D01*
%TO.C,C9*%
X106611905Y-95712720D02*
X106843575Y-95712720D01*
X106611905Y-94992720D02*
X106843575Y-94992720D01*
%TO.C,U6*%
X132100000Y-98105000D02*
X131625000Y-98105000D01*
X135845000Y-102325000D02*
X135845000Y-101850000D01*
X135370000Y-102325000D02*
X135845000Y-102325000D01*
X131625000Y-102325000D02*
X131625000Y-101850000D01*
X132100000Y-102325000D02*
X131625000Y-102325000D01*
X135845000Y-98105000D02*
X135845000Y-98580000D01*
X135370000Y-98105000D02*
X135845000Y-98105000D01*
%TO.C,TP2*%
X118150000Y-113200000D02*
G75*
G03*
X118150000Y-113200000I-1700000J0D01*
G01*
%TO.C,D1*%
X101675000Y-102710000D02*
X101675000Y-99850000D01*
X99755000Y-102710000D02*
X101675000Y-102710000D01*
X99755000Y-99850000D02*
X99755000Y-102710000D01*
D15*
%TO.C,U7*%
X141420499Y-98336000D02*
X141039499Y-98336000D01*
X141420499Y-98082000D02*
X141420499Y-98336000D01*
X141039499Y-98082000D02*
X141420499Y-98082000D01*
X141039499Y-98336000D02*
X141039499Y-98082000D01*
X139866255Y-98333000D02*
X139103000Y-98333000D01*
X142357000Y-99096255D02*
X142357000Y-98333000D01*
X141593745Y-101587000D02*
X142357000Y-101587000D01*
X139103000Y-100823745D02*
X139103000Y-101587000D01*
X139103000Y-98333000D02*
X139103000Y-99096255D01*
X142357000Y-98333000D02*
X141593745Y-98333000D01*
X142357000Y-101587000D02*
X142357000Y-100823745D01*
X139103000Y-101587000D02*
X139866255Y-101587000D01*
D14*
%TO.C,D3*%
X100115500Y-90744000D02*
X100115500Y-85044000D01*
X97115500Y-90744000D02*
X100115500Y-90744000D01*
X97115500Y-85044000D02*
X97115500Y-90744000D01*
D16*
%TO.C,U1*%
X105710000Y-96320000D02*
X106235000Y-96320000D01*
X110960000Y-101570000D02*
X110435000Y-101570000D01*
X110960000Y-96320000D02*
X110435000Y-96320000D01*
X105710000Y-101570000D02*
X105710000Y-101045000D01*
X110960000Y-101570000D02*
X110960000Y-101045000D01*
X110960000Y-96320000D02*
X110960000Y-96845000D01*
X105710000Y-96320000D02*
X105710000Y-96845000D01*
D14*
%TO.C,TP6*%
X110935000Y-88215000D02*
G75*
G03*
X110935000Y-88215000I-1700000J0D01*
G01*
%TO.C,TP5*%
X123274560Y-107199080D02*
G75*
G03*
X123274560Y-107199080I-1700000J0D01*
G01*
%TO.C,TP4*%
X142070000Y-89760000D02*
G75*
G03*
X142070000Y-89760000I-1700000J0D01*
G01*
%TO.C,TP3*%
X111880120Y-116363400D02*
G75*
G03*
X111880120Y-116363400I-1700000J0D01*
G01*
%TO.C,TP1*%
X102436400Y-93935200D02*
G75*
G03*
X102436400Y-93935200I-1700000J0D01*
G01*
%TO.C,C1*%
X95750835Y-94775000D02*
X95519165Y-94775000D01*
X95750835Y-95495000D02*
X95519165Y-95495000D01*
%TO.C,C2*%
X95750835Y-93505000D02*
X95519165Y-93505000D01*
X95750835Y-94225000D02*
X95519165Y-94225000D01*
%TO.C,C3*%
X104005835Y-96680000D02*
X103774165Y-96680000D01*
X104005835Y-97400000D02*
X103774165Y-97400000D01*
%TO.C,C4*%
X113335226Y-94384165D02*
X113335226Y-94615835D01*
X114055226Y-94384165D02*
X114055226Y-94615835D01*
%TO.C,C5*%
X114050835Y-101255000D02*
X113819165Y-101255000D01*
X114050835Y-101975000D02*
X113819165Y-101975000D01*
%TO.C,C8*%
X110288335Y-102395000D02*
X110056665Y-102395000D01*
X110288335Y-103115000D02*
X110056665Y-103115000D01*
%TO.C,C10*%
X110355835Y-103665000D02*
X110124165Y-103665000D01*
X110355835Y-104385000D02*
X110124165Y-104385000D01*
%TO.C,C11*%
X115254168Y-103946652D02*
X115254168Y-103714982D01*
X114534168Y-103946652D02*
X114534168Y-103714982D01*
%TO.C,C12*%
X117585000Y-106486652D02*
X117585000Y-106254982D01*
X116865000Y-106486652D02*
X116865000Y-106254982D01*
%TO.C,C13*%
X123259337Y-103973566D02*
X123259337Y-103741896D01*
X122539337Y-103973566D02*
X122539337Y-103741896D01*
%TO.C,C18*%
X111845000Y-91075835D02*
X111845000Y-90844165D01*
X111125000Y-91075835D02*
X111125000Y-90844165D01*
%TO.C,C21*%
X113115000Y-91075835D02*
X113115000Y-90844165D01*
X112395000Y-91075835D02*
X112395000Y-90844165D01*
%TO.C,C27*%
X102260000Y-90574165D02*
X102260000Y-90805835D01*
X102980000Y-90574165D02*
X102980000Y-90805835D01*
%TO.C,R2*%
X101305379Y-97541000D02*
X101640621Y-97541000D01*
X101305379Y-96781000D02*
X101640621Y-96781000D01*
%TO.C,R6*%
X103819979Y-95823960D02*
X104155221Y-95823960D01*
X103819979Y-95063960D02*
X104155221Y-95063960D01*
%TO.C,R7*%
X103510000Y-101317379D02*
X103510000Y-101652621D01*
X104270000Y-101317379D02*
X104270000Y-101652621D01*
%TO.C,R8*%
X101817379Y-98690000D02*
X102152621Y-98690000D01*
X101817379Y-97930000D02*
X102152621Y-97930000D01*
%TO.C,R9*%
X116845000Y-103663196D02*
X116845000Y-103998438D01*
X117605000Y-103663196D02*
X117605000Y-103998438D01*
%TO.C,R10*%
X120451692Y-102873785D02*
X120116450Y-102873785D01*
X120451692Y-103633785D02*
X120116450Y-103633785D01*
%TO.C,X1*%
X94355000Y-100435000D02*
X99455000Y-100435000D01*
X94355000Y-96185000D02*
X94355000Y-100435000D01*
%TO.C,C31*%
X130225000Y-101234165D02*
X130225000Y-101465835D01*
X130945000Y-101234165D02*
X130945000Y-101465835D01*
%TO.C,C30*%
X129125000Y-102334165D02*
X129125000Y-102565835D01*
X129845000Y-102334165D02*
X129845000Y-102565835D01*
%TO.C,C33*%
X134999165Y-97410000D02*
X135230835Y-97410000D01*
X134999165Y-96690000D02*
X135230835Y-96690000D01*
%TO.C,C34*%
X134969165Y-96410000D02*
X135200835Y-96410000D01*
X134969165Y-95690000D02*
X135200835Y-95690000D01*
%TO.C,R11*%
X97707621Y-109325000D02*
X97372379Y-109325000D01*
X97707621Y-110085000D02*
X97372379Y-110085000D01*
%TO.C,C6*%
X112650835Y-100255000D02*
X112419165Y-100255000D01*
X112650835Y-100975000D02*
X112419165Y-100975000D01*
%TO.C,R14*%
X104905000Y-90857621D02*
X104905000Y-90522379D01*
X104145000Y-90857621D02*
X104145000Y-90522379D01*
%TO.C,D4*%
X102030000Y-89110000D02*
X104890000Y-89110000D01*
X102030000Y-87190000D02*
X102030000Y-89110000D01*
X104890000Y-87190000D02*
X102030000Y-87190000D01*
%TO.C,C19*%
X130650835Y-88695000D02*
X130419165Y-88695000D01*
X130650835Y-89415000D02*
X130419165Y-89415000D01*
%TO.C,C20*%
X128355000Y-110760835D02*
X128355000Y-110529165D01*
X127635000Y-110760835D02*
X127635000Y-110529165D01*
%TO.C,C22*%
X130650835Y-87425000D02*
X130419165Y-87425000D01*
X130650835Y-88145000D02*
X130419165Y-88145000D01*
%TO.C,C23*%
X129625000Y-110828335D02*
X129625000Y-110596665D01*
X128905000Y-110828335D02*
X128905000Y-110596665D01*
%TO.C,C24*%
X116449165Y-84335000D02*
X116680835Y-84335000D01*
X116449165Y-83615000D02*
X116680835Y-83615000D01*
%TO.C,C25*%
X137160000Y-90209165D02*
X137160000Y-90440835D01*
X137880000Y-90209165D02*
X137880000Y-90440835D01*
%TO.C,C26*%
X124545000Y-107585835D02*
X124545000Y-107354165D01*
X123825000Y-107585835D02*
X123825000Y-107354165D01*
%TO.C,C28*%
X131689165Y-94495000D02*
X131920835Y-94495000D01*
X131689165Y-93775000D02*
X131920835Y-93775000D01*
%TO.C,C29*%
X123825000Y-104814165D02*
X123825000Y-105045835D01*
X124545000Y-104814165D02*
X124545000Y-105045835D01*
%TO.C,U3*%
X116905000Y-87785000D02*
X116905000Y-84860000D01*
X116905000Y-87785000D02*
X116905000Y-89285000D01*
X113685000Y-87785000D02*
X113685000Y-86285000D01*
X113685000Y-87785000D02*
X113685000Y-89285000D01*
%TO.C,U4*%
X133075000Y-93205000D02*
X136000000Y-93205000D01*
X133075000Y-93205000D02*
X131575000Y-93205000D01*
X133075000Y-89985000D02*
X134575000Y-89985000D01*
X133075000Y-89985000D02*
X131575000Y-89985000D01*
%TO.C,U5*%
X127995000Y-105860000D02*
X125070000Y-105860000D01*
X127995000Y-105860000D02*
X129495000Y-105860000D01*
X127995000Y-109080000D02*
X126495000Y-109080000D01*
X127995000Y-109080000D02*
X129495000Y-109080000D01*
%TO.C,C15*%
X102870000Y-109259165D02*
X102870000Y-109490835D01*
X103590000Y-109259165D02*
X103590000Y-109490835D01*
%TO.C,C16*%
X108670000Y-112030835D02*
X108670000Y-111799165D01*
X107950000Y-112030835D02*
X107950000Y-111799165D01*
%TO.C,C14*%
X101600000Y-109259165D02*
X101600000Y-109490835D01*
X102320000Y-109259165D02*
X102320000Y-109490835D01*
%TO.C,C17*%
X107559165Y-109815000D02*
X107790835Y-109815000D01*
X107559165Y-109095000D02*
X107790835Y-109095000D01*
%TO.C,D2*%
X98380000Y-119660000D02*
X98380000Y-113960000D01*
X95380000Y-119660000D02*
X98380000Y-119660000D01*
X95380000Y-113960000D02*
X95380000Y-119660000D01*
%TO.C,R12*%
X107842621Y-113440000D02*
X107507379Y-113440000D01*
X107842621Y-114200000D02*
X107507379Y-114200000D01*
%TO.C,R13*%
X107420000Y-112082621D02*
X107420000Y-111747379D01*
X106660000Y-112082621D02*
X106660000Y-111747379D01*
%TO.C,U2*%
X102595000Y-114795000D02*
X105470000Y-114795000D01*
X102595000Y-114795000D02*
X101095000Y-114795000D01*
X102595000Y-111575000D02*
X104095000Y-111575000D01*
X102595000Y-111575000D02*
X101095000Y-111575000D01*
%TO.C,R1*%
X107902621Y-107825000D02*
X107567379Y-107825000D01*
X107902621Y-108585000D02*
X107567379Y-108585000D01*
%TO.C,R3*%
X104141000Y-108821379D02*
X104141000Y-109156621D01*
X104901000Y-108821379D02*
X104901000Y-109156621D01*
%TO.C,R4*%
X100067379Y-109335000D02*
X100402621Y-109335000D01*
X100067379Y-108575000D02*
X100402621Y-108575000D01*
%TO.C,R5*%
X98084621Y-107825000D02*
X97749379Y-107825000D01*
X98084621Y-108585000D02*
X97749379Y-108585000D01*
%TO.C,J1*%
D16*
X94027380Y-106263333D02*
X94741666Y-106263333D01*
X94884523Y-106310952D01*
X94979761Y-106406190D01*
X95027380Y-106549047D01*
X95027380Y-106644285D01*
X95027380Y-105263333D02*
X95027380Y-105834761D01*
X95027380Y-105549047D02*
X94027380Y-105549047D01*
X94170238Y-105644285D01*
X94265476Y-105739523D01*
X94313095Y-105834761D01*
%TO.C,J3*%
X99560580Y-85338933D02*
X100274866Y-85338933D01*
X100417723Y-85386552D01*
X100512961Y-85481790D01*
X100560580Y-85624647D01*
X100560580Y-85719885D01*
X99560580Y-84957980D02*
X99560580Y-84338933D01*
X99941533Y-84672266D01*
X99941533Y-84529409D01*
X99989152Y-84434171D01*
X100036771Y-84386552D01*
X100132009Y-84338933D01*
X100370104Y-84338933D01*
X100465342Y-84386552D01*
X100512961Y-84434171D01*
X100560580Y-84529409D01*
X100560580Y-84815123D01*
X100512961Y-84910361D01*
X100465342Y-84957980D01*
%TO.C,J2*%
X99082380Y-117328333D02*
X99796666Y-117328333D01*
X99939523Y-117375952D01*
X100034761Y-117471190D01*
X100082380Y-117614047D01*
X100082380Y-117709285D01*
X99177619Y-116899761D02*
X99130000Y-116852142D01*
X99082380Y-116756904D01*
X99082380Y-116518809D01*
X99130000Y-116423571D01*
X99177619Y-116375952D01*
X99272857Y-116328333D01*
X99368095Y-116328333D01*
X99510952Y-116375952D01*
X100082380Y-116947380D01*
X100082380Y-116328333D01*
%TO.C,C7*%
X106558533Y-93513542D02*
X106510914Y-93561161D01*
X106368057Y-93608780D01*
X106272819Y-93608780D01*
X106129961Y-93561161D01*
X106034723Y-93465923D01*
X105987104Y-93370685D01*
X105939485Y-93180209D01*
X105939485Y-93037352D01*
X105987104Y-92846876D01*
X106034723Y-92751638D01*
X106129961Y-92656400D01*
X106272819Y-92608780D01*
X106368057Y-92608780D01*
X106510914Y-92656400D01*
X106558533Y-92704019D01*
X106891866Y-92608780D02*
X107558533Y-92608780D01*
X107129961Y-93608780D01*
%TO.C,C9*%
X109022333Y-95537142D02*
X108974714Y-95584761D01*
X108831857Y-95632380D01*
X108736619Y-95632380D01*
X108593761Y-95584761D01*
X108498523Y-95489523D01*
X108450904Y-95394285D01*
X108403285Y-95203809D01*
X108403285Y-95060952D01*
X108450904Y-94870476D01*
X108498523Y-94775238D01*
X108593761Y-94680000D01*
X108736619Y-94632380D01*
X108831857Y-94632380D01*
X108974714Y-94680000D01*
X109022333Y-94727619D01*
X109498523Y-95632380D02*
X109689000Y-95632380D01*
X109784238Y-95584761D01*
X109831857Y-95537142D01*
X109927095Y-95394285D01*
X109974714Y-95203809D01*
X109974714Y-94822857D01*
X109927095Y-94727619D01*
X109879476Y-94680000D01*
X109784238Y-94632380D01*
X109593761Y-94632380D01*
X109498523Y-94680000D01*
X109450904Y-94727619D01*
X109403285Y-94822857D01*
X109403285Y-95060952D01*
X109450904Y-95156190D01*
X109498523Y-95203809D01*
X109593761Y-95251428D01*
X109784238Y-95251428D01*
X109879476Y-95203809D01*
X109927095Y-95156190D01*
X109974714Y-95060952D01*
%TO.C,U6*%
X132053095Y-96562380D02*
X132053095Y-97371904D01*
X132100714Y-97467142D01*
X132148333Y-97514761D01*
X132243571Y-97562380D01*
X132434047Y-97562380D01*
X132529285Y-97514761D01*
X132576904Y-97467142D01*
X132624523Y-97371904D01*
X132624523Y-96562380D01*
X133529285Y-96562380D02*
X133338809Y-96562380D01*
X133243571Y-96610000D01*
X133195952Y-96657619D01*
X133100714Y-96800476D01*
X133053095Y-96990952D01*
X133053095Y-97371904D01*
X133100714Y-97467142D01*
X133148333Y-97514761D01*
X133243571Y-97562380D01*
X133434047Y-97562380D01*
X133529285Y-97514761D01*
X133576904Y-97467142D01*
X133624523Y-97371904D01*
X133624523Y-97133809D01*
X133576904Y-97038571D01*
X133529285Y-96990952D01*
X133434047Y-96943333D01*
X133243571Y-96943333D01*
X133148333Y-96990952D01*
X133100714Y-97038571D01*
X133053095Y-97133809D01*
%TO.C,TP2*%
X118810995Y-114266580D02*
X119382423Y-114266580D01*
X119096709Y-115266580D02*
X119096709Y-114266580D01*
X119715757Y-115266580D02*
X119715757Y-114266580D01*
X120096709Y-114266580D01*
X120191947Y-114314200D01*
X120239566Y-114361819D01*
X120287185Y-114457057D01*
X120287185Y-114599914D01*
X120239566Y-114695152D01*
X120191947Y-114742771D01*
X120096709Y-114790390D01*
X119715757Y-114790390D01*
X120668138Y-114361819D02*
X120715757Y-114314200D01*
X120810995Y-114266580D01*
X121049090Y-114266580D01*
X121144328Y-114314200D01*
X121191947Y-114361819D01*
X121239566Y-114457057D01*
X121239566Y-114552295D01*
X121191947Y-114695152D01*
X120620519Y-115266580D01*
X121239566Y-115266580D01*
%TO.C,D1*%
X99347380Y-102378095D02*
X98347380Y-102378095D01*
X98347380Y-102140000D01*
X98395000Y-101997142D01*
X98490238Y-101901904D01*
X98585476Y-101854285D01*
X98775952Y-101806666D01*
X98918809Y-101806666D01*
X99109285Y-101854285D01*
X99204523Y-101901904D01*
X99299761Y-101997142D01*
X99347380Y-102140000D01*
X99347380Y-102378095D01*
X99347380Y-100854285D02*
X99347380Y-101425714D01*
X99347380Y-101140000D02*
X98347380Y-101140000D01*
X98490238Y-101235238D01*
X98585476Y-101330476D01*
X98633095Y-101425714D01*
%TO.C,U7*%
X139968095Y-99412380D02*
X139968095Y-100221904D01*
X140015714Y-100317142D01*
X140063333Y-100364761D01*
X140158571Y-100412380D01*
X140349047Y-100412380D01*
X140444285Y-100364761D01*
X140491904Y-100317142D01*
X140539523Y-100221904D01*
X140539523Y-99412380D01*
X140920476Y-99412380D02*
X141587142Y-99412380D01*
X141158571Y-100412380D01*
X138725000Y-98281380D02*
X138725000Y-98519476D01*
X138486904Y-98424238D02*
X138725000Y-98519476D01*
X138963095Y-98424238D01*
X138582142Y-98709952D02*
X138725000Y-98519476D01*
X138867857Y-98709952D01*
X138725000Y-98281380D02*
X138725000Y-98519476D01*
X138486904Y-98424238D02*
X138725000Y-98519476D01*
X138963095Y-98424238D01*
X138582142Y-98709952D02*
X138725000Y-98519476D01*
X138867857Y-98709952D01*
%TO.C,D3*%
X96567880Y-88182095D02*
X95567880Y-88182095D01*
X95567880Y-87944000D01*
X95615500Y-87801142D01*
X95710738Y-87705904D01*
X95805976Y-87658285D01*
X95996452Y-87610666D01*
X96139309Y-87610666D01*
X96329785Y-87658285D01*
X96425023Y-87705904D01*
X96520261Y-87801142D01*
X96567880Y-87944000D01*
X96567880Y-88182095D01*
X95567880Y-87277333D02*
X95567880Y-86658285D01*
X95948833Y-86991619D01*
X95948833Y-86848761D01*
X95996452Y-86753523D01*
X96044071Y-86705904D01*
X96139309Y-86658285D01*
X96377404Y-86658285D01*
X96472642Y-86705904D01*
X96520261Y-86753523D01*
X96567880Y-86848761D01*
X96567880Y-87134476D01*
X96520261Y-87229714D01*
X96472642Y-87277333D01*
%TO.C,R18*%
X134835142Y-105411380D02*
X134501809Y-104935190D01*
X134263714Y-105411380D02*
X134263714Y-104411380D01*
X134644666Y-104411380D01*
X134739904Y-104459000D01*
X134787523Y-104506619D01*
X134835142Y-104601857D01*
X134835142Y-104744714D01*
X134787523Y-104839952D01*
X134739904Y-104887571D01*
X134644666Y-104935190D01*
X134263714Y-104935190D01*
X135787523Y-105411380D02*
X135216095Y-105411380D01*
X135501809Y-105411380D02*
X135501809Y-104411380D01*
X135406571Y-104554238D01*
X135311333Y-104649476D01*
X135216095Y-104697095D01*
X136358952Y-104839952D02*
X136263714Y-104792333D01*
X136216095Y-104744714D01*
X136168476Y-104649476D01*
X136168476Y-104601857D01*
X136216095Y-104506619D01*
X136263714Y-104459000D01*
X136358952Y-104411380D01*
X136549428Y-104411380D01*
X136644666Y-104459000D01*
X136692285Y-104506619D01*
X136739904Y-104601857D01*
X136739904Y-104649476D01*
X136692285Y-104744714D01*
X136644666Y-104792333D01*
X136549428Y-104839952D01*
X136358952Y-104839952D01*
X136263714Y-104887571D01*
X136216095Y-104935190D01*
X136168476Y-105030428D01*
X136168476Y-105220904D01*
X136216095Y-105316142D01*
X136263714Y-105363761D01*
X136358952Y-105411380D01*
X136549428Y-105411380D01*
X136644666Y-105363761D01*
X136692285Y-105316142D01*
X136739904Y-105220904D01*
X136739904Y-105030428D01*
X136692285Y-104935190D01*
X136644666Y-104887571D01*
X136549428Y-104839952D01*
%TO.C,R16*%
X132061462Y-105419000D02*
X131728129Y-104942810D01*
X131490034Y-105419000D02*
X131490034Y-104419000D01*
X131870986Y-104419000D01*
X131966224Y-104466620D01*
X132013843Y-104514239D01*
X132061462Y-104609477D01*
X132061462Y-104752334D01*
X132013843Y-104847572D01*
X131966224Y-104895191D01*
X131870986Y-104942810D01*
X131490034Y-104942810D01*
X133013843Y-105419000D02*
X132442415Y-105419000D01*
X132728129Y-105419000D02*
X132728129Y-104419000D01*
X132632891Y-104561858D01*
X132537653Y-104657096D01*
X132442415Y-104704715D01*
X133870986Y-104419000D02*
X133680510Y-104419000D01*
X133585272Y-104466620D01*
X133537653Y-104514239D01*
X133442415Y-104657096D01*
X133394796Y-104847572D01*
X133394796Y-105228524D01*
X133442415Y-105323762D01*
X133490034Y-105371381D01*
X133585272Y-105419000D01*
X133775748Y-105419000D01*
X133870986Y-105371381D01*
X133918605Y-105323762D01*
X133966224Y-105228524D01*
X133966224Y-104990429D01*
X133918605Y-104895191D01*
X133870986Y-104847572D01*
X133775748Y-104799953D01*
X133585272Y-104799953D01*
X133490034Y-104847572D01*
X133442415Y-104895191D01*
X133394796Y-104990429D01*
%TO.C,U1*%
X104336080Y-100361504D02*
X105145604Y-100361504D01*
X105240842Y-100313885D01*
X105288461Y-100266266D01*
X105336080Y-100171028D01*
X105336080Y-99980552D01*
X105288461Y-99885314D01*
X105240842Y-99837695D01*
X105145604Y-99790076D01*
X104336080Y-99790076D01*
X105336080Y-98790076D02*
X105336080Y-99361504D01*
X105336080Y-99075790D02*
X104336080Y-99075790D01*
X104478938Y-99171028D01*
X104574176Y-99266266D01*
X104621795Y-99361504D01*
%TO.C,TP6*%
X110009895Y-83786580D02*
X110581323Y-83786580D01*
X110295609Y-84786580D02*
X110295609Y-83786580D01*
X110914657Y-84786580D02*
X110914657Y-83786580D01*
X111295609Y-83786580D01*
X111390847Y-83834200D01*
X111438466Y-83881819D01*
X111486085Y-83977057D01*
X111486085Y-84119914D01*
X111438466Y-84215152D01*
X111390847Y-84262771D01*
X111295609Y-84310390D01*
X110914657Y-84310390D01*
X112343228Y-83786580D02*
X112152752Y-83786580D01*
X112057514Y-83834200D01*
X112009895Y-83881819D01*
X111914657Y-84024676D01*
X111867038Y-84215152D01*
X111867038Y-84596104D01*
X111914657Y-84691342D01*
X111962276Y-84738961D01*
X112057514Y-84786580D01*
X112247990Y-84786580D01*
X112343228Y-84738961D01*
X112390847Y-84691342D01*
X112438466Y-84596104D01*
X112438466Y-84358009D01*
X112390847Y-84262771D01*
X112343228Y-84215152D01*
X112247990Y-84167533D01*
X112057514Y-84167533D01*
X111962276Y-84215152D01*
X111914657Y-84262771D01*
X111867038Y-84358009D01*
%TO.C,TP5*%
X119941295Y-110774080D02*
X120512723Y-110774080D01*
X120227009Y-111774080D02*
X120227009Y-110774080D01*
X120846057Y-111774080D02*
X120846057Y-110774080D01*
X121227009Y-110774080D01*
X121322247Y-110821700D01*
X121369866Y-110869319D01*
X121417485Y-110964557D01*
X121417485Y-111107414D01*
X121369866Y-111202652D01*
X121322247Y-111250271D01*
X121227009Y-111297890D01*
X120846057Y-111297890D01*
X122322247Y-110774080D02*
X121846057Y-110774080D01*
X121798438Y-111250271D01*
X121846057Y-111202652D01*
X121941295Y-111155033D01*
X122179390Y-111155033D01*
X122274628Y-111202652D01*
X122322247Y-111250271D01*
X122369866Y-111345509D01*
X122369866Y-111583604D01*
X122322247Y-111678842D01*
X122274628Y-111726461D01*
X122179390Y-111774080D01*
X121941295Y-111774080D01*
X121846057Y-111726461D01*
X121798438Y-111678842D01*
%TO.C,TP4*%
X142186455Y-88573860D02*
X142757883Y-88573860D01*
X142472169Y-89573860D02*
X142472169Y-88573860D01*
X143091217Y-89573860D02*
X143091217Y-88573860D01*
X143472169Y-88573860D01*
X143567407Y-88621480D01*
X143615026Y-88669099D01*
X143662645Y-88764337D01*
X143662645Y-88907194D01*
X143615026Y-89002432D01*
X143567407Y-89050051D01*
X143472169Y-89097670D01*
X143091217Y-89097670D01*
X144519788Y-88907194D02*
X144519788Y-89573860D01*
X144281693Y-88526241D02*
X144043598Y-89240527D01*
X144662645Y-89240527D01*
%TO.C,TP3*%
X112105395Y-117441580D02*
X112676823Y-117441580D01*
X112391109Y-118441580D02*
X112391109Y-117441580D01*
X113010157Y-118441580D02*
X113010157Y-117441580D01*
X113391109Y-117441580D01*
X113486347Y-117489200D01*
X113533966Y-117536819D01*
X113581585Y-117632057D01*
X113581585Y-117774914D01*
X113533966Y-117870152D01*
X113486347Y-117917771D01*
X113391109Y-117965390D01*
X113010157Y-117965390D01*
X113914919Y-117441580D02*
X114533966Y-117441580D01*
X114200633Y-117822533D01*
X114343490Y-117822533D01*
X114438728Y-117870152D01*
X114486347Y-117917771D01*
X114533966Y-118013009D01*
X114533966Y-118251104D01*
X114486347Y-118346342D01*
X114438728Y-118393961D01*
X114343490Y-118441580D01*
X114057776Y-118441580D01*
X113962538Y-118393961D01*
X113914919Y-118346342D01*
%TO.C,TP1*%
X96453915Y-92379400D02*
X97025343Y-92379400D01*
X96739629Y-93379400D02*
X96739629Y-92379400D01*
X97358677Y-93379400D02*
X97358677Y-92379400D01*
X97739629Y-92379400D01*
X97834867Y-92427020D01*
X97882486Y-92474639D01*
X97930105Y-92569877D01*
X97930105Y-92712734D01*
X97882486Y-92807972D01*
X97834867Y-92855591D01*
X97739629Y-92903210D01*
X97358677Y-92903210D01*
X98882486Y-93379400D02*
X98311058Y-93379400D01*
X98596772Y-93379400D02*
X98596772Y-92379400D01*
X98501534Y-92522258D01*
X98406296Y-92617496D01*
X98311058Y-92665115D01*
%TO.C,C1*%
X93388333Y-95757142D02*
X93340714Y-95804761D01*
X93197857Y-95852380D01*
X93102619Y-95852380D01*
X92959761Y-95804761D01*
X92864523Y-95709523D01*
X92816904Y-95614285D01*
X92769285Y-95423809D01*
X92769285Y-95280952D01*
X92816904Y-95090476D01*
X92864523Y-94995238D01*
X92959761Y-94900000D01*
X93102619Y-94852380D01*
X93197857Y-94852380D01*
X93340714Y-94900000D01*
X93388333Y-94947619D01*
X94340714Y-95852380D02*
X93769285Y-95852380D01*
X94055000Y-95852380D02*
X94055000Y-94852380D01*
X93959761Y-94995238D01*
X93864523Y-95090476D01*
X93769285Y-95138095D01*
%TO.C,C2*%
X93668033Y-93111442D02*
X93620414Y-93159061D01*
X93477557Y-93206680D01*
X93382319Y-93206680D01*
X93239461Y-93159061D01*
X93144223Y-93063823D01*
X93096604Y-92968585D01*
X93048985Y-92778109D01*
X93048985Y-92635252D01*
X93096604Y-92444776D01*
X93144223Y-92349538D01*
X93239461Y-92254300D01*
X93382319Y-92206680D01*
X93477557Y-92206680D01*
X93620414Y-92254300D01*
X93668033Y-92301919D01*
X94048985Y-92301919D02*
X94096604Y-92254300D01*
X94191842Y-92206680D01*
X94429938Y-92206680D01*
X94525176Y-92254300D01*
X94572795Y-92301919D01*
X94620414Y-92397157D01*
X94620414Y-92492395D01*
X94572795Y-92635252D01*
X94001366Y-93206680D01*
X94620414Y-93206680D01*
%TO.C,C3*%
X104074413Y-98559742D02*
X104026794Y-98607361D01*
X103883937Y-98654980D01*
X103788699Y-98654980D01*
X103645841Y-98607361D01*
X103550603Y-98512123D01*
X103502984Y-98416885D01*
X103455365Y-98226409D01*
X103455365Y-98083552D01*
X103502984Y-97893076D01*
X103550603Y-97797838D01*
X103645841Y-97702600D01*
X103788699Y-97654980D01*
X103883937Y-97654980D01*
X104026794Y-97702600D01*
X104074413Y-97750219D01*
X104407746Y-97654980D02*
X105026794Y-97654980D01*
X104693460Y-98035933D01*
X104836318Y-98035933D01*
X104931556Y-98083552D01*
X104979175Y-98131171D01*
X105026794Y-98226409D01*
X105026794Y-98464504D01*
X104979175Y-98559742D01*
X104931556Y-98607361D01*
X104836318Y-98654980D01*
X104550603Y-98654980D01*
X104455365Y-98607361D01*
X104407746Y-98559742D01*
%TO.C,C4*%
X115212368Y-94666666D02*
X115259987Y-94714285D01*
X115307606Y-94857142D01*
X115307606Y-94952380D01*
X115259987Y-95095238D01*
X115164749Y-95190476D01*
X115069511Y-95238095D01*
X114879035Y-95285714D01*
X114736178Y-95285714D01*
X114545702Y-95238095D01*
X114450464Y-95190476D01*
X114355226Y-95095238D01*
X114307606Y-94952380D01*
X114307606Y-94857142D01*
X114355226Y-94714285D01*
X114402845Y-94666666D01*
X114640940Y-93809523D02*
X115307606Y-93809523D01*
X114259987Y-94047619D02*
X114974273Y-94285714D01*
X114974273Y-93666666D01*
%TO.C,C5*%
X115880333Y-101506142D02*
X115832714Y-101553761D01*
X115689857Y-101601380D01*
X115594619Y-101601380D01*
X115451761Y-101553761D01*
X115356523Y-101458523D01*
X115308904Y-101363285D01*
X115261285Y-101172809D01*
X115261285Y-101029952D01*
X115308904Y-100839476D01*
X115356523Y-100744238D01*
X115451761Y-100649000D01*
X115594619Y-100601380D01*
X115689857Y-100601380D01*
X115832714Y-100649000D01*
X115880333Y-100696619D01*
X116785095Y-100601380D02*
X116308904Y-100601380D01*
X116261285Y-101077571D01*
X116308904Y-101029952D01*
X116404142Y-100982333D01*
X116642238Y-100982333D01*
X116737476Y-101029952D01*
X116785095Y-101077571D01*
X116832714Y-101172809D01*
X116832714Y-101410904D01*
X116785095Y-101506142D01*
X116737476Y-101553761D01*
X116642238Y-101601380D01*
X116404142Y-101601380D01*
X116308904Y-101553761D01*
X116261285Y-101506142D01*
%TO.C,C8*%
X112575793Y-103439082D02*
X112528174Y-103486701D01*
X112385317Y-103534320D01*
X112290079Y-103534320D01*
X112147221Y-103486701D01*
X112051983Y-103391463D01*
X112004364Y-103296225D01*
X111956745Y-103105749D01*
X111956745Y-102962892D01*
X112004364Y-102772416D01*
X112051983Y-102677178D01*
X112147221Y-102581940D01*
X112290079Y-102534320D01*
X112385317Y-102534320D01*
X112528174Y-102581940D01*
X112575793Y-102629559D01*
X113147221Y-102962892D02*
X113051983Y-102915273D01*
X113004364Y-102867654D01*
X112956745Y-102772416D01*
X112956745Y-102724797D01*
X113004364Y-102629559D01*
X113051983Y-102581940D01*
X113147221Y-102534320D01*
X113337698Y-102534320D01*
X113432936Y-102581940D01*
X113480555Y-102629559D01*
X113528174Y-102724797D01*
X113528174Y-102772416D01*
X113480555Y-102867654D01*
X113432936Y-102915273D01*
X113337698Y-102962892D01*
X113147221Y-102962892D01*
X113051983Y-103010511D01*
X113004364Y-103058130D01*
X112956745Y-103153368D01*
X112956745Y-103343844D01*
X113004364Y-103439082D01*
X113051983Y-103486701D01*
X113147221Y-103534320D01*
X113337698Y-103534320D01*
X113432936Y-103486701D01*
X113480555Y-103439082D01*
X113528174Y-103343844D01*
X113528174Y-103153368D01*
X113480555Y-103058130D01*
X113432936Y-103010511D01*
X113337698Y-102962892D01*
%TO.C,C10*%
X109597142Y-105542142D02*
X109549523Y-105589761D01*
X109406666Y-105637380D01*
X109311428Y-105637380D01*
X109168571Y-105589761D01*
X109073333Y-105494523D01*
X109025714Y-105399285D01*
X108978095Y-105208809D01*
X108978095Y-105065952D01*
X109025714Y-104875476D01*
X109073333Y-104780238D01*
X109168571Y-104685000D01*
X109311428Y-104637380D01*
X109406666Y-104637380D01*
X109549523Y-104685000D01*
X109597142Y-104732619D01*
X110549523Y-105637380D02*
X109978095Y-105637380D01*
X110263809Y-105637380D02*
X110263809Y-104637380D01*
X110168571Y-104780238D01*
X110073333Y-104875476D01*
X109978095Y-104923095D01*
X111168571Y-104637380D02*
X111263809Y-104637380D01*
X111359047Y-104685000D01*
X111406666Y-104732619D01*
X111454285Y-104827857D01*
X111501904Y-105018333D01*
X111501904Y-105256428D01*
X111454285Y-105446904D01*
X111406666Y-105542142D01*
X111359047Y-105589761D01*
X111263809Y-105637380D01*
X111168571Y-105637380D01*
X111073333Y-105589761D01*
X111025714Y-105542142D01*
X110978095Y-105446904D01*
X110930476Y-105256428D01*
X110930476Y-105018333D01*
X110978095Y-104827857D01*
X111025714Y-104732619D01*
X111073333Y-104685000D01*
X111168571Y-104637380D01*
%TO.C,C11*%
X114245142Y-105474857D02*
X114292761Y-105522476D01*
X114340380Y-105665333D01*
X114340380Y-105760571D01*
X114292761Y-105903428D01*
X114197523Y-105998666D01*
X114102285Y-106046285D01*
X113911809Y-106093904D01*
X113768952Y-106093904D01*
X113578476Y-106046285D01*
X113483238Y-105998666D01*
X113388000Y-105903428D01*
X113340380Y-105760571D01*
X113340380Y-105665333D01*
X113388000Y-105522476D01*
X113435619Y-105474857D01*
X114340380Y-104522476D02*
X114340380Y-105093904D01*
X114340380Y-104808190D02*
X113340380Y-104808190D01*
X113483238Y-104903428D01*
X113578476Y-104998666D01*
X113626095Y-105093904D01*
X114340380Y-103570095D02*
X114340380Y-104141523D01*
X114340380Y-103855809D02*
X113340380Y-103855809D01*
X113483238Y-103951047D01*
X113578476Y-104046285D01*
X113626095Y-104141523D01*
%TO.C,C12*%
X116462142Y-107042857D02*
X116509761Y-107090476D01*
X116557380Y-107233333D01*
X116557380Y-107328571D01*
X116509761Y-107471428D01*
X116414523Y-107566666D01*
X116319285Y-107614285D01*
X116128809Y-107661904D01*
X115985952Y-107661904D01*
X115795476Y-107614285D01*
X115700238Y-107566666D01*
X115605000Y-107471428D01*
X115557380Y-107328571D01*
X115557380Y-107233333D01*
X115605000Y-107090476D01*
X115652619Y-107042857D01*
X116557380Y-106090476D02*
X116557380Y-106661904D01*
X116557380Y-106376190D02*
X115557380Y-106376190D01*
X115700238Y-106471428D01*
X115795476Y-106566666D01*
X115843095Y-106661904D01*
X115652619Y-105709523D02*
X115605000Y-105661904D01*
X115557380Y-105566666D01*
X115557380Y-105328571D01*
X115605000Y-105233333D01*
X115652619Y-105185714D01*
X115747857Y-105138095D01*
X115843095Y-105138095D01*
X115985952Y-105185714D01*
X116557380Y-105757142D01*
X116557380Y-105138095D01*
%TO.C,C13*%
X122382142Y-103072857D02*
X122429761Y-103120476D01*
X122477380Y-103263333D01*
X122477380Y-103358571D01*
X122429761Y-103501428D01*
X122334523Y-103596666D01*
X122239285Y-103644285D01*
X122048809Y-103691904D01*
X121905952Y-103691904D01*
X121715476Y-103644285D01*
X121620238Y-103596666D01*
X121525000Y-103501428D01*
X121477380Y-103358571D01*
X121477380Y-103263333D01*
X121525000Y-103120476D01*
X121572619Y-103072857D01*
X122477380Y-102120476D02*
X122477380Y-102691904D01*
X122477380Y-102406190D02*
X121477380Y-102406190D01*
X121620238Y-102501428D01*
X121715476Y-102596666D01*
X121763095Y-102691904D01*
X121477380Y-101787142D02*
X121477380Y-101168095D01*
X121858333Y-101501428D01*
X121858333Y-101358571D01*
X121905952Y-101263333D01*
X121953571Y-101215714D01*
X122048809Y-101168095D01*
X122286904Y-101168095D01*
X122382142Y-101215714D01*
X122429761Y-101263333D01*
X122477380Y-101358571D01*
X122477380Y-101644285D01*
X122429761Y-101739523D01*
X122382142Y-101787142D01*
%TO.C,C18*%
X110658662Y-91992537D02*
X110706281Y-92040156D01*
X110753900Y-92183013D01*
X110753900Y-92278251D01*
X110706281Y-92421108D01*
X110611043Y-92516346D01*
X110515805Y-92563965D01*
X110325329Y-92611584D01*
X110182472Y-92611584D01*
X109991996Y-92563965D01*
X109896758Y-92516346D01*
X109801520Y-92421108D01*
X109753900Y-92278251D01*
X109753900Y-92183013D01*
X109801520Y-92040156D01*
X109849139Y-91992537D01*
X110753900Y-91040156D02*
X110753900Y-91611584D01*
X110753900Y-91325870D02*
X109753900Y-91325870D01*
X109896758Y-91421108D01*
X109991996Y-91516346D01*
X110039615Y-91611584D01*
X110182472Y-90468727D02*
X110134853Y-90563965D01*
X110087234Y-90611584D01*
X109991996Y-90659203D01*
X109944377Y-90659203D01*
X109849139Y-90611584D01*
X109801520Y-90563965D01*
X109753900Y-90468727D01*
X109753900Y-90278251D01*
X109801520Y-90183013D01*
X109849139Y-90135394D01*
X109944377Y-90087775D01*
X109991996Y-90087775D01*
X110087234Y-90135394D01*
X110134853Y-90183013D01*
X110182472Y-90278251D01*
X110182472Y-90468727D01*
X110230091Y-90563965D01*
X110277710Y-90611584D01*
X110372948Y-90659203D01*
X110563424Y-90659203D01*
X110658662Y-90611584D01*
X110706281Y-90563965D01*
X110753900Y-90468727D01*
X110753900Y-90278251D01*
X110706281Y-90183013D01*
X110658662Y-90135394D01*
X110563424Y-90087775D01*
X110372948Y-90087775D01*
X110277710Y-90135394D01*
X110230091Y-90183013D01*
X110182472Y-90278251D01*
%TO.C,C21*%
X113032142Y-89312857D02*
X113079761Y-89360476D01*
X113127380Y-89503333D01*
X113127380Y-89598571D01*
X113079761Y-89741428D01*
X112984523Y-89836666D01*
X112889285Y-89884285D01*
X112698809Y-89931904D01*
X112555952Y-89931904D01*
X112365476Y-89884285D01*
X112270238Y-89836666D01*
X112175000Y-89741428D01*
X112127380Y-89598571D01*
X112127380Y-89503333D01*
X112175000Y-89360476D01*
X112222619Y-89312857D01*
X112222619Y-88931904D02*
X112175000Y-88884285D01*
X112127380Y-88789047D01*
X112127380Y-88550952D01*
X112175000Y-88455714D01*
X112222619Y-88408095D01*
X112317857Y-88360476D01*
X112413095Y-88360476D01*
X112555952Y-88408095D01*
X113127380Y-88979523D01*
X113127380Y-88360476D01*
X113127380Y-87408095D02*
X113127380Y-87979523D01*
X113127380Y-87693809D02*
X112127380Y-87693809D01*
X112270238Y-87789047D01*
X112365476Y-87884285D01*
X112413095Y-87979523D01*
%TO.C,C27*%
X104245162Y-92701197D02*
X104292781Y-92748816D01*
X104340400Y-92891673D01*
X104340400Y-92986911D01*
X104292781Y-93129768D01*
X104197543Y-93225006D01*
X104102305Y-93272625D01*
X103911829Y-93320244D01*
X103768972Y-93320244D01*
X103578496Y-93272625D01*
X103483258Y-93225006D01*
X103388020Y-93129768D01*
X103340400Y-92986911D01*
X103340400Y-92891673D01*
X103388020Y-92748816D01*
X103435639Y-92701197D01*
X103435639Y-92320244D02*
X103388020Y-92272625D01*
X103340400Y-92177387D01*
X103340400Y-91939292D01*
X103388020Y-91844054D01*
X103435639Y-91796435D01*
X103530877Y-91748816D01*
X103626115Y-91748816D01*
X103768972Y-91796435D01*
X104340400Y-92367863D01*
X104340400Y-91748816D01*
X103340400Y-91415482D02*
X103340400Y-90748816D01*
X104340400Y-91177387D01*
%TO.C,R2*%
X101204213Y-96892220D02*
X100870880Y-96416030D01*
X100632784Y-96892220D02*
X100632784Y-95892220D01*
X101013737Y-95892220D01*
X101108975Y-95939840D01*
X101156594Y-95987459D01*
X101204213Y-96082697D01*
X101204213Y-96225554D01*
X101156594Y-96320792D01*
X101108975Y-96368411D01*
X101013737Y-96416030D01*
X100632784Y-96416030D01*
X101585165Y-95987459D02*
X101632784Y-95939840D01*
X101728022Y-95892220D01*
X101966118Y-95892220D01*
X102061356Y-95939840D01*
X102108975Y-95987459D01*
X102156594Y-96082697D01*
X102156594Y-96177935D01*
X102108975Y-96320792D01*
X101537546Y-96892220D01*
X102156594Y-96892220D01*
%TO.C,R6*%
X103434333Y-94743380D02*
X103101000Y-94267190D01*
X102862904Y-94743380D02*
X102862904Y-93743380D01*
X103243857Y-93743380D01*
X103339095Y-93791000D01*
X103386714Y-93838619D01*
X103434333Y-93933857D01*
X103434333Y-94076714D01*
X103386714Y-94171952D01*
X103339095Y-94219571D01*
X103243857Y-94267190D01*
X102862904Y-94267190D01*
X104291476Y-93743380D02*
X104101000Y-93743380D01*
X104005761Y-93791000D01*
X103958142Y-93838619D01*
X103862904Y-93981476D01*
X103815285Y-94171952D01*
X103815285Y-94552904D01*
X103862904Y-94648142D01*
X103910523Y-94695761D01*
X104005761Y-94743380D01*
X104196238Y-94743380D01*
X104291476Y-94695761D01*
X104339095Y-94648142D01*
X104386714Y-94552904D01*
X104386714Y-94314809D01*
X104339095Y-94219571D01*
X104291476Y-94171952D01*
X104196238Y-94124333D01*
X104005761Y-94124333D01*
X103910523Y-94171952D01*
X103862904Y-94219571D01*
X103815285Y-94314809D01*
%TO.C,R7*%
X103291380Y-101950666D02*
X102815190Y-102284000D01*
X103291380Y-102522095D02*
X102291380Y-102522095D01*
X102291380Y-102141142D01*
X102339000Y-102045904D01*
X102386619Y-101998285D01*
X102481857Y-101950666D01*
X102624714Y-101950666D01*
X102719952Y-101998285D01*
X102767571Y-102045904D01*
X102815190Y-102141142D01*
X102815190Y-102522095D01*
X102291380Y-101617333D02*
X102291380Y-100950666D01*
X103291380Y-101379238D01*
%TO.C,R8*%
X102478333Y-99832380D02*
X102145000Y-99356190D01*
X101906904Y-99832380D02*
X101906904Y-98832380D01*
X102287857Y-98832380D01*
X102383095Y-98880000D01*
X102430714Y-98927619D01*
X102478333Y-99022857D01*
X102478333Y-99165714D01*
X102430714Y-99260952D01*
X102383095Y-99308571D01*
X102287857Y-99356190D01*
X101906904Y-99356190D01*
X103049761Y-99260952D02*
X102954523Y-99213333D01*
X102906904Y-99165714D01*
X102859285Y-99070476D01*
X102859285Y-99022857D01*
X102906904Y-98927619D01*
X102954523Y-98880000D01*
X103049761Y-98832380D01*
X103240238Y-98832380D01*
X103335476Y-98880000D01*
X103383095Y-98927619D01*
X103430714Y-99022857D01*
X103430714Y-99070476D01*
X103383095Y-99165714D01*
X103335476Y-99213333D01*
X103240238Y-99260952D01*
X103049761Y-99260952D01*
X102954523Y-99308571D01*
X102906904Y-99356190D01*
X102859285Y-99451428D01*
X102859285Y-99641904D01*
X102906904Y-99737142D01*
X102954523Y-99784761D01*
X103049761Y-99832380D01*
X103240238Y-99832380D01*
X103335476Y-99784761D01*
X103383095Y-99737142D01*
X103430714Y-99641904D01*
X103430714Y-99451428D01*
X103383095Y-99356190D01*
X103335476Y-99308571D01*
X103240238Y-99260952D01*
%TO.C,R9*%
X118847380Y-103997483D02*
X118371190Y-104330817D01*
X118847380Y-104568912D02*
X117847380Y-104568912D01*
X117847380Y-104187959D01*
X117895000Y-104092721D01*
X117942619Y-104045102D01*
X118037857Y-103997483D01*
X118180714Y-103997483D01*
X118275952Y-104045102D01*
X118323571Y-104092721D01*
X118371190Y-104187959D01*
X118371190Y-104568912D01*
X118847380Y-103521293D02*
X118847380Y-103330817D01*
X118799761Y-103235578D01*
X118752142Y-103187959D01*
X118609285Y-103092721D01*
X118418809Y-103045102D01*
X118037857Y-103045102D01*
X117942619Y-103092721D01*
X117895000Y-103140340D01*
X117847380Y-103235578D01*
X117847380Y-103426055D01*
X117895000Y-103521293D01*
X117942619Y-103568912D01*
X118037857Y-103616531D01*
X118275952Y-103616531D01*
X118371190Y-103568912D01*
X118418809Y-103521293D01*
X118466428Y-103426055D01*
X118466428Y-103235578D01*
X118418809Y-103140340D01*
X118371190Y-103092721D01*
X118275952Y-103045102D01*
%TO.C,R10*%
X119641213Y-104876165D02*
X119307880Y-104399975D01*
X119069785Y-104876165D02*
X119069785Y-103876165D01*
X119450737Y-103876165D01*
X119545975Y-103923785D01*
X119593594Y-103971404D01*
X119641213Y-104066642D01*
X119641213Y-104209499D01*
X119593594Y-104304737D01*
X119545975Y-104352356D01*
X119450737Y-104399975D01*
X119069785Y-104399975D01*
X120593594Y-104876165D02*
X120022166Y-104876165D01*
X120307880Y-104876165D02*
X120307880Y-103876165D01*
X120212642Y-104019023D01*
X120117404Y-104114261D01*
X120022166Y-104161880D01*
X121212642Y-103876165D02*
X121307880Y-103876165D01*
X121403118Y-103923785D01*
X121450737Y-103971404D01*
X121498356Y-104066642D01*
X121545975Y-104257118D01*
X121545975Y-104495213D01*
X121498356Y-104685689D01*
X121450737Y-104780927D01*
X121403118Y-104828546D01*
X121307880Y-104876165D01*
X121212642Y-104876165D01*
X121117404Y-104828546D01*
X121069785Y-104780927D01*
X121022166Y-104685689D01*
X120974547Y-104495213D01*
X120974547Y-104257118D01*
X121022166Y-104066642D01*
X121069785Y-103971404D01*
X121117404Y-103923785D01*
X121212642Y-103876165D01*
%TO.C,X1*%
X95185476Y-100722380D02*
X95852142Y-101722380D01*
X95852142Y-100722380D02*
X95185476Y-101722380D01*
X96756904Y-101722380D02*
X96185476Y-101722380D01*
X96471190Y-101722380D02*
X96471190Y-100722380D01*
X96375952Y-100865238D01*
X96280714Y-100960476D01*
X96185476Y-101008095D01*
%TO.C,C31*%
X130996442Y-104458857D02*
X131044061Y-104506476D01*
X131091680Y-104649333D01*
X131091680Y-104744571D01*
X131044061Y-104887428D01*
X130948823Y-104982666D01*
X130853585Y-105030285D01*
X130663109Y-105077904D01*
X130520252Y-105077904D01*
X130329776Y-105030285D01*
X130234538Y-104982666D01*
X130139300Y-104887428D01*
X130091680Y-104744571D01*
X130091680Y-104649333D01*
X130139300Y-104506476D01*
X130186919Y-104458857D01*
X130091680Y-104125523D02*
X130091680Y-103506476D01*
X130472633Y-103839809D01*
X130472633Y-103696952D01*
X130520252Y-103601714D01*
X130567871Y-103554095D01*
X130663109Y-103506476D01*
X130901204Y-103506476D01*
X130996442Y-103554095D01*
X131044061Y-103601714D01*
X131091680Y-103696952D01*
X131091680Y-103982666D01*
X131044061Y-104077904D01*
X130996442Y-104125523D01*
X131091680Y-102554095D02*
X131091680Y-103125523D01*
X131091680Y-102839809D02*
X130091680Y-102839809D01*
X130234538Y-102935047D01*
X130329776Y-103030285D01*
X130377395Y-103125523D01*
%TO.C,C30*%
X128646942Y-103404757D02*
X128694561Y-103452376D01*
X128742180Y-103595233D01*
X128742180Y-103690471D01*
X128694561Y-103833328D01*
X128599323Y-103928566D01*
X128504085Y-103976185D01*
X128313609Y-104023804D01*
X128170752Y-104023804D01*
X127980276Y-103976185D01*
X127885038Y-103928566D01*
X127789800Y-103833328D01*
X127742180Y-103690471D01*
X127742180Y-103595233D01*
X127789800Y-103452376D01*
X127837419Y-103404757D01*
X127742180Y-103071423D02*
X127742180Y-102452376D01*
X128123133Y-102785709D01*
X128123133Y-102642852D01*
X128170752Y-102547614D01*
X128218371Y-102499995D01*
X128313609Y-102452376D01*
X128551704Y-102452376D01*
X128646942Y-102499995D01*
X128694561Y-102547614D01*
X128742180Y-102642852D01*
X128742180Y-102928566D01*
X128694561Y-103023804D01*
X128646942Y-103071423D01*
X127742180Y-101833328D02*
X127742180Y-101738090D01*
X127789800Y-101642852D01*
X127837419Y-101595233D01*
X127932657Y-101547614D01*
X128123133Y-101499995D01*
X128361228Y-101499995D01*
X128551704Y-101547614D01*
X128646942Y-101595233D01*
X128694561Y-101642852D01*
X128742180Y-101738090D01*
X128742180Y-101833328D01*
X128694561Y-101928566D01*
X128646942Y-101976185D01*
X128551704Y-102023804D01*
X128361228Y-102071423D01*
X128123133Y-102071423D01*
X127932657Y-102023804D01*
X127837419Y-101976185D01*
X127789800Y-101928566D01*
X127742180Y-101833328D01*
%TO.C,C33*%
X136994142Y-97061142D02*
X136946523Y-97108761D01*
X136803666Y-97156380D01*
X136708428Y-97156380D01*
X136565571Y-97108761D01*
X136470333Y-97013523D01*
X136422714Y-96918285D01*
X136375095Y-96727809D01*
X136375095Y-96584952D01*
X136422714Y-96394476D01*
X136470333Y-96299238D01*
X136565571Y-96204000D01*
X136708428Y-96156380D01*
X136803666Y-96156380D01*
X136946523Y-96204000D01*
X136994142Y-96251619D01*
X137327476Y-96156380D02*
X137946523Y-96156380D01*
X137613190Y-96537333D01*
X137756047Y-96537333D01*
X137851285Y-96584952D01*
X137898904Y-96632571D01*
X137946523Y-96727809D01*
X137946523Y-96965904D01*
X137898904Y-97061142D01*
X137851285Y-97108761D01*
X137756047Y-97156380D01*
X137470333Y-97156380D01*
X137375095Y-97108761D01*
X137327476Y-97061142D01*
X138279857Y-96156380D02*
X138898904Y-96156380D01*
X138565571Y-96537333D01*
X138708428Y-96537333D01*
X138803666Y-96584952D01*
X138851285Y-96632571D01*
X138898904Y-96727809D01*
X138898904Y-96965904D01*
X138851285Y-97061142D01*
X138803666Y-97108761D01*
X138708428Y-97156380D01*
X138422714Y-97156380D01*
X138327476Y-97108761D01*
X138279857Y-97061142D01*
%TO.C,C34*%
X136740142Y-95283142D02*
X136692523Y-95330761D01*
X136549666Y-95378380D01*
X136454428Y-95378380D01*
X136311571Y-95330761D01*
X136216333Y-95235523D01*
X136168714Y-95140285D01*
X136121095Y-94949809D01*
X136121095Y-94806952D01*
X136168714Y-94616476D01*
X136216333Y-94521238D01*
X136311571Y-94426000D01*
X136454428Y-94378380D01*
X136549666Y-94378380D01*
X136692523Y-94426000D01*
X136740142Y-94473619D01*
X137073476Y-94378380D02*
X137692523Y-94378380D01*
X137359190Y-94759333D01*
X137502047Y-94759333D01*
X137597285Y-94806952D01*
X137644904Y-94854571D01*
X137692523Y-94949809D01*
X137692523Y-95187904D01*
X137644904Y-95283142D01*
X137597285Y-95330761D01*
X137502047Y-95378380D01*
X137216333Y-95378380D01*
X137121095Y-95330761D01*
X137073476Y-95283142D01*
X138549666Y-94711714D02*
X138549666Y-95378380D01*
X138311571Y-94330761D02*
X138073476Y-95045047D01*
X138692523Y-95045047D01*
%TO.C,R11*%
X96897142Y-111327380D02*
X96563809Y-110851190D01*
X96325714Y-111327380D02*
X96325714Y-110327380D01*
X96706666Y-110327380D01*
X96801904Y-110375000D01*
X96849523Y-110422619D01*
X96897142Y-110517857D01*
X96897142Y-110660714D01*
X96849523Y-110755952D01*
X96801904Y-110803571D01*
X96706666Y-110851190D01*
X96325714Y-110851190D01*
X97849523Y-111327380D02*
X97278095Y-111327380D01*
X97563809Y-111327380D02*
X97563809Y-110327380D01*
X97468571Y-110470238D01*
X97373333Y-110565476D01*
X97278095Y-110613095D01*
X98801904Y-111327380D02*
X98230476Y-111327380D01*
X98516190Y-111327380D02*
X98516190Y-110327380D01*
X98420952Y-110470238D01*
X98325714Y-110565476D01*
X98230476Y-110613095D01*
%TO.C,C6*%
X111816333Y-102141142D02*
X111768714Y-102188761D01*
X111625857Y-102236380D01*
X111530619Y-102236380D01*
X111387761Y-102188761D01*
X111292523Y-102093523D01*
X111244904Y-101998285D01*
X111197285Y-101807809D01*
X111197285Y-101664952D01*
X111244904Y-101474476D01*
X111292523Y-101379238D01*
X111387761Y-101284000D01*
X111530619Y-101236380D01*
X111625857Y-101236380D01*
X111768714Y-101284000D01*
X111816333Y-101331619D01*
X112673476Y-101236380D02*
X112483000Y-101236380D01*
X112387761Y-101284000D01*
X112340142Y-101331619D01*
X112244904Y-101474476D01*
X112197285Y-101664952D01*
X112197285Y-102045904D01*
X112244904Y-102141142D01*
X112292523Y-102188761D01*
X112387761Y-102236380D01*
X112578238Y-102236380D01*
X112673476Y-102188761D01*
X112721095Y-102141142D01*
X112768714Y-102045904D01*
X112768714Y-101807809D01*
X112721095Y-101712571D01*
X112673476Y-101664952D01*
X112578238Y-101617333D01*
X112387761Y-101617333D01*
X112292523Y-101664952D01*
X112244904Y-101712571D01*
X112197285Y-101807809D01*
%TO.C,R14*%
X101997380Y-91302857D02*
X101521190Y-91636190D01*
X101997380Y-91874285D02*
X100997380Y-91874285D01*
X100997380Y-91493333D01*
X101045000Y-91398095D01*
X101092619Y-91350476D01*
X101187857Y-91302857D01*
X101330714Y-91302857D01*
X101425952Y-91350476D01*
X101473571Y-91398095D01*
X101521190Y-91493333D01*
X101521190Y-91874285D01*
X101997380Y-90350476D02*
X101997380Y-90921904D01*
X101997380Y-90636190D02*
X100997380Y-90636190D01*
X101140238Y-90731428D01*
X101235476Y-90826666D01*
X101283095Y-90921904D01*
X101330714Y-89493333D02*
X101997380Y-89493333D01*
X100949761Y-89731428D02*
X101664047Y-89969523D01*
X101664047Y-89350476D01*
%TO.C,D4*%
X105376904Y-89952380D02*
X105376904Y-88952380D01*
X105615000Y-88952380D01*
X105757857Y-89000000D01*
X105853095Y-89095238D01*
X105900714Y-89190476D01*
X105948333Y-89380952D01*
X105948333Y-89523809D01*
X105900714Y-89714285D01*
X105853095Y-89809523D01*
X105757857Y-89904761D01*
X105615000Y-89952380D01*
X105376904Y-89952380D01*
X106805476Y-89285714D02*
X106805476Y-89952380D01*
X106567380Y-88904761D02*
X106329285Y-89619047D01*
X106948333Y-89619047D01*
%TO.C,C19*%
X127502142Y-90077142D02*
X127454523Y-90124761D01*
X127311666Y-90172380D01*
X127216428Y-90172380D01*
X127073571Y-90124761D01*
X126978333Y-90029523D01*
X126930714Y-89934285D01*
X126883095Y-89743809D01*
X126883095Y-89600952D01*
X126930714Y-89410476D01*
X126978333Y-89315238D01*
X127073571Y-89220000D01*
X127216428Y-89172380D01*
X127311666Y-89172380D01*
X127454523Y-89220000D01*
X127502142Y-89267619D01*
X128454523Y-90172380D02*
X127883095Y-90172380D01*
X128168809Y-90172380D02*
X128168809Y-89172380D01*
X128073571Y-89315238D01*
X127978333Y-89410476D01*
X127883095Y-89458095D01*
X128930714Y-90172380D02*
X129121190Y-90172380D01*
X129216428Y-90124761D01*
X129264047Y-90077142D01*
X129359285Y-89934285D01*
X129406904Y-89743809D01*
X129406904Y-89362857D01*
X129359285Y-89267619D01*
X129311666Y-89220000D01*
X129216428Y-89172380D01*
X129025952Y-89172380D01*
X128930714Y-89220000D01*
X128883095Y-89267619D01*
X128835476Y-89362857D01*
X128835476Y-89600952D01*
X128883095Y-89696190D01*
X128930714Y-89743809D01*
X129025952Y-89791428D01*
X129216428Y-89791428D01*
X129311666Y-89743809D01*
X129359285Y-89696190D01*
X129406904Y-89600952D01*
%TO.C,C20*%
X127192142Y-111287857D02*
X127239761Y-111335476D01*
X127287380Y-111478333D01*
X127287380Y-111573571D01*
X127239761Y-111716428D01*
X127144523Y-111811666D01*
X127049285Y-111859285D01*
X126858809Y-111906904D01*
X126715952Y-111906904D01*
X126525476Y-111859285D01*
X126430238Y-111811666D01*
X126335000Y-111716428D01*
X126287380Y-111573571D01*
X126287380Y-111478333D01*
X126335000Y-111335476D01*
X126382619Y-111287857D01*
X126382619Y-110906904D02*
X126335000Y-110859285D01*
X126287380Y-110764047D01*
X126287380Y-110525952D01*
X126335000Y-110430714D01*
X126382619Y-110383095D01*
X126477857Y-110335476D01*
X126573095Y-110335476D01*
X126715952Y-110383095D01*
X127287380Y-110954523D01*
X127287380Y-110335476D01*
X126287380Y-109716428D02*
X126287380Y-109621190D01*
X126335000Y-109525952D01*
X126382619Y-109478333D01*
X126477857Y-109430714D01*
X126668333Y-109383095D01*
X126906428Y-109383095D01*
X127096904Y-109430714D01*
X127192142Y-109478333D01*
X127239761Y-109525952D01*
X127287380Y-109621190D01*
X127287380Y-109716428D01*
X127239761Y-109811666D01*
X127192142Y-109859285D01*
X127096904Y-109906904D01*
X126906428Y-109954523D01*
X126668333Y-109954523D01*
X126477857Y-109906904D01*
X126382619Y-109859285D01*
X126335000Y-109811666D01*
X126287380Y-109716428D01*
%TO.C,C22*%
X129653542Y-87048462D02*
X129605923Y-87096081D01*
X129463066Y-87143700D01*
X129367828Y-87143700D01*
X129224971Y-87096081D01*
X129129733Y-87000843D01*
X129082114Y-86905605D01*
X129034495Y-86715129D01*
X129034495Y-86572272D01*
X129082114Y-86381796D01*
X129129733Y-86286558D01*
X129224971Y-86191320D01*
X129367828Y-86143700D01*
X129463066Y-86143700D01*
X129605923Y-86191320D01*
X129653542Y-86238939D01*
X130034495Y-86238939D02*
X130082114Y-86191320D01*
X130177352Y-86143700D01*
X130415447Y-86143700D01*
X130510685Y-86191320D01*
X130558304Y-86238939D01*
X130605923Y-86334177D01*
X130605923Y-86429415D01*
X130558304Y-86572272D01*
X129986876Y-87143700D01*
X130605923Y-87143700D01*
X130986876Y-86238939D02*
X131034495Y-86191320D01*
X131129733Y-86143700D01*
X131367828Y-86143700D01*
X131463066Y-86191320D01*
X131510685Y-86238939D01*
X131558304Y-86334177D01*
X131558304Y-86429415D01*
X131510685Y-86572272D01*
X130939257Y-87143700D01*
X131558304Y-87143700D01*
%TO.C,C23*%
X130734822Y-111281297D02*
X130782441Y-111328916D01*
X130830060Y-111471773D01*
X130830060Y-111567011D01*
X130782441Y-111709868D01*
X130687203Y-111805106D01*
X130591965Y-111852725D01*
X130401489Y-111900344D01*
X130258632Y-111900344D01*
X130068156Y-111852725D01*
X129972918Y-111805106D01*
X129877680Y-111709868D01*
X129830060Y-111567011D01*
X129830060Y-111471773D01*
X129877680Y-111328916D01*
X129925299Y-111281297D01*
X129925299Y-110900344D02*
X129877680Y-110852725D01*
X129830060Y-110757487D01*
X129830060Y-110519392D01*
X129877680Y-110424154D01*
X129925299Y-110376535D01*
X130020537Y-110328916D01*
X130115775Y-110328916D01*
X130258632Y-110376535D01*
X130830060Y-110947963D01*
X130830060Y-110328916D01*
X129830060Y-109995582D02*
X129830060Y-109376535D01*
X130211013Y-109709868D01*
X130211013Y-109567011D01*
X130258632Y-109471773D01*
X130306251Y-109424154D01*
X130401489Y-109376535D01*
X130639584Y-109376535D01*
X130734822Y-109424154D01*
X130782441Y-109471773D01*
X130830060Y-109567011D01*
X130830060Y-109852725D01*
X130782441Y-109947963D01*
X130734822Y-109995582D01*
%TO.C,C24*%
X115922142Y-83172142D02*
X115874523Y-83219761D01*
X115731666Y-83267380D01*
X115636428Y-83267380D01*
X115493571Y-83219761D01*
X115398333Y-83124523D01*
X115350714Y-83029285D01*
X115303095Y-82838809D01*
X115303095Y-82695952D01*
X115350714Y-82505476D01*
X115398333Y-82410238D01*
X115493571Y-82315000D01*
X115636428Y-82267380D01*
X115731666Y-82267380D01*
X115874523Y-82315000D01*
X115922142Y-82362619D01*
X116303095Y-82362619D02*
X116350714Y-82315000D01*
X116445952Y-82267380D01*
X116684047Y-82267380D01*
X116779285Y-82315000D01*
X116826904Y-82362619D01*
X116874523Y-82457857D01*
X116874523Y-82553095D01*
X116826904Y-82695952D01*
X116255476Y-83267380D01*
X116874523Y-83267380D01*
X117731666Y-82600714D02*
X117731666Y-83267380D01*
X117493571Y-82219761D02*
X117255476Y-82934047D01*
X117874523Y-82934047D01*
%TO.C,C25*%
X136444742Y-89244257D02*
X136492361Y-89291876D01*
X136539980Y-89434733D01*
X136539980Y-89529971D01*
X136492361Y-89672828D01*
X136397123Y-89768066D01*
X136301885Y-89815685D01*
X136111409Y-89863304D01*
X135968552Y-89863304D01*
X135778076Y-89815685D01*
X135682838Y-89768066D01*
X135587600Y-89672828D01*
X135539980Y-89529971D01*
X135539980Y-89434733D01*
X135587600Y-89291876D01*
X135635219Y-89244257D01*
X135635219Y-88863304D02*
X135587600Y-88815685D01*
X135539980Y-88720447D01*
X135539980Y-88482352D01*
X135587600Y-88387114D01*
X135635219Y-88339495D01*
X135730457Y-88291876D01*
X135825695Y-88291876D01*
X135968552Y-88339495D01*
X136539980Y-88910923D01*
X136539980Y-88291876D01*
X135539980Y-87387114D02*
X135539980Y-87863304D01*
X136016171Y-87910923D01*
X135968552Y-87863304D01*
X135920933Y-87768066D01*
X135920933Y-87529971D01*
X135968552Y-87434733D01*
X136016171Y-87387114D01*
X136111409Y-87339495D01*
X136349504Y-87339495D01*
X136444742Y-87387114D01*
X136492361Y-87434733D01*
X136539980Y-87529971D01*
X136539980Y-87768066D01*
X136492361Y-87863304D01*
X136444742Y-87910923D01*
%TO.C,C26*%
X124786142Y-110605657D02*
X124833761Y-110653276D01*
X124881380Y-110796133D01*
X124881380Y-110891371D01*
X124833761Y-111034228D01*
X124738523Y-111129466D01*
X124643285Y-111177085D01*
X124452809Y-111224704D01*
X124309952Y-111224704D01*
X124119476Y-111177085D01*
X124024238Y-111129466D01*
X123929000Y-111034228D01*
X123881380Y-110891371D01*
X123881380Y-110796133D01*
X123929000Y-110653276D01*
X123976619Y-110605657D01*
X123976619Y-110224704D02*
X123929000Y-110177085D01*
X123881380Y-110081847D01*
X123881380Y-109843752D01*
X123929000Y-109748514D01*
X123976619Y-109700895D01*
X124071857Y-109653276D01*
X124167095Y-109653276D01*
X124309952Y-109700895D01*
X124881380Y-110272323D01*
X124881380Y-109653276D01*
X123881380Y-108796133D02*
X123881380Y-108986609D01*
X123929000Y-109081847D01*
X123976619Y-109129466D01*
X124119476Y-109224704D01*
X124309952Y-109272323D01*
X124690904Y-109272323D01*
X124786142Y-109224704D01*
X124833761Y-109177085D01*
X124881380Y-109081847D01*
X124881380Y-108891371D01*
X124833761Y-108796133D01*
X124786142Y-108748514D01*
X124690904Y-108700895D01*
X124452809Y-108700895D01*
X124357571Y-108748514D01*
X124309952Y-108796133D01*
X124262333Y-108891371D01*
X124262333Y-109081847D01*
X124309952Y-109177085D01*
X124357571Y-109224704D01*
X124452809Y-109272323D01*
%TO.C,C28*%
X130892142Y-95607142D02*
X130844523Y-95654761D01*
X130701666Y-95702380D01*
X130606428Y-95702380D01*
X130463571Y-95654761D01*
X130368333Y-95559523D01*
X130320714Y-95464285D01*
X130273095Y-95273809D01*
X130273095Y-95130952D01*
X130320714Y-94940476D01*
X130368333Y-94845238D01*
X130463571Y-94750000D01*
X130606428Y-94702380D01*
X130701666Y-94702380D01*
X130844523Y-94750000D01*
X130892142Y-94797619D01*
X131273095Y-94797619D02*
X131320714Y-94750000D01*
X131415952Y-94702380D01*
X131654047Y-94702380D01*
X131749285Y-94750000D01*
X131796904Y-94797619D01*
X131844523Y-94892857D01*
X131844523Y-94988095D01*
X131796904Y-95130952D01*
X131225476Y-95702380D01*
X131844523Y-95702380D01*
X132415952Y-95130952D02*
X132320714Y-95083333D01*
X132273095Y-95035714D01*
X132225476Y-94940476D01*
X132225476Y-94892857D01*
X132273095Y-94797619D01*
X132320714Y-94750000D01*
X132415952Y-94702380D01*
X132606428Y-94702380D01*
X132701666Y-94750000D01*
X132749285Y-94797619D01*
X132796904Y-94892857D01*
X132796904Y-94940476D01*
X132749285Y-95035714D01*
X132701666Y-95083333D01*
X132606428Y-95130952D01*
X132415952Y-95130952D01*
X132320714Y-95178571D01*
X132273095Y-95226190D01*
X132225476Y-95321428D01*
X132225476Y-95511904D01*
X132273095Y-95607142D01*
X132320714Y-95654761D01*
X132415952Y-95702380D01*
X132606428Y-95702380D01*
X132701666Y-95654761D01*
X132749285Y-95607142D01*
X132796904Y-95511904D01*
X132796904Y-95321428D01*
X132749285Y-95226190D01*
X132701666Y-95178571D01*
X132606428Y-95130952D01*
%TO.C,C29*%
X125702142Y-104932857D02*
X125749761Y-104980476D01*
X125797380Y-105123333D01*
X125797380Y-105218571D01*
X125749761Y-105361428D01*
X125654523Y-105456666D01*
X125559285Y-105504285D01*
X125368809Y-105551904D01*
X125225952Y-105551904D01*
X125035476Y-105504285D01*
X124940238Y-105456666D01*
X124845000Y-105361428D01*
X124797380Y-105218571D01*
X124797380Y-105123333D01*
X124845000Y-104980476D01*
X124892619Y-104932857D01*
X124892619Y-104551904D02*
X124845000Y-104504285D01*
X124797380Y-104409047D01*
X124797380Y-104170952D01*
X124845000Y-104075714D01*
X124892619Y-104028095D01*
X124987857Y-103980476D01*
X125083095Y-103980476D01*
X125225952Y-104028095D01*
X125797380Y-104599523D01*
X125797380Y-103980476D01*
X125797380Y-103504285D02*
X125797380Y-103313809D01*
X125749761Y-103218571D01*
X125702142Y-103170952D01*
X125559285Y-103075714D01*
X125368809Y-103028095D01*
X124987857Y-103028095D01*
X124892619Y-103075714D01*
X124845000Y-103123333D01*
X124797380Y-103218571D01*
X124797380Y-103409047D01*
X124845000Y-103504285D01*
X124892619Y-103551904D01*
X124987857Y-103599523D01*
X125225952Y-103599523D01*
X125321190Y-103551904D01*
X125368809Y-103504285D01*
X125416428Y-103409047D01*
X125416428Y-103218571D01*
X125368809Y-103123333D01*
X125321190Y-103075714D01*
X125225952Y-103028095D01*
%TO.C,U3*%
X117197380Y-88546904D02*
X118006904Y-88546904D01*
X118102142Y-88499285D01*
X118149761Y-88451666D01*
X118197380Y-88356428D01*
X118197380Y-88165952D01*
X118149761Y-88070714D01*
X118102142Y-88023095D01*
X118006904Y-87975476D01*
X117197380Y-87975476D01*
X117197380Y-87594523D02*
X117197380Y-86975476D01*
X117578333Y-87308809D01*
X117578333Y-87165952D01*
X117625952Y-87070714D01*
X117673571Y-87023095D01*
X117768809Y-86975476D01*
X118006904Y-86975476D01*
X118102142Y-87023095D01*
X118149761Y-87070714D01*
X118197380Y-87165952D01*
X118197380Y-87451666D01*
X118149761Y-87546904D01*
X118102142Y-87594523D01*
%TO.C,U4*%
X127832695Y-92625780D02*
X127832695Y-93435304D01*
X127880314Y-93530542D01*
X127927933Y-93578161D01*
X128023171Y-93625780D01*
X128213647Y-93625780D01*
X128308885Y-93578161D01*
X128356504Y-93530542D01*
X128404123Y-93435304D01*
X128404123Y-92625780D01*
X129308885Y-92959114D02*
X129308885Y-93625780D01*
X129070790Y-92578161D02*
X128832695Y-93292447D01*
X129451742Y-93292447D01*
%TO.C,U5*%
X127233095Y-104472380D02*
X127233095Y-105281904D01*
X127280714Y-105377142D01*
X127328333Y-105424761D01*
X127423571Y-105472380D01*
X127614047Y-105472380D01*
X127709285Y-105424761D01*
X127756904Y-105377142D01*
X127804523Y-105281904D01*
X127804523Y-104472380D01*
X128756904Y-104472380D02*
X128280714Y-104472380D01*
X128233095Y-104948571D01*
X128280714Y-104900952D01*
X128375952Y-104853333D01*
X128614047Y-104853333D01*
X128709285Y-104900952D01*
X128756904Y-104948571D01*
X128804523Y-105043809D01*
X128804523Y-105281904D01*
X128756904Y-105377142D01*
X128709285Y-105424761D01*
X128614047Y-105472380D01*
X128375952Y-105472380D01*
X128280714Y-105424761D01*
X128233095Y-105377142D01*
%TO.C,C15*%
X102577142Y-111285142D02*
X102529523Y-111332761D01*
X102386666Y-111380380D01*
X102291428Y-111380380D01*
X102148571Y-111332761D01*
X102053333Y-111237523D01*
X102005714Y-111142285D01*
X101958095Y-110951809D01*
X101958095Y-110808952D01*
X102005714Y-110618476D01*
X102053333Y-110523238D01*
X102148571Y-110428000D01*
X102291428Y-110380380D01*
X102386666Y-110380380D01*
X102529523Y-110428000D01*
X102577142Y-110475619D01*
X103529523Y-111380380D02*
X102958095Y-111380380D01*
X103243809Y-111380380D02*
X103243809Y-110380380D01*
X103148571Y-110523238D01*
X103053333Y-110618476D01*
X102958095Y-110666095D01*
X104434285Y-110380380D02*
X103958095Y-110380380D01*
X103910476Y-110856571D01*
X103958095Y-110808952D01*
X104053333Y-110761333D01*
X104291428Y-110761333D01*
X104386666Y-110808952D01*
X104434285Y-110856571D01*
X104481904Y-110951809D01*
X104481904Y-111189904D01*
X104434285Y-111285142D01*
X104386666Y-111332761D01*
X104291428Y-111380380D01*
X104053333Y-111380380D01*
X103958095Y-111332761D01*
X103910476Y-111285142D01*
%TO.C,C16*%
X109820462Y-112497957D02*
X109868081Y-112545576D01*
X109915700Y-112688433D01*
X109915700Y-112783671D01*
X109868081Y-112926528D01*
X109772843Y-113021766D01*
X109677605Y-113069385D01*
X109487129Y-113117004D01*
X109344272Y-113117004D01*
X109153796Y-113069385D01*
X109058558Y-113021766D01*
X108963320Y-112926528D01*
X108915700Y-112783671D01*
X108915700Y-112688433D01*
X108963320Y-112545576D01*
X109010939Y-112497957D01*
X109915700Y-111545576D02*
X109915700Y-112117004D01*
X109915700Y-111831290D02*
X108915700Y-111831290D01*
X109058558Y-111926528D01*
X109153796Y-112021766D01*
X109201415Y-112117004D01*
X108915700Y-110688433D02*
X108915700Y-110878909D01*
X108963320Y-110974147D01*
X109010939Y-111021766D01*
X109153796Y-111117004D01*
X109344272Y-111164623D01*
X109725224Y-111164623D01*
X109820462Y-111117004D01*
X109868081Y-111069385D01*
X109915700Y-110974147D01*
X109915700Y-110783671D01*
X109868081Y-110688433D01*
X109820462Y-110640814D01*
X109725224Y-110593195D01*
X109487129Y-110593195D01*
X109391891Y-110640814D01*
X109344272Y-110688433D01*
X109296653Y-110783671D01*
X109296653Y-110974147D01*
X109344272Y-111069385D01*
X109391891Y-111117004D01*
X109487129Y-111164623D01*
%TO.C,C14*%
X101408742Y-108384462D02*
X101361123Y-108432081D01*
X101218266Y-108479700D01*
X101123028Y-108479700D01*
X100980171Y-108432081D01*
X100884933Y-108336843D01*
X100837314Y-108241605D01*
X100789695Y-108051129D01*
X100789695Y-107908272D01*
X100837314Y-107717796D01*
X100884933Y-107622558D01*
X100980171Y-107527320D01*
X101123028Y-107479700D01*
X101218266Y-107479700D01*
X101361123Y-107527320D01*
X101408742Y-107574939D01*
X102361123Y-108479700D02*
X101789695Y-108479700D01*
X102075409Y-108479700D02*
X102075409Y-107479700D01*
X101980171Y-107622558D01*
X101884933Y-107717796D01*
X101789695Y-107765415D01*
X103218266Y-107813034D02*
X103218266Y-108479700D01*
X102980171Y-107432081D02*
X102742076Y-108146367D01*
X103361123Y-108146367D01*
%TO.C,C17*%
X109502142Y-108652142D02*
X109454523Y-108699761D01*
X109311666Y-108747380D01*
X109216428Y-108747380D01*
X109073571Y-108699761D01*
X108978333Y-108604523D01*
X108930714Y-108509285D01*
X108883095Y-108318809D01*
X108883095Y-108175952D01*
X108930714Y-107985476D01*
X108978333Y-107890238D01*
X109073571Y-107795000D01*
X109216428Y-107747380D01*
X109311666Y-107747380D01*
X109454523Y-107795000D01*
X109502142Y-107842619D01*
X110454523Y-108747380D02*
X109883095Y-108747380D01*
X110168809Y-108747380D02*
X110168809Y-107747380D01*
X110073571Y-107890238D01*
X109978333Y-107985476D01*
X109883095Y-108033095D01*
X110787857Y-107747380D02*
X111454523Y-107747380D01*
X111025952Y-108747380D01*
%TO.C,D2*%
X94832380Y-117098095D02*
X93832380Y-117098095D01*
X93832380Y-116860000D01*
X93880000Y-116717142D01*
X93975238Y-116621904D01*
X94070476Y-116574285D01*
X94260952Y-116526666D01*
X94403809Y-116526666D01*
X94594285Y-116574285D01*
X94689523Y-116621904D01*
X94784761Y-116717142D01*
X94832380Y-116860000D01*
X94832380Y-117098095D01*
X93927619Y-116145714D02*
X93880000Y-116098095D01*
X93832380Y-116002857D01*
X93832380Y-115764761D01*
X93880000Y-115669523D01*
X93927619Y-115621904D01*
X94022857Y-115574285D01*
X94118095Y-115574285D01*
X94260952Y-115621904D01*
X94832380Y-116193333D01*
X94832380Y-115574285D01*
%TO.C,R12*%
X106567482Y-115424060D02*
X106234149Y-114947870D01*
X105996054Y-115424060D02*
X105996054Y-114424060D01*
X106377006Y-114424060D01*
X106472244Y-114471680D01*
X106519863Y-114519299D01*
X106567482Y-114614537D01*
X106567482Y-114757394D01*
X106519863Y-114852632D01*
X106472244Y-114900251D01*
X106377006Y-114947870D01*
X105996054Y-114947870D01*
X107519863Y-115424060D02*
X106948435Y-115424060D01*
X107234149Y-115424060D02*
X107234149Y-114424060D01*
X107138911Y-114566918D01*
X107043673Y-114662156D01*
X106948435Y-114709775D01*
X107900816Y-114519299D02*
X107948435Y-114471680D01*
X108043673Y-114424060D01*
X108281768Y-114424060D01*
X108377006Y-114471680D01*
X108424625Y-114519299D01*
X108472244Y-114614537D01*
X108472244Y-114709775D01*
X108424625Y-114852632D01*
X107853197Y-115424060D01*
X108472244Y-115424060D01*
%TO.C,R13*%
X106413040Y-112368417D02*
X105936850Y-112701750D01*
X106413040Y-112939845D02*
X105413040Y-112939845D01*
X105413040Y-112558893D01*
X105460660Y-112463655D01*
X105508279Y-112416036D01*
X105603517Y-112368417D01*
X105746374Y-112368417D01*
X105841612Y-112416036D01*
X105889231Y-112463655D01*
X105936850Y-112558893D01*
X105936850Y-112939845D01*
X106413040Y-111416036D02*
X106413040Y-111987464D01*
X106413040Y-111701750D02*
X105413040Y-111701750D01*
X105555898Y-111796988D01*
X105651136Y-111892226D01*
X105698755Y-111987464D01*
X105413040Y-111082702D02*
X105413040Y-110463655D01*
X105793993Y-110796988D01*
X105793993Y-110654131D01*
X105841612Y-110558893D01*
X105889231Y-110511274D01*
X105984469Y-110463655D01*
X106222564Y-110463655D01*
X106317802Y-110511274D01*
X106365421Y-110558893D01*
X106413040Y-110654131D01*
X106413040Y-110939845D01*
X106365421Y-111035083D01*
X106317802Y-111082702D01*
%TO.C,U2*%
X98013095Y-111904380D02*
X98013095Y-112713904D01*
X98060714Y-112809142D01*
X98108333Y-112856761D01*
X98203571Y-112904380D01*
X98394047Y-112904380D01*
X98489285Y-112856761D01*
X98536904Y-112809142D01*
X98584523Y-112713904D01*
X98584523Y-111904380D01*
X99013095Y-111999619D02*
X99060714Y-111952000D01*
X99155952Y-111904380D01*
X99394047Y-111904380D01*
X99489285Y-111952000D01*
X99536904Y-111999619D01*
X99584523Y-112094857D01*
X99584523Y-112190095D01*
X99536904Y-112332952D01*
X98965476Y-112904380D01*
X99584523Y-112904380D01*
%TO.C,R1*%
X109868333Y-110112380D02*
X109535000Y-109636190D01*
X109296904Y-110112380D02*
X109296904Y-109112380D01*
X109677857Y-109112380D01*
X109773095Y-109160000D01*
X109820714Y-109207619D01*
X109868333Y-109302857D01*
X109868333Y-109445714D01*
X109820714Y-109540952D01*
X109773095Y-109588571D01*
X109677857Y-109636190D01*
X109296904Y-109636190D01*
X110820714Y-110112380D02*
X110249285Y-110112380D01*
X110535000Y-110112380D02*
X110535000Y-109112380D01*
X110439761Y-109255238D01*
X110344523Y-109350476D01*
X110249285Y-109398095D01*
%TO.C,R3*%
X106108240Y-108905186D02*
X105632050Y-109238520D01*
X106108240Y-109476615D02*
X105108240Y-109476615D01*
X105108240Y-109095662D01*
X105155860Y-109000424D01*
X105203479Y-108952805D01*
X105298717Y-108905186D01*
X105441574Y-108905186D01*
X105536812Y-108952805D01*
X105584431Y-109000424D01*
X105632050Y-109095662D01*
X105632050Y-109476615D01*
X105108240Y-108571853D02*
X105108240Y-107952805D01*
X105489193Y-108286139D01*
X105489193Y-108143281D01*
X105536812Y-108048043D01*
X105584431Y-108000424D01*
X105679669Y-107952805D01*
X105917764Y-107952805D01*
X106013002Y-108000424D01*
X106060621Y-108048043D01*
X106108240Y-108143281D01*
X106108240Y-108428996D01*
X106060621Y-108524234D01*
X106013002Y-108571853D01*
%TO.C,R4*%
X99878333Y-110618380D02*
X99545000Y-110142190D01*
X99306904Y-110618380D02*
X99306904Y-109618380D01*
X99687857Y-109618380D01*
X99783095Y-109666000D01*
X99830714Y-109713619D01*
X99878333Y-109808857D01*
X99878333Y-109951714D01*
X99830714Y-110046952D01*
X99783095Y-110094571D01*
X99687857Y-110142190D01*
X99306904Y-110142190D01*
X100735476Y-109951714D02*
X100735476Y-110618380D01*
X100497380Y-109570761D02*
X100259285Y-110285047D01*
X100878333Y-110285047D01*
%TO.C,R5*%
X95306333Y-108840380D02*
X94973000Y-108364190D01*
X94734904Y-108840380D02*
X94734904Y-107840380D01*
X95115857Y-107840380D01*
X95211095Y-107888000D01*
X95258714Y-107935619D01*
X95306333Y-108030857D01*
X95306333Y-108173714D01*
X95258714Y-108268952D01*
X95211095Y-108316571D01*
X95115857Y-108364190D01*
X94734904Y-108364190D01*
X96211095Y-107840380D02*
X95734904Y-107840380D01*
X95687285Y-108316571D01*
X95734904Y-108268952D01*
X95830142Y-108221333D01*
X96068238Y-108221333D01*
X96163476Y-108268952D01*
X96211095Y-108316571D01*
X96258714Y-108411809D01*
X96258714Y-108649904D01*
X96211095Y-108745142D01*
X96163476Y-108792761D01*
X96068238Y-108840380D01*
X95830142Y-108840380D01*
X95734904Y-108792761D01*
X95687285Y-108745142D01*
%TD*%
M02*
