%TF.GenerationSoftware,KiCad,Pcbnew,(5.1.8)-1*%
%TF.CreationDate,2021-01-15T16:44:41+01:00*%
%TF.ProjectId,Ka-band-Mixer,4b612d62-616e-4642-9d4d-697865722e6b,rev?*%
%TF.SameCoordinates,Original*%
%TF.FileFunction,Copper,L1,Top*%
%TF.FilePolarity,Positive*%
%FSLAX46Y46*%
G04 Gerber Fmt 4.6, Leading zero omitted, Abs format (unit mm)*
G04 Created by KiCad (PCBNEW (5.1.8)-1) date 2021-01-15 16:44:41*
%MOMM*%
%LPD*%
G01*
G04 APERTURE LIST*
%TA.AperFunction,ComponentPad*%
%ADD10C,0.600000*%
%TD*%
%TA.AperFunction,ComponentPad*%
%ADD11C,2.200000*%
%TD*%
%TA.AperFunction,ConnectorPad*%
%ADD12R,5.500000X6.321800*%
%TD*%
%TA.AperFunction,ConnectorPad*%
%ADD13R,5.500000X0.448177*%
%TD*%
%TA.AperFunction,ComponentPad*%
%ADD14C,0.500000*%
%TD*%
%TA.AperFunction,SMDPad,CuDef*%
%ADD15R,2.700000X2.700000*%
%TD*%
%TA.AperFunction,ComponentPad*%
%ADD16C,3.000000*%
%TD*%
%TA.AperFunction,SMDPad,CuDef*%
%ADD17R,0.460000X0.950000*%
%TD*%
%TA.AperFunction,ComponentPad*%
%ADD18C,0.970000*%
%TD*%
%TA.AperFunction,SMDPad,CuDef*%
%ADD19R,2.420000X5.080000*%
%TD*%
%TA.AperFunction,SMDPad,CuDef*%
%ADD20R,2.290000X5.080000*%
%TD*%
%TA.AperFunction,SMDPad,CuDef*%
%ADD21R,1.500000X1.500000*%
%TD*%
%TA.AperFunction,SMDPad,CuDef*%
%ADD22R,0.304800X0.320000*%
%TD*%
%TA.AperFunction,SMDPad,CuDef*%
%ADD23R,0.320000X0.304800*%
%TD*%
%TA.AperFunction,SMDPad,CuDef*%
%ADD24R,2.700000X1.500000*%
%TD*%
%TA.AperFunction,ComponentPad*%
%ADD25C,0.800000*%
%TD*%
%TA.AperFunction,SMDPad,CuDef*%
%ADD26R,3.250000X3.250000*%
%TD*%
%TA.AperFunction,SMDPad,CuDef*%
%ADD27R,0.800000X0.300000*%
%TD*%
%TA.AperFunction,SMDPad,CuDef*%
%ADD28R,0.750000X0.300000*%
%TD*%
%TA.AperFunction,SMDPad,CuDef*%
%ADD29R,0.300000X0.750000*%
%TD*%
%TA.AperFunction,SMDPad,CuDef*%
%ADD30R,0.300000X0.800000*%
%TD*%
%TA.AperFunction,SMDPad,CuDef*%
%ADD31R,1.950000X1.650000*%
%TD*%
%TA.AperFunction,SMDPad,CuDef*%
%ADD32R,1.680000X1.880000*%
%TD*%
%TA.AperFunction,ComponentPad*%
%ADD33O,1.700000X1.700000*%
%TD*%
%TA.AperFunction,ComponentPad*%
%ADD34R,1.700000X1.700000*%
%TD*%
%TA.AperFunction,ViaPad*%
%ADD35C,3.000000*%
%TD*%
%TA.AperFunction,ViaPad*%
%ADD36C,0.800000*%
%TD*%
%TA.AperFunction,ViaPad*%
%ADD37C,0.600000*%
%TD*%
%TA.AperFunction,ViaPad*%
%ADD38C,0.500000*%
%TD*%
%TA.AperFunction,Conductor*%
%ADD39C,0.250000*%
%TD*%
%TA.AperFunction,Conductor*%
%ADD40C,0.300000*%
%TD*%
%TA.AperFunction,Conductor*%
%ADD41C,0.440000*%
%TD*%
%TA.AperFunction,Conductor*%
%ADD42C,0.900000*%
%TD*%
%TA.AperFunction,Conductor*%
%ADD43C,1.000000*%
%TD*%
%TA.AperFunction,Conductor*%
%ADD44C,0.400000*%
%TD*%
%TA.AperFunction,Conductor*%
%ADD45C,0.448177*%
%TD*%
%TA.AperFunction,Conductor*%
%ADD46C,0.254000*%
%TD*%
%TA.AperFunction,Conductor*%
%ADD47C,0.100000*%
%TD*%
G04 APERTURE END LIST*
D10*
%TO.P,J4,2*%
%TO.N,0*%
X143010000Y-98745001D03*
X143010000Y-99215001D03*
X143480000Y-98745001D03*
X143480000Y-99215001D03*
X143950000Y-98745001D03*
X143950000Y-99215001D03*
X144420000Y-98745001D03*
X144420000Y-99215001D03*
X144890000Y-98745001D03*
X144890000Y-99215001D03*
X145360000Y-98745001D03*
X145360000Y-99215001D03*
X145830000Y-98275001D03*
X145830000Y-98745001D03*
X145830000Y-99215001D03*
X146300000Y-97805001D03*
X146300000Y-98275001D03*
X146300000Y-98745001D03*
X146300000Y-99215001D03*
X146770000Y-97335001D03*
X146770000Y-97805001D03*
X146770000Y-98275001D03*
X146770000Y-98745001D03*
X146770000Y-99215001D03*
X147240000Y-96865001D03*
X147240000Y-97335001D03*
X147240000Y-97805001D03*
X147240000Y-98275001D03*
X147240000Y-98745001D03*
X147240000Y-99215001D03*
X147710000Y-99215001D03*
X147710000Y-98745001D03*
X147710000Y-98275001D03*
X147710000Y-97805001D03*
X147710000Y-97335001D03*
X147710000Y-96865001D03*
X143010000Y-100710001D03*
X143010000Y-101180001D03*
X143480000Y-100710001D03*
X143480000Y-101180001D03*
X143950000Y-100710001D03*
X143950000Y-101180001D03*
X144420000Y-100710001D03*
X144420000Y-101180001D03*
X144890000Y-100710001D03*
X144890000Y-101180001D03*
X145360000Y-100710001D03*
X145360000Y-101180001D03*
X145830000Y-100710001D03*
X145830000Y-101180001D03*
X145830000Y-101650001D03*
X146300000Y-100710001D03*
X146300000Y-101180001D03*
X146300000Y-101650001D03*
X146300000Y-102120001D03*
X146770000Y-100710001D03*
X146770000Y-101180001D03*
X146770000Y-101650001D03*
X146770000Y-102120001D03*
X146770000Y-102590001D03*
X147240000Y-100710001D03*
X147240000Y-101180001D03*
X147240000Y-101650001D03*
X147240000Y-102120001D03*
X147240000Y-102590001D03*
X147240000Y-103060001D03*
X147710000Y-100710001D03*
X147710000Y-101180001D03*
X147710000Y-101650001D03*
X147710000Y-102120001D03*
X147710000Y-102590001D03*
X147710000Y-103060001D03*
X147710000Y-103530001D03*
X147710000Y-96395001D03*
D11*
X145530000Y-95205001D03*
X145530000Y-104720001D03*
D12*
X145320000Y-103545001D03*
X145320000Y-96375000D03*
D13*
%TO.P,J4,1*%
%TO.N,Net-(J4-Pad1)*%
X145320000Y-99960000D03*
%TD*%
%TO.P,C32,2*%
%TO.N,Net-(C32-Pad2)*%
%TA.AperFunction,SMDPad,CuDef*%
G36*
G01*
X117706700Y-98320923D02*
X117706700Y-98120923D01*
G75*
G02*
X117806700Y-98020923I100000J0D01*
G01*
X118241700Y-98020923D01*
G75*
G02*
X118341700Y-98120923I0J-100000D01*
G01*
X118341700Y-98320923D01*
G75*
G02*
X118241700Y-98420923I-100000J0D01*
G01*
X117806700Y-98420923D01*
G75*
G02*
X117706700Y-98320923I0J100000D01*
G01*
G37*
%TD.AperFunction*%
%TO.P,C32,1*%
%TO.N,DIV16*%
%TA.AperFunction,SMDPad,CuDef*%
G36*
G01*
X116871700Y-98320923D02*
X116871700Y-98120923D01*
G75*
G02*
X116971700Y-98020923I100000J0D01*
G01*
X117406700Y-98020923D01*
G75*
G02*
X117506700Y-98120923I0J-100000D01*
G01*
X117506700Y-98320923D01*
G75*
G02*
X117406700Y-98420923I-100000J0D01*
G01*
X116971700Y-98420923D01*
G75*
G02*
X116871700Y-98320923I0J100000D01*
G01*
G37*
%TD.AperFunction*%
%TD*%
%TO.P,C7,2*%
%TO.N,+3V3*%
%TA.AperFunction,SMDPad,CuDef*%
G36*
G01*
X106925200Y-94471400D02*
X106925200Y-94161400D01*
G75*
G02*
X107080200Y-94006400I155000J0D01*
G01*
X107505200Y-94006400D01*
G75*
G02*
X107660200Y-94161400I0J-155000D01*
G01*
X107660200Y-94471400D01*
G75*
G02*
X107505200Y-94626400I-155000J0D01*
G01*
X107080200Y-94626400D01*
G75*
G02*
X106925200Y-94471400I0J155000D01*
G01*
G37*
%TD.AperFunction*%
%TO.P,C7,1*%
%TO.N,0*%
%TA.AperFunction,SMDPad,CuDef*%
G36*
G01*
X105790200Y-94471400D02*
X105790200Y-94161400D01*
G75*
G02*
X105945200Y-94006400I155000J0D01*
G01*
X106370200Y-94006400D01*
G75*
G02*
X106525200Y-94161400I0J-155000D01*
G01*
X106525200Y-94471400D01*
G75*
G02*
X106370200Y-94626400I-155000J0D01*
G01*
X105945200Y-94626400D01*
G75*
G02*
X105790200Y-94471400I0J155000D01*
G01*
G37*
%TD.AperFunction*%
%TD*%
%TO.P,C9,2*%
%TO.N,+3V3*%
%TA.AperFunction,SMDPad,CuDef*%
G36*
G01*
X106927740Y-95507720D02*
X106927740Y-95197720D01*
G75*
G02*
X107082740Y-95042720I155000J0D01*
G01*
X107507740Y-95042720D01*
G75*
G02*
X107662740Y-95197720I0J-155000D01*
G01*
X107662740Y-95507720D01*
G75*
G02*
X107507740Y-95662720I-155000J0D01*
G01*
X107082740Y-95662720D01*
G75*
G02*
X106927740Y-95507720I0J155000D01*
G01*
G37*
%TD.AperFunction*%
%TO.P,C9,1*%
%TO.N,0*%
%TA.AperFunction,SMDPad,CuDef*%
G36*
G01*
X105792740Y-95507720D02*
X105792740Y-95197720D01*
G75*
G02*
X105947740Y-95042720I155000J0D01*
G01*
X106372740Y-95042720D01*
G75*
G02*
X106527740Y-95197720I0J-155000D01*
G01*
X106527740Y-95507720D01*
G75*
G02*
X106372740Y-95662720I-155000J0D01*
G01*
X105947740Y-95662720D01*
G75*
G02*
X105792740Y-95507720I0J155000D01*
G01*
G37*
%TD.AperFunction*%
%TD*%
%TO.P,R17,1*%
%TO.N,DIV16*%
%TA.AperFunction,SMDPad,CuDef*%
G36*
G01*
X112220000Y-98375000D02*
X112420000Y-98375000D01*
G75*
G02*
X112520000Y-98475000I0J-100000D01*
G01*
X112520000Y-98910000D01*
G75*
G02*
X112420000Y-99010000I-100000J0D01*
G01*
X112220000Y-99010000D01*
G75*
G02*
X112120000Y-98910000I0J100000D01*
G01*
X112120000Y-98475000D01*
G75*
G02*
X112220000Y-98375000I100000J0D01*
G01*
G37*
%TD.AperFunction*%
%TO.P,R17,2*%
%TO.N,0*%
%TA.AperFunction,SMDPad,CuDef*%
G36*
G01*
X112220000Y-99210000D02*
X112420000Y-99210000D01*
G75*
G02*
X112520000Y-99310000I0J-100000D01*
G01*
X112520000Y-99745000D01*
G75*
G02*
X112420000Y-99845000I-100000J0D01*
G01*
X112220000Y-99845000D01*
G75*
G02*
X112120000Y-99745000I0J100000D01*
G01*
X112120000Y-99310000D01*
G75*
G02*
X112220000Y-99210000I100000J0D01*
G01*
G37*
%TD.AperFunction*%
%TD*%
%TO.P,R15,2*%
%TO.N,0*%
%TA.AperFunction,SMDPad,CuDef*%
G36*
G01*
X112420000Y-97210000D02*
X112220000Y-97210000D01*
G75*
G02*
X112120000Y-97110000I0J100000D01*
G01*
X112120000Y-96675000D01*
G75*
G02*
X112220000Y-96575000I100000J0D01*
G01*
X112420000Y-96575000D01*
G75*
G02*
X112520000Y-96675000I0J-100000D01*
G01*
X112520000Y-97110000D01*
G75*
G02*
X112420000Y-97210000I-100000J0D01*
G01*
G37*
%TD.AperFunction*%
%TO.P,R15,1*%
%TO.N,DIV16*%
%TA.AperFunction,SMDPad,CuDef*%
G36*
G01*
X112420000Y-98045000D02*
X112220000Y-98045000D01*
G75*
G02*
X112120000Y-97945000I0J100000D01*
G01*
X112120000Y-97510000D01*
G75*
G02*
X112220000Y-97410000I100000J0D01*
G01*
X112420000Y-97410000D01*
G75*
G02*
X112520000Y-97510000I0J-100000D01*
G01*
X112520000Y-97945000D01*
G75*
G02*
X112420000Y-98045000I-100000J0D01*
G01*
G37*
%TD.AperFunction*%
%TD*%
D14*
%TO.P,U6,11*%
%TO.N,0*%
X134735000Y-101715000D03*
X133235000Y-101715000D03*
X132735000Y-101215000D03*
X133735000Y-101215000D03*
X134735000Y-101215000D03*
X135235000Y-100715000D03*
X134235000Y-100715000D03*
X133235000Y-100715000D03*
X132735000Y-100215000D03*
X133735000Y-100215000D03*
X134735000Y-100215000D03*
X134235000Y-99715000D03*
X133235000Y-99715000D03*
X134735000Y-99215000D03*
X135235000Y-99215000D03*
X133735000Y-99215000D03*
X132735000Y-99215000D03*
X132735000Y-98715000D03*
D15*
X133735000Y-100215000D03*
%TO.P,U6,24*%
%TA.AperFunction,SMDPad,CuDef*%
G36*
G01*
X132360000Y-98602500D02*
X132360000Y-97902500D01*
G75*
G02*
X132422500Y-97840000I62500J0D01*
G01*
X132547500Y-97840000D01*
G75*
G02*
X132610000Y-97902500I0J-62500D01*
G01*
X132610000Y-98602500D01*
G75*
G02*
X132547500Y-98665000I-62500J0D01*
G01*
X132422500Y-98665000D01*
G75*
G02*
X132360000Y-98602500I0J62500D01*
G01*
G37*
%TD.AperFunction*%
%TO.P,U6,23*%
%TA.AperFunction,SMDPad,CuDef*%
G36*
G01*
X132860000Y-98602500D02*
X132860000Y-97902500D01*
G75*
G02*
X132922500Y-97840000I62500J0D01*
G01*
X133047500Y-97840000D01*
G75*
G02*
X133110000Y-97902500I0J-62500D01*
G01*
X133110000Y-98602500D01*
G75*
G02*
X133047500Y-98665000I-62500J0D01*
G01*
X132922500Y-98665000D01*
G75*
G02*
X132860000Y-98602500I0J62500D01*
G01*
G37*
%TD.AperFunction*%
%TO.P,U6,22*%
%TO.N,CPout*%
%TA.AperFunction,SMDPad,CuDef*%
G36*
G01*
X133360000Y-98602500D02*
X133360000Y-97902500D01*
G75*
G02*
X133422500Y-97840000I62500J0D01*
G01*
X133547500Y-97840000D01*
G75*
G02*
X133610000Y-97902500I0J-62500D01*
G01*
X133610000Y-98602500D01*
G75*
G02*
X133547500Y-98665000I-62500J0D01*
G01*
X133422500Y-98665000D01*
G75*
G02*
X133360000Y-98602500I0J62500D01*
G01*
G37*
%TD.AperFunction*%
%TO.P,U6,21*%
%TO.N,0*%
%TA.AperFunction,SMDPad,CuDef*%
G36*
G01*
X133860000Y-98602500D02*
X133860000Y-97902500D01*
G75*
G02*
X133922500Y-97840000I62500J0D01*
G01*
X134047500Y-97840000D01*
G75*
G02*
X134110000Y-97902500I0J-62500D01*
G01*
X134110000Y-98602500D01*
G75*
G02*
X134047500Y-98665000I-62500J0D01*
G01*
X133922500Y-98665000D01*
G75*
G02*
X133860000Y-98602500I0J62500D01*
G01*
G37*
%TD.AperFunction*%
%TO.P,U6,20*%
%TO.N,+5VA*%
%TA.AperFunction,SMDPad,CuDef*%
G36*
G01*
X134360000Y-98602500D02*
X134360000Y-97902500D01*
G75*
G02*
X134422500Y-97840000I62500J0D01*
G01*
X134547500Y-97840000D01*
G75*
G02*
X134610000Y-97902500I0J-62500D01*
G01*
X134610000Y-98602500D01*
G75*
G02*
X134547500Y-98665000I-62500J0D01*
G01*
X134422500Y-98665000D01*
G75*
G02*
X134360000Y-98602500I0J62500D01*
G01*
G37*
%TD.AperFunction*%
%TO.P,U6,19*%
%TO.N,0*%
%TA.AperFunction,SMDPad,CuDef*%
G36*
G01*
X134860000Y-98602500D02*
X134860000Y-97902500D01*
G75*
G02*
X134922500Y-97840000I62500J0D01*
G01*
X135047500Y-97840000D01*
G75*
G02*
X135110000Y-97902500I0J-62500D01*
G01*
X135110000Y-98602500D01*
G75*
G02*
X135047500Y-98665000I-62500J0D01*
G01*
X134922500Y-98665000D01*
G75*
G02*
X134860000Y-98602500I0J62500D01*
G01*
G37*
%TD.AperFunction*%
%TO.P,U6,18*%
%TA.AperFunction,SMDPad,CuDef*%
G36*
G01*
X135285000Y-99027500D02*
X135285000Y-98902500D01*
G75*
G02*
X135347500Y-98840000I62500J0D01*
G01*
X136047500Y-98840000D01*
G75*
G02*
X136110000Y-98902500I0J-62500D01*
G01*
X136110000Y-99027500D01*
G75*
G02*
X136047500Y-99090000I-62500J0D01*
G01*
X135347500Y-99090000D01*
G75*
G02*
X135285000Y-99027500I0J62500D01*
G01*
G37*
%TD.AperFunction*%
%TO.P,U6,17*%
%TA.AperFunction,SMDPad,CuDef*%
G36*
G01*
X135285000Y-99527500D02*
X135285000Y-99402500D01*
G75*
G02*
X135347500Y-99340000I62500J0D01*
G01*
X136047500Y-99340000D01*
G75*
G02*
X136110000Y-99402500I0J-62500D01*
G01*
X136110000Y-99527500D01*
G75*
G02*
X136047500Y-99590000I-62500J0D01*
G01*
X135347500Y-99590000D01*
G75*
G02*
X135285000Y-99527500I0J62500D01*
G01*
G37*
%TD.AperFunction*%
%TO.P,U6,16*%
%TO.N,Net-(U6-Pad16)*%
%TA.AperFunction,SMDPad,CuDef*%
G36*
G01*
X135285000Y-100027500D02*
X135285000Y-99902500D01*
G75*
G02*
X135347500Y-99840000I62500J0D01*
G01*
X136047500Y-99840000D01*
G75*
G02*
X136110000Y-99902500I0J-62500D01*
G01*
X136110000Y-100027500D01*
G75*
G02*
X136047500Y-100090000I-62500J0D01*
G01*
X135347500Y-100090000D01*
G75*
G02*
X135285000Y-100027500I0J62500D01*
G01*
G37*
%TD.AperFunction*%
%TO.P,U6,15*%
%TO.N,0*%
%TA.AperFunction,SMDPad,CuDef*%
G36*
G01*
X135285000Y-100527500D02*
X135285000Y-100402500D01*
G75*
G02*
X135347500Y-100340000I62500J0D01*
G01*
X136047500Y-100340000D01*
G75*
G02*
X136110000Y-100402500I0J-62500D01*
G01*
X136110000Y-100527500D01*
G75*
G02*
X136047500Y-100590000I-62500J0D01*
G01*
X135347500Y-100590000D01*
G75*
G02*
X135285000Y-100527500I0J62500D01*
G01*
G37*
%TD.AperFunction*%
%TO.P,U6,14*%
%TA.AperFunction,SMDPad,CuDef*%
G36*
G01*
X135285000Y-101027500D02*
X135285000Y-100902500D01*
G75*
G02*
X135347500Y-100840000I62500J0D01*
G01*
X136047500Y-100840000D01*
G75*
G02*
X136110000Y-100902500I0J-62500D01*
G01*
X136110000Y-101027500D01*
G75*
G02*
X136047500Y-101090000I-62500J0D01*
G01*
X135347500Y-101090000D01*
G75*
G02*
X135285000Y-101027500I0J62500D01*
G01*
G37*
%TD.AperFunction*%
%TO.P,U6,13*%
%TA.AperFunction,SMDPad,CuDef*%
G36*
G01*
X135285000Y-101527500D02*
X135285000Y-101402500D01*
G75*
G02*
X135347500Y-101340000I62500J0D01*
G01*
X136047500Y-101340000D01*
G75*
G02*
X136110000Y-101402500I0J-62500D01*
G01*
X136110000Y-101527500D01*
G75*
G02*
X136047500Y-101590000I-62500J0D01*
G01*
X135347500Y-101590000D01*
G75*
G02*
X135285000Y-101527500I0J62500D01*
G01*
G37*
%TD.AperFunction*%
%TO.P,U6,12*%
%TA.AperFunction,SMDPad,CuDef*%
G36*
G01*
X134860000Y-102527500D02*
X134860000Y-101827500D01*
G75*
G02*
X134922500Y-101765000I62500J0D01*
G01*
X135047500Y-101765000D01*
G75*
G02*
X135110000Y-101827500I0J-62500D01*
G01*
X135110000Y-102527500D01*
G75*
G02*
X135047500Y-102590000I-62500J0D01*
G01*
X134922500Y-102590000D01*
G75*
G02*
X134860000Y-102527500I0J62500D01*
G01*
G37*
%TD.AperFunction*%
%TO.P,U6,11*%
%TA.AperFunction,SMDPad,CuDef*%
G36*
G01*
X134360000Y-102527500D02*
X134360000Y-101827500D01*
G75*
G02*
X134422500Y-101765000I62500J0D01*
G01*
X134547500Y-101765000D01*
G75*
G02*
X134610000Y-101827500I0J-62500D01*
G01*
X134610000Y-102527500D01*
G75*
G02*
X134547500Y-102590000I-62500J0D01*
G01*
X134422500Y-102590000D01*
G75*
G02*
X134360000Y-102527500I0J62500D01*
G01*
G37*
%TD.AperFunction*%
%TO.P,U6,10*%
%TO.N,Net-(R16-Pad1)*%
%TA.AperFunction,SMDPad,CuDef*%
G36*
G01*
X133860000Y-102527500D02*
X133860000Y-101827500D01*
G75*
G02*
X133922500Y-101765000I62500J0D01*
G01*
X134047500Y-101765000D01*
G75*
G02*
X134110000Y-101827500I0J-62500D01*
G01*
X134110000Y-102527500D01*
G75*
G02*
X134047500Y-102590000I-62500J0D01*
G01*
X133922500Y-102590000D01*
G75*
G02*
X133860000Y-102527500I0J62500D01*
G01*
G37*
%TD.AperFunction*%
%TO.P,U6,9*%
%TO.N,0*%
%TA.AperFunction,SMDPad,CuDef*%
G36*
G01*
X133360000Y-102527500D02*
X133360000Y-101827500D01*
G75*
G02*
X133422500Y-101765000I62500J0D01*
G01*
X133547500Y-101765000D01*
G75*
G02*
X133610000Y-101827500I0J-62500D01*
G01*
X133610000Y-102527500D01*
G75*
G02*
X133547500Y-102590000I-62500J0D01*
G01*
X133422500Y-102590000D01*
G75*
G02*
X133360000Y-102527500I0J62500D01*
G01*
G37*
%TD.AperFunction*%
%TO.P,U6,8*%
%TA.AperFunction,SMDPad,CuDef*%
G36*
G01*
X132860000Y-102527500D02*
X132860000Y-101827500D01*
G75*
G02*
X132922500Y-101765000I62500J0D01*
G01*
X133047500Y-101765000D01*
G75*
G02*
X133110000Y-101827500I0J-62500D01*
G01*
X133110000Y-102527500D01*
G75*
G02*
X133047500Y-102590000I-62500J0D01*
G01*
X132922500Y-102590000D01*
G75*
G02*
X132860000Y-102527500I0J62500D01*
G01*
G37*
%TD.AperFunction*%
%TO.P,U6,7*%
%TA.AperFunction,SMDPad,CuDef*%
G36*
G01*
X132360000Y-102527500D02*
X132360000Y-101827500D01*
G75*
G02*
X132422500Y-101765000I62500J0D01*
G01*
X132547500Y-101765000D01*
G75*
G02*
X132610000Y-101827500I0J-62500D01*
G01*
X132610000Y-102527500D01*
G75*
G02*
X132547500Y-102590000I-62500J0D01*
G01*
X132422500Y-102590000D01*
G75*
G02*
X132360000Y-102527500I0J62500D01*
G01*
G37*
%TD.AperFunction*%
%TO.P,U6,6*%
%TA.AperFunction,SMDPad,CuDef*%
G36*
G01*
X131360000Y-101527500D02*
X131360000Y-101402500D01*
G75*
G02*
X131422500Y-101340000I62500J0D01*
G01*
X132122500Y-101340000D01*
G75*
G02*
X132185000Y-101402500I0J-62500D01*
G01*
X132185000Y-101527500D01*
G75*
G02*
X132122500Y-101590000I-62500J0D01*
G01*
X131422500Y-101590000D01*
G75*
G02*
X131360000Y-101527500I0J62500D01*
G01*
G37*
%TD.AperFunction*%
%TO.P,U6,5*%
%TA.AperFunction,SMDPad,CuDef*%
G36*
G01*
X131360000Y-101027500D02*
X131360000Y-100902500D01*
G75*
G02*
X131422500Y-100840000I62500J0D01*
G01*
X132122500Y-100840000D01*
G75*
G02*
X132185000Y-100902500I0J-62500D01*
G01*
X132185000Y-101027500D01*
G75*
G02*
X132122500Y-101090000I-62500J0D01*
G01*
X131422500Y-101090000D01*
G75*
G02*
X131360000Y-101027500I0J62500D01*
G01*
G37*
%TD.AperFunction*%
%TO.P,U6,4*%
%TO.N,+5VD*%
%TA.AperFunction,SMDPad,CuDef*%
G36*
G01*
X131360000Y-100527500D02*
X131360000Y-100402500D01*
G75*
G02*
X131422500Y-100340000I62500J0D01*
G01*
X132122500Y-100340000D01*
G75*
G02*
X132185000Y-100402500I0J-62500D01*
G01*
X132185000Y-100527500D01*
G75*
G02*
X132122500Y-100590000I-62500J0D01*
G01*
X131422500Y-100590000D01*
G75*
G02*
X131360000Y-100527500I0J62500D01*
G01*
G37*
%TD.AperFunction*%
%TO.P,U6,3*%
%TO.N,0*%
%TA.AperFunction,SMDPad,CuDef*%
G36*
G01*
X131360000Y-100027500D02*
X131360000Y-99902500D01*
G75*
G02*
X131422500Y-99840000I62500J0D01*
G01*
X132122500Y-99840000D01*
G75*
G02*
X132185000Y-99902500I0J-62500D01*
G01*
X132185000Y-100027500D01*
G75*
G02*
X132122500Y-100090000I-62500J0D01*
G01*
X131422500Y-100090000D01*
G75*
G02*
X131360000Y-100027500I0J62500D01*
G01*
G37*
%TD.AperFunction*%
%TO.P,U6,2*%
%TO.N,Net-(C32-Pad2)*%
%TA.AperFunction,SMDPad,CuDef*%
G36*
G01*
X131360000Y-99527500D02*
X131360000Y-99402500D01*
G75*
G02*
X131422500Y-99340000I62500J0D01*
G01*
X132122500Y-99340000D01*
G75*
G02*
X132185000Y-99402500I0J-62500D01*
G01*
X132185000Y-99527500D01*
G75*
G02*
X132122500Y-99590000I-62500J0D01*
G01*
X131422500Y-99590000D01*
G75*
G02*
X131360000Y-99527500I0J62500D01*
G01*
G37*
%TD.AperFunction*%
%TO.P,U6,1*%
%TO.N,0*%
%TA.AperFunction,SMDPad,CuDef*%
G36*
G01*
X131360000Y-99027500D02*
X131360000Y-98902500D01*
G75*
G02*
X131422500Y-98840000I62500J0D01*
G01*
X132122500Y-98840000D01*
G75*
G02*
X132185000Y-98902500I0J-62500D01*
G01*
X132185000Y-99027500D01*
G75*
G02*
X132122500Y-99090000I-62500J0D01*
G01*
X131422500Y-99090000D01*
G75*
G02*
X131360000Y-99027500I0J62500D01*
G01*
G37*
%TD.AperFunction*%
%TD*%
D16*
%TO.P,TP2,1*%
%TO.N,0*%
X116450000Y-113200000D03*
%TD*%
D17*
%TO.P,J5,2*%
%TO.N,0*%
X145108440Y-116320420D03*
X136348440Y-116320420D03*
D18*
X145108440Y-115870420D03*
X136348440Y-115870420D03*
D19*
X145108440Y-119310420D03*
X136348440Y-119310420D03*
D20*
%TO.P,J5,1*%
%TO.N,Net-(J5-Pad1)*%
X140728440Y-119310420D03*
%TD*%
%TO.P,D1,2*%
%TO.N,Net-(D1-Pad2)*%
%TA.AperFunction,SMDPad,CuDef*%
G36*
G01*
X101165001Y-100400000D02*
X100264999Y-100400000D01*
G75*
G02*
X100015000Y-100150001I0J249999D01*
G01*
X100015000Y-99499999D01*
G75*
G02*
X100264999Y-99250000I249999J0D01*
G01*
X101165001Y-99250000D01*
G75*
G02*
X101415000Y-99499999I0J-249999D01*
G01*
X101415000Y-100150001D01*
G75*
G02*
X101165001Y-100400000I-249999J0D01*
G01*
G37*
%TD.AperFunction*%
%TO.P,D1,1*%
%TO.N,0*%
%TA.AperFunction,SMDPad,CuDef*%
G36*
G01*
X101165001Y-102450000D02*
X100264999Y-102450000D01*
G75*
G02*
X100015000Y-102200001I0J249999D01*
G01*
X100015000Y-101549999D01*
G75*
G02*
X100264999Y-101300000I249999J0D01*
G01*
X101165001Y-101300000D01*
G75*
G02*
X101415000Y-101549999I0J-249999D01*
G01*
X101415000Y-102200001D01*
G75*
G02*
X101165001Y-102450000I-249999J0D01*
G01*
G37*
%TD.AperFunction*%
%TD*%
D14*
%TO.P,U7,13*%
%TO.N,0*%
X141230000Y-99460000D03*
X141230000Y-100460000D03*
X140230000Y-100460000D03*
X140230000Y-99460000D03*
X141580000Y-99110000D03*
X141580000Y-100810000D03*
X139880000Y-100810000D03*
X139880000Y-99110000D03*
X141230000Y-99960000D03*
X140730000Y-100460000D03*
X140730000Y-99460000D03*
X140230000Y-99960000D03*
X140730000Y-99960000D03*
D21*
X140730000Y-99960000D03*
D22*
%TO.P,U7,12*%
X140230001Y-98750000D03*
%TO.P,U7,11*%
X140730000Y-98750000D03*
%TO.P,U7,10*%
X141229999Y-98750000D03*
D23*
%TO.P,U7,9*%
X141940000Y-99455000D03*
%TO.P,U7,8*%
%TO.N,Net-(J4-Pad1)*%
X141940000Y-99960000D03*
%TO.P,U7,7*%
%TO.N,0*%
X141940000Y-100465000D03*
D22*
%TO.P,U7,6*%
X141235000Y-101170000D03*
%TO.P,U7,5*%
%TO.N,Net-(J5-Pad1)*%
X140730000Y-101170000D03*
%TO.P,U7,4*%
%TO.N,0*%
X140225000Y-101170000D03*
D23*
%TO.P,U7,3*%
X139520000Y-100465000D03*
%TO.P,U7,2*%
%TO.N,Net-(U6-Pad16)*%
X139520000Y-99960000D03*
%TO.P,U7,1*%
%TO.N,0*%
X139520000Y-99455000D03*
%TD*%
D24*
%TO.P,D3,2*%
%TO.N,+6V*%
X98615500Y-85044000D03*
%TO.P,D3,1*%
%TO.N,0*%
X98615500Y-89844000D03*
%TD*%
%TO.P,R18,1*%
%TO.N,Net-(R16-Pad1)*%
%TA.AperFunction,SMDPad,CuDef*%
G36*
G01*
X134150000Y-103350000D02*
X134150000Y-103150000D01*
G75*
G02*
X134250000Y-103050000I100000J0D01*
G01*
X134685000Y-103050000D01*
G75*
G02*
X134785000Y-103150000I0J-100000D01*
G01*
X134785000Y-103350000D01*
G75*
G02*
X134685000Y-103450000I-100000J0D01*
G01*
X134250000Y-103450000D01*
G75*
G02*
X134150000Y-103350000I0J100000D01*
G01*
G37*
%TD.AperFunction*%
%TO.P,R18,2*%
%TO.N,0*%
%TA.AperFunction,SMDPad,CuDef*%
G36*
G01*
X134985000Y-103350000D02*
X134985000Y-103150000D01*
G75*
G02*
X135085000Y-103050000I100000J0D01*
G01*
X135520000Y-103050000D01*
G75*
G02*
X135620000Y-103150000I0J-100000D01*
G01*
X135620000Y-103350000D01*
G75*
G02*
X135520000Y-103450000I-100000J0D01*
G01*
X135085000Y-103450000D01*
G75*
G02*
X134985000Y-103350000I0J100000D01*
G01*
G37*
%TD.AperFunction*%
%TD*%
%TO.P,R16,1*%
%TO.N,Net-(R16-Pad1)*%
%TA.AperFunction,SMDPad,CuDef*%
G36*
G01*
X133820000Y-103150000D02*
X133820000Y-103350000D01*
G75*
G02*
X133720000Y-103450000I-100000J0D01*
G01*
X133285000Y-103450000D01*
G75*
G02*
X133185000Y-103350000I0J100000D01*
G01*
X133185000Y-103150000D01*
G75*
G02*
X133285000Y-103050000I100000J0D01*
G01*
X133720000Y-103050000D01*
G75*
G02*
X133820000Y-103150000I0J-100000D01*
G01*
G37*
%TD.AperFunction*%
%TO.P,R16,2*%
%TO.N,0*%
%TA.AperFunction,SMDPad,CuDef*%
G36*
G01*
X132985000Y-103150000D02*
X132985000Y-103350000D01*
G75*
G02*
X132885000Y-103450000I-100000J0D01*
G01*
X132450000Y-103450000D01*
G75*
G02*
X132350000Y-103350000I0J100000D01*
G01*
X132350000Y-103150000D01*
G75*
G02*
X132450000Y-103050000I100000J0D01*
G01*
X132885000Y-103050000D01*
G75*
G02*
X132985000Y-103150000I0J-100000D01*
G01*
G37*
%TD.AperFunction*%
%TD*%
D25*
%TO.P,U1,1*%
%TO.N,0*%
X109585000Y-100195000D03*
X109585000Y-97695000D03*
X107085000Y-97695000D03*
X107085000Y-100195000D03*
X107085000Y-98945000D03*
X108335000Y-97695000D03*
X109585000Y-98945000D03*
X108335000Y-100195000D03*
X108335000Y-98945000D03*
D26*
X108335000Y-98945000D03*
D27*
%TO.P,U1,32*%
X105935000Y-100695000D03*
%TO.P,U1,31*%
%TO.N,Net-(R7-Pad1)*%
X105935000Y-100195000D03*
%TO.P,U1,30*%
%TO.N,0*%
X105935000Y-99695000D03*
%TO.P,U1,29*%
X105935000Y-99195000D03*
%TO.P,U1,28*%
%TO.N,+3V3*%
X105935000Y-98695000D03*
%TO.P,U1,27*%
%TO.N,Net-(U1-Pad27)*%
X105935000Y-98195000D03*
%TO.P,U1,26*%
%TO.N,Net-(R8-Pad2)*%
X105935000Y-97695000D03*
D28*
%TO.P,U1,25*%
%TO.N,Net-(C3-Pad1)*%
X105910000Y-97195000D03*
D29*
%TO.P,U1,24*%
%TO.N,0*%
X106585000Y-96520000D03*
D30*
%TO.P,U1,23*%
X107085000Y-96545000D03*
%TO.P,U1,22*%
%TO.N,+3V3*%
X107585000Y-96545000D03*
%TO.P,U1,21*%
X108085000Y-96545000D03*
%TO.P,U1,20*%
X108585000Y-96545000D03*
%TO.P,U1,19*%
%TO.N,Net-(U1-Pad19)*%
X109085000Y-96545000D03*
%TO.P,U1,18*%
%TO.N,Net-(U1-Pad18)*%
X109585000Y-96545000D03*
%TO.P,U1,17*%
%TO.N,0*%
X110085000Y-96545000D03*
D27*
%TO.P,U1,16*%
X110735000Y-97195000D03*
%TO.P,U1,15*%
%TO.N,Net-(C4-Pad2)*%
X110735000Y-97695000D03*
%TO.P,U1,14*%
%TO.N,DIV16*%
X110735000Y-98195000D03*
%TO.P,U1,13*%
%TO.N,+3V3*%
X110735000Y-98695000D03*
%TO.P,U1,12*%
%TO.N,0*%
X110735000Y-99195000D03*
%TO.P,U1,11*%
%TO.N,+3V3*%
X110735000Y-99695000D03*
%TO.P,U1,10*%
%TO.N,0*%
X110735000Y-100195000D03*
D28*
%TO.P,U1,9*%
%TO.N,Net-(C11-Pad2)*%
X110760000Y-100695000D03*
D29*
%TO.P,U1,8*%
%TO.N,0*%
X110085000Y-101370000D03*
D30*
%TO.P,U1,7*%
X109585000Y-101345000D03*
%TO.P,U1,6*%
%TO.N,+9V*%
X109085000Y-101345000D03*
%TO.P,U1,5*%
%TO.N,Net-(J1-Pad5)*%
X108585000Y-101345000D03*
%TO.P,U1,4*%
%TO.N,Net-(J1-Pad4)*%
X108085000Y-101345000D03*
%TO.P,U1,3*%
%TO.N,Net-(J1-Pad3)*%
X107585000Y-101345000D03*
%TO.P,U1,2*%
%TO.N,Net-(J1-Pad2)*%
X107085000Y-101345000D03*
%TO.P,U1,1*%
%TO.N,0*%
X106585000Y-101345000D03*
%TD*%
D16*
%TO.P,TP6,1*%
%TO.N,+3V3*%
X109235000Y-88215000D03*
%TD*%
%TO.P,TP5,1*%
%TO.N,+5VD*%
X121574560Y-107199080D03*
%TD*%
%TO.P,TP4,1*%
%TO.N,+5VA*%
X140370000Y-89760000D03*
%TD*%
%TO.P,TP3,1*%
%TO.N,+9V*%
X110180120Y-116363400D03*
%TD*%
%TO.P,TP1,1*%
%TO.N,Net-(R2-Pad1)*%
X100736400Y-93935200D03*
%TD*%
%TO.P,C1,2*%
%TO.N,+3V3*%
%TA.AperFunction,SMDPad,CuDef*%
G36*
G01*
X95435000Y-94980000D02*
X95435000Y-95290000D01*
G75*
G02*
X95280000Y-95445000I-155000J0D01*
G01*
X94855000Y-95445000D01*
G75*
G02*
X94700000Y-95290000I0J155000D01*
G01*
X94700000Y-94980000D01*
G75*
G02*
X94855000Y-94825000I155000J0D01*
G01*
X95280000Y-94825000D01*
G75*
G02*
X95435000Y-94980000I0J-155000D01*
G01*
G37*
%TD.AperFunction*%
%TO.P,C1,1*%
%TO.N,0*%
%TA.AperFunction,SMDPad,CuDef*%
G36*
G01*
X96570000Y-94980000D02*
X96570000Y-95290000D01*
G75*
G02*
X96415000Y-95445000I-155000J0D01*
G01*
X95990000Y-95445000D01*
G75*
G02*
X95835000Y-95290000I0J155000D01*
G01*
X95835000Y-94980000D01*
G75*
G02*
X95990000Y-94825000I155000J0D01*
G01*
X96415000Y-94825000D01*
G75*
G02*
X96570000Y-94980000I0J-155000D01*
G01*
G37*
%TD.AperFunction*%
%TD*%
%TO.P,C2,2*%
%TO.N,+3V3*%
%TA.AperFunction,SMDPad,CuDef*%
G36*
G01*
X95435000Y-93710000D02*
X95435000Y-94020000D01*
G75*
G02*
X95280000Y-94175000I-155000J0D01*
G01*
X94855000Y-94175000D01*
G75*
G02*
X94700000Y-94020000I0J155000D01*
G01*
X94700000Y-93710000D01*
G75*
G02*
X94855000Y-93555000I155000J0D01*
G01*
X95280000Y-93555000D01*
G75*
G02*
X95435000Y-93710000I0J-155000D01*
G01*
G37*
%TD.AperFunction*%
%TO.P,C2,1*%
%TO.N,0*%
%TA.AperFunction,SMDPad,CuDef*%
G36*
G01*
X96570000Y-93710000D02*
X96570000Y-94020000D01*
G75*
G02*
X96415000Y-94175000I-155000J0D01*
G01*
X95990000Y-94175000D01*
G75*
G02*
X95835000Y-94020000I0J155000D01*
G01*
X95835000Y-93710000D01*
G75*
G02*
X95990000Y-93555000I155000J0D01*
G01*
X96415000Y-93555000D01*
G75*
G02*
X96570000Y-93710000I0J-155000D01*
G01*
G37*
%TD.AperFunction*%
%TD*%
%TO.P,C3,2*%
%TO.N,Net-(C3-Pad2)*%
%TA.AperFunction,SMDPad,CuDef*%
G36*
G01*
X103690000Y-96885000D02*
X103690000Y-97195000D01*
G75*
G02*
X103535000Y-97350000I-155000J0D01*
G01*
X103110000Y-97350000D01*
G75*
G02*
X102955000Y-97195000I0J155000D01*
G01*
X102955000Y-96885000D01*
G75*
G02*
X103110000Y-96730000I155000J0D01*
G01*
X103535000Y-96730000D01*
G75*
G02*
X103690000Y-96885000I0J-155000D01*
G01*
G37*
%TD.AperFunction*%
%TO.P,C3,1*%
%TO.N,Net-(C3-Pad1)*%
%TA.AperFunction,SMDPad,CuDef*%
G36*
G01*
X104825000Y-96885000D02*
X104825000Y-97195000D01*
G75*
G02*
X104670000Y-97350000I-155000J0D01*
G01*
X104245000Y-97350000D01*
G75*
G02*
X104090000Y-97195000I0J155000D01*
G01*
X104090000Y-96885000D01*
G75*
G02*
X104245000Y-96730000I155000J0D01*
G01*
X104670000Y-96730000D01*
G75*
G02*
X104825000Y-96885000I0J-155000D01*
G01*
G37*
%TD.AperFunction*%
%TD*%
%TO.P,C4,2*%
%TO.N,Net-(C4-Pad2)*%
%TA.AperFunction,SMDPad,CuDef*%
G36*
G01*
X113540226Y-94700000D02*
X113850226Y-94700000D01*
G75*
G02*
X114005226Y-94855000I0J-155000D01*
G01*
X114005226Y-95280000D01*
G75*
G02*
X113850226Y-95435000I-155000J0D01*
G01*
X113540226Y-95435000D01*
G75*
G02*
X113385226Y-95280000I0J155000D01*
G01*
X113385226Y-94855000D01*
G75*
G02*
X113540226Y-94700000I155000J0D01*
G01*
G37*
%TD.AperFunction*%
%TO.P,C4,1*%
%TO.N,0*%
%TA.AperFunction,SMDPad,CuDef*%
G36*
G01*
X113540226Y-93565000D02*
X113850226Y-93565000D01*
G75*
G02*
X114005226Y-93720000I0J-155000D01*
G01*
X114005226Y-94145000D01*
G75*
G02*
X113850226Y-94300000I-155000J0D01*
G01*
X113540226Y-94300000D01*
G75*
G02*
X113385226Y-94145000I0J155000D01*
G01*
X113385226Y-93720000D01*
G75*
G02*
X113540226Y-93565000I155000J0D01*
G01*
G37*
%TD.AperFunction*%
%TD*%
%TO.P,C5,2*%
%TO.N,+3V3*%
%TA.AperFunction,SMDPad,CuDef*%
G36*
G01*
X113735000Y-101460000D02*
X113735000Y-101770000D01*
G75*
G02*
X113580000Y-101925000I-155000J0D01*
G01*
X113155000Y-101925000D01*
G75*
G02*
X113000000Y-101770000I0J155000D01*
G01*
X113000000Y-101460000D01*
G75*
G02*
X113155000Y-101305000I155000J0D01*
G01*
X113580000Y-101305000D01*
G75*
G02*
X113735000Y-101460000I0J-155000D01*
G01*
G37*
%TD.AperFunction*%
%TO.P,C5,1*%
%TO.N,0*%
%TA.AperFunction,SMDPad,CuDef*%
G36*
G01*
X114870000Y-101460000D02*
X114870000Y-101770000D01*
G75*
G02*
X114715000Y-101925000I-155000J0D01*
G01*
X114290000Y-101925000D01*
G75*
G02*
X114135000Y-101770000I0J155000D01*
G01*
X114135000Y-101460000D01*
G75*
G02*
X114290000Y-101305000I155000J0D01*
G01*
X114715000Y-101305000D01*
G75*
G02*
X114870000Y-101460000I0J-155000D01*
G01*
G37*
%TD.AperFunction*%
%TD*%
%TO.P,C8,2*%
%TO.N,+9V*%
%TA.AperFunction,SMDPad,CuDef*%
G36*
G01*
X109972500Y-102600000D02*
X109972500Y-102910000D01*
G75*
G02*
X109817500Y-103065000I-155000J0D01*
G01*
X109392500Y-103065000D01*
G75*
G02*
X109237500Y-102910000I0J155000D01*
G01*
X109237500Y-102600000D01*
G75*
G02*
X109392500Y-102445000I155000J0D01*
G01*
X109817500Y-102445000D01*
G75*
G02*
X109972500Y-102600000I0J-155000D01*
G01*
G37*
%TD.AperFunction*%
%TO.P,C8,1*%
%TO.N,0*%
%TA.AperFunction,SMDPad,CuDef*%
G36*
G01*
X111107500Y-102600000D02*
X111107500Y-102910000D01*
G75*
G02*
X110952500Y-103065000I-155000J0D01*
G01*
X110527500Y-103065000D01*
G75*
G02*
X110372500Y-102910000I0J155000D01*
G01*
X110372500Y-102600000D01*
G75*
G02*
X110527500Y-102445000I155000J0D01*
G01*
X110952500Y-102445000D01*
G75*
G02*
X111107500Y-102600000I0J-155000D01*
G01*
G37*
%TD.AperFunction*%
%TD*%
%TO.P,C10,2*%
%TO.N,+9V*%
%TA.AperFunction,SMDPad,CuDef*%
G36*
G01*
X110040000Y-103870000D02*
X110040000Y-104180000D01*
G75*
G02*
X109885000Y-104335000I-155000J0D01*
G01*
X109460000Y-104335000D01*
G75*
G02*
X109305000Y-104180000I0J155000D01*
G01*
X109305000Y-103870000D01*
G75*
G02*
X109460000Y-103715000I155000J0D01*
G01*
X109885000Y-103715000D01*
G75*
G02*
X110040000Y-103870000I0J-155000D01*
G01*
G37*
%TD.AperFunction*%
%TO.P,C10,1*%
%TO.N,0*%
%TA.AperFunction,SMDPad,CuDef*%
G36*
G01*
X111175000Y-103870000D02*
X111175000Y-104180000D01*
G75*
G02*
X111020000Y-104335000I-155000J0D01*
G01*
X110595000Y-104335000D01*
G75*
G02*
X110440000Y-104180000I0J155000D01*
G01*
X110440000Y-103870000D01*
G75*
G02*
X110595000Y-103715000I155000J0D01*
G01*
X111020000Y-103715000D01*
G75*
G02*
X111175000Y-103870000I0J-155000D01*
G01*
G37*
%TD.AperFunction*%
%TD*%
%TO.P,C11,2*%
%TO.N,Net-(C11-Pad2)*%
%TA.AperFunction,SMDPad,CuDef*%
G36*
G01*
X115049168Y-103630817D02*
X114739168Y-103630817D01*
G75*
G02*
X114584168Y-103475817I0J155000D01*
G01*
X114584168Y-103050817D01*
G75*
G02*
X114739168Y-102895817I155000J0D01*
G01*
X115049168Y-102895817D01*
G75*
G02*
X115204168Y-103050817I0J-155000D01*
G01*
X115204168Y-103475817D01*
G75*
G02*
X115049168Y-103630817I-155000J0D01*
G01*
G37*
%TD.AperFunction*%
%TO.P,C11,1*%
%TO.N,0*%
%TA.AperFunction,SMDPad,CuDef*%
G36*
G01*
X115049168Y-104765817D02*
X114739168Y-104765817D01*
G75*
G02*
X114584168Y-104610817I0J155000D01*
G01*
X114584168Y-104185817D01*
G75*
G02*
X114739168Y-104030817I155000J0D01*
G01*
X115049168Y-104030817D01*
G75*
G02*
X115204168Y-104185817I0J-155000D01*
G01*
X115204168Y-104610817D01*
G75*
G02*
X115049168Y-104765817I-155000J0D01*
G01*
G37*
%TD.AperFunction*%
%TD*%
%TO.P,C12,2*%
%TO.N,Net-(C12-Pad2)*%
%TA.AperFunction,SMDPad,CuDef*%
G36*
G01*
X117380000Y-106170817D02*
X117070000Y-106170817D01*
G75*
G02*
X116915000Y-106015817I0J155000D01*
G01*
X116915000Y-105590817D01*
G75*
G02*
X117070000Y-105435817I155000J0D01*
G01*
X117380000Y-105435817D01*
G75*
G02*
X117535000Y-105590817I0J-155000D01*
G01*
X117535000Y-106015817D01*
G75*
G02*
X117380000Y-106170817I-155000J0D01*
G01*
G37*
%TD.AperFunction*%
%TO.P,C12,1*%
%TO.N,0*%
%TA.AperFunction,SMDPad,CuDef*%
G36*
G01*
X117380000Y-107305817D02*
X117070000Y-107305817D01*
G75*
G02*
X116915000Y-107150817I0J155000D01*
G01*
X116915000Y-106725817D01*
G75*
G02*
X117070000Y-106570817I155000J0D01*
G01*
X117380000Y-106570817D01*
G75*
G02*
X117535000Y-106725817I0J-155000D01*
G01*
X117535000Y-107150817D01*
G75*
G02*
X117380000Y-107305817I-155000J0D01*
G01*
G37*
%TD.AperFunction*%
%TD*%
%TO.P,C13,2*%
%TO.N,CPout*%
%TA.AperFunction,SMDPad,CuDef*%
G36*
G01*
X123054337Y-103657731D02*
X122744337Y-103657731D01*
G75*
G02*
X122589337Y-103502731I0J155000D01*
G01*
X122589337Y-103077731D01*
G75*
G02*
X122744337Y-102922731I155000J0D01*
G01*
X123054337Y-102922731D01*
G75*
G02*
X123209337Y-103077731I0J-155000D01*
G01*
X123209337Y-103502731D01*
G75*
G02*
X123054337Y-103657731I-155000J0D01*
G01*
G37*
%TD.AperFunction*%
%TO.P,C13,1*%
%TO.N,0*%
%TA.AperFunction,SMDPad,CuDef*%
G36*
G01*
X123054337Y-104792731D02*
X122744337Y-104792731D01*
G75*
G02*
X122589337Y-104637731I0J155000D01*
G01*
X122589337Y-104212731D01*
G75*
G02*
X122744337Y-104057731I155000J0D01*
G01*
X123054337Y-104057731D01*
G75*
G02*
X123209337Y-104212731I0J-155000D01*
G01*
X123209337Y-104637731D01*
G75*
G02*
X123054337Y-104792731I-155000J0D01*
G01*
G37*
%TD.AperFunction*%
%TD*%
%TO.P,C18,2*%
%TO.N,+6V*%
%TA.AperFunction,SMDPad,CuDef*%
G36*
G01*
X111640000Y-90760000D02*
X111330000Y-90760000D01*
G75*
G02*
X111175000Y-90605000I0J155000D01*
G01*
X111175000Y-90180000D01*
G75*
G02*
X111330000Y-90025000I155000J0D01*
G01*
X111640000Y-90025000D01*
G75*
G02*
X111795000Y-90180000I0J-155000D01*
G01*
X111795000Y-90605000D01*
G75*
G02*
X111640000Y-90760000I-155000J0D01*
G01*
G37*
%TD.AperFunction*%
%TO.P,C18,1*%
%TO.N,0*%
%TA.AperFunction,SMDPad,CuDef*%
G36*
G01*
X111640000Y-91895000D02*
X111330000Y-91895000D01*
G75*
G02*
X111175000Y-91740000I0J155000D01*
G01*
X111175000Y-91315000D01*
G75*
G02*
X111330000Y-91160000I155000J0D01*
G01*
X111640000Y-91160000D01*
G75*
G02*
X111795000Y-91315000I0J-155000D01*
G01*
X111795000Y-91740000D01*
G75*
G02*
X111640000Y-91895000I-155000J0D01*
G01*
G37*
%TD.AperFunction*%
%TD*%
%TO.P,C21,2*%
%TO.N,+6V*%
%TA.AperFunction,SMDPad,CuDef*%
G36*
G01*
X112910000Y-90760000D02*
X112600000Y-90760000D01*
G75*
G02*
X112445000Y-90605000I0J155000D01*
G01*
X112445000Y-90180000D01*
G75*
G02*
X112600000Y-90025000I155000J0D01*
G01*
X112910000Y-90025000D01*
G75*
G02*
X113065000Y-90180000I0J-155000D01*
G01*
X113065000Y-90605000D01*
G75*
G02*
X112910000Y-90760000I-155000J0D01*
G01*
G37*
%TD.AperFunction*%
%TO.P,C21,1*%
%TO.N,0*%
%TA.AperFunction,SMDPad,CuDef*%
G36*
G01*
X112910000Y-91895000D02*
X112600000Y-91895000D01*
G75*
G02*
X112445000Y-91740000I0J155000D01*
G01*
X112445000Y-91315000D01*
G75*
G02*
X112600000Y-91160000I155000J0D01*
G01*
X112910000Y-91160000D01*
G75*
G02*
X113065000Y-91315000I0J-155000D01*
G01*
X113065000Y-91740000D01*
G75*
G02*
X112910000Y-91895000I-155000J0D01*
G01*
G37*
%TD.AperFunction*%
%TD*%
%TO.P,C27,2*%
%TO.N,+3V3*%
%TA.AperFunction,SMDPad,CuDef*%
G36*
G01*
X102465000Y-90890000D02*
X102775000Y-90890000D01*
G75*
G02*
X102930000Y-91045000I0J-155000D01*
G01*
X102930000Y-91470000D01*
G75*
G02*
X102775000Y-91625000I-155000J0D01*
G01*
X102465000Y-91625000D01*
G75*
G02*
X102310000Y-91470000I0J155000D01*
G01*
X102310000Y-91045000D01*
G75*
G02*
X102465000Y-90890000I155000J0D01*
G01*
G37*
%TD.AperFunction*%
%TO.P,C27,1*%
%TO.N,0*%
%TA.AperFunction,SMDPad,CuDef*%
G36*
G01*
X102465000Y-89755000D02*
X102775000Y-89755000D01*
G75*
G02*
X102930000Y-89910000I0J-155000D01*
G01*
X102930000Y-90335000D01*
G75*
G02*
X102775000Y-90490000I-155000J0D01*
G01*
X102465000Y-90490000D01*
G75*
G02*
X102310000Y-90335000I0J155000D01*
G01*
X102310000Y-89910000D01*
G75*
G02*
X102465000Y-89755000I155000J0D01*
G01*
G37*
%TD.AperFunction*%
%TD*%
%TO.P,R2,2*%
%TO.N,Net-(C3-Pad2)*%
%TA.AperFunction,SMDPad,CuDef*%
G36*
G01*
X101713000Y-97321000D02*
X101713000Y-97001000D01*
G75*
G02*
X101873000Y-96841000I160000J0D01*
G01*
X102268000Y-96841000D01*
G75*
G02*
X102428000Y-97001000I0J-160000D01*
G01*
X102428000Y-97321000D01*
G75*
G02*
X102268000Y-97481000I-160000J0D01*
G01*
X101873000Y-97481000D01*
G75*
G02*
X101713000Y-97321000I0J160000D01*
G01*
G37*
%TD.AperFunction*%
%TO.P,R2,1*%
%TO.N,Net-(R2-Pad1)*%
%TA.AperFunction,SMDPad,CuDef*%
G36*
G01*
X100518000Y-97321000D02*
X100518000Y-97001000D01*
G75*
G02*
X100678000Y-96841000I160000J0D01*
G01*
X101073000Y-96841000D01*
G75*
G02*
X101233000Y-97001000I0J-160000D01*
G01*
X101233000Y-97321000D01*
G75*
G02*
X101073000Y-97481000I-160000J0D01*
G01*
X100678000Y-97481000D01*
G75*
G02*
X100518000Y-97321000I0J160000D01*
G01*
G37*
%TD.AperFunction*%
%TD*%
%TO.P,R6,2*%
%TO.N,0*%
%TA.AperFunction,SMDPad,CuDef*%
G36*
G01*
X104227600Y-95603960D02*
X104227600Y-95283960D01*
G75*
G02*
X104387600Y-95123960I160000J0D01*
G01*
X104782600Y-95123960D01*
G75*
G02*
X104942600Y-95283960I0J-160000D01*
G01*
X104942600Y-95603960D01*
G75*
G02*
X104782600Y-95763960I-160000J0D01*
G01*
X104387600Y-95763960D01*
G75*
G02*
X104227600Y-95603960I0J160000D01*
G01*
G37*
%TD.AperFunction*%
%TO.P,R6,1*%
%TO.N,Net-(C3-Pad1)*%
%TA.AperFunction,SMDPad,CuDef*%
G36*
G01*
X103032600Y-95603960D02*
X103032600Y-95283960D01*
G75*
G02*
X103192600Y-95123960I160000J0D01*
G01*
X103587600Y-95123960D01*
G75*
G02*
X103747600Y-95283960I0J-160000D01*
G01*
X103747600Y-95603960D01*
G75*
G02*
X103587600Y-95763960I-160000J0D01*
G01*
X103192600Y-95763960D01*
G75*
G02*
X103032600Y-95603960I0J160000D01*
G01*
G37*
%TD.AperFunction*%
%TD*%
%TO.P,R7,2*%
%TO.N,0*%
%TA.AperFunction,SMDPad,CuDef*%
G36*
G01*
X103730000Y-101725000D02*
X104050000Y-101725000D01*
G75*
G02*
X104210000Y-101885000I0J-160000D01*
G01*
X104210000Y-102280000D01*
G75*
G02*
X104050000Y-102440000I-160000J0D01*
G01*
X103730000Y-102440000D01*
G75*
G02*
X103570000Y-102280000I0J160000D01*
G01*
X103570000Y-101885000D01*
G75*
G02*
X103730000Y-101725000I160000J0D01*
G01*
G37*
%TD.AperFunction*%
%TO.P,R7,1*%
%TO.N,Net-(R7-Pad1)*%
%TA.AperFunction,SMDPad,CuDef*%
G36*
G01*
X103730000Y-100530000D02*
X104050000Y-100530000D01*
G75*
G02*
X104210000Y-100690000I0J-160000D01*
G01*
X104210000Y-101085000D01*
G75*
G02*
X104050000Y-101245000I-160000J0D01*
G01*
X103730000Y-101245000D01*
G75*
G02*
X103570000Y-101085000I0J160000D01*
G01*
X103570000Y-100690000D01*
G75*
G02*
X103730000Y-100530000I160000J0D01*
G01*
G37*
%TD.AperFunction*%
%TD*%
%TO.P,R8,2*%
%TO.N,Net-(R8-Pad2)*%
%TA.AperFunction,SMDPad,CuDef*%
G36*
G01*
X102225000Y-98470000D02*
X102225000Y-98150000D01*
G75*
G02*
X102385000Y-97990000I160000J0D01*
G01*
X102780000Y-97990000D01*
G75*
G02*
X102940000Y-98150000I0J-160000D01*
G01*
X102940000Y-98470000D01*
G75*
G02*
X102780000Y-98630000I-160000J0D01*
G01*
X102385000Y-98630000D01*
G75*
G02*
X102225000Y-98470000I0J160000D01*
G01*
G37*
%TD.AperFunction*%
%TO.P,R8,1*%
%TO.N,Net-(D1-Pad2)*%
%TA.AperFunction,SMDPad,CuDef*%
G36*
G01*
X101030000Y-98470000D02*
X101030000Y-98150000D01*
G75*
G02*
X101190000Y-97990000I160000J0D01*
G01*
X101585000Y-97990000D01*
G75*
G02*
X101745000Y-98150000I0J-160000D01*
G01*
X101745000Y-98470000D01*
G75*
G02*
X101585000Y-98630000I-160000J0D01*
G01*
X101190000Y-98630000D01*
G75*
G02*
X101030000Y-98470000I0J160000D01*
G01*
G37*
%TD.AperFunction*%
%TD*%
%TO.P,R9,2*%
%TO.N,Net-(C12-Pad2)*%
%TA.AperFunction,SMDPad,CuDef*%
G36*
G01*
X117065000Y-104070817D02*
X117385000Y-104070817D01*
G75*
G02*
X117545000Y-104230817I0J-160000D01*
G01*
X117545000Y-104625817D01*
G75*
G02*
X117385000Y-104785817I-160000J0D01*
G01*
X117065000Y-104785817D01*
G75*
G02*
X116905000Y-104625817I0J160000D01*
G01*
X116905000Y-104230817D01*
G75*
G02*
X117065000Y-104070817I160000J0D01*
G01*
G37*
%TD.AperFunction*%
%TO.P,R9,1*%
%TO.N,Net-(C11-Pad2)*%
%TA.AperFunction,SMDPad,CuDef*%
G36*
G01*
X117065000Y-102875817D02*
X117385000Y-102875817D01*
G75*
G02*
X117545000Y-103035817I0J-160000D01*
G01*
X117545000Y-103430817D01*
G75*
G02*
X117385000Y-103590817I-160000J0D01*
G01*
X117065000Y-103590817D01*
G75*
G02*
X116905000Y-103430817I0J160000D01*
G01*
X116905000Y-103035817D01*
G75*
G02*
X117065000Y-102875817I160000J0D01*
G01*
G37*
%TD.AperFunction*%
%TD*%
%TO.P,R10,2*%
%TO.N,Net-(C11-Pad2)*%
%TA.AperFunction,SMDPad,CuDef*%
G36*
G01*
X120044071Y-103093785D02*
X120044071Y-103413785D01*
G75*
G02*
X119884071Y-103573785I-160000J0D01*
G01*
X119489071Y-103573785D01*
G75*
G02*
X119329071Y-103413785I0J160000D01*
G01*
X119329071Y-103093785D01*
G75*
G02*
X119489071Y-102933785I160000J0D01*
G01*
X119884071Y-102933785D01*
G75*
G02*
X120044071Y-103093785I0J-160000D01*
G01*
G37*
%TD.AperFunction*%
%TO.P,R10,1*%
%TO.N,CPout*%
%TA.AperFunction,SMDPad,CuDef*%
G36*
G01*
X121239071Y-103093785D02*
X121239071Y-103413785D01*
G75*
G02*
X121079071Y-103573785I-160000J0D01*
G01*
X120684071Y-103573785D01*
G75*
G02*
X120524071Y-103413785I0J160000D01*
G01*
X120524071Y-103093785D01*
G75*
G02*
X120684071Y-102933785I160000J0D01*
G01*
X121079071Y-102933785D01*
G75*
G02*
X121239071Y-103093785I0J-160000D01*
G01*
G37*
%TD.AperFunction*%
%TD*%
D31*
%TO.P,X1,4*%
%TO.N,+3V3*%
X95530000Y-97210000D03*
%TO.P,X1,3*%
%TO.N,Net-(R2-Pad1)*%
X98280000Y-97210000D03*
%TO.P,X1,2*%
%TO.N,0*%
X98280000Y-99410000D03*
%TO.P,X1,1*%
%TO.N,Net-(X1-Pad1)*%
X95530000Y-99410000D03*
%TD*%
%TO.P,C31,2*%
%TO.N,0*%
%TA.AperFunction,SMDPad,CuDef*%
G36*
G01*
X130430000Y-101550000D02*
X130740000Y-101550000D01*
G75*
G02*
X130895000Y-101705000I0J-155000D01*
G01*
X130895000Y-102130000D01*
G75*
G02*
X130740000Y-102285000I-155000J0D01*
G01*
X130430000Y-102285000D01*
G75*
G02*
X130275000Y-102130000I0J155000D01*
G01*
X130275000Y-101705000D01*
G75*
G02*
X130430000Y-101550000I155000J0D01*
G01*
G37*
%TD.AperFunction*%
%TO.P,C31,1*%
%TO.N,+5VD*%
%TA.AperFunction,SMDPad,CuDef*%
G36*
G01*
X130430000Y-100415000D02*
X130740000Y-100415000D01*
G75*
G02*
X130895000Y-100570000I0J-155000D01*
G01*
X130895000Y-100995000D01*
G75*
G02*
X130740000Y-101150000I-155000J0D01*
G01*
X130430000Y-101150000D01*
G75*
G02*
X130275000Y-100995000I0J155000D01*
G01*
X130275000Y-100570000D01*
G75*
G02*
X130430000Y-100415000I155000J0D01*
G01*
G37*
%TD.AperFunction*%
%TD*%
%TO.P,C30,2*%
%TO.N,0*%
%TA.AperFunction,SMDPad,CuDef*%
G36*
G01*
X129330000Y-102650000D02*
X129640000Y-102650000D01*
G75*
G02*
X129795000Y-102805000I0J-155000D01*
G01*
X129795000Y-103230000D01*
G75*
G02*
X129640000Y-103385000I-155000J0D01*
G01*
X129330000Y-103385000D01*
G75*
G02*
X129175000Y-103230000I0J155000D01*
G01*
X129175000Y-102805000D01*
G75*
G02*
X129330000Y-102650000I155000J0D01*
G01*
G37*
%TD.AperFunction*%
%TO.P,C30,1*%
%TO.N,+5VD*%
%TA.AperFunction,SMDPad,CuDef*%
G36*
G01*
X129330000Y-101515000D02*
X129640000Y-101515000D01*
G75*
G02*
X129795000Y-101670000I0J-155000D01*
G01*
X129795000Y-102095000D01*
G75*
G02*
X129640000Y-102250000I-155000J0D01*
G01*
X129330000Y-102250000D01*
G75*
G02*
X129175000Y-102095000I0J155000D01*
G01*
X129175000Y-101670000D01*
G75*
G02*
X129330000Y-101515000I155000J0D01*
G01*
G37*
%TD.AperFunction*%
%TD*%
%TO.P,C33,2*%
%TO.N,0*%
%TA.AperFunction,SMDPad,CuDef*%
G36*
G01*
X135315000Y-97205000D02*
X135315000Y-96895000D01*
G75*
G02*
X135470000Y-96740000I155000J0D01*
G01*
X135895000Y-96740000D01*
G75*
G02*
X136050000Y-96895000I0J-155000D01*
G01*
X136050000Y-97205000D01*
G75*
G02*
X135895000Y-97360000I-155000J0D01*
G01*
X135470000Y-97360000D01*
G75*
G02*
X135315000Y-97205000I0J155000D01*
G01*
G37*
%TD.AperFunction*%
%TO.P,C33,1*%
%TO.N,+5VA*%
%TA.AperFunction,SMDPad,CuDef*%
G36*
G01*
X134180000Y-97205000D02*
X134180000Y-96895000D01*
G75*
G02*
X134335000Y-96740000I155000J0D01*
G01*
X134760000Y-96740000D01*
G75*
G02*
X134915000Y-96895000I0J-155000D01*
G01*
X134915000Y-97205000D01*
G75*
G02*
X134760000Y-97360000I-155000J0D01*
G01*
X134335000Y-97360000D01*
G75*
G02*
X134180000Y-97205000I0J155000D01*
G01*
G37*
%TD.AperFunction*%
%TD*%
%TO.P,C34,2*%
%TO.N,0*%
%TA.AperFunction,SMDPad,CuDef*%
G36*
G01*
X135285000Y-96205000D02*
X135285000Y-95895000D01*
G75*
G02*
X135440000Y-95740000I155000J0D01*
G01*
X135865000Y-95740000D01*
G75*
G02*
X136020000Y-95895000I0J-155000D01*
G01*
X136020000Y-96205000D01*
G75*
G02*
X135865000Y-96360000I-155000J0D01*
G01*
X135440000Y-96360000D01*
G75*
G02*
X135285000Y-96205000I0J155000D01*
G01*
G37*
%TD.AperFunction*%
%TO.P,C34,1*%
%TO.N,+5VA*%
%TA.AperFunction,SMDPad,CuDef*%
G36*
G01*
X134150000Y-96205000D02*
X134150000Y-95895000D01*
G75*
G02*
X134305000Y-95740000I155000J0D01*
G01*
X134730000Y-95740000D01*
G75*
G02*
X134885000Y-95895000I0J-155000D01*
G01*
X134885000Y-96205000D01*
G75*
G02*
X134730000Y-96360000I-155000J0D01*
G01*
X134305000Y-96360000D01*
G75*
G02*
X134150000Y-96205000I0J155000D01*
G01*
G37*
%TD.AperFunction*%
%TD*%
%TO.P,R11,2*%
%TO.N,+12V*%
%TA.AperFunction,SMDPad,CuDef*%
G36*
G01*
X97300000Y-109545000D02*
X97300000Y-109865000D01*
G75*
G02*
X97140000Y-110025000I-160000J0D01*
G01*
X96745000Y-110025000D01*
G75*
G02*
X96585000Y-109865000I0J160000D01*
G01*
X96585000Y-109545000D01*
G75*
G02*
X96745000Y-109385000I160000J0D01*
G01*
X97140000Y-109385000D01*
G75*
G02*
X97300000Y-109545000I0J-160000D01*
G01*
G37*
%TD.AperFunction*%
%TO.P,R11,1*%
%TO.N,Net-(C14-Pad2)*%
%TA.AperFunction,SMDPad,CuDef*%
G36*
G01*
X98495000Y-109545000D02*
X98495000Y-109865000D01*
G75*
G02*
X98335000Y-110025000I-160000J0D01*
G01*
X97940000Y-110025000D01*
G75*
G02*
X97780000Y-109865000I0J160000D01*
G01*
X97780000Y-109545000D01*
G75*
G02*
X97940000Y-109385000I160000J0D01*
G01*
X98335000Y-109385000D01*
G75*
G02*
X98495000Y-109545000I0J-160000D01*
G01*
G37*
%TD.AperFunction*%
%TD*%
%TO.P,C6,2*%
%TO.N,+3V3*%
%TA.AperFunction,SMDPad,CuDef*%
G36*
G01*
X112335000Y-100460000D02*
X112335000Y-100770000D01*
G75*
G02*
X112180000Y-100925000I-155000J0D01*
G01*
X111755000Y-100925000D01*
G75*
G02*
X111600000Y-100770000I0J155000D01*
G01*
X111600000Y-100460000D01*
G75*
G02*
X111755000Y-100305000I155000J0D01*
G01*
X112180000Y-100305000D01*
G75*
G02*
X112335000Y-100460000I0J-155000D01*
G01*
G37*
%TD.AperFunction*%
%TO.P,C6,1*%
%TO.N,0*%
%TA.AperFunction,SMDPad,CuDef*%
G36*
G01*
X113470000Y-100460000D02*
X113470000Y-100770000D01*
G75*
G02*
X113315000Y-100925000I-155000J0D01*
G01*
X112890000Y-100925000D01*
G75*
G02*
X112735000Y-100770000I0J155000D01*
G01*
X112735000Y-100460000D01*
G75*
G02*
X112890000Y-100305000I155000J0D01*
G01*
X113315000Y-100305000D01*
G75*
G02*
X113470000Y-100460000I0J-155000D01*
G01*
G37*
%TD.AperFunction*%
%TD*%
%TO.P,R14,2*%
%TO.N,Net-(D4-Pad2)*%
%TA.AperFunction,SMDPad,CuDef*%
G36*
G01*
X104685000Y-90450000D02*
X104365000Y-90450000D01*
G75*
G02*
X104205000Y-90290000I0J160000D01*
G01*
X104205000Y-89895000D01*
G75*
G02*
X104365000Y-89735000I160000J0D01*
G01*
X104685000Y-89735000D01*
G75*
G02*
X104845000Y-89895000I0J-160000D01*
G01*
X104845000Y-90290000D01*
G75*
G02*
X104685000Y-90450000I-160000J0D01*
G01*
G37*
%TD.AperFunction*%
%TO.P,R14,1*%
%TO.N,+3V3*%
%TA.AperFunction,SMDPad,CuDef*%
G36*
G01*
X104685000Y-91645000D02*
X104365000Y-91645000D01*
G75*
G02*
X104205000Y-91485000I0J160000D01*
G01*
X104205000Y-91090000D01*
G75*
G02*
X104365000Y-90930000I160000J0D01*
G01*
X104685000Y-90930000D01*
G75*
G02*
X104845000Y-91090000I0J-160000D01*
G01*
X104845000Y-91485000D01*
G75*
G02*
X104685000Y-91645000I-160000J0D01*
G01*
G37*
%TD.AperFunction*%
%TD*%
%TO.P,D4,2*%
%TO.N,Net-(D4-Pad2)*%
%TA.AperFunction,SMDPad,CuDef*%
G36*
G01*
X104340000Y-88600001D02*
X104340000Y-87699999D01*
G75*
G02*
X104589999Y-87450000I249999J0D01*
G01*
X105240001Y-87450000D01*
G75*
G02*
X105490000Y-87699999I0J-249999D01*
G01*
X105490000Y-88600001D01*
G75*
G02*
X105240001Y-88850000I-249999J0D01*
G01*
X104589999Y-88850000D01*
G75*
G02*
X104340000Y-88600001I0J249999D01*
G01*
G37*
%TD.AperFunction*%
%TO.P,D4,1*%
%TO.N,0*%
%TA.AperFunction,SMDPad,CuDef*%
G36*
G01*
X102290000Y-88600001D02*
X102290000Y-87699999D01*
G75*
G02*
X102539999Y-87450000I249999J0D01*
G01*
X103190001Y-87450000D01*
G75*
G02*
X103440000Y-87699999I0J-249999D01*
G01*
X103440000Y-88600001D01*
G75*
G02*
X103190001Y-88850000I-249999J0D01*
G01*
X102539999Y-88850000D01*
G75*
G02*
X102290000Y-88600001I0J249999D01*
G01*
G37*
%TD.AperFunction*%
%TD*%
%TO.P,C19,2*%
%TO.N,+6V*%
%TA.AperFunction,SMDPad,CuDef*%
G36*
G01*
X130335000Y-88900000D02*
X130335000Y-89210000D01*
G75*
G02*
X130180000Y-89365000I-155000J0D01*
G01*
X129755000Y-89365000D01*
G75*
G02*
X129600000Y-89210000I0J155000D01*
G01*
X129600000Y-88900000D01*
G75*
G02*
X129755000Y-88745000I155000J0D01*
G01*
X130180000Y-88745000D01*
G75*
G02*
X130335000Y-88900000I0J-155000D01*
G01*
G37*
%TD.AperFunction*%
%TO.P,C19,1*%
%TO.N,0*%
%TA.AperFunction,SMDPad,CuDef*%
G36*
G01*
X131470000Y-88900000D02*
X131470000Y-89210000D01*
G75*
G02*
X131315000Y-89365000I-155000J0D01*
G01*
X130890000Y-89365000D01*
G75*
G02*
X130735000Y-89210000I0J155000D01*
G01*
X130735000Y-88900000D01*
G75*
G02*
X130890000Y-88745000I155000J0D01*
G01*
X131315000Y-88745000D01*
G75*
G02*
X131470000Y-88900000I0J-155000D01*
G01*
G37*
%TD.AperFunction*%
%TD*%
%TO.P,C20,2*%
%TO.N,+6V*%
%TA.AperFunction,SMDPad,CuDef*%
G36*
G01*
X128150000Y-110445000D02*
X127840000Y-110445000D01*
G75*
G02*
X127685000Y-110290000I0J155000D01*
G01*
X127685000Y-109865000D01*
G75*
G02*
X127840000Y-109710000I155000J0D01*
G01*
X128150000Y-109710000D01*
G75*
G02*
X128305000Y-109865000I0J-155000D01*
G01*
X128305000Y-110290000D01*
G75*
G02*
X128150000Y-110445000I-155000J0D01*
G01*
G37*
%TD.AperFunction*%
%TO.P,C20,1*%
%TO.N,0*%
%TA.AperFunction,SMDPad,CuDef*%
G36*
G01*
X128150000Y-111580000D02*
X127840000Y-111580000D01*
G75*
G02*
X127685000Y-111425000I0J155000D01*
G01*
X127685000Y-111000000D01*
G75*
G02*
X127840000Y-110845000I155000J0D01*
G01*
X128150000Y-110845000D01*
G75*
G02*
X128305000Y-111000000I0J-155000D01*
G01*
X128305000Y-111425000D01*
G75*
G02*
X128150000Y-111580000I-155000J0D01*
G01*
G37*
%TD.AperFunction*%
%TD*%
%TO.P,C22,2*%
%TO.N,+6V*%
%TA.AperFunction,SMDPad,CuDef*%
G36*
G01*
X130335000Y-87630000D02*
X130335000Y-87940000D01*
G75*
G02*
X130180000Y-88095000I-155000J0D01*
G01*
X129755000Y-88095000D01*
G75*
G02*
X129600000Y-87940000I0J155000D01*
G01*
X129600000Y-87630000D01*
G75*
G02*
X129755000Y-87475000I155000J0D01*
G01*
X130180000Y-87475000D01*
G75*
G02*
X130335000Y-87630000I0J-155000D01*
G01*
G37*
%TD.AperFunction*%
%TO.P,C22,1*%
%TO.N,0*%
%TA.AperFunction,SMDPad,CuDef*%
G36*
G01*
X131470000Y-87630000D02*
X131470000Y-87940000D01*
G75*
G02*
X131315000Y-88095000I-155000J0D01*
G01*
X130890000Y-88095000D01*
G75*
G02*
X130735000Y-87940000I0J155000D01*
G01*
X130735000Y-87630000D01*
G75*
G02*
X130890000Y-87475000I155000J0D01*
G01*
X131315000Y-87475000D01*
G75*
G02*
X131470000Y-87630000I0J-155000D01*
G01*
G37*
%TD.AperFunction*%
%TD*%
%TO.P,C23,2*%
%TO.N,+6V*%
%TA.AperFunction,SMDPad,CuDef*%
G36*
G01*
X129420000Y-110512500D02*
X129110000Y-110512500D01*
G75*
G02*
X128955000Y-110357500I0J155000D01*
G01*
X128955000Y-109932500D01*
G75*
G02*
X129110000Y-109777500I155000J0D01*
G01*
X129420000Y-109777500D01*
G75*
G02*
X129575000Y-109932500I0J-155000D01*
G01*
X129575000Y-110357500D01*
G75*
G02*
X129420000Y-110512500I-155000J0D01*
G01*
G37*
%TD.AperFunction*%
%TO.P,C23,1*%
%TO.N,0*%
%TA.AperFunction,SMDPad,CuDef*%
G36*
G01*
X129420000Y-111647500D02*
X129110000Y-111647500D01*
G75*
G02*
X128955000Y-111492500I0J155000D01*
G01*
X128955000Y-111067500D01*
G75*
G02*
X129110000Y-110912500I155000J0D01*
G01*
X129420000Y-110912500D01*
G75*
G02*
X129575000Y-111067500I0J-155000D01*
G01*
X129575000Y-111492500D01*
G75*
G02*
X129420000Y-111647500I-155000J0D01*
G01*
G37*
%TD.AperFunction*%
%TD*%
%TO.P,C24,2*%
%TO.N,+3V3*%
%TA.AperFunction,SMDPad,CuDef*%
G36*
G01*
X116765000Y-84130000D02*
X116765000Y-83820000D01*
G75*
G02*
X116920000Y-83665000I155000J0D01*
G01*
X117345000Y-83665000D01*
G75*
G02*
X117500000Y-83820000I0J-155000D01*
G01*
X117500000Y-84130000D01*
G75*
G02*
X117345000Y-84285000I-155000J0D01*
G01*
X116920000Y-84285000D01*
G75*
G02*
X116765000Y-84130000I0J155000D01*
G01*
G37*
%TD.AperFunction*%
%TO.P,C24,1*%
%TO.N,Net-(C24-Pad1)*%
%TA.AperFunction,SMDPad,CuDef*%
G36*
G01*
X115630000Y-84130000D02*
X115630000Y-83820000D01*
G75*
G02*
X115785000Y-83665000I155000J0D01*
G01*
X116210000Y-83665000D01*
G75*
G02*
X116365000Y-83820000I0J-155000D01*
G01*
X116365000Y-84130000D01*
G75*
G02*
X116210000Y-84285000I-155000J0D01*
G01*
X115785000Y-84285000D01*
G75*
G02*
X115630000Y-84130000I0J155000D01*
G01*
G37*
%TD.AperFunction*%
%TD*%
%TO.P,C25,2*%
%TO.N,+5VA*%
%TA.AperFunction,SMDPad,CuDef*%
G36*
G01*
X137365000Y-90525000D02*
X137675000Y-90525000D01*
G75*
G02*
X137830000Y-90680000I0J-155000D01*
G01*
X137830000Y-91105000D01*
G75*
G02*
X137675000Y-91260000I-155000J0D01*
G01*
X137365000Y-91260000D01*
G75*
G02*
X137210000Y-91105000I0J155000D01*
G01*
X137210000Y-90680000D01*
G75*
G02*
X137365000Y-90525000I155000J0D01*
G01*
G37*
%TD.AperFunction*%
%TO.P,C25,1*%
%TO.N,Net-(C25-Pad1)*%
%TA.AperFunction,SMDPad,CuDef*%
G36*
G01*
X137365000Y-89390000D02*
X137675000Y-89390000D01*
G75*
G02*
X137830000Y-89545000I0J-155000D01*
G01*
X137830000Y-89970000D01*
G75*
G02*
X137675000Y-90125000I-155000J0D01*
G01*
X137365000Y-90125000D01*
G75*
G02*
X137210000Y-89970000I0J155000D01*
G01*
X137210000Y-89545000D01*
G75*
G02*
X137365000Y-89390000I155000J0D01*
G01*
G37*
%TD.AperFunction*%
%TD*%
%TO.P,C26,2*%
%TO.N,+5VD*%
%TA.AperFunction,SMDPad,CuDef*%
G36*
G01*
X124340000Y-107270000D02*
X124030000Y-107270000D01*
G75*
G02*
X123875000Y-107115000I0J155000D01*
G01*
X123875000Y-106690000D01*
G75*
G02*
X124030000Y-106535000I155000J0D01*
G01*
X124340000Y-106535000D01*
G75*
G02*
X124495000Y-106690000I0J-155000D01*
G01*
X124495000Y-107115000D01*
G75*
G02*
X124340000Y-107270000I-155000J0D01*
G01*
G37*
%TD.AperFunction*%
%TO.P,C26,1*%
%TO.N,Net-(C26-Pad1)*%
%TA.AperFunction,SMDPad,CuDef*%
G36*
G01*
X124340000Y-108405000D02*
X124030000Y-108405000D01*
G75*
G02*
X123875000Y-108250000I0J155000D01*
G01*
X123875000Y-107825000D01*
G75*
G02*
X124030000Y-107670000I155000J0D01*
G01*
X124340000Y-107670000D01*
G75*
G02*
X124495000Y-107825000I0J-155000D01*
G01*
X124495000Y-108250000D01*
G75*
G02*
X124340000Y-108405000I-155000J0D01*
G01*
G37*
%TD.AperFunction*%
%TD*%
%TO.P,C28,2*%
%TO.N,+5VA*%
%TA.AperFunction,SMDPad,CuDef*%
G36*
G01*
X132005000Y-94290000D02*
X132005000Y-93980000D01*
G75*
G02*
X132160000Y-93825000I155000J0D01*
G01*
X132585000Y-93825000D01*
G75*
G02*
X132740000Y-93980000I0J-155000D01*
G01*
X132740000Y-94290000D01*
G75*
G02*
X132585000Y-94445000I-155000J0D01*
G01*
X132160000Y-94445000D01*
G75*
G02*
X132005000Y-94290000I0J155000D01*
G01*
G37*
%TD.AperFunction*%
%TO.P,C28,1*%
%TO.N,0*%
%TA.AperFunction,SMDPad,CuDef*%
G36*
G01*
X130870000Y-94290000D02*
X130870000Y-93980000D01*
G75*
G02*
X131025000Y-93825000I155000J0D01*
G01*
X131450000Y-93825000D01*
G75*
G02*
X131605000Y-93980000I0J-155000D01*
G01*
X131605000Y-94290000D01*
G75*
G02*
X131450000Y-94445000I-155000J0D01*
G01*
X131025000Y-94445000D01*
G75*
G02*
X130870000Y-94290000I0J155000D01*
G01*
G37*
%TD.AperFunction*%
%TD*%
%TO.P,C29,2*%
%TO.N,+5VD*%
%TA.AperFunction,SMDPad,CuDef*%
G36*
G01*
X124030000Y-105130000D02*
X124340000Y-105130000D01*
G75*
G02*
X124495000Y-105285000I0J-155000D01*
G01*
X124495000Y-105710000D01*
G75*
G02*
X124340000Y-105865000I-155000J0D01*
G01*
X124030000Y-105865000D01*
G75*
G02*
X123875000Y-105710000I0J155000D01*
G01*
X123875000Y-105285000D01*
G75*
G02*
X124030000Y-105130000I155000J0D01*
G01*
G37*
%TD.AperFunction*%
%TO.P,C29,1*%
%TO.N,0*%
%TA.AperFunction,SMDPad,CuDef*%
G36*
G01*
X124030000Y-103995000D02*
X124340000Y-103995000D01*
G75*
G02*
X124495000Y-104150000I0J-155000D01*
G01*
X124495000Y-104575000D01*
G75*
G02*
X124340000Y-104730000I-155000J0D01*
G01*
X124030000Y-104730000D01*
G75*
G02*
X123875000Y-104575000I0J155000D01*
G01*
X123875000Y-104150000D01*
G75*
G02*
X124030000Y-103995000I155000J0D01*
G01*
G37*
%TD.AperFunction*%
%TD*%
%TO.P,U3,8*%
%TO.N,+6V*%
%TA.AperFunction,SMDPad,CuDef*%
G36*
G01*
X116170000Y-89085000D02*
X116370000Y-89085000D01*
G75*
G02*
X116470000Y-89185000I0J-100000D01*
G01*
X116470000Y-90610000D01*
G75*
G02*
X116370000Y-90710000I-100000J0D01*
G01*
X116170000Y-90710000D01*
G75*
G02*
X116070000Y-90610000I0J100000D01*
G01*
X116070000Y-89185000D01*
G75*
G02*
X116170000Y-89085000I100000J0D01*
G01*
G37*
%TD.AperFunction*%
%TO.P,U3,7*%
%TO.N,Net-(U3-Pad7)*%
%TA.AperFunction,SMDPad,CuDef*%
G36*
G01*
X115520000Y-89085000D02*
X115720000Y-89085000D01*
G75*
G02*
X115820000Y-89185000I0J-100000D01*
G01*
X115820000Y-90610000D01*
G75*
G02*
X115720000Y-90710000I-100000J0D01*
G01*
X115520000Y-90710000D01*
G75*
G02*
X115420000Y-90610000I0J100000D01*
G01*
X115420000Y-89185000D01*
G75*
G02*
X115520000Y-89085000I100000J0D01*
G01*
G37*
%TD.AperFunction*%
%TO.P,U3,6*%
%TO.N,Net-(U3-Pad6)*%
%TA.AperFunction,SMDPad,CuDef*%
G36*
G01*
X114870000Y-89085000D02*
X115070000Y-89085000D01*
G75*
G02*
X115170000Y-89185000I0J-100000D01*
G01*
X115170000Y-90610000D01*
G75*
G02*
X115070000Y-90710000I-100000J0D01*
G01*
X114870000Y-90710000D01*
G75*
G02*
X114770000Y-90610000I0J100000D01*
G01*
X114770000Y-89185000D01*
G75*
G02*
X114870000Y-89085000I100000J0D01*
G01*
G37*
%TD.AperFunction*%
%TO.P,U3,5*%
%TO.N,+6V*%
%TA.AperFunction,SMDPad,CuDef*%
G36*
G01*
X114220000Y-89085000D02*
X114420000Y-89085000D01*
G75*
G02*
X114520000Y-89185000I0J-100000D01*
G01*
X114520000Y-90610000D01*
G75*
G02*
X114420000Y-90710000I-100000J0D01*
G01*
X114220000Y-90710000D01*
G75*
G02*
X114120000Y-90610000I0J100000D01*
G01*
X114120000Y-89185000D01*
G75*
G02*
X114220000Y-89085000I100000J0D01*
G01*
G37*
%TD.AperFunction*%
%TO.P,U3,4*%
%TO.N,0*%
%TA.AperFunction,SMDPad,CuDef*%
G36*
G01*
X114220000Y-84860000D02*
X114420000Y-84860000D01*
G75*
G02*
X114520000Y-84960000I0J-100000D01*
G01*
X114520000Y-86385000D01*
G75*
G02*
X114420000Y-86485000I-100000J0D01*
G01*
X114220000Y-86485000D01*
G75*
G02*
X114120000Y-86385000I0J100000D01*
G01*
X114120000Y-84960000D01*
G75*
G02*
X114220000Y-84860000I100000J0D01*
G01*
G37*
%TD.AperFunction*%
%TO.P,U3,3*%
%TO.N,Net-(C24-Pad1)*%
%TA.AperFunction,SMDPad,CuDef*%
G36*
G01*
X114870000Y-84860000D02*
X115070000Y-84860000D01*
G75*
G02*
X115170000Y-84960000I0J-100000D01*
G01*
X115170000Y-86385000D01*
G75*
G02*
X115070000Y-86485000I-100000J0D01*
G01*
X114870000Y-86485000D01*
G75*
G02*
X114770000Y-86385000I0J100000D01*
G01*
X114770000Y-84960000D01*
G75*
G02*
X114870000Y-84860000I100000J0D01*
G01*
G37*
%TD.AperFunction*%
%TO.P,U3,2*%
%TO.N,+3V3*%
%TA.AperFunction,SMDPad,CuDef*%
G36*
G01*
X115520000Y-84860000D02*
X115720000Y-84860000D01*
G75*
G02*
X115820000Y-84960000I0J-100000D01*
G01*
X115820000Y-86385000D01*
G75*
G02*
X115720000Y-86485000I-100000J0D01*
G01*
X115520000Y-86485000D01*
G75*
G02*
X115420000Y-86385000I0J100000D01*
G01*
X115420000Y-84960000D01*
G75*
G02*
X115520000Y-84860000I100000J0D01*
G01*
G37*
%TD.AperFunction*%
%TO.P,U3,1*%
%TA.AperFunction,SMDPad,CuDef*%
G36*
G01*
X116170000Y-84860000D02*
X116370000Y-84860000D01*
G75*
G02*
X116470000Y-84960000I0J-100000D01*
G01*
X116470000Y-86385000D01*
G75*
G02*
X116370000Y-86485000I-100000J0D01*
G01*
X116170000Y-86485000D01*
G75*
G02*
X116070000Y-86385000I0J100000D01*
G01*
X116070000Y-84960000D01*
G75*
G02*
X116170000Y-84860000I100000J0D01*
G01*
G37*
%TD.AperFunction*%
%TD*%
%TO.P,U4,8*%
%TO.N,+6V*%
%TA.AperFunction,SMDPad,CuDef*%
G36*
G01*
X131775000Y-92470000D02*
X131775000Y-92670000D01*
G75*
G02*
X131675000Y-92770000I-100000J0D01*
G01*
X130250000Y-92770000D01*
G75*
G02*
X130150000Y-92670000I0J100000D01*
G01*
X130150000Y-92470000D01*
G75*
G02*
X130250000Y-92370000I100000J0D01*
G01*
X131675000Y-92370000D01*
G75*
G02*
X131775000Y-92470000I0J-100000D01*
G01*
G37*
%TD.AperFunction*%
%TO.P,U4,7*%
%TO.N,Net-(U4-Pad7)*%
%TA.AperFunction,SMDPad,CuDef*%
G36*
G01*
X131775000Y-91820000D02*
X131775000Y-92020000D01*
G75*
G02*
X131675000Y-92120000I-100000J0D01*
G01*
X130250000Y-92120000D01*
G75*
G02*
X130150000Y-92020000I0J100000D01*
G01*
X130150000Y-91820000D01*
G75*
G02*
X130250000Y-91720000I100000J0D01*
G01*
X131675000Y-91720000D01*
G75*
G02*
X131775000Y-91820000I0J-100000D01*
G01*
G37*
%TD.AperFunction*%
%TO.P,U4,6*%
%TO.N,Net-(U4-Pad6)*%
%TA.AperFunction,SMDPad,CuDef*%
G36*
G01*
X131775000Y-91170000D02*
X131775000Y-91370000D01*
G75*
G02*
X131675000Y-91470000I-100000J0D01*
G01*
X130250000Y-91470000D01*
G75*
G02*
X130150000Y-91370000I0J100000D01*
G01*
X130150000Y-91170000D01*
G75*
G02*
X130250000Y-91070000I100000J0D01*
G01*
X131675000Y-91070000D01*
G75*
G02*
X131775000Y-91170000I0J-100000D01*
G01*
G37*
%TD.AperFunction*%
%TO.P,U4,5*%
%TO.N,+6V*%
%TA.AperFunction,SMDPad,CuDef*%
G36*
G01*
X131775000Y-90520000D02*
X131775000Y-90720000D01*
G75*
G02*
X131675000Y-90820000I-100000J0D01*
G01*
X130250000Y-90820000D01*
G75*
G02*
X130150000Y-90720000I0J100000D01*
G01*
X130150000Y-90520000D01*
G75*
G02*
X130250000Y-90420000I100000J0D01*
G01*
X131675000Y-90420000D01*
G75*
G02*
X131775000Y-90520000I0J-100000D01*
G01*
G37*
%TD.AperFunction*%
%TO.P,U4,4*%
%TO.N,0*%
%TA.AperFunction,SMDPad,CuDef*%
G36*
G01*
X136000000Y-90520000D02*
X136000000Y-90720000D01*
G75*
G02*
X135900000Y-90820000I-100000J0D01*
G01*
X134475000Y-90820000D01*
G75*
G02*
X134375000Y-90720000I0J100000D01*
G01*
X134375000Y-90520000D01*
G75*
G02*
X134475000Y-90420000I100000J0D01*
G01*
X135900000Y-90420000D01*
G75*
G02*
X136000000Y-90520000I0J-100000D01*
G01*
G37*
%TD.AperFunction*%
%TO.P,U4,3*%
%TO.N,Net-(C25-Pad1)*%
%TA.AperFunction,SMDPad,CuDef*%
G36*
G01*
X136000000Y-91170000D02*
X136000000Y-91370000D01*
G75*
G02*
X135900000Y-91470000I-100000J0D01*
G01*
X134475000Y-91470000D01*
G75*
G02*
X134375000Y-91370000I0J100000D01*
G01*
X134375000Y-91170000D01*
G75*
G02*
X134475000Y-91070000I100000J0D01*
G01*
X135900000Y-91070000D01*
G75*
G02*
X136000000Y-91170000I0J-100000D01*
G01*
G37*
%TD.AperFunction*%
%TO.P,U4,2*%
%TO.N,+5VA*%
%TA.AperFunction,SMDPad,CuDef*%
G36*
G01*
X136000000Y-91820000D02*
X136000000Y-92020000D01*
G75*
G02*
X135900000Y-92120000I-100000J0D01*
G01*
X134475000Y-92120000D01*
G75*
G02*
X134375000Y-92020000I0J100000D01*
G01*
X134375000Y-91820000D01*
G75*
G02*
X134475000Y-91720000I100000J0D01*
G01*
X135900000Y-91720000D01*
G75*
G02*
X136000000Y-91820000I0J-100000D01*
G01*
G37*
%TD.AperFunction*%
%TO.P,U4,1*%
%TA.AperFunction,SMDPad,CuDef*%
G36*
G01*
X136000000Y-92470000D02*
X136000000Y-92670000D01*
G75*
G02*
X135900000Y-92770000I-100000J0D01*
G01*
X134475000Y-92770000D01*
G75*
G02*
X134375000Y-92670000I0J100000D01*
G01*
X134375000Y-92470000D01*
G75*
G02*
X134475000Y-92370000I100000J0D01*
G01*
X135900000Y-92370000D01*
G75*
G02*
X136000000Y-92470000I0J-100000D01*
G01*
G37*
%TD.AperFunction*%
%TD*%
%TO.P,U5,8*%
%TO.N,+6V*%
%TA.AperFunction,SMDPad,CuDef*%
G36*
G01*
X129295000Y-106595000D02*
X129295000Y-106395000D01*
G75*
G02*
X129395000Y-106295000I100000J0D01*
G01*
X130820000Y-106295000D01*
G75*
G02*
X130920000Y-106395000I0J-100000D01*
G01*
X130920000Y-106595000D01*
G75*
G02*
X130820000Y-106695000I-100000J0D01*
G01*
X129395000Y-106695000D01*
G75*
G02*
X129295000Y-106595000I0J100000D01*
G01*
G37*
%TD.AperFunction*%
%TO.P,U5,7*%
%TO.N,Net-(U5-Pad7)*%
%TA.AperFunction,SMDPad,CuDef*%
G36*
G01*
X129295000Y-107245000D02*
X129295000Y-107045000D01*
G75*
G02*
X129395000Y-106945000I100000J0D01*
G01*
X130820000Y-106945000D01*
G75*
G02*
X130920000Y-107045000I0J-100000D01*
G01*
X130920000Y-107245000D01*
G75*
G02*
X130820000Y-107345000I-100000J0D01*
G01*
X129395000Y-107345000D01*
G75*
G02*
X129295000Y-107245000I0J100000D01*
G01*
G37*
%TD.AperFunction*%
%TO.P,U5,6*%
%TO.N,Net-(U5-Pad6)*%
%TA.AperFunction,SMDPad,CuDef*%
G36*
G01*
X129295000Y-107895000D02*
X129295000Y-107695000D01*
G75*
G02*
X129395000Y-107595000I100000J0D01*
G01*
X130820000Y-107595000D01*
G75*
G02*
X130920000Y-107695000I0J-100000D01*
G01*
X130920000Y-107895000D01*
G75*
G02*
X130820000Y-107995000I-100000J0D01*
G01*
X129395000Y-107995000D01*
G75*
G02*
X129295000Y-107895000I0J100000D01*
G01*
G37*
%TD.AperFunction*%
%TO.P,U5,5*%
%TO.N,+6V*%
%TA.AperFunction,SMDPad,CuDef*%
G36*
G01*
X129295000Y-108545000D02*
X129295000Y-108345000D01*
G75*
G02*
X129395000Y-108245000I100000J0D01*
G01*
X130820000Y-108245000D01*
G75*
G02*
X130920000Y-108345000I0J-100000D01*
G01*
X130920000Y-108545000D01*
G75*
G02*
X130820000Y-108645000I-100000J0D01*
G01*
X129395000Y-108645000D01*
G75*
G02*
X129295000Y-108545000I0J100000D01*
G01*
G37*
%TD.AperFunction*%
%TO.P,U5,4*%
%TO.N,0*%
%TA.AperFunction,SMDPad,CuDef*%
G36*
G01*
X125070000Y-108545000D02*
X125070000Y-108345000D01*
G75*
G02*
X125170000Y-108245000I100000J0D01*
G01*
X126595000Y-108245000D01*
G75*
G02*
X126695000Y-108345000I0J-100000D01*
G01*
X126695000Y-108545000D01*
G75*
G02*
X126595000Y-108645000I-100000J0D01*
G01*
X125170000Y-108645000D01*
G75*
G02*
X125070000Y-108545000I0J100000D01*
G01*
G37*
%TD.AperFunction*%
%TO.P,U5,3*%
%TO.N,Net-(C26-Pad1)*%
%TA.AperFunction,SMDPad,CuDef*%
G36*
G01*
X125070000Y-107895000D02*
X125070000Y-107695000D01*
G75*
G02*
X125170000Y-107595000I100000J0D01*
G01*
X126595000Y-107595000D01*
G75*
G02*
X126695000Y-107695000I0J-100000D01*
G01*
X126695000Y-107895000D01*
G75*
G02*
X126595000Y-107995000I-100000J0D01*
G01*
X125170000Y-107995000D01*
G75*
G02*
X125070000Y-107895000I0J100000D01*
G01*
G37*
%TD.AperFunction*%
%TO.P,U5,2*%
%TO.N,+5VD*%
%TA.AperFunction,SMDPad,CuDef*%
G36*
G01*
X125070000Y-107245000D02*
X125070000Y-107045000D01*
G75*
G02*
X125170000Y-106945000I100000J0D01*
G01*
X126595000Y-106945000D01*
G75*
G02*
X126695000Y-107045000I0J-100000D01*
G01*
X126695000Y-107245000D01*
G75*
G02*
X126595000Y-107345000I-100000J0D01*
G01*
X125170000Y-107345000D01*
G75*
G02*
X125070000Y-107245000I0J100000D01*
G01*
G37*
%TD.AperFunction*%
%TO.P,U5,1*%
%TA.AperFunction,SMDPad,CuDef*%
G36*
G01*
X125070000Y-106595000D02*
X125070000Y-106395000D01*
G75*
G02*
X125170000Y-106295000I100000J0D01*
G01*
X126595000Y-106295000D01*
G75*
G02*
X126695000Y-106395000I0J-100000D01*
G01*
X126695000Y-106595000D01*
G75*
G02*
X126595000Y-106695000I-100000J0D01*
G01*
X125170000Y-106695000D01*
G75*
G02*
X125070000Y-106595000I0J100000D01*
G01*
G37*
%TD.AperFunction*%
%TD*%
%TO.P,C15,2*%
%TO.N,Net-(C14-Pad2)*%
%TA.AperFunction,SMDPad,CuDef*%
G36*
G01*
X103075000Y-109575000D02*
X103385000Y-109575000D01*
G75*
G02*
X103540000Y-109730000I0J-155000D01*
G01*
X103540000Y-110155000D01*
G75*
G02*
X103385000Y-110310000I-155000J0D01*
G01*
X103075000Y-110310000D01*
G75*
G02*
X102920000Y-110155000I0J155000D01*
G01*
X102920000Y-109730000D01*
G75*
G02*
X103075000Y-109575000I155000J0D01*
G01*
G37*
%TD.AperFunction*%
%TO.P,C15,1*%
%TO.N,0*%
%TA.AperFunction,SMDPad,CuDef*%
G36*
G01*
X103075000Y-108440000D02*
X103385000Y-108440000D01*
G75*
G02*
X103540000Y-108595000I0J-155000D01*
G01*
X103540000Y-109020000D01*
G75*
G02*
X103385000Y-109175000I-155000J0D01*
G01*
X103075000Y-109175000D01*
G75*
G02*
X102920000Y-109020000I0J155000D01*
G01*
X102920000Y-108595000D01*
G75*
G02*
X103075000Y-108440000I155000J0D01*
G01*
G37*
%TD.AperFunction*%
%TD*%
%TO.P,C16,2*%
%TO.N,+9V*%
%TA.AperFunction,SMDPad,CuDef*%
G36*
G01*
X108465000Y-111715000D02*
X108155000Y-111715000D01*
G75*
G02*
X108000000Y-111560000I0J155000D01*
G01*
X108000000Y-111135000D01*
G75*
G02*
X108155000Y-110980000I155000J0D01*
G01*
X108465000Y-110980000D01*
G75*
G02*
X108620000Y-111135000I0J-155000D01*
G01*
X108620000Y-111560000D01*
G75*
G02*
X108465000Y-111715000I-155000J0D01*
G01*
G37*
%TD.AperFunction*%
%TO.P,C16,1*%
%TO.N,Net-(C16-Pad1)*%
%TA.AperFunction,SMDPad,CuDef*%
G36*
G01*
X108465000Y-112850000D02*
X108155000Y-112850000D01*
G75*
G02*
X108000000Y-112695000I0J155000D01*
G01*
X108000000Y-112270000D01*
G75*
G02*
X108155000Y-112115000I155000J0D01*
G01*
X108465000Y-112115000D01*
G75*
G02*
X108620000Y-112270000I0J-155000D01*
G01*
X108620000Y-112695000D01*
G75*
G02*
X108465000Y-112850000I-155000J0D01*
G01*
G37*
%TD.AperFunction*%
%TD*%
%TO.P,C14,2*%
%TO.N,Net-(C14-Pad2)*%
%TA.AperFunction,SMDPad,CuDef*%
G36*
G01*
X101805000Y-109575000D02*
X102115000Y-109575000D01*
G75*
G02*
X102270000Y-109730000I0J-155000D01*
G01*
X102270000Y-110155000D01*
G75*
G02*
X102115000Y-110310000I-155000J0D01*
G01*
X101805000Y-110310000D01*
G75*
G02*
X101650000Y-110155000I0J155000D01*
G01*
X101650000Y-109730000D01*
G75*
G02*
X101805000Y-109575000I155000J0D01*
G01*
G37*
%TD.AperFunction*%
%TO.P,C14,1*%
%TO.N,0*%
%TA.AperFunction,SMDPad,CuDef*%
G36*
G01*
X101805000Y-108440000D02*
X102115000Y-108440000D01*
G75*
G02*
X102270000Y-108595000I0J-155000D01*
G01*
X102270000Y-109020000D01*
G75*
G02*
X102115000Y-109175000I-155000J0D01*
G01*
X101805000Y-109175000D01*
G75*
G02*
X101650000Y-109020000I0J155000D01*
G01*
X101650000Y-108595000D01*
G75*
G02*
X101805000Y-108440000I155000J0D01*
G01*
G37*
%TD.AperFunction*%
%TD*%
%TO.P,C17,2*%
%TO.N,+9V*%
%TA.AperFunction,SMDPad,CuDef*%
G36*
G01*
X107875000Y-109610000D02*
X107875000Y-109300000D01*
G75*
G02*
X108030000Y-109145000I155000J0D01*
G01*
X108455000Y-109145000D01*
G75*
G02*
X108610000Y-109300000I0J-155000D01*
G01*
X108610000Y-109610000D01*
G75*
G02*
X108455000Y-109765000I-155000J0D01*
G01*
X108030000Y-109765000D01*
G75*
G02*
X107875000Y-109610000I0J155000D01*
G01*
G37*
%TD.AperFunction*%
%TO.P,C17,1*%
%TO.N,0*%
%TA.AperFunction,SMDPad,CuDef*%
G36*
G01*
X106740000Y-109610000D02*
X106740000Y-109300000D01*
G75*
G02*
X106895000Y-109145000I155000J0D01*
G01*
X107320000Y-109145000D01*
G75*
G02*
X107475000Y-109300000I0J-155000D01*
G01*
X107475000Y-109610000D01*
G75*
G02*
X107320000Y-109765000I-155000J0D01*
G01*
X106895000Y-109765000D01*
G75*
G02*
X106740000Y-109610000I0J155000D01*
G01*
G37*
%TD.AperFunction*%
%TD*%
D24*
%TO.P,D2,2*%
%TO.N,+12V*%
X96880000Y-113960000D03*
%TO.P,D2,1*%
%TO.N,0*%
X96880000Y-118760000D03*
%TD*%
%TO.P,R12,2*%
%TO.N,Net-(C16-Pad1)*%
%TA.AperFunction,SMDPad,CuDef*%
G36*
G01*
X107435000Y-113660000D02*
X107435000Y-113980000D01*
G75*
G02*
X107275000Y-114140000I-160000J0D01*
G01*
X106880000Y-114140000D01*
G75*
G02*
X106720000Y-113980000I0J160000D01*
G01*
X106720000Y-113660000D01*
G75*
G02*
X106880000Y-113500000I160000J0D01*
G01*
X107275000Y-113500000D01*
G75*
G02*
X107435000Y-113660000I0J-160000D01*
G01*
G37*
%TD.AperFunction*%
%TO.P,R12,1*%
%TO.N,+9V*%
%TA.AperFunction,SMDPad,CuDef*%
G36*
G01*
X108630000Y-113660000D02*
X108630000Y-113980000D01*
G75*
G02*
X108470000Y-114140000I-160000J0D01*
G01*
X108075000Y-114140000D01*
G75*
G02*
X107915000Y-113980000I0J160000D01*
G01*
X107915000Y-113660000D01*
G75*
G02*
X108075000Y-113500000I160000J0D01*
G01*
X108470000Y-113500000D01*
G75*
G02*
X108630000Y-113660000I0J-160000D01*
G01*
G37*
%TD.AperFunction*%
%TD*%
%TO.P,R13,2*%
%TO.N,0*%
%TA.AperFunction,SMDPad,CuDef*%
G36*
G01*
X107200000Y-111675000D02*
X106880000Y-111675000D01*
G75*
G02*
X106720000Y-111515000I0J160000D01*
G01*
X106720000Y-111120000D01*
G75*
G02*
X106880000Y-110960000I160000J0D01*
G01*
X107200000Y-110960000D01*
G75*
G02*
X107360000Y-111120000I0J-160000D01*
G01*
X107360000Y-111515000D01*
G75*
G02*
X107200000Y-111675000I-160000J0D01*
G01*
G37*
%TD.AperFunction*%
%TO.P,R13,1*%
%TO.N,Net-(C16-Pad1)*%
%TA.AperFunction,SMDPad,CuDef*%
G36*
G01*
X107200000Y-112870000D02*
X106880000Y-112870000D01*
G75*
G02*
X106720000Y-112710000I0J160000D01*
G01*
X106720000Y-112315000D01*
G75*
G02*
X106880000Y-112155000I160000J0D01*
G01*
X107200000Y-112155000D01*
G75*
G02*
X107360000Y-112315000I0J-160000D01*
G01*
X107360000Y-112710000D01*
G75*
G02*
X107200000Y-112870000I-160000J0D01*
G01*
G37*
%TD.AperFunction*%
%TD*%
D32*
%TO.P,U2,9*%
%TO.N,0*%
X102595000Y-113185000D03*
%TO.P,U2,8*%
%TO.N,Net-(C14-Pad2)*%
%TA.AperFunction,SMDPad,CuDef*%
G36*
G01*
X101170000Y-114060000D02*
X101170000Y-114260000D01*
G75*
G02*
X101070000Y-114360000I-100000J0D01*
G01*
X99820000Y-114360000D01*
G75*
G02*
X99720000Y-114260000I0J100000D01*
G01*
X99720000Y-114060000D01*
G75*
G02*
X99820000Y-113960000I100000J0D01*
G01*
X101070000Y-113960000D01*
G75*
G02*
X101170000Y-114060000I0J-100000D01*
G01*
G37*
%TD.AperFunction*%
%TO.P,U2,7*%
%TO.N,Net-(U2-Pad7)*%
%TA.AperFunction,SMDPad,CuDef*%
G36*
G01*
X101170000Y-113410000D02*
X101170000Y-113610000D01*
G75*
G02*
X101070000Y-113710000I-100000J0D01*
G01*
X99820000Y-113710000D01*
G75*
G02*
X99720000Y-113610000I0J100000D01*
G01*
X99720000Y-113410000D01*
G75*
G02*
X99820000Y-113310000I100000J0D01*
G01*
X101070000Y-113310000D01*
G75*
G02*
X101170000Y-113410000I0J-100000D01*
G01*
G37*
%TD.AperFunction*%
%TO.P,U2,6*%
%TO.N,Net-(U2-Pad6)*%
%TA.AperFunction,SMDPad,CuDef*%
G36*
G01*
X101170000Y-112760000D02*
X101170000Y-112960000D01*
G75*
G02*
X101070000Y-113060000I-100000J0D01*
G01*
X99820000Y-113060000D01*
G75*
G02*
X99720000Y-112960000I0J100000D01*
G01*
X99720000Y-112760000D01*
G75*
G02*
X99820000Y-112660000I100000J0D01*
G01*
X101070000Y-112660000D01*
G75*
G02*
X101170000Y-112760000I0J-100000D01*
G01*
G37*
%TD.AperFunction*%
%TO.P,U2,5*%
%TO.N,Net-(C14-Pad2)*%
%TA.AperFunction,SMDPad,CuDef*%
G36*
G01*
X101170000Y-112110000D02*
X101170000Y-112310000D01*
G75*
G02*
X101070000Y-112410000I-100000J0D01*
G01*
X99820000Y-112410000D01*
G75*
G02*
X99720000Y-112310000I0J100000D01*
G01*
X99720000Y-112110000D01*
G75*
G02*
X99820000Y-112010000I100000J0D01*
G01*
X101070000Y-112010000D01*
G75*
G02*
X101170000Y-112110000I0J-100000D01*
G01*
G37*
%TD.AperFunction*%
%TO.P,U2,4*%
%TO.N,0*%
%TA.AperFunction,SMDPad,CuDef*%
G36*
G01*
X105470000Y-112110000D02*
X105470000Y-112310000D01*
G75*
G02*
X105370000Y-112410000I-100000J0D01*
G01*
X104120000Y-112410000D01*
G75*
G02*
X104020000Y-112310000I0J100000D01*
G01*
X104020000Y-112110000D01*
G75*
G02*
X104120000Y-112010000I100000J0D01*
G01*
X105370000Y-112010000D01*
G75*
G02*
X105470000Y-112110000I0J-100000D01*
G01*
G37*
%TD.AperFunction*%
%TO.P,U2,3*%
%TO.N,Net-(U2-Pad3)*%
%TA.AperFunction,SMDPad,CuDef*%
G36*
G01*
X105470000Y-112760000D02*
X105470000Y-112960000D01*
G75*
G02*
X105370000Y-113060000I-100000J0D01*
G01*
X104120000Y-113060000D01*
G75*
G02*
X104020000Y-112960000I0J100000D01*
G01*
X104020000Y-112760000D01*
G75*
G02*
X104120000Y-112660000I100000J0D01*
G01*
X105370000Y-112660000D01*
G75*
G02*
X105470000Y-112760000I0J-100000D01*
G01*
G37*
%TD.AperFunction*%
%TO.P,U2,2*%
%TO.N,Net-(C16-Pad1)*%
%TA.AperFunction,SMDPad,CuDef*%
G36*
G01*
X105470000Y-113410000D02*
X105470000Y-113610000D01*
G75*
G02*
X105370000Y-113710000I-100000J0D01*
G01*
X104120000Y-113710000D01*
G75*
G02*
X104020000Y-113610000I0J100000D01*
G01*
X104020000Y-113410000D01*
G75*
G02*
X104120000Y-113310000I100000J0D01*
G01*
X105370000Y-113310000D01*
G75*
G02*
X105470000Y-113410000I0J-100000D01*
G01*
G37*
%TD.AperFunction*%
%TO.P,U2,1*%
%TO.N,+9V*%
%TA.AperFunction,SMDPad,CuDef*%
G36*
G01*
X105470000Y-114060000D02*
X105470000Y-114260000D01*
G75*
G02*
X105370000Y-114360000I-100000J0D01*
G01*
X104120000Y-114360000D01*
G75*
G02*
X104020000Y-114260000I0J100000D01*
G01*
X104020000Y-114060000D01*
G75*
G02*
X104120000Y-113960000I100000J0D01*
G01*
X105370000Y-113960000D01*
G75*
G02*
X105470000Y-114060000I0J-100000D01*
G01*
G37*
%TD.AperFunction*%
%TD*%
D33*
%TO.P,J1,5*%
%TO.N,Net-(J1-Pad5)*%
X107065000Y-105930000D03*
%TO.P,J1,4*%
%TO.N,Net-(J1-Pad4)*%
X104525000Y-105930000D03*
%TO.P,J1,3*%
%TO.N,Net-(J1-Pad3)*%
X101985000Y-105930000D03*
%TO.P,J1,2*%
%TO.N,Net-(J1-Pad2)*%
X99445000Y-105930000D03*
D34*
%TO.P,J1,1*%
%TO.N,0*%
X96905000Y-105930000D03*
%TD*%
D33*
%TO.P,J2,2*%
%TO.N,0*%
X104500000Y-116995000D03*
D34*
%TO.P,J2,1*%
%TO.N,+12V*%
X101960000Y-116995000D03*
%TD*%
D33*
%TO.P,J3,2*%
%TO.N,0*%
X104978200Y-85005600D03*
D34*
%TO.P,J3,1*%
%TO.N,+6V*%
X102438200Y-85005600D03*
%TD*%
%TO.P,R1,2*%
%TO.N,+3V3*%
%TA.AperFunction,SMDPad,CuDef*%
G36*
G01*
X107495000Y-108045000D02*
X107495000Y-108365000D01*
G75*
G02*
X107335000Y-108525000I-160000J0D01*
G01*
X106940000Y-108525000D01*
G75*
G02*
X106780000Y-108365000I0J160000D01*
G01*
X106780000Y-108045000D01*
G75*
G02*
X106940000Y-107885000I160000J0D01*
G01*
X107335000Y-107885000D01*
G75*
G02*
X107495000Y-108045000I0J-160000D01*
G01*
G37*
%TD.AperFunction*%
%TO.P,R1,1*%
%TO.N,Net-(J1-Pad5)*%
%TA.AperFunction,SMDPad,CuDef*%
G36*
G01*
X108690000Y-108045000D02*
X108690000Y-108365000D01*
G75*
G02*
X108530000Y-108525000I-160000J0D01*
G01*
X108135000Y-108525000D01*
G75*
G02*
X107975000Y-108365000I0J160000D01*
G01*
X107975000Y-108045000D01*
G75*
G02*
X108135000Y-107885000I160000J0D01*
G01*
X108530000Y-107885000D01*
G75*
G02*
X108690000Y-108045000I0J-160000D01*
G01*
G37*
%TD.AperFunction*%
%TD*%
%TO.P,R3,2*%
%TO.N,0*%
%TA.AperFunction,SMDPad,CuDef*%
G36*
G01*
X104361000Y-109229000D02*
X104681000Y-109229000D01*
G75*
G02*
X104841000Y-109389000I0J-160000D01*
G01*
X104841000Y-109784000D01*
G75*
G02*
X104681000Y-109944000I-160000J0D01*
G01*
X104361000Y-109944000D01*
G75*
G02*
X104201000Y-109784000I0J160000D01*
G01*
X104201000Y-109389000D01*
G75*
G02*
X104361000Y-109229000I160000J0D01*
G01*
G37*
%TD.AperFunction*%
%TO.P,R3,1*%
%TO.N,Net-(J1-Pad4)*%
%TA.AperFunction,SMDPad,CuDef*%
G36*
G01*
X104361000Y-108034000D02*
X104681000Y-108034000D01*
G75*
G02*
X104841000Y-108194000I0J-160000D01*
G01*
X104841000Y-108589000D01*
G75*
G02*
X104681000Y-108749000I-160000J0D01*
G01*
X104361000Y-108749000D01*
G75*
G02*
X104201000Y-108589000I0J160000D01*
G01*
X104201000Y-108194000D01*
G75*
G02*
X104361000Y-108034000I160000J0D01*
G01*
G37*
%TD.AperFunction*%
%TD*%
%TO.P,R4,2*%
%TO.N,0*%
%TA.AperFunction,SMDPad,CuDef*%
G36*
G01*
X100475000Y-109115000D02*
X100475000Y-108795000D01*
G75*
G02*
X100635000Y-108635000I160000J0D01*
G01*
X101030000Y-108635000D01*
G75*
G02*
X101190000Y-108795000I0J-160000D01*
G01*
X101190000Y-109115000D01*
G75*
G02*
X101030000Y-109275000I-160000J0D01*
G01*
X100635000Y-109275000D01*
G75*
G02*
X100475000Y-109115000I0J160000D01*
G01*
G37*
%TD.AperFunction*%
%TO.P,R4,1*%
%TO.N,Net-(J1-Pad3)*%
%TA.AperFunction,SMDPad,CuDef*%
G36*
G01*
X99280000Y-109115000D02*
X99280000Y-108795000D01*
G75*
G02*
X99440000Y-108635000I160000J0D01*
G01*
X99835000Y-108635000D01*
G75*
G02*
X99995000Y-108795000I0J-160000D01*
G01*
X99995000Y-109115000D01*
G75*
G02*
X99835000Y-109275000I-160000J0D01*
G01*
X99440000Y-109275000D01*
G75*
G02*
X99280000Y-109115000I0J160000D01*
G01*
G37*
%TD.AperFunction*%
%TD*%
%TO.P,R5,2*%
%TO.N,0*%
%TA.AperFunction,SMDPad,CuDef*%
G36*
G01*
X97677000Y-108045000D02*
X97677000Y-108365000D01*
G75*
G02*
X97517000Y-108525000I-160000J0D01*
G01*
X97122000Y-108525000D01*
G75*
G02*
X96962000Y-108365000I0J160000D01*
G01*
X96962000Y-108045000D01*
G75*
G02*
X97122000Y-107885000I160000J0D01*
G01*
X97517000Y-107885000D01*
G75*
G02*
X97677000Y-108045000I0J-160000D01*
G01*
G37*
%TD.AperFunction*%
%TO.P,R5,1*%
%TO.N,Net-(J1-Pad2)*%
%TA.AperFunction,SMDPad,CuDef*%
G36*
G01*
X98872000Y-108045000D02*
X98872000Y-108365000D01*
G75*
G02*
X98712000Y-108525000I-160000J0D01*
G01*
X98317000Y-108525000D01*
G75*
G02*
X98157000Y-108365000I0J160000D01*
G01*
X98157000Y-108045000D01*
G75*
G02*
X98317000Y-107885000I160000J0D01*
G01*
X98712000Y-107885000D01*
G75*
G02*
X98872000Y-108045000I0J-160000D01*
G01*
G37*
%TD.AperFunction*%
%TD*%
D35*
%TO.N,*%
X144130000Y-83940000D03*
X93250000Y-117850000D03*
D36*
%TO.N,+3V3*%
X115535000Y-102215000D03*
X107065000Y-90055000D03*
X103890000Y-98945000D03*
X105795000Y-108455000D03*
%TO.N,CPout*%
X133235000Y-95480001D03*
X124010000Y-102680001D03*
%TO.N,0*%
X113010000Y-92680001D03*
D37*
X142760000Y-101680001D03*
X140670000Y-97800000D03*
X141140000Y-97800000D03*
D36*
X145108440Y-119080000D03*
X136348440Y-119080000D03*
D37*
X138790000Y-100705001D03*
X138790000Y-99210000D03*
X130100000Y-98760000D03*
X129630000Y-98760000D03*
X129160000Y-98760000D03*
D38*
X136085000Y-103250000D03*
X135285000Y-104000000D03*
D37*
X136900000Y-99210000D03*
X136910000Y-100705001D03*
X137380000Y-100705001D03*
X136910000Y-101175001D03*
X137380000Y-101175001D03*
X137850000Y-101175001D03*
X137850000Y-100705001D03*
X137840000Y-99210000D03*
X137370000Y-99210000D03*
X137840000Y-98740000D03*
X137370000Y-98740000D03*
X136900000Y-98740000D03*
X138320000Y-101175001D03*
X138320000Y-100705001D03*
X138310000Y-99210000D03*
X138310000Y-98740000D03*
X138790000Y-101175001D03*
X138790000Y-98740000D03*
X140000000Y-102450000D03*
X140000000Y-102920000D03*
X140000000Y-103390000D03*
X140000000Y-103860000D03*
X140000000Y-104330000D03*
X140000000Y-104800000D03*
X140000000Y-105270000D03*
X140000000Y-105740000D03*
X140000000Y-106210000D03*
X140000000Y-106680000D03*
X140000000Y-107620000D03*
X140000000Y-106680000D03*
X140000000Y-107150000D03*
X140000000Y-108090000D03*
X140000000Y-109030000D03*
X140000000Y-108560000D03*
X140000000Y-109500000D03*
X140000000Y-109970000D03*
X140000000Y-110440000D03*
X140000000Y-110910000D03*
X140000000Y-111380000D03*
X140000000Y-111850000D03*
X140000000Y-112320000D03*
X140000000Y-112790000D03*
X140000000Y-113260000D03*
X140000000Y-113730000D03*
X140000000Y-114200000D03*
X140000000Y-114670000D03*
X140000000Y-115610000D03*
X140000000Y-115140000D03*
X140000000Y-116080000D03*
X139530000Y-116080000D03*
X139530000Y-115610000D03*
X139530000Y-115140000D03*
X139530000Y-114670000D03*
X139530000Y-114200000D03*
X139530000Y-113260000D03*
X139530000Y-113730000D03*
X139530000Y-112790000D03*
X139530000Y-112320000D03*
X139530000Y-111850000D03*
X139530000Y-111380000D03*
X139530000Y-110910000D03*
X139530000Y-110440000D03*
X139530000Y-109500000D03*
X139530000Y-109970000D03*
X139530000Y-109030000D03*
X139530000Y-108560000D03*
X139530000Y-108090000D03*
X139530000Y-107620000D03*
X139530000Y-107150000D03*
X139530000Y-106680000D03*
X139530000Y-106210000D03*
X139530000Y-105740000D03*
X139530000Y-105270000D03*
X139530000Y-104800000D03*
X139530000Y-103860000D03*
X139530000Y-104330000D03*
X139530000Y-103390000D03*
X139530000Y-102920000D03*
X139530000Y-102450000D03*
X141460000Y-102450000D03*
X141930000Y-102450000D03*
X141460000Y-102920000D03*
X141460000Y-103390000D03*
X141460000Y-103860000D03*
X141460000Y-104330000D03*
X141460000Y-116080000D03*
X141930000Y-116080000D03*
X141460000Y-115610000D03*
X141460000Y-115140000D03*
X141460000Y-114670000D03*
X141460000Y-114200000D03*
X141460000Y-113730000D03*
X141460000Y-113260000D03*
X141460000Y-112790000D03*
X141460000Y-111850000D03*
X141460000Y-112320000D03*
X141460000Y-111380000D03*
X141460000Y-110440000D03*
X141460000Y-110910000D03*
X141460000Y-109970000D03*
X141460000Y-109500000D03*
X141460000Y-109030000D03*
X141460000Y-108560000D03*
X141460000Y-107620000D03*
X141460000Y-108090000D03*
X141460000Y-106680000D03*
X141460000Y-107150000D03*
X141460000Y-106210000D03*
X141460000Y-105740000D03*
X141460000Y-105270000D03*
X141460000Y-104800000D03*
X141930000Y-102920000D03*
X141930000Y-103390000D03*
X141930000Y-103860000D03*
X141930000Y-104330000D03*
X141930000Y-104800000D03*
X141930000Y-105270000D03*
X141930000Y-105740000D03*
X141930000Y-106210000D03*
X141930000Y-106680000D03*
X141930000Y-107150000D03*
X141930000Y-108090000D03*
X141930000Y-107620000D03*
X141930000Y-108560000D03*
X141930000Y-109030000D03*
X141930000Y-109500000D03*
X141930000Y-109970000D03*
X141930000Y-110440000D03*
X141930000Y-110910000D03*
X141930000Y-111380000D03*
X141930000Y-112320000D03*
X141930000Y-111850000D03*
X141930000Y-112790000D03*
X141930000Y-113260000D03*
X141930000Y-113730000D03*
X141930000Y-114200000D03*
X141930000Y-114670000D03*
X141930000Y-115140000D03*
X141930000Y-115610000D03*
D38*
X131885000Y-103250000D03*
X132635000Y-104000000D03*
D37*
X130570000Y-98760000D03*
X130570000Y-98290000D03*
X130100000Y-98290000D03*
X129630000Y-98290000D03*
X129160000Y-98290000D03*
X128690000Y-98290000D03*
X128690000Y-97820000D03*
X128220000Y-97820000D03*
X128220000Y-97350000D03*
X127750000Y-97350000D03*
X127280000Y-97350000D03*
X126810000Y-97350000D03*
X126340000Y-97350000D03*
X125870000Y-97350000D03*
X125870000Y-97350000D03*
X125400000Y-97350000D03*
X124930000Y-97350000D03*
X124930000Y-96880000D03*
X125400000Y-96880000D03*
X125870000Y-96880000D03*
X125870000Y-96880000D03*
X126340000Y-96880000D03*
X126810000Y-96880000D03*
X127280000Y-96880000D03*
X127750000Y-96880000D03*
X123520000Y-97350000D03*
X123520000Y-96880000D03*
X123050000Y-97350000D03*
X122580000Y-97350000D03*
X122110000Y-97350000D03*
X121640000Y-97350000D03*
X121640000Y-96880000D03*
X122110000Y-96880000D03*
X122580000Y-96880000D03*
X123050000Y-96880000D03*
X121170000Y-97350000D03*
X120700000Y-97350000D03*
X121170000Y-96880000D03*
X120700000Y-96880000D03*
X120230000Y-97350000D03*
X119760000Y-97350000D03*
X120230000Y-96880000D03*
X119760000Y-96880000D03*
X119290000Y-97350000D03*
X118820000Y-97350000D03*
X118350000Y-97350000D03*
X117880000Y-97350000D03*
X117410000Y-97350000D03*
X116940000Y-97350000D03*
X116470000Y-97350000D03*
X116000000Y-97350000D03*
X116000000Y-96880000D03*
X116470000Y-96880000D03*
X116940000Y-96880000D03*
X117410000Y-96880000D03*
X117880000Y-96880000D03*
X118350000Y-96880000D03*
X118820000Y-96880000D03*
X119290000Y-96880000D03*
X115530000Y-97350000D03*
X115060000Y-97350000D03*
X114590000Y-97350000D03*
X114120000Y-97350000D03*
X113650000Y-97350000D03*
X113180000Y-97350000D03*
X113180000Y-96880000D03*
X113650000Y-96880000D03*
X114120000Y-96880000D03*
X114590000Y-96880000D03*
X115060000Y-96880000D03*
X115530000Y-96880000D03*
X112240000Y-95940000D03*
X126810000Y-98960000D03*
X127280000Y-99430000D03*
X127750000Y-99900000D03*
X128220000Y-100370000D03*
X128690000Y-100370000D03*
X129160000Y-100370000D03*
X129630000Y-100370000D03*
X129630000Y-100840000D03*
X129160000Y-100840000D03*
X128690000Y-100840000D03*
X128220000Y-100840000D03*
X127750000Y-100370000D03*
X127280000Y-99900000D03*
X126810000Y-99430000D03*
X126340000Y-98960000D03*
X126340000Y-99430000D03*
X124930000Y-98960000D03*
X124930000Y-99430000D03*
X125400000Y-99430000D03*
X125400000Y-98960000D03*
X125870000Y-98960000D03*
X125870000Y-99430000D03*
X123520000Y-98960000D03*
X123050000Y-98960000D03*
X122580000Y-98960000D03*
X122110000Y-98960000D03*
X121640000Y-98960000D03*
X121170000Y-98960000D03*
X120700000Y-98960000D03*
X120230000Y-98960000D03*
X119760000Y-98960000D03*
X119290000Y-98960000D03*
X118820000Y-99060000D03*
X118350000Y-99060000D03*
X117880000Y-99060000D03*
X117410000Y-99060000D03*
X116940000Y-99060000D03*
X116470000Y-98960000D03*
X116000000Y-98960000D03*
X113180000Y-98960000D03*
X113650000Y-98960000D03*
X114120000Y-98960000D03*
X114590000Y-98960000D03*
X115060000Y-98960000D03*
X115530000Y-98960000D03*
X113180000Y-99430000D03*
X113650000Y-99430000D03*
X114120000Y-99430000D03*
X114590000Y-99430000D03*
X115060000Y-99430000D03*
X115530000Y-99430000D03*
X116000000Y-99430000D03*
X116470000Y-99430000D03*
X116940000Y-99530000D03*
X117410000Y-99530000D03*
X117880000Y-99530000D03*
X118350000Y-99530000D03*
X118820000Y-99530000D03*
X119290000Y-99430000D03*
X120230000Y-99430000D03*
X119760000Y-99430000D03*
X120700000Y-99430000D03*
X121170000Y-99430000D03*
X121640000Y-99430000D03*
X122110000Y-99430000D03*
X122580000Y-99430000D03*
X123050000Y-99430000D03*
X123520000Y-99430000D03*
D36*
X129735000Y-94215000D03*
X121159897Y-104357741D03*
X102235000Y-111215000D03*
X131102500Y-86347500D03*
X97235000Y-93215000D03*
X124735000Y-112715000D03*
D38*
X128485000Y-102965000D03*
X129485000Y-103965000D03*
X130485000Y-102965000D03*
X131772500Y-102177500D03*
X135665000Y-95105000D03*
X136645000Y-96025000D03*
X136685000Y-97045000D03*
D36*
X111565000Y-104635000D03*
X103275000Y-99985000D03*
X104565000Y-94375000D03*
X110690000Y-95975001D03*
D37*
X139060000Y-116550000D03*
X139060000Y-117020000D03*
X139060000Y-117490000D03*
X139060000Y-117960000D03*
X139060000Y-118430000D03*
X139060000Y-118900000D03*
X139060000Y-119370000D03*
X139060000Y-119840000D03*
X139060000Y-120310000D03*
X139060000Y-120780000D03*
X139060000Y-121250000D03*
X138590000Y-121250000D03*
X138590000Y-120780000D03*
X138590000Y-120310000D03*
X138590000Y-119840000D03*
X138590000Y-119370000D03*
X138590000Y-118900000D03*
X138590000Y-118430000D03*
X138590000Y-117960000D03*
X138590000Y-117490000D03*
X138590000Y-117020000D03*
X138590000Y-116550000D03*
X139060000Y-116080000D03*
X142400000Y-116080000D03*
X142400000Y-116550000D03*
X142870000Y-116550000D03*
X142400000Y-121250000D03*
X142400000Y-120780000D03*
X142400000Y-120310000D03*
X142400000Y-119840000D03*
X142400000Y-119370000D03*
X142400000Y-118900000D03*
X142400000Y-118430000D03*
X142400000Y-117960000D03*
X142400000Y-117490000D03*
X142400000Y-117020000D03*
X142870000Y-117020000D03*
X142870000Y-117490000D03*
X142870000Y-117960000D03*
X142870000Y-118430000D03*
X142870000Y-118900000D03*
X142870000Y-119370000D03*
X142870000Y-120310000D03*
X142870000Y-119840000D03*
X142870000Y-121250000D03*
X142870000Y-120780000D03*
X139260000Y-98270000D03*
X139730000Y-97800000D03*
X140200000Y-97800000D03*
X141610000Y-97800000D03*
X142080000Y-98270000D03*
X142520000Y-98740000D03*
X138790000Y-101675001D03*
X139040000Y-102175001D03*
X142510000Y-102180001D03*
D36*
X114560000Y-100230001D03*
D38*
X112287800Y-96516040D03*
X112623080Y-96907200D03*
X112602760Y-99538640D03*
D36*
%TO.N,+6V*%
X96393000Y-86999500D03*
X130720000Y-110145000D03*
%TD*%
D39*
%TO.N,+3V3*%
X95067500Y-96747500D02*
X95530000Y-97210000D01*
D40*
X107065000Y-90055000D02*
X107065000Y-90055000D01*
X106997500Y-90122500D02*
X107065000Y-90055000D01*
X106392500Y-91287500D02*
X106997500Y-91892500D01*
X104525000Y-91287500D02*
X106392500Y-91287500D01*
X106997500Y-91892500D02*
X106997500Y-90122500D01*
X106997500Y-92595000D02*
X106997500Y-91892500D01*
X108585000Y-96545000D02*
X108585000Y-95972866D01*
X107585000Y-96545000D02*
X107585000Y-95933866D01*
D41*
X116270000Y-85672500D02*
X115620000Y-85672500D01*
X117132500Y-84810000D02*
X116270000Y-85672500D01*
X117132500Y-83975000D02*
X117132500Y-84810000D01*
D42*
X106321000Y-108205000D02*
X107137500Y-108205000D01*
D43*
X106045000Y-108205000D02*
X107137500Y-108205000D01*
X105795000Y-108455000D02*
X106045000Y-108205000D01*
X107395000Y-90055000D02*
X109235000Y-88215000D01*
X107065000Y-90055000D02*
X107395000Y-90055000D01*
X109235000Y-88215000D02*
X114735000Y-88215000D01*
X114735000Y-88215000D02*
X115235000Y-87715000D01*
D44*
X115620000Y-87330000D02*
X115235000Y-87715000D01*
X115620000Y-85672500D02*
X115620000Y-87330000D01*
D43*
X114735000Y-88215000D02*
X116235000Y-86715000D01*
X95002490Y-95632060D02*
X95002490Y-95135000D01*
X95530000Y-96159570D02*
X95002490Y-95632060D01*
X95530000Y-97210000D02*
X95530000Y-96159570D01*
X95002490Y-95632060D02*
X95002490Y-93865000D01*
X102583499Y-91294001D02*
X102620000Y-91257500D01*
X97143523Y-91294001D02*
X102583499Y-91294001D01*
X95002491Y-93435033D02*
X97143523Y-91294001D01*
X95002491Y-96682491D02*
X95002491Y-93435033D01*
X95530000Y-97210000D02*
X95002491Y-96682491D01*
X104495000Y-91257500D02*
X104525000Y-91287500D01*
X102620000Y-91257500D02*
X104495000Y-91257500D01*
X106252070Y-91287500D02*
X107062510Y-92097940D01*
X107062510Y-92097940D02*
X107062510Y-92595000D01*
X104525000Y-91287500D02*
X106252070Y-91287500D01*
X107065000Y-90055000D02*
X107065000Y-92592510D01*
D40*
X104140000Y-98695000D02*
X103890000Y-98945000D01*
X105935000Y-98695000D02*
X104140000Y-98695000D01*
D39*
X111794990Y-100442490D02*
X111967500Y-100615000D01*
X111271822Y-98695000D02*
X111794990Y-99218168D01*
X111794990Y-99218168D02*
X111794990Y-100442490D01*
X110735000Y-98695000D02*
X111271822Y-98695000D01*
D40*
X111967500Y-100128914D02*
X111967500Y-100615000D01*
X111533586Y-99695000D02*
X111967500Y-100128914D01*
X110735000Y-99695000D02*
X111533586Y-99695000D01*
X111967500Y-100925000D02*
X112460000Y-101417500D01*
X111967500Y-100615000D02*
X111967500Y-100925000D01*
X113170000Y-101417500D02*
X113367500Y-101615000D01*
X112460000Y-101417500D02*
X113170000Y-101417500D01*
X115474990Y-102275010D02*
X115535000Y-102215000D01*
X114027510Y-102275010D02*
X115474990Y-102275010D01*
X113367500Y-101615000D02*
X114027510Y-102275010D01*
D43*
X107065000Y-92592510D02*
X107062510Y-92595000D01*
X107292700Y-92820210D02*
X107292700Y-94316400D01*
X107065000Y-92592510D02*
X107292700Y-92820210D01*
X107310248Y-94876370D02*
X107310248Y-95217653D01*
X107292700Y-94858822D02*
X107310248Y-94876370D01*
X107292700Y-94316400D02*
X107292700Y-94858822D01*
D39*
X107585000Y-95642480D02*
X107295240Y-95352720D01*
X107585000Y-95933866D02*
X107585000Y-95642480D01*
X108085000Y-95651122D02*
X107292700Y-94858822D01*
X108085000Y-96545000D02*
X108085000Y-95651122D01*
X108585000Y-95972866D02*
X108585000Y-95312600D01*
X108131222Y-94858822D02*
X107292700Y-94858822D01*
X108585000Y-95312600D02*
X108131222Y-94858822D01*
X108085000Y-96545000D02*
X107585000Y-96545000D01*
X108085000Y-96545000D02*
X108585000Y-96545000D01*
D40*
%TO.N,+9V*%
X109085000Y-102235000D02*
X109605000Y-102755000D01*
X109085000Y-101345000D02*
X109085000Y-102235000D01*
D41*
X104745000Y-114160000D02*
X105475000Y-114160000D01*
X108272500Y-114417500D02*
X108272500Y-113820000D01*
X108310000Y-114455000D02*
X108272500Y-114417500D01*
D43*
X108945000Y-113820000D02*
X108272500Y-113820000D01*
X109672500Y-113092500D02*
X108945000Y-113820000D01*
D42*
X108310000Y-110830000D02*
X109672500Y-109467500D01*
X108310000Y-111347500D02*
X108310000Y-110830000D01*
D43*
X109672500Y-109467500D02*
X109672500Y-113092500D01*
X109672500Y-108012500D02*
X109672500Y-109467500D01*
X109672500Y-108438740D02*
X109672500Y-106517500D01*
X108656240Y-109455000D02*
X109672500Y-108438740D01*
X108242500Y-109455000D02*
X108656240Y-109455000D01*
X109672500Y-106517500D02*
X109672500Y-108012500D01*
X108272500Y-114455780D02*
X110180120Y-116363400D01*
X108272500Y-113820000D02*
X108272500Y-114455780D01*
X108272500Y-113820000D02*
X108272500Y-114198740D01*
X105015010Y-114430010D02*
X104745000Y-114430010D01*
X105425010Y-114840010D02*
X105015010Y-114430010D01*
X107631230Y-114840010D02*
X105425010Y-114840010D01*
X108272500Y-114198740D02*
X107631230Y-114840010D01*
D42*
X109605000Y-103990010D02*
X109639990Y-104025000D01*
X109605000Y-102755000D02*
X109605000Y-103990010D01*
X109639990Y-104413139D02*
X109639990Y-104025000D01*
X109672500Y-104445649D02*
X109639990Y-104413139D01*
X109672500Y-106517500D02*
X109672500Y-104445649D01*
D41*
%TO.N,Net-(C14-Pad2)*%
X100445000Y-110347500D02*
X100850000Y-109942500D01*
X100445000Y-112210000D02*
X100445000Y-110347500D01*
X99125000Y-114160000D02*
X100445000Y-114160000D01*
X98785000Y-112550000D02*
X98785000Y-113820000D01*
X98785000Y-113820000D02*
X99125000Y-114160000D01*
X99125000Y-112210000D02*
X98785000Y-112550000D01*
X100445000Y-112210000D02*
X99125000Y-112210000D01*
D42*
X98375000Y-109942500D02*
X103230000Y-109942500D01*
X98137500Y-109705000D02*
X98375000Y-109942500D01*
D39*
%TO.N,CPout*%
X133485000Y-97425000D02*
X133485000Y-98265799D01*
D40*
X122862891Y-103253785D02*
X122899337Y-103290231D01*
X120881571Y-103253785D02*
X122862891Y-103253785D01*
X122899337Y-103290231D02*
X123039769Y-103290231D01*
X123399770Y-103290231D02*
X124010000Y-102680001D01*
X122899337Y-103290231D02*
X123399770Y-103290231D01*
X133485000Y-95730001D02*
X133235000Y-95480001D01*
X133485000Y-97425000D02*
X133485000Y-95730001D01*
D43*
%TO.N,+12V*%
X101960000Y-116995000D02*
X100550000Y-116995000D01*
X96942500Y-113897500D02*
X96880000Y-113960000D01*
X99915000Y-116995000D02*
X101960000Y-116995000D01*
X96880000Y-113960000D02*
X99915000Y-116995000D01*
X96880000Y-113960000D02*
X96880000Y-109810000D01*
D40*
%TO.N,0*%
X110085000Y-96545000D02*
X110085000Y-97195000D01*
X106585000Y-101345000D02*
X106585000Y-100695000D01*
X102620000Y-88395000D02*
X102865000Y-88150000D01*
X102620000Y-90122500D02*
X102620000Y-88395000D01*
X109585000Y-101345000D02*
X110085000Y-101345000D01*
X105397500Y-102082500D02*
X103890000Y-102082500D01*
X106135000Y-101345000D02*
X105397500Y-102082500D01*
X106585000Y-101345000D02*
X106135000Y-101345000D01*
X103890000Y-102082500D02*
X104172500Y-102082500D01*
X106585000Y-96545000D02*
X107085000Y-96545000D01*
X107085000Y-96545000D02*
X107085000Y-97695000D01*
D41*
X110740000Y-102000000D02*
X110740000Y-102755000D01*
D39*
X136847239Y-99215000D02*
X136847239Y-99215000D01*
D40*
X106585000Y-96545000D02*
X106585000Y-95694500D01*
X105935000Y-99695000D02*
X107585000Y-99695000D01*
X105935000Y-100695000D02*
X106585000Y-100695000D01*
X105935000Y-99195000D02*
X108085000Y-99195000D01*
X104172500Y-102082500D02*
X105560000Y-100695000D01*
X105560000Y-100695000D02*
X105935000Y-100695000D01*
X110735000Y-100195000D02*
X109585000Y-100195000D01*
X110735000Y-97195000D02*
X110085000Y-97195000D01*
D39*
X108335000Y-98509998D02*
X108335000Y-98945000D01*
D40*
X107585000Y-99695000D02*
X108335000Y-98945000D01*
X108585000Y-99195000D02*
X108335000Y-98945000D01*
X108335000Y-98545000D02*
X108335000Y-98945000D01*
X107085000Y-97695000D02*
X108335000Y-98945000D01*
X108085000Y-99195000D02*
X108335000Y-98945000D01*
X106585000Y-100695000D02*
X108335000Y-98945000D01*
X110735000Y-99195000D02*
X108585000Y-99195000D01*
D43*
X97139501Y-108025001D02*
X97319500Y-108025001D01*
X96905000Y-107790500D02*
X97139501Y-108025001D01*
X96905000Y-105930000D02*
X96905000Y-107790500D01*
D44*
X103742000Y-108807500D02*
X104521000Y-109586500D01*
X103230000Y-108807500D02*
X103742000Y-108807500D01*
D41*
X101960000Y-108807500D02*
X101657000Y-108807500D01*
D42*
X100867490Y-108807500D02*
X100832500Y-108842490D01*
X101960000Y-108807500D02*
X100867490Y-108807500D01*
D39*
X134836002Y-100465000D02*
X135697500Y-100465000D01*
X134485000Y-100113998D02*
X134836002Y-100465000D01*
X134485000Y-102177500D02*
X134485000Y-100113998D01*
X134160501Y-99789499D02*
X134036002Y-99665000D01*
X134485000Y-99465000D02*
X134160501Y-99789499D01*
D40*
X108335000Y-98495000D02*
X108335000Y-98945000D01*
X106585000Y-96745000D02*
X108335000Y-98495000D01*
X106585000Y-96520000D02*
X106585000Y-96745000D01*
X110085000Y-97225002D02*
X110085000Y-96545000D01*
X108365002Y-98945000D02*
X110085000Y-97225002D01*
X108335000Y-98945000D02*
X108365002Y-98945000D01*
X110715000Y-102000000D02*
X110085000Y-101370000D01*
X110740000Y-102000000D02*
X110715000Y-102000000D01*
X110085000Y-101145000D02*
X108335000Y-99395000D01*
X108335000Y-99395000D02*
X108335000Y-98945000D01*
X110085000Y-101370000D02*
X110085000Y-101145000D01*
X109585000Y-100195000D02*
X108335000Y-98945000D01*
X109585000Y-101345000D02*
X109585000Y-100195000D01*
D39*
X139520000Y-99460001D02*
X140230001Y-99460001D01*
X140230001Y-99460001D02*
X140730000Y-99960000D01*
X140230001Y-98750000D02*
X140230001Y-99460001D01*
X141229999Y-98750000D02*
X141229999Y-99460001D01*
X140730000Y-98750000D02*
X140730000Y-99960000D01*
X141229999Y-99460001D02*
X140730000Y-99960000D01*
X141940000Y-99460001D02*
X141229999Y-99460001D01*
X141940000Y-100459999D02*
X141229999Y-100459999D01*
X141229999Y-100459999D02*
X140730000Y-99960000D01*
X141229999Y-101170000D02*
X141229999Y-100459999D01*
X140230001Y-100459999D02*
X140730000Y-99960000D01*
X140230001Y-101170000D02*
X140230001Y-100459999D01*
X140230001Y-98750000D02*
X140230001Y-98300001D01*
X140230001Y-98300001D02*
X140200000Y-98270000D01*
X140730000Y-98750000D02*
X140730000Y-97860000D01*
X141229999Y-98750000D02*
X141229999Y-97889999D01*
X139520000Y-100459999D02*
X140230001Y-100459999D01*
X135746596Y-100514096D02*
X135697500Y-100465000D01*
X140005001Y-99547599D02*
X140005001Y-100372401D01*
X139868304Y-99410902D02*
X140005001Y-99547599D01*
X140005001Y-100372401D02*
X139863306Y-100514096D01*
X136208012Y-99415010D02*
X136212120Y-99410902D01*
X136044990Y-99415010D02*
X136208012Y-99415010D01*
X135995000Y-99465000D02*
X136044990Y-99415010D01*
X135697500Y-99465000D02*
X135995000Y-99465000D01*
X141940000Y-99460001D02*
X141989090Y-99410911D01*
X141989090Y-99410911D02*
X142309999Y-99410911D01*
X142309999Y-99410911D02*
X143320000Y-99410911D01*
X141940000Y-100459999D02*
X141989091Y-100509090D01*
X141989091Y-100509090D02*
X142309999Y-100509090D01*
X142309999Y-100509090D02*
X143320000Y-100509090D01*
X139863306Y-100514096D02*
X135746596Y-100514096D01*
X136212120Y-99410902D02*
X139868304Y-99410902D01*
X140230001Y-101275401D02*
X140180902Y-101324500D01*
X140230001Y-101170000D02*
X140230001Y-101275401D01*
X140180902Y-101324500D02*
X140180902Y-101518321D01*
X140180902Y-101518321D02*
X140180902Y-102114200D01*
X141229999Y-101469222D02*
X141279098Y-101518321D01*
X141229999Y-101170000D02*
X141229999Y-101469222D01*
X141279098Y-101518321D02*
X141279098Y-102063400D01*
D41*
X136348440Y-115870420D02*
X135529060Y-115051040D01*
X136348440Y-115870420D02*
X137119100Y-115099760D01*
X145108440Y-115870420D02*
X144375880Y-115137860D01*
X145108440Y-115870420D02*
X145831300Y-115147560D01*
D39*
X131772500Y-98965000D02*
X132485000Y-98965000D01*
X132485000Y-98965000D02*
X133735000Y-100215000D01*
X132485000Y-98252500D02*
X132485000Y-98965000D01*
X132985000Y-99465000D02*
X133735000Y-100215000D01*
X132985000Y-98252500D02*
X132985000Y-99465000D01*
X133985000Y-99965000D02*
X133735000Y-100215000D01*
X133985000Y-98252500D02*
X133985000Y-99965000D01*
X134985000Y-98252500D02*
X134985000Y-98965000D01*
X134985000Y-98965000D02*
X133735000Y-100215000D01*
X135697500Y-98965000D02*
X134985000Y-98965000D01*
X134485000Y-99465000D02*
X133735000Y-100215000D01*
X135697500Y-99465000D02*
X134485000Y-99465000D01*
X133985000Y-100465000D02*
X133735000Y-100215000D01*
X135697500Y-100465000D02*
X133985000Y-100465000D01*
X135697500Y-101465000D02*
X134985000Y-101465000D01*
X134485000Y-100965000D02*
X133735000Y-100215000D01*
X135697500Y-100965000D02*
X134485000Y-100965000D01*
X134985000Y-101465000D02*
X133735000Y-100215000D01*
X134985000Y-102177500D02*
X134985000Y-101465000D01*
X133485000Y-100465000D02*
X133735000Y-100215000D01*
X133485000Y-102177500D02*
X133485000Y-100465000D01*
X132985000Y-102177500D02*
X132985000Y-100965000D01*
X132485000Y-102177500D02*
X132485000Y-101465000D01*
X132485000Y-101465000D02*
X133735000Y-100215000D01*
X131772500Y-101465000D02*
X132485000Y-101465000D01*
X132985000Y-100965000D02*
X133735000Y-100215000D01*
X131772500Y-100965000D02*
X132985000Y-100965000D01*
X132485000Y-102177500D02*
X132485000Y-103950000D01*
X135697500Y-101465000D02*
X137970000Y-101465000D01*
X137169999Y-100965000D02*
X137380000Y-101175001D01*
X135697500Y-100965000D02*
X137169999Y-100965000D01*
X137145000Y-98965000D02*
X137370000Y-98740000D01*
X135697500Y-98965000D02*
X137145000Y-98965000D01*
X132985000Y-98252500D02*
X132985000Y-97450000D01*
X132485000Y-98252500D02*
X132485000Y-96950000D01*
X131772500Y-98965000D02*
X131757129Y-98949629D01*
X131772500Y-98965000D02*
X131215000Y-98965000D01*
X134985000Y-102177500D02*
X135110010Y-102302510D01*
X135110010Y-103057510D02*
X135302500Y-103250000D01*
X132985000Y-102177500D02*
X132859990Y-102302510D01*
X132859990Y-103057510D02*
X132667500Y-103250000D01*
X131037500Y-101465000D02*
X130585000Y-101917500D01*
X131772500Y-101465000D02*
X131037500Y-101465000D01*
X131772500Y-100965000D02*
X131305010Y-100965000D01*
X132485000Y-103950000D02*
X132485000Y-103950000D01*
X131295000Y-98840000D02*
X131185371Y-98949629D01*
X131647500Y-98840000D02*
X131295000Y-98840000D01*
X131772500Y-98965000D02*
X131647500Y-98840000D01*
X131185371Y-98949629D02*
X128885000Y-98949629D01*
X131311978Y-99965000D02*
X131226978Y-100050000D01*
X131772500Y-99965000D02*
X131311978Y-99965000D01*
X131226978Y-100050000D02*
X129985000Y-100050000D01*
X135110010Y-102302510D02*
X135110010Y-103057510D01*
X132859990Y-102302510D02*
X132859990Y-103057510D01*
X133485000Y-102177500D02*
X132985000Y-102177500D01*
X134485000Y-102177500D02*
X134985000Y-102177500D01*
D43*
X104500000Y-118197081D02*
X104500000Y-116995000D01*
X103937081Y-118760000D02*
X104500000Y-118197081D01*
X96880000Y-118760000D02*
X103937081Y-118760000D01*
X102595000Y-113866388D02*
X102595000Y-113185000D01*
X103544990Y-114816378D02*
X102595000Y-113866388D01*
X103544990Y-116039990D02*
X103544990Y-114816378D01*
X104500000Y-116995000D02*
X103544990Y-116039990D01*
X102595000Y-113153612D02*
X104431112Y-111317500D01*
X104431112Y-111317500D02*
X107040000Y-111317500D01*
X102595000Y-113153612D02*
X102595000Y-113185000D01*
X104521000Y-111227612D02*
X102595000Y-113153612D01*
X104521000Y-109586500D02*
X104521000Y-111227612D01*
X107040000Y-109457490D02*
X107042490Y-109455000D01*
X107040000Y-111317500D02*
X107040000Y-109457490D01*
D42*
X101960000Y-108807500D02*
X103230000Y-108807500D01*
D40*
X103570000Y-112210000D02*
X102595000Y-113185000D01*
X104745000Y-112210000D02*
X103570000Y-112210000D01*
D43*
X98280000Y-104555000D02*
X98280000Y-99410000D01*
X96905000Y-105930000D02*
X98280000Y-104555000D01*
X102865000Y-87538802D02*
X102865000Y-88150000D01*
X104978200Y-85425602D02*
X102865000Y-87538802D01*
X104978200Y-85005600D02*
X104978200Y-85425602D01*
X101171000Y-89844000D02*
X102865000Y-88150000D01*
X98615500Y-89844000D02*
X101171000Y-89844000D01*
D40*
X96855001Y-99260001D02*
X96855001Y-95787501D01*
X97005000Y-99410000D02*
X96855001Y-99260001D01*
X96855001Y-95787501D02*
X96202500Y-95135000D01*
X98280000Y-99410000D02*
X97005000Y-99410000D01*
X96202500Y-95135000D02*
X96202500Y-93865000D01*
D44*
X131237500Y-93814624D02*
X131237500Y-94135000D01*
X135187500Y-90620000D02*
X134210000Y-90620000D01*
D42*
X131102500Y-87785000D02*
X131102500Y-89055000D01*
X131470000Y-89055000D02*
X132834990Y-90419990D01*
X131102500Y-89055000D02*
X131470000Y-89055000D01*
X104585100Y-95443960D02*
X105970540Y-95443960D01*
X128062500Y-111280000D02*
X129265000Y-111280000D01*
X127995000Y-111212500D02*
X128062500Y-111280000D01*
X118131795Y-106938317D02*
X117225000Y-106938317D01*
X122405978Y-111212500D02*
X118131795Y-106938317D01*
X127995000Y-111212500D02*
X122405978Y-111212500D01*
D44*
X120292559Y-109099081D02*
X118131795Y-106938317D01*
X125228419Y-109099081D02*
X120292559Y-109099081D01*
X125882500Y-108445000D02*
X125228419Y-109099081D01*
D43*
X116783332Y-106938317D02*
X117225000Y-106938317D01*
X114894168Y-105049153D02*
X116783332Y-106938317D01*
X114894168Y-104398317D02*
X114894168Y-105049153D01*
X122831847Y-104357741D02*
X122899337Y-104425231D01*
X121159897Y-104357741D02*
X122831847Y-104357741D01*
X118579321Y-106938317D02*
X121159897Y-104357741D01*
X117225000Y-106938317D02*
X118579321Y-106938317D01*
D40*
X104003736Y-99695000D02*
X103819368Y-99879368D01*
X105935000Y-99695000D02*
X104003736Y-99695000D01*
X104750002Y-99195000D02*
X104230002Y-99715000D01*
X105935000Y-99195000D02*
X104750002Y-99195000D01*
D43*
X98280000Y-104310000D02*
X100715000Y-101875000D01*
X98280000Y-104555000D02*
X98280000Y-104310000D01*
D42*
X103394482Y-101895010D02*
X102919990Y-101420518D01*
X102919990Y-101420518D02*
X102919990Y-100354482D01*
X100735010Y-101895010D02*
X103394482Y-101895010D01*
X100715000Y-101875000D02*
X100735010Y-101895010D01*
X102919990Y-100354482D02*
X103271604Y-100002868D01*
X110740000Y-103957500D02*
X110807500Y-104025000D01*
X110740000Y-102755000D02*
X110740000Y-103957500D01*
X124122269Y-104425231D02*
X124185000Y-104362500D01*
X122899337Y-104425231D02*
X124122269Y-104425231D01*
D39*
X134985000Y-97747500D02*
X135682500Y-97050000D01*
X134985000Y-98252500D02*
X134985000Y-97747500D01*
D42*
X135682500Y-96080000D02*
X135652500Y-96050000D01*
X135682500Y-97050000D02*
X135682500Y-96080000D01*
D40*
X110085000Y-96545000D02*
X110085000Y-95662274D01*
D43*
X131092490Y-94215000D02*
X131172490Y-94135000D01*
X129735000Y-94215000D02*
X131092490Y-94215000D01*
X121159897Y-104357741D02*
X121159897Y-104357741D01*
D40*
X110405000Y-96545000D02*
X110735000Y-96215000D01*
X110085000Y-96545000D02*
X110405000Y-96545000D01*
X110735000Y-96215000D02*
X110735000Y-94715000D01*
X110735000Y-97195000D02*
X110735000Y-96215000D01*
D43*
X102595000Y-113185000D02*
X102595000Y-111575000D01*
X102595000Y-111575000D02*
X102235000Y-111215000D01*
X102235000Y-111215000D02*
X102235000Y-111215000D01*
X105735000Y-84715000D02*
X113735000Y-84715000D01*
X104978200Y-85005600D02*
X104978200Y-84971800D01*
D44*
X114320000Y-85672500D02*
X114320000Y-84800000D01*
X114235000Y-84715000D02*
X113735000Y-84715000D01*
X114320000Y-84800000D02*
X114235000Y-84715000D01*
X132667500Y-90620000D02*
X131102500Y-89055000D01*
D41*
X131237500Y-93842908D02*
X132235000Y-92845408D01*
X131237500Y-94135000D02*
X131237500Y-93842908D01*
X132235000Y-91215000D02*
X132830000Y-90620000D01*
X132235000Y-92845408D02*
X132235000Y-91215000D01*
D44*
X132830000Y-90620000D02*
X132667500Y-90620000D01*
X135187500Y-90620000D02*
X132830000Y-90620000D01*
D42*
X131102500Y-87785000D02*
X131102500Y-86347500D01*
X131102500Y-86347500D02*
X131102500Y-86347500D01*
D43*
X96202500Y-93932094D02*
X96236047Y-93898547D01*
X96202500Y-95135000D02*
X96202500Y-93932094D01*
X96202500Y-95135000D02*
X96202500Y-94247500D01*
X96202500Y-94247500D02*
X97235000Y-93215000D01*
X97235000Y-93215000D02*
X97235000Y-93215000D01*
X118131795Y-106938317D02*
X123908478Y-112715000D01*
X123908478Y-112715000D02*
X124735000Y-112715000D01*
X124735000Y-112715000D02*
X124735000Y-112715000D01*
D39*
X131772500Y-101465000D02*
X131772500Y-102177500D01*
X132485000Y-102177500D02*
X131772500Y-102177500D01*
X131772500Y-102177500D02*
X131772500Y-102177500D01*
X131772500Y-100965000D02*
X131772500Y-101465000D01*
X135697500Y-98965000D02*
X135697500Y-98322500D01*
D43*
X110807500Y-104025000D02*
X110955000Y-104025000D01*
X110955000Y-104025000D02*
X111565000Y-104635000D01*
X111565000Y-104635000D02*
X111565000Y-104635000D01*
D40*
X103819368Y-99879368D02*
X103483736Y-100215000D01*
D43*
X110435001Y-94564999D02*
X110435001Y-95914999D01*
X104565000Y-95416766D02*
X104588647Y-95440413D01*
X104565000Y-94375000D02*
X104565000Y-95416766D01*
D39*
X132485000Y-98252500D02*
X132357500Y-98125000D01*
X133485000Y-99965000D02*
X133735000Y-100215000D01*
X131772500Y-99965000D02*
X133485000Y-99965000D01*
D43*
X110435001Y-95914999D02*
X110435001Y-95955000D01*
D39*
X105935000Y-101145000D02*
X106135000Y-101345000D01*
X105935000Y-100695000D02*
X105935000Y-101145000D01*
D41*
X114502500Y-101615000D02*
X114502500Y-100847500D01*
D43*
X111485000Y-91527500D02*
X112755000Y-91527500D01*
X113690011Y-93999990D02*
X112077915Y-93999990D01*
X113695226Y-93994775D02*
X113690011Y-93999990D01*
X113695226Y-93932500D02*
X113695226Y-93994775D01*
X113010000Y-91782500D02*
X112755000Y-91527500D01*
X113010000Y-92680001D02*
X113010000Y-91782500D01*
D40*
X106585000Y-95694500D02*
X106050900Y-95160400D01*
D42*
X105862500Y-95054980D02*
X106160240Y-95352720D01*
D41*
%TO.N,+5VD*%
X125882500Y-106495000D02*
X125882500Y-103867500D01*
X125882500Y-107145000D02*
X125882500Y-106495000D01*
X124427500Y-107145000D02*
X124185000Y-106902500D01*
X125882500Y-107145000D02*
X124427500Y-107145000D01*
X124185000Y-106902500D02*
X124185000Y-105497500D01*
X125882500Y-103867500D02*
X127360000Y-102390000D01*
X127152500Y-102597500D02*
X127360000Y-102390000D01*
D40*
X121871140Y-106902500D02*
X121574560Y-107199080D01*
X124185000Y-106902500D02*
X121871140Y-106902500D01*
D41*
X127867500Y-101882500D02*
X129485000Y-101882500D01*
X127360000Y-102390000D02*
X127867500Y-101882500D01*
X130539310Y-100782500D02*
X130585000Y-100782500D01*
X129485000Y-101882500D02*
X129485000Y-101836810D01*
D39*
X130867490Y-100500010D02*
X130585000Y-100782500D01*
X131689990Y-100500010D02*
X130867490Y-100500010D01*
X131725000Y-100465000D02*
X131689990Y-100500010D01*
X131772500Y-100465000D02*
X131725000Y-100465000D01*
D40*
X129538306Y-101882500D02*
X130585000Y-100835806D01*
X130585000Y-100835806D02*
X130585000Y-100782500D01*
X129485000Y-101882500D02*
X129538306Y-101882500D01*
D39*
%TO.N,Net-(D1-Pad2)*%
X100715000Y-98982500D02*
X101387500Y-98310000D01*
X100715000Y-99825000D02*
X100715000Y-98982500D01*
%TO.N,DIV16*%
X110760000Y-98195000D02*
X110777602Y-98212602D01*
X110735000Y-98195000D02*
X110760000Y-98195000D01*
X110954796Y-98195000D02*
X110735000Y-98195000D01*
X110972398Y-98212602D02*
X110954796Y-98195000D01*
X112167398Y-98195000D02*
X112185000Y-98212602D01*
X110735000Y-98195000D02*
X112167398Y-98195000D01*
D45*
X112185000Y-98212602D02*
X111565965Y-98212602D01*
X117030879Y-98212602D02*
X117039200Y-98220923D01*
X112185000Y-98212602D02*
X117030879Y-98212602D01*
X112320000Y-97727500D02*
X112320000Y-98692500D01*
D39*
%TO.N,+5VA*%
X134485001Y-96467499D02*
X134547500Y-96405000D01*
X134485001Y-98265799D02*
X134485001Y-96467499D01*
D42*
X134547500Y-94610000D02*
X134437500Y-94500000D01*
X134547500Y-96405000D02*
X134547500Y-94610000D01*
D43*
X134072500Y-94135000D02*
X132372500Y-94135000D01*
X134437500Y-94500000D02*
X134072500Y-94135000D01*
X134704990Y-92170010D02*
X134786420Y-92170010D01*
X132740000Y-94135000D02*
X134704990Y-92170010D01*
X132372500Y-94135000D02*
X132740000Y-94135000D01*
X137520000Y-91260000D02*
X137520000Y-90892500D01*
X136589990Y-92190010D02*
X137520000Y-91260000D01*
X134724990Y-92190010D02*
X136589990Y-92190010D01*
X134704990Y-92170010D02*
X134724990Y-92190010D01*
X134724990Y-92190010D02*
X134163622Y-92190010D01*
X139237500Y-90892500D02*
X140370000Y-89760000D01*
X137520000Y-90892500D02*
X139237500Y-90892500D01*
D42*
X134547500Y-97050000D02*
X134547500Y-96405000D01*
D41*
%TO.N,+6V*%
X130107500Y-108445000D02*
X128335000Y-108445000D01*
X128335000Y-108445000D02*
X127995000Y-108105000D01*
X130107500Y-106495000D02*
X128335000Y-106495000D01*
X128335000Y-106495000D02*
X127995000Y-106835000D01*
X114320000Y-89985000D02*
X114349990Y-90014990D01*
X114320000Y-89897500D02*
X114320000Y-89985000D01*
X112822500Y-90392500D02*
X112755000Y-90392500D01*
X129967500Y-89625000D02*
X129967500Y-89055000D01*
X130962500Y-90620000D02*
X129967500Y-89625000D01*
X130845010Y-90649990D02*
X129575010Y-90649990D01*
X130875000Y-90620000D02*
X130845010Y-90649990D01*
X130962500Y-90620000D02*
X130875000Y-90620000D01*
X129575010Y-90649990D02*
X129265000Y-90960000D01*
X129265000Y-90960000D02*
X129265000Y-92230000D01*
X129605000Y-92570000D02*
X130962500Y-92570000D01*
X129265000Y-92230000D02*
X129605000Y-92570000D01*
X116270000Y-89897500D02*
X116270000Y-88715000D01*
D43*
X122539990Y-82964990D02*
X125714990Y-82964990D01*
X114869990Y-82964990D02*
X122539990Y-82964990D01*
X116565000Y-88420000D02*
X117084980Y-88420000D01*
X119364990Y-86139990D02*
X122539990Y-82964990D01*
X117835000Y-87669980D02*
X119364990Y-86139990D01*
D41*
X116270000Y-88715000D02*
X116565000Y-88420000D01*
D43*
X117084980Y-88420000D02*
X119364990Y-86139990D01*
D41*
X115930000Y-91595000D02*
X116270000Y-91255000D01*
X114660000Y-91595000D02*
X115930000Y-91595000D01*
X116270000Y-91255000D02*
X116270000Y-89897500D01*
X114320000Y-91255000D02*
X114660000Y-91595000D01*
X114320000Y-89897500D02*
X114320000Y-91255000D01*
X111485000Y-90392500D02*
X112755000Y-90392500D01*
X113825000Y-90392500D02*
X114320000Y-89897500D01*
X112755000Y-90392500D02*
X113825000Y-90392500D01*
D43*
X114869990Y-82964990D02*
X104240010Y-82964990D01*
X102438200Y-84766800D02*
X104240010Y-82964990D01*
X102438200Y-85005600D02*
X102438200Y-84766800D01*
X99276200Y-85285000D02*
X99542600Y-85018600D01*
X102425200Y-85018600D02*
X102438200Y-85005600D01*
X98653900Y-85005600D02*
X98615500Y-85044000D01*
X102438200Y-85005600D02*
X98653900Y-85005600D01*
X98348500Y-85044000D02*
X96393000Y-86999500D01*
X98615500Y-85044000D02*
X98348500Y-85044000D01*
D42*
X129967500Y-87357500D02*
X129967500Y-89055000D01*
X125714990Y-83104990D02*
X129967500Y-87357500D01*
X125714990Y-82964990D02*
X125714990Y-83104990D01*
D43*
X130720000Y-110145000D02*
X130720000Y-110145000D01*
D42*
X129197500Y-110077500D02*
X129265000Y-110145000D01*
X127995000Y-110077500D02*
X129197500Y-110077500D01*
X129265000Y-110145000D02*
X130720000Y-110145000D01*
D44*
X127995000Y-107535000D02*
X127995000Y-110077500D01*
D41*
X127995000Y-108105000D02*
X127995000Y-107535000D01*
X127995000Y-107535000D02*
X127995000Y-106835000D01*
D39*
%TO.N,Net-(C4-Pad2)*%
X110735000Y-97695000D02*
X111307026Y-97695000D01*
X111307026Y-97695000D02*
X111510000Y-97492026D01*
D40*
X112212500Y-95067500D02*
X113695226Y-95067500D01*
X112150498Y-95067500D02*
X112212500Y-95067500D01*
X111510000Y-95707998D02*
X112150498Y-95067500D01*
X111510000Y-97492026D02*
X111510000Y-95707998D01*
D39*
%TO.N,Net-(J5-Pad1)*%
X140740000Y-101180000D02*
X140730000Y-101170000D01*
D45*
X140730000Y-119090000D02*
X140730000Y-101745764D01*
D39*
X140730000Y-101470000D02*
X140730000Y-101170000D01*
X140730000Y-101745764D02*
X140730000Y-101470000D01*
%TO.N,Net-(C3-Pad2)*%
X103217500Y-96935000D02*
X103322500Y-97040000D01*
D40*
X103279000Y-96996500D02*
X103322500Y-97040000D01*
X103201500Y-97161000D02*
X103322500Y-97040000D01*
X102070500Y-97161000D02*
X103201500Y-97161000D01*
D39*
%TO.N,Net-(C3-Pad1)*%
X104562500Y-96935000D02*
X104457500Y-97040000D01*
D40*
X104457500Y-96511360D02*
X103390100Y-95443960D01*
X104457500Y-97040000D02*
X104457500Y-96511360D01*
X104612500Y-97195000D02*
X104457500Y-97040000D01*
X105910000Y-97195000D02*
X104612500Y-97195000D01*
D39*
%TO.N,Net-(C11-Pad2)*%
X114864168Y-103263317D02*
X114894168Y-103233317D01*
X114865851Y-103235000D02*
X114894168Y-103263317D01*
X119666103Y-103233317D02*
X119686571Y-103253785D01*
X114767485Y-103390000D02*
X114894168Y-103263317D01*
D40*
X117195000Y-103263317D02*
X117225000Y-103233317D01*
X114894168Y-103263317D02*
X117195000Y-103263317D01*
X117245468Y-103253785D02*
X117225000Y-103233317D01*
X119686571Y-103253785D02*
X117245468Y-103253785D01*
X112033317Y-101993317D02*
X112033317Y-102008317D01*
X113288317Y-103263317D02*
X114894168Y-103263317D01*
X112033317Y-102008317D02*
X113288317Y-103263317D01*
X112033317Y-101968317D02*
X110760000Y-100695000D01*
X112033317Y-102008317D02*
X112033317Y-101968317D01*
%TO.N,Net-(C12-Pad2)*%
X117225000Y-105803317D02*
X117225000Y-104428317D01*
D41*
%TO.N,Net-(C16-Pad1)*%
X106767500Y-113510000D02*
X107077500Y-113820000D01*
X104745000Y-113510000D02*
X106767500Y-113510000D01*
X106042500Y-113510000D02*
X107040000Y-112512500D01*
X104745000Y-113510000D02*
X106042500Y-113510000D01*
D42*
X108280000Y-112512500D02*
X108310000Y-112482500D01*
X107040000Y-112512500D02*
X108280000Y-112512500D01*
D41*
%TO.N,Net-(C24-Pad1)*%
X115769592Y-83975000D02*
X115997500Y-83975000D01*
X114970000Y-84774592D02*
X115769592Y-83975000D01*
X114970000Y-85672500D02*
X114970000Y-84774592D01*
%TO.N,Net-(C25-Pad1)*%
X136115398Y-91240010D02*
X136420010Y-90935398D01*
X135319990Y-91240010D02*
X136115398Y-91240010D01*
X135290000Y-91270000D02*
X135319990Y-91240010D01*
X135187500Y-91270000D02*
X135290000Y-91270000D01*
X136967112Y-89757500D02*
X137520000Y-89757500D01*
X136420010Y-90304602D02*
X136967112Y-89757500D01*
X136420010Y-90935398D02*
X136420010Y-90304602D01*
%TO.N,Net-(C26-Pad1)*%
X124427500Y-107795000D02*
X124185000Y-108037500D01*
X125882500Y-107795000D02*
X124427500Y-107795000D01*
D39*
%TO.N,Net-(C32-Pad2)*%
X131772500Y-99465000D02*
X131670000Y-99465000D01*
X131670000Y-99465000D02*
X130485000Y-99465000D01*
D45*
X128657557Y-99498727D02*
X130972186Y-99498727D01*
X127379753Y-98220923D02*
X128657557Y-99498727D01*
X118174200Y-98220923D02*
X127379753Y-98220923D01*
D40*
%TO.N,Net-(D4-Pad2)*%
X104525000Y-90092500D02*
X104525000Y-90055000D01*
X104525000Y-88540000D02*
X104915000Y-88150000D01*
X104525000Y-90092500D02*
X104525000Y-88540000D01*
%TO.N,Net-(J1-Pad5)*%
X108585000Y-101345000D02*
X108585000Y-103140000D01*
X108585008Y-104409992D02*
X107065000Y-105930000D01*
X108585008Y-103140008D02*
X108585008Y-104409992D01*
X108585000Y-103140000D02*
X108585008Y-103140008D01*
X107658500Y-106523500D02*
X107065000Y-105930000D01*
X108332500Y-107197500D02*
X107065000Y-105930000D01*
X108332500Y-108205000D02*
X108332500Y-107197500D01*
%TO.N,Net-(J1-Pad4)*%
X106430000Y-104025000D02*
X104525000Y-105930000D01*
X107700000Y-104025000D02*
X106430000Y-104025000D01*
X108085000Y-103640000D02*
X107700000Y-104025000D01*
X108085000Y-101345000D02*
X108085000Y-103640000D01*
D44*
X104521000Y-105934000D02*
X104525000Y-105930000D01*
X104521000Y-108391500D02*
X104521000Y-105934000D01*
D40*
%TO.N,Net-(J1-Pad3)*%
X107585000Y-101345000D02*
X107585000Y-102870000D01*
X107585000Y-102870000D02*
X107065000Y-103390000D01*
X104525000Y-103390000D02*
X101985000Y-105930000D01*
X107065000Y-103390000D02*
X104525000Y-103390000D01*
X99942000Y-107973000D02*
X101985000Y-105930000D01*
X99637500Y-108277500D02*
X99942000Y-107973000D01*
X99637500Y-108955000D02*
X99637500Y-108277500D01*
%TO.N,Net-(J1-Pad2)*%
X107085000Y-101345000D02*
X107085000Y-102100000D01*
X102584990Y-102790010D02*
X99445000Y-105930000D01*
X106394990Y-102790010D02*
X102584990Y-102790010D01*
X107085000Y-102100000D02*
X106394990Y-102790010D01*
X98514500Y-106860500D02*
X99445000Y-105930000D01*
X98514500Y-107973000D02*
X98514500Y-106860500D01*
D45*
%TO.N,Net-(J4-Pad1)*%
X145320000Y-99960000D02*
X142570000Y-99960000D01*
D39*
X141940000Y-99960000D02*
X142570000Y-99960000D01*
D40*
%TO.N,Net-(R2-Pad1)*%
X98329000Y-97161000D02*
X98280000Y-97210000D01*
X100826500Y-97210000D02*
X100875500Y-97161000D01*
X98280000Y-97210000D02*
X100826500Y-97210000D01*
X100875500Y-94074300D02*
X100736400Y-93935200D01*
X100875500Y-97161000D02*
X100875500Y-94074300D01*
D39*
%TO.N,Net-(R7-Pad1)*%
X105915000Y-100215000D02*
X105935000Y-100195000D01*
D40*
X103890000Y-100887500D02*
X104582500Y-100195000D01*
X104582500Y-100195000D02*
X105935000Y-100195000D01*
D39*
%TO.N,Net-(R8-Pad2)*%
X103197500Y-97695000D02*
X105935000Y-97695000D01*
X102582500Y-98310000D02*
X103197500Y-97695000D01*
%TO.N,Net-(R16-Pad1)*%
X133985000Y-103050000D02*
X133785000Y-103250000D01*
X133985000Y-102177500D02*
X133985000Y-103050000D01*
D45*
X133785000Y-103250000D02*
X134467500Y-103250000D01*
X133502500Y-103250000D02*
X133785000Y-103250000D01*
X133985000Y-103085000D02*
X133985000Y-102778156D01*
X134150000Y-103250000D02*
X133985000Y-103085000D01*
X134467500Y-103250000D02*
X134150000Y-103250000D01*
D39*
%TO.N,Net-(U6-Pad16)*%
X137095020Y-99965000D02*
X137100020Y-99960000D01*
X135697500Y-99965000D02*
X137095020Y-99965000D01*
D45*
X136303156Y-99960000D02*
X136298156Y-99965000D01*
X139030000Y-99960000D02*
X136303156Y-99960000D01*
D39*
X137100020Y-99960000D02*
X139030000Y-99960000D01*
X139030000Y-99960000D02*
X139520000Y-99960000D01*
%TD*%
D46*
%TO.N,0*%
X140178912Y-116441838D02*
X139583440Y-116441838D01*
X139519337Y-116448152D01*
X139457697Y-116466850D01*
X139400890Y-116497214D01*
X139351097Y-116538077D01*
X139310234Y-116587870D01*
X139279870Y-116644677D01*
X139261172Y-116706317D01*
X139254858Y-116770420D01*
X139254858Y-121333000D01*
X138195807Y-121333000D01*
X138193440Y-119596170D01*
X138034690Y-119437420D01*
X136475440Y-119437420D01*
X136475440Y-119457420D01*
X136221440Y-119457420D01*
X136221440Y-119437420D01*
X136201440Y-119437420D01*
X136201440Y-119183420D01*
X136221440Y-119183420D01*
X136221440Y-119163420D01*
X136475440Y-119163420D01*
X136475440Y-119183420D01*
X138034690Y-119183420D01*
X138193440Y-119024670D01*
X138196512Y-116770420D01*
X138184252Y-116645938D01*
X138147942Y-116526240D01*
X138088977Y-116415926D01*
X138009625Y-116319235D01*
X137912934Y-116239883D01*
X137802620Y-116180918D01*
X137682922Y-116144608D01*
X137558440Y-116132348D01*
X137437426Y-116132750D01*
X137465421Y-116007975D01*
X137470795Y-115787419D01*
X137433036Y-115570053D01*
X137353598Y-115364231D01*
X137327756Y-115315886D01*
X137115856Y-115282609D01*
X137015135Y-115383330D01*
X136943488Y-115322089D01*
X136834377Y-115260927D01*
X136792087Y-115247168D01*
X136936251Y-115103004D01*
X136902974Y-114891104D01*
X136701264Y-114801737D01*
X136485995Y-114753439D01*
X136265439Y-114748065D01*
X136048073Y-114785824D01*
X135842251Y-114865262D01*
X135793906Y-114891104D01*
X135760629Y-115103004D01*
X135904793Y-115247168D01*
X135862503Y-115260927D01*
X135753392Y-115322089D01*
X135681745Y-115383330D01*
X135581024Y-115282609D01*
X135447000Y-115303656D01*
X135447000Y-105342000D01*
X140178913Y-105342000D01*
X140178912Y-116441838D01*
%TA.AperFunction,Conductor*%
D47*
G36*
X140178912Y-116441838D02*
G01*
X139583440Y-116441838D01*
X139519337Y-116448152D01*
X139457697Y-116466850D01*
X139400890Y-116497214D01*
X139351097Y-116538077D01*
X139310234Y-116587870D01*
X139279870Y-116644677D01*
X139261172Y-116706317D01*
X139254858Y-116770420D01*
X139254858Y-121333000D01*
X138195807Y-121333000D01*
X138193440Y-119596170D01*
X138034690Y-119437420D01*
X136475440Y-119437420D01*
X136475440Y-119457420D01*
X136221440Y-119457420D01*
X136221440Y-119437420D01*
X136201440Y-119437420D01*
X136201440Y-119183420D01*
X136221440Y-119183420D01*
X136221440Y-119163420D01*
X136475440Y-119163420D01*
X136475440Y-119183420D01*
X138034690Y-119183420D01*
X138193440Y-119024670D01*
X138196512Y-116770420D01*
X138184252Y-116645938D01*
X138147942Y-116526240D01*
X138088977Y-116415926D01*
X138009625Y-116319235D01*
X137912934Y-116239883D01*
X137802620Y-116180918D01*
X137682922Y-116144608D01*
X137558440Y-116132348D01*
X137437426Y-116132750D01*
X137465421Y-116007975D01*
X137470795Y-115787419D01*
X137433036Y-115570053D01*
X137353598Y-115364231D01*
X137327756Y-115315886D01*
X137115856Y-115282609D01*
X137015135Y-115383330D01*
X136943488Y-115322089D01*
X136834377Y-115260927D01*
X136792087Y-115247168D01*
X136936251Y-115103004D01*
X136902974Y-114891104D01*
X136701264Y-114801737D01*
X136485995Y-114753439D01*
X136265439Y-114748065D01*
X136048073Y-114785824D01*
X135842251Y-114865262D01*
X135793906Y-114891104D01*
X135760629Y-115103004D01*
X135904793Y-115247168D01*
X135862503Y-115260927D01*
X135753392Y-115322089D01*
X135681745Y-115383330D01*
X135581024Y-115282609D01*
X135447000Y-115303656D01*
X135447000Y-105342000D01*
X140178913Y-105342000D01*
X140178912Y-116441838D01*
G37*
%TD.AperFunction*%
D46*
X145943000Y-115293153D02*
X145875856Y-115282609D01*
X145775135Y-115383330D01*
X145703488Y-115322089D01*
X145594377Y-115260927D01*
X145552087Y-115247168D01*
X145696251Y-115103004D01*
X145662974Y-114891104D01*
X145461264Y-114801737D01*
X145245995Y-114753439D01*
X145025439Y-114748065D01*
X144808073Y-114785824D01*
X144602251Y-114865262D01*
X144553906Y-114891104D01*
X144520629Y-115103004D01*
X144664793Y-115247168D01*
X144622503Y-115260927D01*
X144513392Y-115322089D01*
X144441745Y-115383330D01*
X144341024Y-115282609D01*
X144129124Y-115315886D01*
X144039757Y-115517596D01*
X143991459Y-115732865D01*
X143986085Y-115953421D01*
X144017235Y-116132743D01*
X143898440Y-116132348D01*
X143773958Y-116144608D01*
X143654260Y-116180918D01*
X143543946Y-116239883D01*
X143447255Y-116319235D01*
X143367903Y-116415926D01*
X143308938Y-116526240D01*
X143272628Y-116645938D01*
X143260368Y-116770420D01*
X143263440Y-119024670D01*
X143422190Y-119183420D01*
X144981440Y-119183420D01*
X144981440Y-119163420D01*
X145235440Y-119163420D01*
X145235440Y-119183420D01*
X145255440Y-119183420D01*
X145255440Y-119437420D01*
X145235440Y-119437420D01*
X145235440Y-119457420D01*
X144981440Y-119457420D01*
X144981440Y-119437420D01*
X143422190Y-119437420D01*
X143263440Y-119596170D01*
X143261073Y-121333000D01*
X142202022Y-121333000D01*
X142202022Y-116770420D01*
X142195708Y-116706317D01*
X142177010Y-116644677D01*
X142146646Y-116587870D01*
X142105783Y-116538077D01*
X142055990Y-116497214D01*
X141999183Y-116466850D01*
X141937543Y-116448152D01*
X141873440Y-116441838D01*
X141281088Y-116441838D01*
X141281088Y-105342000D01*
X145943000Y-105342000D01*
X145943000Y-115293153D01*
%TA.AperFunction,Conductor*%
D47*
G36*
X145943000Y-115293153D02*
G01*
X145875856Y-115282609D01*
X145775135Y-115383330D01*
X145703488Y-115322089D01*
X145594377Y-115260927D01*
X145552087Y-115247168D01*
X145696251Y-115103004D01*
X145662974Y-114891104D01*
X145461264Y-114801737D01*
X145245995Y-114753439D01*
X145025439Y-114748065D01*
X144808073Y-114785824D01*
X144602251Y-114865262D01*
X144553906Y-114891104D01*
X144520629Y-115103004D01*
X144664793Y-115247168D01*
X144622503Y-115260927D01*
X144513392Y-115322089D01*
X144441745Y-115383330D01*
X144341024Y-115282609D01*
X144129124Y-115315886D01*
X144039757Y-115517596D01*
X143991459Y-115732865D01*
X143986085Y-115953421D01*
X144017235Y-116132743D01*
X143898440Y-116132348D01*
X143773958Y-116144608D01*
X143654260Y-116180918D01*
X143543946Y-116239883D01*
X143447255Y-116319235D01*
X143367903Y-116415926D01*
X143308938Y-116526240D01*
X143272628Y-116645938D01*
X143260368Y-116770420D01*
X143263440Y-119024670D01*
X143422190Y-119183420D01*
X144981440Y-119183420D01*
X144981440Y-119163420D01*
X145235440Y-119163420D01*
X145235440Y-119183420D01*
X145255440Y-119183420D01*
X145255440Y-119437420D01*
X145235440Y-119437420D01*
X145235440Y-119457420D01*
X144981440Y-119457420D01*
X144981440Y-119437420D01*
X143422190Y-119437420D01*
X143263440Y-119596170D01*
X143261073Y-121333000D01*
X142202022Y-121333000D01*
X142202022Y-116770420D01*
X142195708Y-116706317D01*
X142177010Y-116644677D01*
X142146646Y-116587870D01*
X142105783Y-116538077D01*
X142055990Y-116497214D01*
X141999183Y-116466850D01*
X141937543Y-116448152D01*
X141873440Y-116441838D01*
X141281088Y-116441838D01*
X141281088Y-105342000D01*
X145943000Y-105342000D01*
X145943000Y-115293153D01*
G37*
%TD.AperFunction*%
%TD*%
D46*
%TO.N,0*%
X142608000Y-105588000D02*
X141281088Y-105588000D01*
X141281088Y-101965000D01*
X141362002Y-101965000D01*
X141362002Y-101907852D01*
X141419150Y-101965000D01*
X141532607Y-101951330D01*
X141651033Y-101911063D01*
X141759327Y-101848466D01*
X141853328Y-101765944D01*
X141929424Y-101666670D01*
X141984690Y-101554457D01*
X142017002Y-101433619D01*
X142022400Y-101361750D01*
X141871125Y-101210475D01*
X141931185Y-101161185D01*
X141980475Y-101101125D01*
X142131750Y-101252400D01*
X142203619Y-101247002D01*
X142324457Y-101214690D01*
X142436670Y-101159424D01*
X142535944Y-101083328D01*
X142608000Y-101001249D01*
X142608000Y-105588000D01*
%TA.AperFunction,Conductor*%
D47*
G36*
X142608000Y-105588000D02*
G01*
X141281088Y-105588000D01*
X141281088Y-101965000D01*
X141362002Y-101965000D01*
X141362002Y-101907852D01*
X141419150Y-101965000D01*
X141532607Y-101951330D01*
X141651033Y-101911063D01*
X141759327Y-101848466D01*
X141853328Y-101765944D01*
X141929424Y-101666670D01*
X141984690Y-101554457D01*
X142017002Y-101433619D01*
X142022400Y-101361750D01*
X141871125Y-101210475D01*
X141931185Y-101161185D01*
X141980475Y-101101125D01*
X142131750Y-101252400D01*
X142203619Y-101247002D01*
X142324457Y-101214690D01*
X142436670Y-101159424D01*
X142535944Y-101083328D01*
X142608000Y-101001249D01*
X142608000Y-105588000D01*
G37*
%TD.AperFunction*%
D46*
X138725000Y-100592002D02*
X138782148Y-100592002D01*
X138725000Y-100649150D01*
X138738670Y-100762607D01*
X138778937Y-100881033D01*
X138841534Y-100989327D01*
X138924056Y-101083328D01*
X139023330Y-101159424D01*
X139135543Y-101214690D01*
X139256381Y-101247002D01*
X139328250Y-101252400D01*
X139479525Y-101101125D01*
X139528815Y-101161185D01*
X139588875Y-101210475D01*
X139437600Y-101361750D01*
X139442998Y-101433619D01*
X139475310Y-101554457D01*
X139530576Y-101666670D01*
X139606672Y-101765944D01*
X139700673Y-101848466D01*
X139808967Y-101911063D01*
X139927393Y-101951330D01*
X140040850Y-101965000D01*
X140097998Y-101907852D01*
X140097998Y-101965000D01*
X140178913Y-101965000D01*
X140178913Y-105588000D01*
X128302968Y-105588000D01*
X126956010Y-103567564D01*
X127138574Y-103385000D01*
X128536928Y-103385000D01*
X128549188Y-103509482D01*
X128585498Y-103629180D01*
X128644463Y-103739494D01*
X128723815Y-103836185D01*
X128820506Y-103915537D01*
X128930820Y-103974502D01*
X129050518Y-104010812D01*
X129175000Y-104023072D01*
X129199250Y-104020000D01*
X129358000Y-103861250D01*
X129358000Y-103144500D01*
X129612000Y-103144500D01*
X129612000Y-103861250D01*
X129770750Y-104020000D01*
X129795000Y-104023072D01*
X129919482Y-104010812D01*
X130039180Y-103974502D01*
X130149494Y-103915537D01*
X130246185Y-103836185D01*
X130325537Y-103739494D01*
X130384502Y-103629180D01*
X130420812Y-103509482D01*
X130423543Y-103481750D01*
X131715000Y-103481750D01*
X131727495Y-103590083D01*
X131766785Y-103708836D01*
X131828488Y-103817642D01*
X131910232Y-103912320D01*
X132008876Y-103989231D01*
X132120630Y-104045420D01*
X132241198Y-104078727D01*
X132365947Y-104087873D01*
X132381750Y-104085000D01*
X132540500Y-103926250D01*
X132540500Y-103323000D01*
X131873750Y-103323000D01*
X131715000Y-103481750D01*
X130423543Y-103481750D01*
X130433072Y-103385000D01*
X130430000Y-103303250D01*
X130271250Y-103144500D01*
X129612000Y-103144500D01*
X129358000Y-103144500D01*
X128698750Y-103144500D01*
X128540000Y-103303250D01*
X128536928Y-103385000D01*
X127138574Y-103385000D01*
X127765784Y-102757790D01*
X128094075Y-102429500D01*
X128578315Y-102429500D01*
X128549188Y-102525518D01*
X128536928Y-102650000D01*
X128540000Y-102731750D01*
X128698750Y-102890500D01*
X129358000Y-102890500D01*
X129358000Y-102870500D01*
X129612000Y-102870500D01*
X129612000Y-102890500D01*
X130083558Y-102890500D01*
X130150518Y-102910812D01*
X130275000Y-102923072D01*
X130299250Y-102920000D01*
X130458000Y-102761250D01*
X130458000Y-102044500D01*
X130438000Y-102044500D01*
X130438000Y-101790500D01*
X130458000Y-101790500D01*
X130458000Y-101770500D01*
X130712000Y-101770500D01*
X130712000Y-101790500D01*
X130732000Y-101790500D01*
X130732000Y-102044500D01*
X130712000Y-102044500D01*
X130712000Y-102761250D01*
X130870750Y-102920000D01*
X130895000Y-102923072D01*
X131019482Y-102910812D01*
X131139180Y-102874502D01*
X131249494Y-102815537D01*
X131346185Y-102736185D01*
X131425537Y-102639494D01*
X131484502Y-102529180D01*
X131520812Y-102409482D01*
X131533072Y-102285000D01*
X131530000Y-102203250D01*
X131519250Y-102192500D01*
X131645500Y-102066250D01*
X131645500Y-101725000D01*
X131726215Y-101725000D01*
X131722098Y-101779746D01*
X131725000Y-101891750D01*
X131883750Y-102050500D01*
X131899500Y-102050500D01*
X131899500Y-102066250D01*
X132058250Y-102225000D01*
X132170254Y-102227902D01*
X132225000Y-102223785D01*
X132225000Y-102304500D01*
X131883750Y-102304500D01*
X131725000Y-102463250D01*
X131722098Y-102575254D01*
X131731479Y-102699986D01*
X131761390Y-102807471D01*
X131727495Y-102909917D01*
X131715000Y-103018250D01*
X131873750Y-103177000D01*
X132112296Y-103177000D01*
X132221089Y-103212768D01*
X132326250Y-103225000D01*
X132374250Y-103177000D01*
X132540500Y-103177000D01*
X132540500Y-103138830D01*
X132579728Y-103160978D01*
X132643750Y-103225000D01*
X132735000Y-103214386D01*
X132814500Y-103223633D01*
X132814500Y-103323000D01*
X132794500Y-103323000D01*
X132794500Y-103926250D01*
X132953250Y-104085000D01*
X132969053Y-104087873D01*
X133093802Y-104078727D01*
X133214370Y-104045420D01*
X133326124Y-103989231D01*
X133424768Y-103912320D01*
X133506512Y-103817642D01*
X133515900Y-103801088D01*
X134122940Y-103801088D01*
X134149999Y-103803753D01*
X134177058Y-103801088D01*
X134454100Y-103801088D01*
X134463488Y-103817642D01*
X134545232Y-103912320D01*
X134643876Y-103989231D01*
X134755630Y-104045420D01*
X134876198Y-104078727D01*
X135000947Y-104087873D01*
X135016750Y-104085000D01*
X135175500Y-103926250D01*
X135175500Y-103323000D01*
X135429500Y-103323000D01*
X135429500Y-103926250D01*
X135588250Y-104085000D01*
X135604053Y-104087873D01*
X135728802Y-104078727D01*
X135849370Y-104045420D01*
X135961124Y-103989231D01*
X136059768Y-103912320D01*
X136141512Y-103817642D01*
X136203215Y-103708836D01*
X136242505Y-103590083D01*
X136255000Y-103481750D01*
X136096250Y-103323000D01*
X135429500Y-103323000D01*
X135175500Y-103323000D01*
X135155500Y-103323000D01*
X135155500Y-103223633D01*
X135248911Y-103212768D01*
X135367738Y-103173701D01*
X135429500Y-103138830D01*
X135429500Y-103177000D01*
X136096250Y-103177000D01*
X136255000Y-103018250D01*
X136242505Y-102909917D01*
X136203215Y-102791164D01*
X136141512Y-102682358D01*
X136059768Y-102587680D01*
X135961124Y-102510769D01*
X135849370Y-102454580D01*
X135728802Y-102421273D01*
X135700983Y-102419233D01*
X135586250Y-102304500D01*
X135245000Y-102304500D01*
X135245000Y-102223785D01*
X135299746Y-102227902D01*
X135411750Y-102225000D01*
X135570500Y-102066250D01*
X135570500Y-102050500D01*
X135586250Y-102050500D01*
X135745000Y-101891750D01*
X135747902Y-101779746D01*
X135743785Y-101725000D01*
X135824500Y-101725000D01*
X135824500Y-102066250D01*
X135983250Y-102225000D01*
X136095254Y-102227902D01*
X136219986Y-102218521D01*
X136340491Y-102184987D01*
X136452138Y-102128588D01*
X136550638Y-102051492D01*
X136632203Y-101956660D01*
X136693701Y-101847738D01*
X136732768Y-101728911D01*
X136745000Y-101623750D01*
X136607098Y-101485848D01*
X136632203Y-101456660D01*
X136680978Y-101370272D01*
X136745000Y-101306250D01*
X136734386Y-101215000D01*
X136745000Y-101123750D01*
X136680978Y-101059728D01*
X136632203Y-100973340D01*
X136625030Y-100965000D01*
X136632203Y-100956660D01*
X136680978Y-100870272D01*
X136745000Y-100806250D01*
X136734386Y-100715000D01*
X136745000Y-100623750D01*
X136713252Y-100592002D01*
X136745000Y-100592002D01*
X136745000Y-100511088D01*
X138725000Y-100511088D01*
X138725000Y-100592002D01*
%TA.AperFunction,Conductor*%
D47*
G36*
X138725000Y-100592002D02*
G01*
X138782148Y-100592002D01*
X138725000Y-100649150D01*
X138738670Y-100762607D01*
X138778937Y-100881033D01*
X138841534Y-100989327D01*
X138924056Y-101083328D01*
X139023330Y-101159424D01*
X139135543Y-101214690D01*
X139256381Y-101247002D01*
X139328250Y-101252400D01*
X139479525Y-101101125D01*
X139528815Y-101161185D01*
X139588875Y-101210475D01*
X139437600Y-101361750D01*
X139442998Y-101433619D01*
X139475310Y-101554457D01*
X139530576Y-101666670D01*
X139606672Y-101765944D01*
X139700673Y-101848466D01*
X139808967Y-101911063D01*
X139927393Y-101951330D01*
X140040850Y-101965000D01*
X140097998Y-101907852D01*
X140097998Y-101965000D01*
X140178913Y-101965000D01*
X140178913Y-105588000D01*
X128302968Y-105588000D01*
X126956010Y-103567564D01*
X127138574Y-103385000D01*
X128536928Y-103385000D01*
X128549188Y-103509482D01*
X128585498Y-103629180D01*
X128644463Y-103739494D01*
X128723815Y-103836185D01*
X128820506Y-103915537D01*
X128930820Y-103974502D01*
X129050518Y-104010812D01*
X129175000Y-104023072D01*
X129199250Y-104020000D01*
X129358000Y-103861250D01*
X129358000Y-103144500D01*
X129612000Y-103144500D01*
X129612000Y-103861250D01*
X129770750Y-104020000D01*
X129795000Y-104023072D01*
X129919482Y-104010812D01*
X130039180Y-103974502D01*
X130149494Y-103915537D01*
X130246185Y-103836185D01*
X130325537Y-103739494D01*
X130384502Y-103629180D01*
X130420812Y-103509482D01*
X130423543Y-103481750D01*
X131715000Y-103481750D01*
X131727495Y-103590083D01*
X131766785Y-103708836D01*
X131828488Y-103817642D01*
X131910232Y-103912320D01*
X132008876Y-103989231D01*
X132120630Y-104045420D01*
X132241198Y-104078727D01*
X132365947Y-104087873D01*
X132381750Y-104085000D01*
X132540500Y-103926250D01*
X132540500Y-103323000D01*
X131873750Y-103323000D01*
X131715000Y-103481750D01*
X130423543Y-103481750D01*
X130433072Y-103385000D01*
X130430000Y-103303250D01*
X130271250Y-103144500D01*
X129612000Y-103144500D01*
X129358000Y-103144500D01*
X128698750Y-103144500D01*
X128540000Y-103303250D01*
X128536928Y-103385000D01*
X127138574Y-103385000D01*
X127765784Y-102757790D01*
X128094075Y-102429500D01*
X128578315Y-102429500D01*
X128549188Y-102525518D01*
X128536928Y-102650000D01*
X128540000Y-102731750D01*
X128698750Y-102890500D01*
X129358000Y-102890500D01*
X129358000Y-102870500D01*
X129612000Y-102870500D01*
X129612000Y-102890500D01*
X130083558Y-102890500D01*
X130150518Y-102910812D01*
X130275000Y-102923072D01*
X130299250Y-102920000D01*
X130458000Y-102761250D01*
X130458000Y-102044500D01*
X130438000Y-102044500D01*
X130438000Y-101790500D01*
X130458000Y-101790500D01*
X130458000Y-101770500D01*
X130712000Y-101770500D01*
X130712000Y-101790500D01*
X130732000Y-101790500D01*
X130732000Y-102044500D01*
X130712000Y-102044500D01*
X130712000Y-102761250D01*
X130870750Y-102920000D01*
X130895000Y-102923072D01*
X131019482Y-102910812D01*
X131139180Y-102874502D01*
X131249494Y-102815537D01*
X131346185Y-102736185D01*
X131425537Y-102639494D01*
X131484502Y-102529180D01*
X131520812Y-102409482D01*
X131533072Y-102285000D01*
X131530000Y-102203250D01*
X131519250Y-102192500D01*
X131645500Y-102066250D01*
X131645500Y-101725000D01*
X131726215Y-101725000D01*
X131722098Y-101779746D01*
X131725000Y-101891750D01*
X131883750Y-102050500D01*
X131899500Y-102050500D01*
X131899500Y-102066250D01*
X132058250Y-102225000D01*
X132170254Y-102227902D01*
X132225000Y-102223785D01*
X132225000Y-102304500D01*
X131883750Y-102304500D01*
X131725000Y-102463250D01*
X131722098Y-102575254D01*
X131731479Y-102699986D01*
X131761390Y-102807471D01*
X131727495Y-102909917D01*
X131715000Y-103018250D01*
X131873750Y-103177000D01*
X132112296Y-103177000D01*
X132221089Y-103212768D01*
X132326250Y-103225000D01*
X132374250Y-103177000D01*
X132540500Y-103177000D01*
X132540500Y-103138830D01*
X132579728Y-103160978D01*
X132643750Y-103225000D01*
X132735000Y-103214386D01*
X132814500Y-103223633D01*
X132814500Y-103323000D01*
X132794500Y-103323000D01*
X132794500Y-103926250D01*
X132953250Y-104085000D01*
X132969053Y-104087873D01*
X133093802Y-104078727D01*
X133214370Y-104045420D01*
X133326124Y-103989231D01*
X133424768Y-103912320D01*
X133506512Y-103817642D01*
X133515900Y-103801088D01*
X134122940Y-103801088D01*
X134149999Y-103803753D01*
X134177058Y-103801088D01*
X134454100Y-103801088D01*
X134463488Y-103817642D01*
X134545232Y-103912320D01*
X134643876Y-103989231D01*
X134755630Y-104045420D01*
X134876198Y-104078727D01*
X135000947Y-104087873D01*
X135016750Y-104085000D01*
X135175500Y-103926250D01*
X135175500Y-103323000D01*
X135429500Y-103323000D01*
X135429500Y-103926250D01*
X135588250Y-104085000D01*
X135604053Y-104087873D01*
X135728802Y-104078727D01*
X135849370Y-104045420D01*
X135961124Y-103989231D01*
X136059768Y-103912320D01*
X136141512Y-103817642D01*
X136203215Y-103708836D01*
X136242505Y-103590083D01*
X136255000Y-103481750D01*
X136096250Y-103323000D01*
X135429500Y-103323000D01*
X135175500Y-103323000D01*
X135155500Y-103323000D01*
X135155500Y-103223633D01*
X135248911Y-103212768D01*
X135367738Y-103173701D01*
X135429500Y-103138830D01*
X135429500Y-103177000D01*
X136096250Y-103177000D01*
X136255000Y-103018250D01*
X136242505Y-102909917D01*
X136203215Y-102791164D01*
X136141512Y-102682358D01*
X136059768Y-102587680D01*
X135961124Y-102510769D01*
X135849370Y-102454580D01*
X135728802Y-102421273D01*
X135700983Y-102419233D01*
X135586250Y-102304500D01*
X135245000Y-102304500D01*
X135245000Y-102223785D01*
X135299746Y-102227902D01*
X135411750Y-102225000D01*
X135570500Y-102066250D01*
X135570500Y-102050500D01*
X135586250Y-102050500D01*
X135745000Y-101891750D01*
X135747902Y-101779746D01*
X135743785Y-101725000D01*
X135824500Y-101725000D01*
X135824500Y-102066250D01*
X135983250Y-102225000D01*
X136095254Y-102227902D01*
X136219986Y-102218521D01*
X136340491Y-102184987D01*
X136452138Y-102128588D01*
X136550638Y-102051492D01*
X136632203Y-101956660D01*
X136693701Y-101847738D01*
X136732768Y-101728911D01*
X136745000Y-101623750D01*
X136607098Y-101485848D01*
X136632203Y-101456660D01*
X136680978Y-101370272D01*
X136745000Y-101306250D01*
X136734386Y-101215000D01*
X136745000Y-101123750D01*
X136680978Y-101059728D01*
X136632203Y-100973340D01*
X136625030Y-100965000D01*
X136632203Y-100956660D01*
X136680978Y-100870272D01*
X136745000Y-100806250D01*
X136734386Y-100715000D01*
X136745000Y-100623750D01*
X136713252Y-100592002D01*
X136745000Y-100592002D01*
X136745000Y-100511088D01*
X138725000Y-100511088D01*
X138725000Y-100592002D01*
G37*
%TD.AperFunction*%
D46*
X112204110Y-102853689D02*
X111735324Y-103416232D01*
X111705537Y-103360506D01*
X111683755Y-103333964D01*
X111697002Y-103309180D01*
X111733312Y-103189482D01*
X111745572Y-103065000D01*
X111742500Y-103040750D01*
X111583750Y-102882000D01*
X110867000Y-102882000D01*
X110867000Y-103541250D01*
X110934500Y-103608750D01*
X110934500Y-103898000D01*
X110954500Y-103898000D01*
X110954500Y-104088000D01*
X110660500Y-104088000D01*
X110660500Y-103898000D01*
X110680500Y-103898000D01*
X110680500Y-103238750D01*
X110613000Y-103171250D01*
X110613000Y-102882000D01*
X110593000Y-102882000D01*
X110593000Y-102628000D01*
X110613000Y-102628000D01*
X110613000Y-102608000D01*
X110867000Y-102608000D01*
X110867000Y-102628000D01*
X111583750Y-102628000D01*
X111742500Y-102469250D01*
X111745572Y-102445000D01*
X111740126Y-102389705D01*
X112204110Y-102853689D01*
%TA.AperFunction,Conductor*%
D47*
G36*
X112204110Y-102853689D02*
G01*
X111735324Y-103416232D01*
X111705537Y-103360506D01*
X111683755Y-103333964D01*
X111697002Y-103309180D01*
X111733312Y-103189482D01*
X111745572Y-103065000D01*
X111742500Y-103040750D01*
X111583750Y-102882000D01*
X110867000Y-102882000D01*
X110867000Y-103541250D01*
X110934500Y-103608750D01*
X110934500Y-103898000D01*
X110954500Y-103898000D01*
X110954500Y-104088000D01*
X110660500Y-104088000D01*
X110660500Y-103898000D01*
X110680500Y-103898000D01*
X110680500Y-103238750D01*
X110613000Y-103171250D01*
X110613000Y-102882000D01*
X110593000Y-102882000D01*
X110593000Y-102628000D01*
X110613000Y-102628000D01*
X110613000Y-102608000D01*
X110867000Y-102608000D01*
X110867000Y-102628000D01*
X111583750Y-102628000D01*
X111742500Y-102469250D01*
X111745572Y-102445000D01*
X111740126Y-102389705D01*
X112204110Y-102853689D01*
G37*
%TD.AperFunction*%
D46*
X117642689Y-98716881D02*
X117723088Y-98741270D01*
X117806700Y-98749505D01*
X118018263Y-98749505D01*
X118066168Y-98764037D01*
X118147131Y-98772011D01*
X127151486Y-98772011D01*
X128248739Y-99869265D01*
X128265994Y-99890290D01*
X128287019Y-99907545D01*
X128290571Y-99910460D01*
X128349908Y-99959157D01*
X128445645Y-100010329D01*
X128518012Y-100032282D01*
X128549524Y-100041841D01*
X128559119Y-100042786D01*
X128630488Y-100049815D01*
X128630495Y-100049815D01*
X128657557Y-100052480D01*
X128684618Y-100049815D01*
X130725000Y-100049815D01*
X130725000Y-100070895D01*
X130717956Y-100073032D01*
X130693680Y-100080396D01*
X130682414Y-100086418D01*
X130430000Y-100086418D01*
X130335658Y-100095710D01*
X130244941Y-100123228D01*
X130161336Y-100167916D01*
X130088056Y-100228056D01*
X130027916Y-100301336D01*
X129983228Y-100384941D01*
X129955710Y-100475658D01*
X129946418Y-100570000D01*
X129946418Y-100799808D01*
X129559809Y-101186418D01*
X129330000Y-101186418D01*
X129235658Y-101195710D01*
X129144941Y-101223228D01*
X129061336Y-101267916D01*
X128988056Y-101328056D01*
X128981947Y-101335500D01*
X127894355Y-101335500D01*
X127867499Y-101332855D01*
X127840643Y-101335500D01*
X127840634Y-101335500D01*
X127760269Y-101343415D01*
X127657160Y-101374693D01*
X127657158Y-101374694D01*
X127562132Y-101425486D01*
X127499709Y-101476716D01*
X127499705Y-101476720D01*
X127478842Y-101493842D01*
X127461719Y-101514706D01*
X126992210Y-101984216D01*
X126337151Y-102639275D01*
X125340670Y-101144553D01*
X125324896Y-101125291D01*
X125305668Y-101109477D01*
X125283724Y-101097718D01*
X125259907Y-101090466D01*
X125235000Y-101088000D01*
X115467747Y-101088000D01*
X115459502Y-101060820D01*
X115400537Y-100950506D01*
X115321185Y-100853815D01*
X115224494Y-100774463D01*
X115114180Y-100715498D01*
X114994482Y-100679188D01*
X114870000Y-100666928D01*
X114788250Y-100670000D01*
X114629500Y-100828750D01*
X114629500Y-101088000D01*
X114375500Y-101088000D01*
X114375500Y-100828750D01*
X114216750Y-100670000D01*
X114135000Y-100666928D01*
X114010518Y-100679188D01*
X113890820Y-100715498D01*
X113841239Y-100742000D01*
X113229500Y-100742000D01*
X113229500Y-100762000D01*
X112975500Y-100762000D01*
X112975500Y-100742000D01*
X112955500Y-100742000D01*
X112955500Y-100488000D01*
X112975500Y-100488000D01*
X112975500Y-100290656D01*
X112982320Y-100284768D01*
X113059231Y-100186124D01*
X113115420Y-100074370D01*
X113148727Y-99953802D01*
X113157873Y-99829053D01*
X113157818Y-99828750D01*
X113229500Y-99828750D01*
X113229500Y-100488000D01*
X113946250Y-100488000D01*
X114105000Y-100329250D01*
X114108072Y-100305000D01*
X114095812Y-100180518D01*
X114059502Y-100060820D01*
X114000537Y-99950506D01*
X113921185Y-99853815D01*
X113824494Y-99774463D01*
X113714180Y-99715498D01*
X113594482Y-99679188D01*
X113470000Y-99666928D01*
X113388250Y-99670000D01*
X113229500Y-99828750D01*
X113157818Y-99828750D01*
X113155000Y-99813250D01*
X112996250Y-99654500D01*
X112393000Y-99654500D01*
X112393000Y-99674500D01*
X112247000Y-99674500D01*
X112247000Y-99654500D01*
X112246990Y-99654500D01*
X112246990Y-99400500D01*
X112247000Y-99400500D01*
X112247000Y-99380500D01*
X112393000Y-99380500D01*
X112393000Y-99400500D01*
X112996250Y-99400500D01*
X113155000Y-99241750D01*
X113157873Y-99225947D01*
X113148727Y-99101198D01*
X113115420Y-98980630D01*
X113059231Y-98868876D01*
X112982320Y-98770232D01*
X112974743Y-98763690D01*
X116930024Y-98763690D01*
X116931168Y-98764037D01*
X117039200Y-98774676D01*
X117147232Y-98764037D01*
X117195136Y-98749505D01*
X117406700Y-98749505D01*
X117490312Y-98741270D01*
X117570711Y-98716881D01*
X117606700Y-98697645D01*
X117642689Y-98716881D01*
%TA.AperFunction,Conductor*%
D47*
G36*
X117642689Y-98716881D02*
G01*
X117723088Y-98741270D01*
X117806700Y-98749505D01*
X118018263Y-98749505D01*
X118066168Y-98764037D01*
X118147131Y-98772011D01*
X127151486Y-98772011D01*
X128248739Y-99869265D01*
X128265994Y-99890290D01*
X128287019Y-99907545D01*
X128290571Y-99910460D01*
X128349908Y-99959157D01*
X128445645Y-100010329D01*
X128518012Y-100032282D01*
X128549524Y-100041841D01*
X128559119Y-100042786D01*
X128630488Y-100049815D01*
X128630495Y-100049815D01*
X128657557Y-100052480D01*
X128684618Y-100049815D01*
X130725000Y-100049815D01*
X130725000Y-100070895D01*
X130717956Y-100073032D01*
X130693680Y-100080396D01*
X130682414Y-100086418D01*
X130430000Y-100086418D01*
X130335658Y-100095710D01*
X130244941Y-100123228D01*
X130161336Y-100167916D01*
X130088056Y-100228056D01*
X130027916Y-100301336D01*
X129983228Y-100384941D01*
X129955710Y-100475658D01*
X129946418Y-100570000D01*
X129946418Y-100799808D01*
X129559809Y-101186418D01*
X129330000Y-101186418D01*
X129235658Y-101195710D01*
X129144941Y-101223228D01*
X129061336Y-101267916D01*
X128988056Y-101328056D01*
X128981947Y-101335500D01*
X127894355Y-101335500D01*
X127867499Y-101332855D01*
X127840643Y-101335500D01*
X127840634Y-101335500D01*
X127760269Y-101343415D01*
X127657160Y-101374693D01*
X127657158Y-101374694D01*
X127562132Y-101425486D01*
X127499709Y-101476716D01*
X127499705Y-101476720D01*
X127478842Y-101493842D01*
X127461719Y-101514706D01*
X126992210Y-101984216D01*
X126337151Y-102639275D01*
X125340670Y-101144553D01*
X125324896Y-101125291D01*
X125305668Y-101109477D01*
X125283724Y-101097718D01*
X125259907Y-101090466D01*
X125235000Y-101088000D01*
X115467747Y-101088000D01*
X115459502Y-101060820D01*
X115400537Y-100950506D01*
X115321185Y-100853815D01*
X115224494Y-100774463D01*
X115114180Y-100715498D01*
X114994482Y-100679188D01*
X114870000Y-100666928D01*
X114788250Y-100670000D01*
X114629500Y-100828750D01*
X114629500Y-101088000D01*
X114375500Y-101088000D01*
X114375500Y-100828750D01*
X114216750Y-100670000D01*
X114135000Y-100666928D01*
X114010518Y-100679188D01*
X113890820Y-100715498D01*
X113841239Y-100742000D01*
X113229500Y-100742000D01*
X113229500Y-100762000D01*
X112975500Y-100762000D01*
X112975500Y-100742000D01*
X112955500Y-100742000D01*
X112955500Y-100488000D01*
X112975500Y-100488000D01*
X112975500Y-100290656D01*
X112982320Y-100284768D01*
X113059231Y-100186124D01*
X113115420Y-100074370D01*
X113148727Y-99953802D01*
X113157873Y-99829053D01*
X113157818Y-99828750D01*
X113229500Y-99828750D01*
X113229500Y-100488000D01*
X113946250Y-100488000D01*
X114105000Y-100329250D01*
X114108072Y-100305000D01*
X114095812Y-100180518D01*
X114059502Y-100060820D01*
X114000537Y-99950506D01*
X113921185Y-99853815D01*
X113824494Y-99774463D01*
X113714180Y-99715498D01*
X113594482Y-99679188D01*
X113470000Y-99666928D01*
X113388250Y-99670000D01*
X113229500Y-99828750D01*
X113157818Y-99828750D01*
X113155000Y-99813250D01*
X112996250Y-99654500D01*
X112393000Y-99654500D01*
X112393000Y-99674500D01*
X112247000Y-99674500D01*
X112247000Y-99654500D01*
X112246990Y-99654500D01*
X112246990Y-99400500D01*
X112247000Y-99400500D01*
X112247000Y-99380500D01*
X112393000Y-99380500D01*
X112393000Y-99400500D01*
X112996250Y-99400500D01*
X113155000Y-99241750D01*
X113157873Y-99225947D01*
X113148727Y-99101198D01*
X113115420Y-98980630D01*
X113059231Y-98868876D01*
X112982320Y-98770232D01*
X112974743Y-98763690D01*
X116930024Y-98763690D01*
X116931168Y-98764037D01*
X117039200Y-98774676D01*
X117147232Y-98764037D01*
X117195136Y-98749505D01*
X117406700Y-98749505D01*
X117490312Y-98741270D01*
X117570711Y-98716881D01*
X117606700Y-98697645D01*
X117642689Y-98716881D01*
G37*
%TD.AperFunction*%
D46*
X105535000Y-100673582D02*
X105860668Y-100673582D01*
X105840241Y-100713920D01*
X105808000Y-100829337D01*
X105808000Y-100718000D01*
X105058750Y-100718000D01*
X104900000Y-100876750D01*
X104912095Y-100983294D01*
X104951044Y-101102160D01*
X105012434Y-101211143D01*
X105093906Y-101306055D01*
X105192328Y-101383249D01*
X105303920Y-101439759D01*
X105424392Y-101473412D01*
X105549114Y-101482916D01*
X105649250Y-101480000D01*
X105808000Y-101321250D01*
X105808000Y-101067250D01*
X105958750Y-101218000D01*
X106062000Y-101218000D01*
X106062000Y-101321250D01*
X106212750Y-101472000D01*
X105958750Y-101472000D01*
X105800000Y-101630750D01*
X105797084Y-101730886D01*
X105806588Y-101855608D01*
X105840241Y-101976080D01*
X105896751Y-102087672D01*
X105973945Y-102186094D01*
X106068857Y-102267566D01*
X106149532Y-102313010D01*
X104789760Y-102313010D01*
X104686250Y-102209500D01*
X104017000Y-102209500D01*
X104017000Y-102229500D01*
X103763000Y-102229500D01*
X103763000Y-102209500D01*
X103743000Y-102209500D01*
X103743000Y-101955500D01*
X103763000Y-101955500D01*
X103763000Y-101935500D01*
X104017000Y-101935500D01*
X104017000Y-101955500D01*
X104686250Y-101955500D01*
X104845000Y-101796750D01*
X104848072Y-101725000D01*
X104835812Y-101600518D01*
X104799502Y-101480820D01*
X104740537Y-101370506D01*
X104661185Y-101273815D01*
X104564494Y-101194463D01*
X104529636Y-101175831D01*
X104538582Y-101085000D01*
X104538582Y-100913497D01*
X104780080Y-100672000D01*
X105518939Y-100672000D01*
X105535000Y-100673582D01*
%TA.AperFunction,Conductor*%
D47*
G36*
X105535000Y-100673582D02*
G01*
X105860668Y-100673582D01*
X105840241Y-100713920D01*
X105808000Y-100829337D01*
X105808000Y-100718000D01*
X105058750Y-100718000D01*
X104900000Y-100876750D01*
X104912095Y-100983294D01*
X104951044Y-101102160D01*
X105012434Y-101211143D01*
X105093906Y-101306055D01*
X105192328Y-101383249D01*
X105303920Y-101439759D01*
X105424392Y-101473412D01*
X105549114Y-101482916D01*
X105649250Y-101480000D01*
X105808000Y-101321250D01*
X105808000Y-101067250D01*
X105958750Y-101218000D01*
X106062000Y-101218000D01*
X106062000Y-101321250D01*
X106212750Y-101472000D01*
X105958750Y-101472000D01*
X105800000Y-101630750D01*
X105797084Y-101730886D01*
X105806588Y-101855608D01*
X105840241Y-101976080D01*
X105896751Y-102087672D01*
X105973945Y-102186094D01*
X106068857Y-102267566D01*
X106149532Y-102313010D01*
X104789760Y-102313010D01*
X104686250Y-102209500D01*
X104017000Y-102209500D01*
X104017000Y-102229500D01*
X103763000Y-102229500D01*
X103763000Y-102209500D01*
X103743000Y-102209500D01*
X103743000Y-101955500D01*
X103763000Y-101955500D01*
X103763000Y-101935500D01*
X104017000Y-101935500D01*
X104017000Y-101955500D01*
X104686250Y-101955500D01*
X104845000Y-101796750D01*
X104848072Y-101725000D01*
X104835812Y-101600518D01*
X104799502Y-101480820D01*
X104740537Y-101370506D01*
X104661185Y-101273815D01*
X104564494Y-101194463D01*
X104529636Y-101175831D01*
X104538582Y-101085000D01*
X104538582Y-100913497D01*
X104780080Y-100672000D01*
X105518939Y-100672000D01*
X105535000Y-100673582D01*
G37*
%TD.AperFunction*%
D46*
X133110000Y-102304500D02*
X132860000Y-102304500D01*
X132860000Y-102050500D01*
X133110000Y-102050500D01*
X133110000Y-102304500D01*
%TA.AperFunction,Conductor*%
D47*
G36*
X133110000Y-102304500D02*
G01*
X132860000Y-102304500D01*
X132860000Y-102050500D01*
X133110000Y-102050500D01*
X133110000Y-102304500D01*
G37*
%TD.AperFunction*%
D46*
X110108000Y-101243000D02*
X110232000Y-101243000D01*
X110232000Y-101492750D01*
X110211250Y-101472000D01*
X109938000Y-101472000D01*
X109938000Y-101243000D01*
X110062000Y-101243000D01*
X110062000Y-101223000D01*
X110108000Y-101223000D01*
X110108000Y-101243000D01*
%TA.AperFunction,Conductor*%
D47*
G36*
X110108000Y-101243000D02*
G01*
X110232000Y-101243000D01*
X110232000Y-101492750D01*
X110211250Y-101472000D01*
X109938000Y-101472000D01*
X109938000Y-101243000D01*
X110062000Y-101243000D01*
X110062000Y-101223000D01*
X110108000Y-101223000D01*
X110108000Y-101243000D01*
G37*
%TD.AperFunction*%
D46*
X106606418Y-101492000D02*
X106562000Y-101492000D01*
X106562000Y-101472000D01*
X106450663Y-101472000D01*
X106566080Y-101439759D01*
X106606418Y-101419332D01*
X106606418Y-101492000D01*
%TA.AperFunction,Conductor*%
D47*
G36*
X106606418Y-101492000D02*
G01*
X106562000Y-101492000D01*
X106562000Y-101472000D01*
X106450663Y-101472000D01*
X106566080Y-101439759D01*
X106606418Y-101419332D01*
X106606418Y-101492000D01*
G37*
%TD.AperFunction*%
D46*
X134143750Y-99300000D02*
X134248911Y-99287768D01*
X134367738Y-99248701D01*
X134476660Y-99187203D01*
X134485000Y-99180030D01*
X134493340Y-99187203D01*
X134602262Y-99248701D01*
X134654689Y-99265938D01*
X134650000Y-99306250D01*
X134714022Y-99370272D01*
X134762797Y-99456660D01*
X134787902Y-99485848D01*
X134650000Y-99623750D01*
X134662232Y-99728911D01*
X134701299Y-99847738D01*
X134762797Y-99956660D01*
X134769970Y-99965000D01*
X134762797Y-99973340D01*
X134701299Y-100082262D01*
X134662232Y-100201089D01*
X134650000Y-100306250D01*
X134787902Y-100444152D01*
X134762797Y-100473340D01*
X134714022Y-100559728D01*
X134650000Y-100623750D01*
X134660614Y-100715000D01*
X134650000Y-100806250D01*
X134714022Y-100870272D01*
X134762797Y-100956660D01*
X134769970Y-100965000D01*
X134762797Y-100973340D01*
X134714022Y-101059728D01*
X134650000Y-101123750D01*
X134650823Y-101130823D01*
X134643750Y-101130000D01*
X134579728Y-101194022D01*
X134493340Y-101242797D01*
X134464152Y-101267902D01*
X134326250Y-101130000D01*
X134221089Y-101142232D01*
X134102262Y-101181299D01*
X133993340Y-101242797D01*
X133985000Y-101249970D01*
X133976660Y-101242797D01*
X133867738Y-101181299D01*
X133748911Y-101142232D01*
X133643750Y-101130000D01*
X133505848Y-101267902D01*
X133476660Y-101242797D01*
X133390272Y-101194022D01*
X133326250Y-101130000D01*
X133235000Y-101140614D01*
X133143750Y-101130000D01*
X133079728Y-101194022D01*
X132993340Y-101242797D01*
X132985000Y-101249970D01*
X132976660Y-101242797D01*
X132890272Y-101194022D01*
X132826250Y-101130000D01*
X132819177Y-101130823D01*
X132820000Y-101123750D01*
X132755978Y-101059728D01*
X132707203Y-100973340D01*
X132682098Y-100944152D01*
X132820000Y-100806250D01*
X132807768Y-100701089D01*
X132768701Y-100582262D01*
X132707203Y-100473340D01*
X132700030Y-100465000D01*
X132707203Y-100456660D01*
X132768701Y-100347738D01*
X132807768Y-100228911D01*
X132820000Y-100123750D01*
X132661250Y-99965000D01*
X132820000Y-99806250D01*
X132807768Y-99701089D01*
X132768701Y-99582262D01*
X132707203Y-99473340D01*
X132700030Y-99465000D01*
X132707203Y-99456660D01*
X132768701Y-99347738D01*
X132785938Y-99295311D01*
X132826250Y-99300000D01*
X132890272Y-99235978D01*
X132976660Y-99187203D01*
X133005848Y-99162098D01*
X133143750Y-99300000D01*
X133248911Y-99287768D01*
X133367738Y-99248701D01*
X133476660Y-99187203D01*
X133485000Y-99180030D01*
X133493340Y-99187203D01*
X133602262Y-99248701D01*
X133721089Y-99287768D01*
X133826250Y-99300000D01*
X133985000Y-99141250D01*
X134143750Y-99300000D01*
%TA.AperFunction,Conductor*%
D47*
G36*
X134143750Y-99300000D02*
G01*
X134248911Y-99287768D01*
X134367738Y-99248701D01*
X134476660Y-99187203D01*
X134485000Y-99180030D01*
X134493340Y-99187203D01*
X134602262Y-99248701D01*
X134654689Y-99265938D01*
X134650000Y-99306250D01*
X134714022Y-99370272D01*
X134762797Y-99456660D01*
X134787902Y-99485848D01*
X134650000Y-99623750D01*
X134662232Y-99728911D01*
X134701299Y-99847738D01*
X134762797Y-99956660D01*
X134769970Y-99965000D01*
X134762797Y-99973340D01*
X134701299Y-100082262D01*
X134662232Y-100201089D01*
X134650000Y-100306250D01*
X134787902Y-100444152D01*
X134762797Y-100473340D01*
X134714022Y-100559728D01*
X134650000Y-100623750D01*
X134660614Y-100715000D01*
X134650000Y-100806250D01*
X134714022Y-100870272D01*
X134762797Y-100956660D01*
X134769970Y-100965000D01*
X134762797Y-100973340D01*
X134714022Y-101059728D01*
X134650000Y-101123750D01*
X134650823Y-101130823D01*
X134643750Y-101130000D01*
X134579728Y-101194022D01*
X134493340Y-101242797D01*
X134464152Y-101267902D01*
X134326250Y-101130000D01*
X134221089Y-101142232D01*
X134102262Y-101181299D01*
X133993340Y-101242797D01*
X133985000Y-101249970D01*
X133976660Y-101242797D01*
X133867738Y-101181299D01*
X133748911Y-101142232D01*
X133643750Y-101130000D01*
X133505848Y-101267902D01*
X133476660Y-101242797D01*
X133390272Y-101194022D01*
X133326250Y-101130000D01*
X133235000Y-101140614D01*
X133143750Y-101130000D01*
X133079728Y-101194022D01*
X132993340Y-101242797D01*
X132985000Y-101249970D01*
X132976660Y-101242797D01*
X132890272Y-101194022D01*
X132826250Y-101130000D01*
X132819177Y-101130823D01*
X132820000Y-101123750D01*
X132755978Y-101059728D01*
X132707203Y-100973340D01*
X132682098Y-100944152D01*
X132820000Y-100806250D01*
X132807768Y-100701089D01*
X132768701Y-100582262D01*
X132707203Y-100473340D01*
X132700030Y-100465000D01*
X132707203Y-100456660D01*
X132768701Y-100347738D01*
X132807768Y-100228911D01*
X132820000Y-100123750D01*
X132661250Y-99965000D01*
X132820000Y-99806250D01*
X132807768Y-99701089D01*
X132768701Y-99582262D01*
X132707203Y-99473340D01*
X132700030Y-99465000D01*
X132707203Y-99456660D01*
X132768701Y-99347738D01*
X132785938Y-99295311D01*
X132826250Y-99300000D01*
X132890272Y-99235978D01*
X132976660Y-99187203D01*
X133005848Y-99162098D01*
X133143750Y-99300000D01*
X133248911Y-99287768D01*
X133367738Y-99248701D01*
X133476660Y-99187203D01*
X133485000Y-99180030D01*
X133493340Y-99187203D01*
X133602262Y-99248701D01*
X133721089Y-99287768D01*
X133826250Y-99300000D01*
X133985000Y-99141250D01*
X134143750Y-99300000D01*
G37*
%TD.AperFunction*%
D46*
X135824500Y-101090000D02*
X135570500Y-101090000D01*
X135570500Y-100840000D01*
X135824500Y-100840000D01*
X135824500Y-101090000D01*
%TA.AperFunction,Conductor*%
D47*
G36*
X135824500Y-101090000D02*
G01*
X135570500Y-101090000D01*
X135570500Y-100840000D01*
X135824500Y-100840000D01*
X135824500Y-101090000D01*
G37*
%TD.AperFunction*%
D46*
X105012434Y-99178857D02*
X104951044Y-99287840D01*
X104932589Y-99344161D01*
X104900000Y-99376750D01*
X104907748Y-99445000D01*
X104900000Y-99513250D01*
X104932589Y-99545839D01*
X104951044Y-99602160D01*
X105012434Y-99711143D01*
X105018320Y-99718000D01*
X104605915Y-99718000D01*
X104582500Y-99715694D01*
X104559085Y-99718000D01*
X104559077Y-99718000D01*
X104488992Y-99724903D01*
X104399077Y-99752178D01*
X104316211Y-99796471D01*
X104243579Y-99856079D01*
X104228649Y-99874271D01*
X103901502Y-100201418D01*
X103730000Y-100201418D01*
X103634682Y-100210806D01*
X103543028Y-100238609D01*
X103458558Y-100283759D01*
X103384520Y-100344520D01*
X103362000Y-100371961D01*
X103362000Y-99445134D01*
X103426564Y-99509698D01*
X103545636Y-99589259D01*
X103677942Y-99644062D01*
X103818397Y-99672000D01*
X103961603Y-99672000D01*
X104102058Y-99644062D01*
X104234364Y-99589259D01*
X104353436Y-99509698D01*
X104454698Y-99408436D01*
X104534259Y-99289364D01*
X104582873Y-99172000D01*
X105018320Y-99172000D01*
X105012434Y-99178857D01*
%TA.AperFunction,Conductor*%
D47*
G36*
X105012434Y-99178857D02*
G01*
X104951044Y-99287840D01*
X104932589Y-99344161D01*
X104900000Y-99376750D01*
X104907748Y-99445000D01*
X104900000Y-99513250D01*
X104932589Y-99545839D01*
X104951044Y-99602160D01*
X105012434Y-99711143D01*
X105018320Y-99718000D01*
X104605915Y-99718000D01*
X104582500Y-99715694D01*
X104559085Y-99718000D01*
X104559077Y-99718000D01*
X104488992Y-99724903D01*
X104399077Y-99752178D01*
X104316211Y-99796471D01*
X104243579Y-99856079D01*
X104228649Y-99874271D01*
X103901502Y-100201418D01*
X103730000Y-100201418D01*
X103634682Y-100210806D01*
X103543028Y-100238609D01*
X103458558Y-100283759D01*
X103384520Y-100344520D01*
X103362000Y-100371961D01*
X103362000Y-99445134D01*
X103426564Y-99509698D01*
X103545636Y-99589259D01*
X103677942Y-99644062D01*
X103818397Y-99672000D01*
X103961603Y-99672000D01*
X104102058Y-99644062D01*
X104234364Y-99589259D01*
X104353436Y-99509698D01*
X104454698Y-99408436D01*
X104534259Y-99289364D01*
X104582873Y-99172000D01*
X105018320Y-99172000D01*
X105012434Y-99178857D01*
G37*
%TD.AperFunction*%
D46*
X110882000Y-100216418D02*
X110767351Y-100216418D01*
X110760000Y-100215694D01*
X110752649Y-100216418D01*
X110597261Y-100216418D01*
X110597163Y-100173582D01*
X110882000Y-100173582D01*
X110882000Y-100216418D01*
%TA.AperFunction,Conductor*%
D47*
G36*
X110882000Y-100216418D02*
G01*
X110767351Y-100216418D01*
X110760000Y-100215694D01*
X110752649Y-100216418D01*
X110597261Y-100216418D01*
X110597163Y-100173582D01*
X110882000Y-100173582D01*
X110882000Y-100216418D01*
G37*
%TD.AperFunction*%
D46*
X140857000Y-99833000D02*
X140877000Y-99833000D01*
X140877000Y-100087000D01*
X140857000Y-100087000D01*
X140857000Y-100107000D01*
X140603000Y-100107000D01*
X140603000Y-100087000D01*
X140583000Y-100087000D01*
X140583000Y-99833000D01*
X140603000Y-99833000D01*
X140603000Y-99813000D01*
X140857000Y-99813000D01*
X140857000Y-99833000D01*
%TA.AperFunction,Conductor*%
D47*
G36*
X140857000Y-99833000D02*
G01*
X140877000Y-99833000D01*
X140877000Y-100087000D01*
X140857000Y-100087000D01*
X140857000Y-100107000D01*
X140603000Y-100107000D01*
X140603000Y-100087000D01*
X140583000Y-100087000D01*
X140583000Y-99833000D01*
X140603000Y-99833000D01*
X140603000Y-99813000D01*
X140857000Y-99813000D01*
X140857000Y-99833000D01*
G37*
%TD.AperFunction*%
D46*
X131899500Y-100011418D02*
X131731143Y-100011418D01*
X131725000Y-100010813D01*
X131718857Y-100011418D01*
X131645500Y-100011418D01*
X131645500Y-99918582D01*
X131899500Y-99918582D01*
X131899500Y-100011418D01*
%TA.AperFunction,Conductor*%
D47*
G36*
X131899500Y-100011418D02*
G01*
X131731143Y-100011418D01*
X131725000Y-100010813D01*
X131718857Y-100011418D01*
X131645500Y-100011418D01*
X131645500Y-99918582D01*
X131899500Y-99918582D01*
X131899500Y-100011418D01*
G37*
%TD.AperFunction*%
D46*
X142608000Y-98918751D02*
X142535944Y-98836672D01*
X142436670Y-98760576D01*
X142324457Y-98705310D01*
X142203619Y-98672998D01*
X142131750Y-98667600D01*
X141980475Y-98818875D01*
X141931185Y-98758815D01*
X141868378Y-98707271D01*
X142017399Y-98558250D01*
X142012001Y-98486381D01*
X141979689Y-98365543D01*
X141924423Y-98253330D01*
X141848327Y-98154056D01*
X141754326Y-98071534D01*
X141646032Y-98008937D01*
X141527606Y-97968670D01*
X141414149Y-97955000D01*
X141277378Y-98091771D01*
X141254327Y-98071534D01*
X141146033Y-98008937D01*
X141075960Y-97985111D01*
X141045849Y-97955000D01*
X140980000Y-97962934D01*
X140914150Y-97955000D01*
X140884039Y-97985111D01*
X140813966Y-98008937D01*
X140730000Y-98057472D01*
X140646034Y-98008937D01*
X140575961Y-97985111D01*
X140545850Y-97955000D01*
X140480001Y-97962934D01*
X140414151Y-97955000D01*
X140384040Y-97985111D01*
X140313967Y-98008937D01*
X140205673Y-98071534D01*
X140182622Y-98091771D01*
X140045851Y-97955000D01*
X139932394Y-97968670D01*
X139813968Y-98008937D01*
X139705674Y-98071534D01*
X139611673Y-98154056D01*
X139535577Y-98253330D01*
X139480311Y-98365543D01*
X139447999Y-98486381D01*
X139442601Y-98558250D01*
X139591622Y-98707271D01*
X139528815Y-98758815D01*
X139479525Y-98818875D01*
X139328250Y-98667600D01*
X139256381Y-98672998D01*
X139135543Y-98705310D01*
X139023330Y-98760576D01*
X138924056Y-98836672D01*
X138841534Y-98930673D01*
X138778937Y-99038967D01*
X138738670Y-99157393D01*
X138725000Y-99270850D01*
X138782148Y-99327998D01*
X138725000Y-99327998D01*
X138725000Y-99408912D01*
X136745000Y-99408912D01*
X136745000Y-99337998D01*
X136713252Y-99337998D01*
X136745000Y-99306250D01*
X136734386Y-99215000D01*
X136745000Y-99123750D01*
X136680978Y-99059728D01*
X136632203Y-98973340D01*
X136607098Y-98944152D01*
X136745000Y-98806250D01*
X136732768Y-98701089D01*
X136693701Y-98582262D01*
X136632203Y-98473340D01*
X136550638Y-98378508D01*
X136452138Y-98301412D01*
X136340491Y-98245013D01*
X136219986Y-98211479D01*
X136095254Y-98202098D01*
X135983250Y-98205000D01*
X135824500Y-98363750D01*
X135824500Y-98705000D01*
X135743785Y-98705000D01*
X135747902Y-98650254D01*
X135745000Y-98538250D01*
X135586250Y-98379500D01*
X135570500Y-98379500D01*
X135570500Y-98363750D01*
X135411750Y-98205000D01*
X135299746Y-98202098D01*
X135175014Y-98211479D01*
X135054509Y-98245013D01*
X134942862Y-98301412D01*
X134938582Y-98304762D01*
X134938582Y-98125500D01*
X135586250Y-98125500D01*
X135716750Y-97995000D01*
X135809502Y-97995000D01*
X135809502Y-97836252D01*
X135968250Y-97995000D01*
X136050000Y-97998072D01*
X136174482Y-97985812D01*
X136294180Y-97949502D01*
X136404494Y-97890537D01*
X136501185Y-97811185D01*
X136580537Y-97714494D01*
X136639502Y-97604180D01*
X136675812Y-97484482D01*
X136688072Y-97360000D01*
X136685000Y-97335750D01*
X136526250Y-97177000D01*
X135809500Y-97177000D01*
X135809500Y-97197000D01*
X135555500Y-97197000D01*
X135555500Y-97177000D01*
X135535500Y-97177000D01*
X135535500Y-96923000D01*
X135555500Y-96923000D01*
X135555500Y-96263750D01*
X135525500Y-96233750D01*
X135525500Y-96177000D01*
X135779500Y-96177000D01*
X135779500Y-96836250D01*
X135809500Y-96866250D01*
X135809500Y-96923000D01*
X135866250Y-96923000D01*
X135938250Y-96995000D01*
X136020000Y-96998072D01*
X136144482Y-96985812D01*
X136264180Y-96949502D01*
X136313761Y-96923000D01*
X136526250Y-96923000D01*
X136685000Y-96764250D01*
X136688072Y-96740000D01*
X136675812Y-96615518D01*
X136640937Y-96500552D01*
X136645812Y-96484482D01*
X136658072Y-96360000D01*
X136655000Y-96335750D01*
X136496250Y-96177000D01*
X136343761Y-96177000D01*
X136294180Y-96150498D01*
X136174482Y-96114188D01*
X136050000Y-96101928D01*
X135968250Y-96105000D01*
X135896250Y-96177000D01*
X135779500Y-96177000D01*
X135525500Y-96177000D01*
X135505500Y-96177000D01*
X135505500Y-95923000D01*
X135525500Y-95923000D01*
X135525500Y-95263750D01*
X135779500Y-95263750D01*
X135779500Y-95923000D01*
X136496250Y-95923000D01*
X136655000Y-95764250D01*
X136658072Y-95740000D01*
X136645812Y-95615518D01*
X136609502Y-95495820D01*
X136550537Y-95385506D01*
X136471185Y-95288815D01*
X136374494Y-95209463D01*
X136264180Y-95150498D01*
X136144482Y-95114188D01*
X136020000Y-95101928D01*
X135938250Y-95105000D01*
X135779500Y-95263750D01*
X135525500Y-95263750D01*
X135366750Y-95105000D01*
X135324500Y-95103412D01*
X135324500Y-94842000D01*
X142608000Y-94842000D01*
X142608000Y-98918751D01*
%TA.AperFunction,Conductor*%
D47*
G36*
X142608000Y-98918751D02*
G01*
X142535944Y-98836672D01*
X142436670Y-98760576D01*
X142324457Y-98705310D01*
X142203619Y-98672998D01*
X142131750Y-98667600D01*
X141980475Y-98818875D01*
X141931185Y-98758815D01*
X141868378Y-98707271D01*
X142017399Y-98558250D01*
X142012001Y-98486381D01*
X141979689Y-98365543D01*
X141924423Y-98253330D01*
X141848327Y-98154056D01*
X141754326Y-98071534D01*
X141646032Y-98008937D01*
X141527606Y-97968670D01*
X141414149Y-97955000D01*
X141277378Y-98091771D01*
X141254327Y-98071534D01*
X141146033Y-98008937D01*
X141075960Y-97985111D01*
X141045849Y-97955000D01*
X140980000Y-97962934D01*
X140914150Y-97955000D01*
X140884039Y-97985111D01*
X140813966Y-98008937D01*
X140730000Y-98057472D01*
X140646034Y-98008937D01*
X140575961Y-97985111D01*
X140545850Y-97955000D01*
X140480001Y-97962934D01*
X140414151Y-97955000D01*
X140384040Y-97985111D01*
X140313967Y-98008937D01*
X140205673Y-98071534D01*
X140182622Y-98091771D01*
X140045851Y-97955000D01*
X139932394Y-97968670D01*
X139813968Y-98008937D01*
X139705674Y-98071534D01*
X139611673Y-98154056D01*
X139535577Y-98253330D01*
X139480311Y-98365543D01*
X139447999Y-98486381D01*
X139442601Y-98558250D01*
X139591622Y-98707271D01*
X139528815Y-98758815D01*
X139479525Y-98818875D01*
X139328250Y-98667600D01*
X139256381Y-98672998D01*
X139135543Y-98705310D01*
X139023330Y-98760576D01*
X138924056Y-98836672D01*
X138841534Y-98930673D01*
X138778937Y-99038967D01*
X138738670Y-99157393D01*
X138725000Y-99270850D01*
X138782148Y-99327998D01*
X138725000Y-99327998D01*
X138725000Y-99408912D01*
X136745000Y-99408912D01*
X136745000Y-99337998D01*
X136713252Y-99337998D01*
X136745000Y-99306250D01*
X136734386Y-99215000D01*
X136745000Y-99123750D01*
X136680978Y-99059728D01*
X136632203Y-98973340D01*
X136607098Y-98944152D01*
X136745000Y-98806250D01*
X136732768Y-98701089D01*
X136693701Y-98582262D01*
X136632203Y-98473340D01*
X136550638Y-98378508D01*
X136452138Y-98301412D01*
X136340491Y-98245013D01*
X136219986Y-98211479D01*
X136095254Y-98202098D01*
X135983250Y-98205000D01*
X135824500Y-98363750D01*
X135824500Y-98705000D01*
X135743785Y-98705000D01*
X135747902Y-98650254D01*
X135745000Y-98538250D01*
X135586250Y-98379500D01*
X135570500Y-98379500D01*
X135570500Y-98363750D01*
X135411750Y-98205000D01*
X135299746Y-98202098D01*
X135175014Y-98211479D01*
X135054509Y-98245013D01*
X134942862Y-98301412D01*
X134938582Y-98304762D01*
X134938582Y-98125500D01*
X135586250Y-98125500D01*
X135716750Y-97995000D01*
X135809502Y-97995000D01*
X135809502Y-97836252D01*
X135968250Y-97995000D01*
X136050000Y-97998072D01*
X136174482Y-97985812D01*
X136294180Y-97949502D01*
X136404494Y-97890537D01*
X136501185Y-97811185D01*
X136580537Y-97714494D01*
X136639502Y-97604180D01*
X136675812Y-97484482D01*
X136688072Y-97360000D01*
X136685000Y-97335750D01*
X136526250Y-97177000D01*
X135809500Y-97177000D01*
X135809500Y-97197000D01*
X135555500Y-97197000D01*
X135555500Y-97177000D01*
X135535500Y-97177000D01*
X135535500Y-96923000D01*
X135555500Y-96923000D01*
X135555500Y-96263750D01*
X135525500Y-96233750D01*
X135525500Y-96177000D01*
X135779500Y-96177000D01*
X135779500Y-96836250D01*
X135809500Y-96866250D01*
X135809500Y-96923000D01*
X135866250Y-96923000D01*
X135938250Y-96995000D01*
X136020000Y-96998072D01*
X136144482Y-96985812D01*
X136264180Y-96949502D01*
X136313761Y-96923000D01*
X136526250Y-96923000D01*
X136685000Y-96764250D01*
X136688072Y-96740000D01*
X136675812Y-96615518D01*
X136640937Y-96500552D01*
X136645812Y-96484482D01*
X136658072Y-96360000D01*
X136655000Y-96335750D01*
X136496250Y-96177000D01*
X136343761Y-96177000D01*
X136294180Y-96150498D01*
X136174482Y-96114188D01*
X136050000Y-96101928D01*
X135968250Y-96105000D01*
X135896250Y-96177000D01*
X135779500Y-96177000D01*
X135525500Y-96177000D01*
X135505500Y-96177000D01*
X135505500Y-95923000D01*
X135525500Y-95923000D01*
X135525500Y-95263750D01*
X135779500Y-95263750D01*
X135779500Y-95923000D01*
X136496250Y-95923000D01*
X136655000Y-95764250D01*
X136658072Y-95740000D01*
X136645812Y-95615518D01*
X136609502Y-95495820D01*
X136550537Y-95385506D01*
X136471185Y-95288815D01*
X136374494Y-95209463D01*
X136264180Y-95150498D01*
X136144482Y-95114188D01*
X136020000Y-95101928D01*
X135938250Y-95105000D01*
X135779500Y-95263750D01*
X135525500Y-95263750D01*
X135366750Y-95105000D01*
X135324500Y-95103412D01*
X135324500Y-94842000D01*
X142608000Y-94842000D01*
X142608000Y-98918751D01*
G37*
%TD.AperFunction*%
D46*
X110882000Y-99216418D02*
X110588000Y-99216418D01*
X110588000Y-99173582D01*
X110882000Y-99173582D01*
X110882000Y-99216418D01*
%TA.AperFunction,Conductor*%
D47*
G36*
X110882000Y-99216418D02*
G01*
X110588000Y-99216418D01*
X110588000Y-99173582D01*
X110882000Y-99173582D01*
X110882000Y-99216418D01*
G37*
%TD.AperFunction*%
D46*
X108462000Y-98818000D02*
X108482000Y-98818000D01*
X108482000Y-99072000D01*
X108462000Y-99072000D01*
X108462000Y-99092000D01*
X108208000Y-99092000D01*
X108208000Y-99072000D01*
X108188000Y-99072000D01*
X108188000Y-98818000D01*
X108208000Y-98818000D01*
X108208000Y-98798000D01*
X108462000Y-98798000D01*
X108462000Y-98818000D01*
%TA.AperFunction,Conductor*%
D47*
G36*
X108462000Y-98818000D02*
G01*
X108482000Y-98818000D01*
X108482000Y-99072000D01*
X108462000Y-99072000D01*
X108462000Y-99092000D01*
X108208000Y-99092000D01*
X108208000Y-99072000D01*
X108188000Y-99072000D01*
X108188000Y-98818000D01*
X108208000Y-98818000D01*
X108208000Y-98798000D01*
X108462000Y-98798000D01*
X108462000Y-98818000D01*
G37*
%TD.AperFunction*%
D46*
X114664553Y-94820670D02*
X114686522Y-94832383D01*
X114710354Y-94839586D01*
X114735000Y-94842000D01*
X130374347Y-94842000D01*
X130418815Y-94896185D01*
X130515506Y-94975537D01*
X130625820Y-95034502D01*
X130745518Y-95070812D01*
X130870000Y-95083072D01*
X130951750Y-95080000D01*
X131110500Y-94921250D01*
X131110500Y-94842000D01*
X131364500Y-94842000D01*
X131364500Y-94921250D01*
X131523250Y-95080000D01*
X131605000Y-95083072D01*
X131729482Y-95070812D01*
X131849180Y-95034502D01*
X131959494Y-94975537D01*
X132050676Y-94900706D01*
X132054490Y-94902745D01*
X132210380Y-94950034D01*
X132331876Y-94962000D01*
X132699386Y-94962000D01*
X132722582Y-94964285D01*
X132670302Y-95016565D01*
X132590741Y-95135637D01*
X132535938Y-95267943D01*
X132508000Y-95408398D01*
X132508000Y-95551604D01*
X132535938Y-95692059D01*
X132590741Y-95824365D01*
X132670302Y-95943437D01*
X132771564Y-96044699D01*
X132890636Y-96124260D01*
X133008001Y-96172874D01*
X133008000Y-97340750D01*
X133005848Y-97342902D01*
X132976660Y-97317797D01*
X132890272Y-97269022D01*
X132826250Y-97205000D01*
X132735000Y-97215614D01*
X132643750Y-97205000D01*
X132579728Y-97269022D01*
X132493340Y-97317797D01*
X132464152Y-97342902D01*
X132326250Y-97205000D01*
X132221089Y-97217232D01*
X132102262Y-97256299D01*
X131993340Y-97317797D01*
X131898508Y-97399362D01*
X131821412Y-97497862D01*
X131765013Y-97609509D01*
X131731479Y-97730014D01*
X131722098Y-97854746D01*
X131725000Y-97966750D01*
X131883750Y-98125500D01*
X132225000Y-98125500D01*
X132225000Y-98206215D01*
X132170254Y-98202098D01*
X132058250Y-98205000D01*
X131899500Y-98363750D01*
X131899500Y-98379500D01*
X131883750Y-98379500D01*
X131725000Y-98538250D01*
X131722098Y-98650254D01*
X131731479Y-98774986D01*
X131765013Y-98895491D01*
X131821412Y-99007138D01*
X131824762Y-99011418D01*
X131645500Y-99011418D01*
X131645500Y-98363750D01*
X131486750Y-98205000D01*
X131374746Y-98202098D01*
X131250014Y-98211479D01*
X131129509Y-98245013D01*
X131017862Y-98301412D01*
X130919362Y-98378508D01*
X130837797Y-98473340D01*
X130776299Y-98582262D01*
X130737232Y-98701089D01*
X130725000Y-98806250D01*
X130756748Y-98837998D01*
X130725000Y-98837998D01*
X130725000Y-98947639D01*
X128885825Y-98947639D01*
X127788575Y-97850390D01*
X127771316Y-97829360D01*
X127687402Y-97760493D01*
X127591665Y-97709321D01*
X127487785Y-97677809D01*
X127406822Y-97669835D01*
X127406812Y-97669835D01*
X127379753Y-97667170D01*
X127352694Y-97669835D01*
X118147131Y-97669835D01*
X118066168Y-97677809D01*
X118018263Y-97692341D01*
X117806700Y-97692341D01*
X117723088Y-97700576D01*
X117642689Y-97724965D01*
X117606700Y-97744201D01*
X117570711Y-97724965D01*
X117490312Y-97700576D01*
X117406700Y-97692341D01*
X117214246Y-97692341D01*
X117138911Y-97669488D01*
X117057948Y-97661514D01*
X117057938Y-97661514D01*
X117030879Y-97658849D01*
X117003820Y-97661514D01*
X112968715Y-97661514D01*
X112982320Y-97649768D01*
X113059231Y-97551124D01*
X113115420Y-97439370D01*
X113148727Y-97318802D01*
X113157873Y-97194053D01*
X113155000Y-97178250D01*
X112996250Y-97019500D01*
X112393000Y-97019500D01*
X112393000Y-97039500D01*
X112247000Y-97039500D01*
X112247000Y-97019500D01*
X112173000Y-97019500D01*
X112173000Y-96765500D01*
X112247000Y-96765500D01*
X112247000Y-96098750D01*
X112393000Y-96098750D01*
X112393000Y-96765500D01*
X112996250Y-96765500D01*
X113155000Y-96606750D01*
X113157873Y-96590947D01*
X113148727Y-96466198D01*
X113115420Y-96345630D01*
X113059231Y-96233876D01*
X112982320Y-96135232D01*
X112887642Y-96053488D01*
X112778836Y-95991785D01*
X112660083Y-95952495D01*
X112551750Y-95940000D01*
X112393000Y-96098750D01*
X112247000Y-96098750D01*
X112088250Y-95940000D01*
X111987000Y-95951678D01*
X111987000Y-95905577D01*
X112348078Y-95544500D01*
X113135916Y-95544500D01*
X113138142Y-95548664D01*
X113198282Y-95621944D01*
X113271562Y-95682084D01*
X113355167Y-95726772D01*
X113445884Y-95754290D01*
X113540226Y-95763582D01*
X113850226Y-95763582D01*
X113944568Y-95754290D01*
X114035285Y-95726772D01*
X114118890Y-95682084D01*
X114192170Y-95621944D01*
X114252310Y-95548664D01*
X114296998Y-95465059D01*
X114324516Y-95374342D01*
X114333808Y-95280000D01*
X114333808Y-94855000D01*
X114332815Y-94844918D01*
X114359720Y-94830537D01*
X114456411Y-94751185D01*
X114493159Y-94706407D01*
X114664553Y-94820670D01*
%TA.AperFunction,Conductor*%
D47*
G36*
X114664553Y-94820670D02*
G01*
X114686522Y-94832383D01*
X114710354Y-94839586D01*
X114735000Y-94842000D01*
X130374347Y-94842000D01*
X130418815Y-94896185D01*
X130515506Y-94975537D01*
X130625820Y-95034502D01*
X130745518Y-95070812D01*
X130870000Y-95083072D01*
X130951750Y-95080000D01*
X131110500Y-94921250D01*
X131110500Y-94842000D01*
X131364500Y-94842000D01*
X131364500Y-94921250D01*
X131523250Y-95080000D01*
X131605000Y-95083072D01*
X131729482Y-95070812D01*
X131849180Y-95034502D01*
X131959494Y-94975537D01*
X132050676Y-94900706D01*
X132054490Y-94902745D01*
X132210380Y-94950034D01*
X132331876Y-94962000D01*
X132699386Y-94962000D01*
X132722582Y-94964285D01*
X132670302Y-95016565D01*
X132590741Y-95135637D01*
X132535938Y-95267943D01*
X132508000Y-95408398D01*
X132508000Y-95551604D01*
X132535938Y-95692059D01*
X132590741Y-95824365D01*
X132670302Y-95943437D01*
X132771564Y-96044699D01*
X132890636Y-96124260D01*
X133008001Y-96172874D01*
X133008000Y-97340750D01*
X133005848Y-97342902D01*
X132976660Y-97317797D01*
X132890272Y-97269022D01*
X132826250Y-97205000D01*
X132735000Y-97215614D01*
X132643750Y-97205000D01*
X132579728Y-97269022D01*
X132493340Y-97317797D01*
X132464152Y-97342902D01*
X132326250Y-97205000D01*
X132221089Y-97217232D01*
X132102262Y-97256299D01*
X131993340Y-97317797D01*
X131898508Y-97399362D01*
X131821412Y-97497862D01*
X131765013Y-97609509D01*
X131731479Y-97730014D01*
X131722098Y-97854746D01*
X131725000Y-97966750D01*
X131883750Y-98125500D01*
X132225000Y-98125500D01*
X132225000Y-98206215D01*
X132170254Y-98202098D01*
X132058250Y-98205000D01*
X131899500Y-98363750D01*
X131899500Y-98379500D01*
X131883750Y-98379500D01*
X131725000Y-98538250D01*
X131722098Y-98650254D01*
X131731479Y-98774986D01*
X131765013Y-98895491D01*
X131821412Y-99007138D01*
X131824762Y-99011418D01*
X131645500Y-99011418D01*
X131645500Y-98363750D01*
X131486750Y-98205000D01*
X131374746Y-98202098D01*
X131250014Y-98211479D01*
X131129509Y-98245013D01*
X131017862Y-98301412D01*
X130919362Y-98378508D01*
X130837797Y-98473340D01*
X130776299Y-98582262D01*
X130737232Y-98701089D01*
X130725000Y-98806250D01*
X130756748Y-98837998D01*
X130725000Y-98837998D01*
X130725000Y-98947639D01*
X128885825Y-98947639D01*
X127788575Y-97850390D01*
X127771316Y-97829360D01*
X127687402Y-97760493D01*
X127591665Y-97709321D01*
X127487785Y-97677809D01*
X127406822Y-97669835D01*
X127406812Y-97669835D01*
X127379753Y-97667170D01*
X127352694Y-97669835D01*
X118147131Y-97669835D01*
X118066168Y-97677809D01*
X118018263Y-97692341D01*
X117806700Y-97692341D01*
X117723088Y-97700576D01*
X117642689Y-97724965D01*
X117606700Y-97744201D01*
X117570711Y-97724965D01*
X117490312Y-97700576D01*
X117406700Y-97692341D01*
X117214246Y-97692341D01*
X117138911Y-97669488D01*
X117057948Y-97661514D01*
X117057938Y-97661514D01*
X117030879Y-97658849D01*
X117003820Y-97661514D01*
X112968715Y-97661514D01*
X112982320Y-97649768D01*
X113059231Y-97551124D01*
X113115420Y-97439370D01*
X113148727Y-97318802D01*
X113157873Y-97194053D01*
X113155000Y-97178250D01*
X112996250Y-97019500D01*
X112393000Y-97019500D01*
X112393000Y-97039500D01*
X112247000Y-97039500D01*
X112247000Y-97019500D01*
X112173000Y-97019500D01*
X112173000Y-96765500D01*
X112247000Y-96765500D01*
X112247000Y-96098750D01*
X112393000Y-96098750D01*
X112393000Y-96765500D01*
X112996250Y-96765500D01*
X113155000Y-96606750D01*
X113157873Y-96590947D01*
X113148727Y-96466198D01*
X113115420Y-96345630D01*
X113059231Y-96233876D01*
X112982320Y-96135232D01*
X112887642Y-96053488D01*
X112778836Y-95991785D01*
X112660083Y-95952495D01*
X112551750Y-95940000D01*
X112393000Y-96098750D01*
X112247000Y-96098750D01*
X112088250Y-95940000D01*
X111987000Y-95951678D01*
X111987000Y-95905577D01*
X112348078Y-95544500D01*
X113135916Y-95544500D01*
X113138142Y-95548664D01*
X113198282Y-95621944D01*
X113271562Y-95682084D01*
X113355167Y-95726772D01*
X113445884Y-95754290D01*
X113540226Y-95763582D01*
X113850226Y-95763582D01*
X113944568Y-95754290D01*
X114035285Y-95726772D01*
X114118890Y-95682084D01*
X114192170Y-95621944D01*
X114252310Y-95548664D01*
X114296998Y-95465059D01*
X114324516Y-95374342D01*
X114333808Y-95280000D01*
X114333808Y-94855000D01*
X114332815Y-94844918D01*
X114359720Y-94830537D01*
X114456411Y-94751185D01*
X114493159Y-94706407D01*
X114664553Y-94820670D01*
G37*
%TD.AperFunction*%
D46*
X134031418Y-98379500D02*
X133938582Y-98379500D01*
X133938582Y-98125500D01*
X134031418Y-98125500D01*
X134031418Y-98379500D01*
%TA.AperFunction,Conductor*%
D47*
G36*
X134031418Y-98379500D02*
G01*
X133938582Y-98379500D01*
X133938582Y-98125500D01*
X134031418Y-98125500D01*
X134031418Y-98379500D01*
G37*
%TD.AperFunction*%
D46*
X110862000Y-97172000D02*
X110882000Y-97172000D01*
X110882000Y-97216418D01*
X110809332Y-97216418D01*
X110829759Y-97176080D01*
X110862000Y-97060663D01*
X110862000Y-97172000D01*
%TA.AperFunction,Conductor*%
D47*
G36*
X110862000Y-97172000D02*
G01*
X110882000Y-97172000D01*
X110882000Y-97216418D01*
X110809332Y-97216418D01*
X110829759Y-97176080D01*
X110862000Y-97060663D01*
X110862000Y-97172000D01*
G37*
%TD.AperFunction*%
D46*
X113522798Y-94059500D02*
X112908976Y-94059500D01*
X112750226Y-94218250D01*
X112747154Y-94300000D01*
X112759414Y-94424482D01*
X112795724Y-94544180D01*
X112820483Y-94590500D01*
X112173913Y-94590500D01*
X112150498Y-94588194D01*
X112127083Y-94590500D01*
X112127075Y-94590500D01*
X112056990Y-94597403D01*
X111967075Y-94624678D01*
X111884209Y-94668971D01*
X111811577Y-94728579D01*
X111796647Y-94746771D01*
X111189271Y-95354148D01*
X111171080Y-95369077D01*
X111156151Y-95387268D01*
X111156148Y-95387271D01*
X111146696Y-95398789D01*
X111111472Y-95441709D01*
X111110269Y-95443960D01*
X111067178Y-95524576D01*
X111039903Y-95614491D01*
X111030694Y-95707998D01*
X111033001Y-95731423D01*
X111033001Y-96409643D01*
X111020750Y-96410000D01*
X110862000Y-96568750D01*
X110862000Y-96822750D01*
X110711250Y-96672000D01*
X110608000Y-96672000D01*
X110608000Y-96568750D01*
X110457250Y-96418000D01*
X110711250Y-96418000D01*
X110870000Y-96259250D01*
X110872916Y-96159114D01*
X110863412Y-96034392D01*
X110829759Y-95913920D01*
X110773249Y-95802328D01*
X110696055Y-95703906D01*
X110601143Y-95622434D01*
X110492160Y-95561044D01*
X110373294Y-95522095D01*
X110266750Y-95510000D01*
X110108000Y-95668750D01*
X110108000Y-96418000D01*
X110219337Y-96418000D01*
X110103920Y-96450241D01*
X110063582Y-96470668D01*
X110063582Y-96145000D01*
X110062000Y-96128939D01*
X110062000Y-95668750D01*
X109903250Y-95510000D01*
X109796706Y-95522095D01*
X109677840Y-95561044D01*
X109568857Y-95622434D01*
X109473945Y-95703906D01*
X109396751Y-95802328D01*
X109387233Y-95821123D01*
X109370897Y-95822732D01*
X109335000Y-95833621D01*
X109299103Y-95822732D01*
X109235000Y-95816418D01*
X109037000Y-95816418D01*
X109037000Y-95334804D01*
X109039187Y-95312599D01*
X109030460Y-95223992D01*
X109004614Y-95138790D01*
X108984087Y-95100387D01*
X108962643Y-95060267D01*
X108906159Y-94991441D01*
X108888905Y-94977281D01*
X108466545Y-94554922D01*
X108452381Y-94537663D01*
X108383555Y-94481179D01*
X108305032Y-94439208D01*
X108219829Y-94413362D01*
X108153427Y-94406822D01*
X108131222Y-94404635D01*
X108119700Y-94405770D01*
X108119700Y-93842000D01*
X113196548Y-93842000D01*
X113522798Y-94059500D01*
%TA.AperFunction,Conductor*%
D47*
G36*
X113522798Y-94059500D02*
G01*
X112908976Y-94059500D01*
X112750226Y-94218250D01*
X112747154Y-94300000D01*
X112759414Y-94424482D01*
X112795724Y-94544180D01*
X112820483Y-94590500D01*
X112173913Y-94590500D01*
X112150498Y-94588194D01*
X112127083Y-94590500D01*
X112127075Y-94590500D01*
X112056990Y-94597403D01*
X111967075Y-94624678D01*
X111884209Y-94668971D01*
X111811577Y-94728579D01*
X111796647Y-94746771D01*
X111189271Y-95354148D01*
X111171080Y-95369077D01*
X111156151Y-95387268D01*
X111156148Y-95387271D01*
X111146696Y-95398789D01*
X111111472Y-95441709D01*
X111110269Y-95443960D01*
X111067178Y-95524576D01*
X111039903Y-95614491D01*
X111030694Y-95707998D01*
X111033001Y-95731423D01*
X111033001Y-96409643D01*
X111020750Y-96410000D01*
X110862000Y-96568750D01*
X110862000Y-96822750D01*
X110711250Y-96672000D01*
X110608000Y-96672000D01*
X110608000Y-96568750D01*
X110457250Y-96418000D01*
X110711250Y-96418000D01*
X110870000Y-96259250D01*
X110872916Y-96159114D01*
X110863412Y-96034392D01*
X110829759Y-95913920D01*
X110773249Y-95802328D01*
X110696055Y-95703906D01*
X110601143Y-95622434D01*
X110492160Y-95561044D01*
X110373294Y-95522095D01*
X110266750Y-95510000D01*
X110108000Y-95668750D01*
X110108000Y-96418000D01*
X110219337Y-96418000D01*
X110103920Y-96450241D01*
X110063582Y-96470668D01*
X110063582Y-96145000D01*
X110062000Y-96128939D01*
X110062000Y-95668750D01*
X109903250Y-95510000D01*
X109796706Y-95522095D01*
X109677840Y-95561044D01*
X109568857Y-95622434D01*
X109473945Y-95703906D01*
X109396751Y-95802328D01*
X109387233Y-95821123D01*
X109370897Y-95822732D01*
X109335000Y-95833621D01*
X109299103Y-95822732D01*
X109235000Y-95816418D01*
X109037000Y-95816418D01*
X109037000Y-95334804D01*
X109039187Y-95312599D01*
X109030460Y-95223992D01*
X109004614Y-95138790D01*
X108984087Y-95100387D01*
X108962643Y-95060267D01*
X108906159Y-94991441D01*
X108888905Y-94977281D01*
X108466545Y-94554922D01*
X108452381Y-94537663D01*
X108383555Y-94481179D01*
X108305032Y-94439208D01*
X108219829Y-94413362D01*
X108153427Y-94406822D01*
X108131222Y-94404635D01*
X108119700Y-94405770D01*
X108119700Y-93842000D01*
X113196548Y-93842000D01*
X113522798Y-94059500D01*
G37*
%TD.AperFunction*%
D46*
X105438246Y-96193257D02*
X105548560Y-96252222D01*
X105668258Y-96288532D01*
X105792740Y-96300792D01*
X105863869Y-96298119D01*
X105958750Y-96393000D01*
X106433750Y-96393000D01*
X106458750Y-96418000D01*
X106732000Y-96418000D01*
X106732000Y-96647000D01*
X106608000Y-96647000D01*
X106608000Y-96667000D01*
X106562000Y-96667000D01*
X106562000Y-96647000D01*
X105958750Y-96647000D01*
X105889332Y-96716418D01*
X105535000Y-96716418D01*
X105518939Y-96718000D01*
X105122250Y-96718000D01*
X105116772Y-96699941D01*
X105072084Y-96616336D01*
X105011944Y-96543056D01*
X104938664Y-96482916D01*
X104933747Y-96480288D01*
X104927597Y-96417852D01*
X104922538Y-96401173D01*
X104942600Y-96402032D01*
X105067082Y-96389772D01*
X105186780Y-96353462D01*
X105297094Y-96294497D01*
X105393785Y-96215145D01*
X105422412Y-96180263D01*
X105438246Y-96193257D01*
%TA.AperFunction,Conductor*%
D47*
G36*
X105438246Y-96193257D02*
G01*
X105548560Y-96252222D01*
X105668258Y-96288532D01*
X105792740Y-96300792D01*
X105863869Y-96298119D01*
X105958750Y-96393000D01*
X106433750Y-96393000D01*
X106458750Y-96418000D01*
X106732000Y-96418000D01*
X106732000Y-96647000D01*
X106608000Y-96647000D01*
X106608000Y-96667000D01*
X106562000Y-96667000D01*
X106562000Y-96647000D01*
X105958750Y-96647000D01*
X105889332Y-96716418D01*
X105535000Y-96716418D01*
X105518939Y-96718000D01*
X105122250Y-96718000D01*
X105116772Y-96699941D01*
X105072084Y-96616336D01*
X105011944Y-96543056D01*
X104938664Y-96482916D01*
X104933747Y-96480288D01*
X104927597Y-96417852D01*
X104922538Y-96401173D01*
X104942600Y-96402032D01*
X105067082Y-96389772D01*
X105186780Y-96353462D01*
X105297094Y-96294497D01*
X105393785Y-96215145D01*
X105422412Y-96180263D01*
X105438246Y-96193257D01*
G37*
%TD.AperFunction*%
D46*
X105164388Y-93881918D02*
X105152128Y-94006400D01*
X105155200Y-94030650D01*
X105313950Y-94189400D01*
X106030700Y-94189400D01*
X106030700Y-94169400D01*
X106284700Y-94169400D01*
X106284700Y-94189400D01*
X106304700Y-94189400D01*
X106304700Y-94443400D01*
X106284700Y-94443400D01*
X106284700Y-95102650D01*
X106287240Y-95105190D01*
X106287240Y-95225720D01*
X106307240Y-95225720D01*
X106307240Y-95479720D01*
X106287240Y-95479720D01*
X106287240Y-95499720D01*
X106033240Y-95499720D01*
X106033240Y-95479720D01*
X105316490Y-95479720D01*
X105225250Y-95570960D01*
X104712100Y-95570960D01*
X104712100Y-95590960D01*
X104458100Y-95590960D01*
X104458100Y-95570960D01*
X104438100Y-95570960D01*
X104438100Y-95316960D01*
X104458100Y-95316960D01*
X104458100Y-94647710D01*
X104712100Y-94647710D01*
X104712100Y-95316960D01*
X105418850Y-95316960D01*
X105510090Y-95225720D01*
X105578386Y-95225720D01*
X105665718Y-95252212D01*
X105790200Y-95264472D01*
X105871950Y-95261400D01*
X105907630Y-95225720D01*
X106033240Y-95225720D01*
X106033240Y-94566470D01*
X106030700Y-94563930D01*
X106030700Y-94443400D01*
X105910170Y-94443400D01*
X105874490Y-94407720D01*
X105792740Y-94404648D01*
X105668258Y-94416908D01*
X105580926Y-94443400D01*
X105313950Y-94443400D01*
X105210313Y-94547037D01*
X105186780Y-94534458D01*
X105067082Y-94498148D01*
X104942600Y-94485888D01*
X104870850Y-94488960D01*
X104712100Y-94647710D01*
X104458100Y-94647710D01*
X104299350Y-94488960D01*
X104227600Y-94485888D01*
X104103118Y-94498148D01*
X103983420Y-94534458D01*
X103873106Y-94593423D01*
X103776415Y-94672775D01*
X103697063Y-94769466D01*
X103678431Y-94804324D01*
X103587600Y-94795378D01*
X103362000Y-94795378D01*
X103362000Y-93842000D01*
X105176497Y-93842000D01*
X105164388Y-93881918D01*
%TA.AperFunction,Conductor*%
D47*
G36*
X105164388Y-93881918D02*
G01*
X105152128Y-94006400D01*
X105155200Y-94030650D01*
X105313950Y-94189400D01*
X106030700Y-94189400D01*
X106030700Y-94169400D01*
X106284700Y-94169400D01*
X106284700Y-94189400D01*
X106304700Y-94189400D01*
X106304700Y-94443400D01*
X106284700Y-94443400D01*
X106284700Y-95102650D01*
X106287240Y-95105190D01*
X106287240Y-95225720D01*
X106307240Y-95225720D01*
X106307240Y-95479720D01*
X106287240Y-95479720D01*
X106287240Y-95499720D01*
X106033240Y-95499720D01*
X106033240Y-95479720D01*
X105316490Y-95479720D01*
X105225250Y-95570960D01*
X104712100Y-95570960D01*
X104712100Y-95590960D01*
X104458100Y-95590960D01*
X104458100Y-95570960D01*
X104438100Y-95570960D01*
X104438100Y-95316960D01*
X104458100Y-95316960D01*
X104458100Y-94647710D01*
X104712100Y-94647710D01*
X104712100Y-95316960D01*
X105418850Y-95316960D01*
X105510090Y-95225720D01*
X105578386Y-95225720D01*
X105665718Y-95252212D01*
X105790200Y-95264472D01*
X105871950Y-95261400D01*
X105907630Y-95225720D01*
X106033240Y-95225720D01*
X106033240Y-94566470D01*
X106030700Y-94563930D01*
X106030700Y-94443400D01*
X105910170Y-94443400D01*
X105874490Y-94407720D01*
X105792740Y-94404648D01*
X105668258Y-94416908D01*
X105580926Y-94443400D01*
X105313950Y-94443400D01*
X105210313Y-94547037D01*
X105186780Y-94534458D01*
X105067082Y-94498148D01*
X104942600Y-94485888D01*
X104870850Y-94488960D01*
X104712100Y-94647710D01*
X104458100Y-94647710D01*
X104299350Y-94488960D01*
X104227600Y-94485888D01*
X104103118Y-94498148D01*
X103983420Y-94534458D01*
X103873106Y-94593423D01*
X103776415Y-94672775D01*
X103697063Y-94769466D01*
X103678431Y-94804324D01*
X103587600Y-94795378D01*
X103362000Y-94795378D01*
X103362000Y-93842000D01*
X105176497Y-93842000D01*
X105164388Y-93881918D01*
G37*
%TD.AperFunction*%
%TD*%
M02*
